%TF.GenerationSoftware,KiCad,Pcbnew,(6.0.0-0)*%
%TF.CreationDate,2022-04-20T00:31:43+02:00*%
%TF.ProjectId,STM32G4_PCB,53544d33-3247-4345-9f50-43422e6b6963,rev?*%
%TF.SameCoordinates,Original*%
%TF.FileFunction,Copper,L1,Top*%
%TF.FilePolarity,Positive*%
%FSLAX46Y46*%
G04 Gerber Fmt 4.6, Leading zero omitted, Abs format (unit mm)*
G04 Created by KiCad (PCBNEW (6.0.0-0)) date 2022-04-20 00:31:43*
%MOMM*%
%LPD*%
G01*
G04 APERTURE LIST*
G04 Aperture macros list*
%AMRoundRect*
0 Rectangle with rounded corners*
0 $1 Rounding radius*
0 $2 $3 $4 $5 $6 $7 $8 $9 X,Y pos of 4 corners*
0 Add a 4 corners polygon primitive as box body*
4,1,4,$2,$3,$4,$5,$6,$7,$8,$9,$2,$3,0*
0 Add four circle primitives for the rounded corners*
1,1,$1+$1,$2,$3*
1,1,$1+$1,$4,$5*
1,1,$1+$1,$6,$7*
1,1,$1+$1,$8,$9*
0 Add four rect primitives between the rounded corners*
20,1,$1+$1,$2,$3,$4,$5,0*
20,1,$1+$1,$4,$5,$6,$7,0*
20,1,$1+$1,$6,$7,$8,$9,0*
20,1,$1+$1,$8,$9,$2,$3,0*%
%AMRotRect*
0 Rectangle, with rotation*
0 The origin of the aperture is its center*
0 $1 length*
0 $2 width*
0 $3 Rotation angle, in degrees counterclockwise*
0 Add horizontal line*
21,1,$1,$2,0,0,$3*%
G04 Aperture macros list end*
%TA.AperFunction,SMDPad,CuDef*%
%ADD10R,0.750000X1.000000*%
%TD*%
%TA.AperFunction,ComponentPad*%
%ADD11O,1.700000X1.700000*%
%TD*%
%TA.AperFunction,ComponentPad*%
%ADD12R,1.700000X1.700000*%
%TD*%
%TA.AperFunction,SMDPad,CuDef*%
%ADD13RoundRect,0.140000X0.219203X0.021213X0.021213X0.219203X-0.219203X-0.021213X-0.021213X-0.219203X0*%
%TD*%
%TA.AperFunction,SMDPad,CuDef*%
%ADD14RoundRect,0.135000X-0.185000X0.135000X-0.185000X-0.135000X0.185000X-0.135000X0.185000X0.135000X0*%
%TD*%
%TA.AperFunction,SMDPad,CuDef*%
%ADD15RoundRect,0.135000X0.185000X-0.135000X0.185000X0.135000X-0.185000X0.135000X-0.185000X-0.135000X0*%
%TD*%
%TA.AperFunction,SMDPad,CuDef*%
%ADD16RoundRect,0.135000X-0.135000X-0.185000X0.135000X-0.185000X0.135000X0.185000X-0.135000X0.185000X0*%
%TD*%
%TA.AperFunction,SMDPad,CuDef*%
%ADD17RoundRect,0.135000X-0.226274X-0.035355X-0.035355X-0.226274X0.226274X0.035355X0.035355X0.226274X0*%
%TD*%
%TA.AperFunction,SMDPad,CuDef*%
%ADD18RoundRect,0.140000X0.021213X-0.219203X0.219203X-0.021213X-0.021213X0.219203X-0.219203X0.021213X0*%
%TD*%
%TA.AperFunction,SMDPad,CuDef*%
%ADD19RoundRect,0.140000X-0.140000X-0.170000X0.140000X-0.170000X0.140000X0.170000X-0.140000X0.170000X0*%
%TD*%
%TA.AperFunction,SMDPad,CuDef*%
%ADD20R,0.450000X1.380000*%
%TD*%
%TA.AperFunction,SMDPad,CuDef*%
%ADD21R,1.425000X1.550000*%
%TD*%
%TA.AperFunction,SMDPad,CuDef*%
%ADD22R,1.650000X1.300000*%
%TD*%
%TA.AperFunction,SMDPad,CuDef*%
%ADD23R,1.800000X1.900000*%
%TD*%
%TA.AperFunction,SMDPad,CuDef*%
%ADD24R,1.000000X1.900000*%
%TD*%
%TA.AperFunction,SMDPad,CuDef*%
%ADD25RoundRect,0.140000X-0.021213X0.219203X-0.219203X0.021213X0.021213X-0.219203X0.219203X-0.021213X0*%
%TD*%
%TA.AperFunction,SMDPad,CuDef*%
%ADD26RoundRect,0.140000X0.140000X0.170000X-0.140000X0.170000X-0.140000X-0.170000X0.140000X-0.170000X0*%
%TD*%
%TA.AperFunction,SMDPad,CuDef*%
%ADD27RoundRect,0.225000X0.225000X0.250000X-0.225000X0.250000X-0.225000X-0.250000X0.225000X-0.250000X0*%
%TD*%
%TA.AperFunction,SMDPad,CuDef*%
%ADD28RotRect,0.304800X0.812800X315.000000*%
%TD*%
%TA.AperFunction,SMDPad,CuDef*%
%ADD29RotRect,0.304800X0.812800X225.000000*%
%TD*%
%TA.AperFunction,SMDPad,CuDef*%
%ADD30RotRect,5.689600X5.689600X225.000000*%
%TD*%
%TA.AperFunction,SMDPad,CuDef*%
%ADD31RoundRect,0.140000X0.170000X-0.140000X0.170000X0.140000X-0.170000X0.140000X-0.170000X-0.140000X0*%
%TD*%
%TA.AperFunction,SMDPad,CuDef*%
%ADD32RoundRect,0.225000X-0.225000X-0.250000X0.225000X-0.250000X0.225000X0.250000X-0.225000X0.250000X0*%
%TD*%
%TA.AperFunction,SMDPad,CuDef*%
%ADD33R,1.200000X1.400000*%
%TD*%
%TA.AperFunction,SMDPad,CuDef*%
%ADD34R,1.800000X1.000000*%
%TD*%
%TA.AperFunction,SMDPad,CuDef*%
%ADD35R,0.700000X1.500000*%
%TD*%
%TA.AperFunction,SMDPad,CuDef*%
%ADD36R,1.000000X0.800000*%
%TD*%
%TA.AperFunction,SMDPad,CuDef*%
%ADD37RoundRect,0.225000X0.017678X-0.335876X0.335876X-0.017678X-0.017678X0.335876X-0.335876X0.017678X0*%
%TD*%
%TA.AperFunction,SMDPad,CuDef*%
%ADD38RoundRect,0.140000X-0.219203X-0.021213X-0.021213X-0.219203X0.219203X0.021213X0.021213X0.219203X0*%
%TD*%
%TA.AperFunction,SMDPad,CuDef*%
%ADD39RoundRect,0.150000X0.512500X0.150000X-0.512500X0.150000X-0.512500X-0.150000X0.512500X-0.150000X0*%
%TD*%
%TA.AperFunction,SMDPad,CuDef*%
%ADD40RoundRect,0.150000X0.150000X-0.512500X0.150000X0.512500X-0.150000X0.512500X-0.150000X-0.512500X0*%
%TD*%
%TA.AperFunction,ViaPad*%
%ADD41C,0.800000*%
%TD*%
%TA.AperFunction,Conductor*%
%ADD42C,0.254000*%
%TD*%
%TA.AperFunction,Conductor*%
%ADD43C,0.800000*%
%TD*%
%TA.AperFunction,Conductor*%
%ADD44C,0.261112*%
%TD*%
%TA.AperFunction,Conductor*%
%ADD45C,0.500000*%
%TD*%
G04 APERTURE END LIST*
D10*
X92452000Y-139320500D03*
X92452000Y-133320500D03*
X96202000Y-139320500D03*
X96202000Y-133320500D03*
D11*
X99060000Y-114300000D03*
X99060000Y-116840000D03*
X99060000Y-119380000D03*
X99060000Y-121920000D03*
X99060000Y-124460000D03*
X99060000Y-127000000D03*
X99060000Y-129540000D03*
X99060000Y-132080000D03*
X99060000Y-134620000D03*
X99060000Y-137160000D03*
X99060000Y-139700000D03*
D12*
X99060000Y-142240000D03*
D11*
X66040000Y-114300000D03*
X66040000Y-116840000D03*
X66040000Y-119380000D03*
X66040000Y-121920000D03*
X66040000Y-124460000D03*
X66040000Y-127000000D03*
X66040000Y-129540000D03*
X66040000Y-132080000D03*
X66040000Y-134620000D03*
X66040000Y-137160000D03*
X66040000Y-139700000D03*
D12*
X66040000Y-142240000D03*
X68580000Y-111760000D03*
D11*
X71120000Y-111760000D03*
X73660000Y-111760000D03*
X76200000Y-111760000D03*
X78740000Y-111760000D03*
X81280000Y-111760000D03*
X83820000Y-111760000D03*
X86360000Y-111760000D03*
X88900000Y-111760000D03*
X91440000Y-111760000D03*
X93980000Y-111760000D03*
X96520000Y-111760000D03*
X85799000Y-139252000D03*
X88339000Y-139252000D03*
X85799000Y-136712000D03*
X88339000Y-136712000D03*
X85799000Y-134172000D03*
D12*
X88339000Y-134172000D03*
D13*
X77572589Y-138026589D03*
X78251411Y-138705411D03*
D14*
X90845000Y-137732000D03*
X90845000Y-136712000D03*
D15*
X94547000Y-131845000D03*
X94547000Y-132865000D03*
D16*
X93276000Y-140843000D03*
X92256000Y-140843000D03*
D17*
X95889376Y-120139376D03*
X96610624Y-120860624D03*
D14*
X86282142Y-118679968D03*
X86282142Y-117659968D03*
D18*
X78205526Y-121060876D03*
X77526704Y-121739698D03*
D19*
X91767999Y-116593000D03*
X92727999Y-116593000D03*
D18*
X77413567Y-120268916D03*
X76734745Y-120947738D03*
X88886178Y-126134822D03*
X89565000Y-125456000D03*
D20*
X79794000Y-142082000D03*
X80444000Y-142082000D03*
X81094000Y-142082000D03*
X81744000Y-142082000D03*
X82394000Y-142082000D03*
D21*
X78606500Y-142167000D03*
X83581500Y-142167000D03*
D22*
X77719000Y-144742000D03*
D23*
X79944000Y-144742000D03*
D24*
X82644000Y-144742000D03*
D22*
X84469000Y-144742000D03*
D25*
X76659083Y-124464181D03*
X75980261Y-125143003D03*
D26*
X89399142Y-121655967D03*
X88439142Y-121655967D03*
D27*
X71901500Y-141936000D03*
X70351500Y-141936000D03*
D25*
X76792020Y-122441856D03*
X76113198Y-123120678D03*
D19*
X91774000Y-121690999D03*
X92734000Y-121690999D03*
D27*
X75151500Y-141961000D03*
X73601500Y-141961000D03*
D19*
X88659142Y-116315967D03*
X87699142Y-116315967D03*
D28*
X87147173Y-125559914D03*
X86793621Y-125206361D03*
X86440066Y-124852806D03*
X86086513Y-124499254D03*
X85732960Y-124145701D03*
X85379406Y-123792147D03*
X85025853Y-123438594D03*
X84672299Y-123085040D03*
X84318746Y-122731487D03*
X83965194Y-122377934D03*
X83611639Y-122024379D03*
X83258086Y-121670827D03*
D29*
X82261914Y-121670827D03*
X81908361Y-122024379D03*
X81554806Y-122377934D03*
X81201254Y-122731487D03*
X80847701Y-123085040D03*
X80494147Y-123438594D03*
X80140594Y-123792147D03*
X79787040Y-124145701D03*
X79433487Y-124499254D03*
X79079934Y-124852806D03*
X78726379Y-125206361D03*
X78372827Y-125559914D03*
D28*
X78372827Y-126556086D03*
X78726379Y-126909639D03*
X79079934Y-127263194D03*
X79433487Y-127616746D03*
X79787040Y-127970299D03*
X80140594Y-128323853D03*
X80494147Y-128677406D03*
X80847701Y-129030960D03*
X81201254Y-129384513D03*
X81554806Y-129738066D03*
X81908361Y-130091621D03*
X82261914Y-130445173D03*
D29*
X83258086Y-130445173D03*
X83611639Y-130091621D03*
X83965194Y-129738066D03*
X84318746Y-129384513D03*
X84672299Y-129030960D03*
X85025853Y-128677406D03*
X85379406Y-128323853D03*
X85732960Y-127970299D03*
X86086513Y-127616746D03*
X86440066Y-127263194D03*
X86793621Y-126909639D03*
X87147173Y-126556086D03*
D30*
X82760000Y-126058000D03*
D25*
X76000060Y-121649896D03*
X75321238Y-122328718D03*
D31*
X90845000Y-134807000D03*
X90845000Y-133847000D03*
D32*
X71968500Y-136569000D03*
X73518500Y-136569000D03*
D33*
X87699141Y-120085967D03*
X87699141Y-117885967D03*
X89399141Y-117885967D03*
X89399141Y-120085967D03*
D34*
X91768000Y-120363000D03*
X91768000Y-117863000D03*
D35*
X94833000Y-142494000D03*
X93333000Y-142494000D03*
X90333000Y-142494000D03*
D36*
X88933000Y-145354000D03*
X96233000Y-145354000D03*
X88933000Y-143144000D03*
X96233000Y-143144000D03*
D37*
X89946838Y-127195483D03*
X91042854Y-126099467D03*
D38*
X81834412Y-131717589D03*
X82513234Y-132396411D03*
D39*
X74426500Y-140142000D03*
X74426500Y-139192000D03*
X74426500Y-138242000D03*
X72151500Y-138242000D03*
X72151500Y-140142000D03*
D40*
X79822000Y-136632100D03*
X80772000Y-136632100D03*
X81722000Y-136632100D03*
X81722000Y-138907100D03*
X80772000Y-138907100D03*
X79822000Y-138907100D03*
D41*
X93360000Y-125222000D03*
X68246000Y-127979000D03*
X70470000Y-129614000D03*
X76038000Y-129629000D03*
X69000000Y-142000000D03*
X70500000Y-135500000D03*
X93500000Y-137750000D03*
X92500000Y-134750000D03*
X90449000Y-125045000D03*
X81500000Y-127250000D03*
X84250000Y-127250000D03*
X84250000Y-124750000D03*
X81500000Y-124750000D03*
X70600000Y-138000000D03*
X70600000Y-140000000D03*
X69400000Y-140000000D03*
X69400000Y-139000000D03*
X90671000Y-115845000D03*
X74884000Y-117675000D03*
X82953000Y-139126000D03*
X82430000Y-140396000D03*
X82800000Y-123400000D03*
X80100000Y-126100000D03*
X82800000Y-128800000D03*
X85500000Y-126100000D03*
X89700000Y-116300000D03*
X96900000Y-141100000D03*
X91900000Y-142200000D03*
X94400000Y-126600000D03*
X97300000Y-123200000D03*
X97500000Y-117800000D03*
X97500000Y-115600000D03*
X97600000Y-113000000D03*
X90700000Y-113500000D03*
X93000000Y-113700000D03*
X83000000Y-113900000D03*
X80000000Y-114400000D03*
X74900000Y-114400000D03*
X77500000Y-114500000D03*
X79500000Y-116300000D03*
X77600000Y-117000000D03*
X67400000Y-113300000D03*
X69600000Y-115400000D03*
X72036000Y-118707000D03*
X74400000Y-119400000D03*
X95268000Y-136235000D03*
X78000000Y-136300000D03*
X77300000Y-135000000D03*
X78200000Y-133200000D03*
X86950000Y-129518317D03*
X90870000Y-132870000D03*
X97670000Y-133190000D03*
X86229000Y-121838000D03*
X97750000Y-120500000D03*
X71000000Y-123250000D03*
X68250000Y-122750000D03*
X97900000Y-145300000D03*
X86254000Y-143206000D03*
X86246000Y-141749000D03*
X82002000Y-133760000D03*
X88454000Y-141789000D03*
X91123000Y-140851000D03*
X96513000Y-129161000D03*
X95144000Y-129446000D03*
X87749000Y-130104000D03*
X93781000Y-115939000D03*
X92671000Y-122953000D03*
X92993358Y-127906358D03*
X90735000Y-127980000D03*
X91999000Y-125229000D03*
X86202000Y-130207000D03*
X95550000Y-131821000D03*
X87689000Y-122303000D03*
X82800000Y-126100000D03*
X78800000Y-122058000D03*
X67400000Y-135700000D03*
X71600000Y-132800000D03*
X67750000Y-133250000D03*
X69500000Y-131250000D03*
X73750000Y-131250000D03*
X68500000Y-125750000D03*
X72000000Y-126500000D03*
X67250000Y-118250000D03*
X68750000Y-121000000D03*
X74000000Y-126250000D03*
X71750000Y-121500000D03*
X74000000Y-124000000D03*
X69000000Y-118750000D03*
X73626000Y-121931000D03*
X81250000Y-132342000D03*
X77239618Y-125278061D03*
X73549000Y-135312000D03*
X70320000Y-143437000D03*
X73601000Y-143453000D03*
X75811000Y-139185000D03*
X83439000Y-137758000D03*
X70600000Y-139000000D03*
X69400000Y-138000000D03*
X70600000Y-137000000D03*
X75311000Y-136652000D03*
X77698600Y-140817600D03*
X78795000Y-120435000D03*
X78018000Y-119658000D03*
X75485993Y-123812936D03*
X74677770Y-123004713D03*
X75306388Y-120939254D03*
X76024808Y-120220833D03*
X77282044Y-123453725D03*
D42*
X91042854Y-126099467D02*
X91042854Y-125638854D01*
X91042854Y-125638854D02*
X90449000Y-125045000D01*
X90449000Y-125045000D02*
X89976000Y-125045000D01*
X89976000Y-125045000D02*
X89565000Y-125456000D01*
D43*
X75151500Y-141961000D02*
X75151500Y-144304500D01*
X66040000Y-142395000D02*
X66040000Y-142240000D01*
X75151500Y-144304500D02*
X74549000Y-144907000D01*
X74549000Y-144907000D02*
X68552000Y-144907000D01*
X68552000Y-144907000D02*
X66040000Y-142395000D01*
D42*
X66040000Y-129540000D02*
X66895000Y-130395000D01*
X66895000Y-130395000D02*
X77362339Y-130395000D01*
X77362339Y-130395000D02*
X79787040Y-127970299D01*
X99060000Y-137160000D02*
X96048000Y-137160000D01*
X93887500Y-139320500D02*
X92452000Y-139320500D01*
X96048000Y-137160000D02*
X93887500Y-139320500D01*
X66040000Y-116840000D02*
X67183000Y-116840000D01*
X75056000Y-126331000D02*
X77601741Y-126331000D01*
X67183000Y-116840000D02*
X68112500Y-117769500D01*
X68112500Y-119387500D02*
X75056000Y-126331000D01*
X68112500Y-117769500D02*
X68112500Y-119387500D01*
X77601741Y-126331000D02*
X78372827Y-125559914D01*
X68580000Y-111760000D02*
X68580000Y-111935000D01*
X68580000Y-111935000D02*
X74320000Y-117675000D01*
X74320000Y-117675000D02*
X74884000Y-117675000D01*
D43*
X84469000Y-144742000D02*
X84469000Y-143054500D01*
X84469000Y-143054500D02*
X83581500Y-142167000D01*
X77719000Y-144742000D02*
X77719000Y-143054500D01*
X77719000Y-143054500D02*
X78606500Y-142167000D01*
X82644000Y-144742000D02*
X84469000Y-144742000D01*
X79944000Y-144742000D02*
X82644000Y-144742000D01*
X77719000Y-144742000D02*
X79944000Y-144742000D01*
D42*
X89684033Y-116315967D02*
X89700000Y-116300000D01*
X88659142Y-116315967D02*
X89684033Y-116315967D01*
X85379406Y-123792147D02*
X85379406Y-123790594D01*
X85379406Y-123790594D02*
X86980000Y-122190000D01*
X86282142Y-120868142D02*
X86282142Y-118679968D01*
X86980000Y-122190000D02*
X86980000Y-121566000D01*
X86980000Y-121566000D02*
X86282142Y-120868142D01*
X81908361Y-130091621D02*
X81530000Y-130469982D01*
X81530000Y-130469982D02*
X81530000Y-131413177D01*
X81530000Y-131413177D02*
X81834412Y-131717589D01*
X85866764Y-129518317D02*
X86950000Y-129518317D01*
X85025853Y-128677406D02*
X85866764Y-129518317D01*
X90845000Y-132895000D02*
X90870000Y-132870000D01*
X90845000Y-133847000D02*
X90845000Y-132895000D01*
X90845000Y-136712000D02*
X92452000Y-138319000D01*
X92452000Y-138319000D02*
X92452000Y-139320500D01*
X90845000Y-134807000D02*
X90965500Y-134807000D01*
X90965500Y-134807000D02*
X92452000Y-133320500D01*
X88339000Y-136712000D02*
X90845000Y-136712000D01*
X90845000Y-136712000D02*
X90845000Y-134807000D01*
X85025853Y-123438594D02*
X86229000Y-122235447D01*
X86229000Y-122235447D02*
X86229000Y-121838000D01*
X97389376Y-120860624D02*
X97750000Y-120500000D01*
X96610624Y-120860624D02*
X97389376Y-120860624D01*
X93333000Y-142494000D02*
X93333000Y-140900000D01*
X93333000Y-140900000D02*
X93276000Y-140843000D01*
X82513234Y-133248766D02*
X82002000Y-133760000D01*
X82513234Y-132396411D02*
X82513234Y-133248766D01*
X90845000Y-137732000D02*
X90333000Y-138244000D01*
X90333000Y-138244000D02*
X90333000Y-142494000D01*
X89628000Y-141789000D02*
X88454000Y-141789000D01*
X90333000Y-142494000D02*
X89628000Y-141789000D01*
X91123000Y-140851000D02*
X92248000Y-140851000D01*
X92248000Y-140851000D02*
X92256000Y-140843000D01*
X95144000Y-129446000D02*
X97590000Y-127000000D01*
X97590000Y-127000000D02*
X99060000Y-127000000D01*
X89399142Y-121655967D02*
X89399141Y-120085967D01*
X93127000Y-116593000D02*
X93781000Y-115939000D01*
X92727999Y-116593000D02*
X93127000Y-116593000D01*
X92734000Y-122890000D02*
X92671000Y-122953000D01*
X92734000Y-121690999D02*
X92734000Y-122890000D01*
X85379406Y-128323853D02*
X85897370Y-128841817D01*
X85897370Y-128841817D02*
X87660825Y-128841817D01*
X87660825Y-128841817D02*
X89269010Y-130450000D01*
X89269010Y-130450000D02*
X92866000Y-130450000D01*
X92866000Y-130450000D02*
X98856000Y-124460000D01*
X98856000Y-124460000D02*
X99060000Y-124460000D01*
X84318746Y-129384513D02*
X84319513Y-129384513D01*
X84319513Y-129384513D02*
X85899000Y-130964000D01*
X93764336Y-130194000D02*
X97188000Y-130194000D01*
X85899000Y-130964000D02*
X92994336Y-130964000D01*
X92994336Y-130964000D02*
X93764336Y-130194000D01*
X97188000Y-130194000D02*
X97842000Y-129540000D01*
X97842000Y-129540000D02*
X99060000Y-129540000D01*
X85732960Y-127970299D02*
X86200958Y-128438297D01*
X86200958Y-128438297D02*
X87827969Y-128438297D01*
X87827969Y-128438297D02*
X89333714Y-129944040D01*
X89333714Y-129944040D02*
X92683623Y-129944040D01*
X92683623Y-129944040D02*
X95688000Y-126939663D01*
X95688000Y-126939663D02*
X95688000Y-122419000D01*
X95688000Y-122419000D02*
X96187000Y-121920000D01*
X96187000Y-121920000D02*
X99060000Y-121920000D01*
X97098000Y-119374000D02*
X99054000Y-119374000D01*
X99054000Y-119374000D02*
X99060000Y-119380000D01*
X86086513Y-127616746D02*
X86504544Y-128034777D01*
X86504544Y-128034777D02*
X87995113Y-128034777D01*
X87995113Y-128034777D02*
X89500857Y-129540520D01*
X89500857Y-129540520D02*
X92516480Y-129540520D01*
X92516480Y-129540520D02*
X95249000Y-126808000D01*
X95249000Y-126808000D02*
X95249000Y-120883000D01*
X95249000Y-120883000D02*
X96758000Y-119374000D01*
X96758000Y-119374000D02*
X97098000Y-119374000D01*
X91762716Y-129137000D02*
X92993358Y-127906358D01*
X91107000Y-129137000D02*
X91762716Y-129137000D01*
X88162257Y-127631257D02*
X89160000Y-128629000D01*
X87686000Y-127631257D02*
X88162257Y-127631257D01*
X89160000Y-128629000D02*
X89668000Y-129137000D01*
X86440066Y-127263194D02*
X86808129Y-127631257D01*
X86808129Y-127631257D02*
X87686000Y-127631257D01*
X89668000Y-129137000D02*
X91107000Y-129137000D01*
X86793621Y-126909639D02*
X87111719Y-127227737D01*
X87111719Y-127227737D02*
X88434737Y-127227737D01*
X88434737Y-127227737D02*
X89921000Y-128714000D01*
X89921000Y-128714000D02*
X91229000Y-128714000D01*
X94715000Y-125228000D02*
X94715000Y-117875000D01*
X91229000Y-128714000D02*
X94715000Y-125228000D01*
X94715000Y-117875000D02*
X95750000Y-116840000D01*
X95750000Y-116840000D02*
X99060000Y-116840000D01*
X89950483Y-127195483D02*
X90735000Y-127980000D01*
X89946838Y-127195483D02*
X89950483Y-127195483D01*
X91128533Y-126099467D02*
X91999000Y-125229000D01*
X91042854Y-126099467D02*
X91128533Y-126099467D01*
X88886178Y-126134822D02*
X88886178Y-126134823D01*
X88886178Y-126134823D02*
X89946838Y-127195483D01*
X87147173Y-125559914D02*
X88311270Y-125559914D01*
X88311270Y-125559914D02*
X88886178Y-126134822D01*
X87147173Y-125559914D02*
X87147173Y-126556086D01*
X85104000Y-129456000D02*
X85855000Y-130207000D01*
X84672299Y-129030960D02*
X84678960Y-129030960D01*
X84678960Y-129030960D02*
X85104000Y-129456000D01*
X85855000Y-130207000D02*
X86202000Y-130207000D01*
X95526000Y-131845000D02*
X95550000Y-131821000D01*
X94547000Y-131845000D02*
X95526000Y-131845000D01*
X83965194Y-129738066D02*
X83965194Y-129738194D01*
X85901000Y-131674000D02*
X92855000Y-131674000D01*
X83965194Y-129738194D02*
X85901000Y-131674000D01*
X92855000Y-131674000D02*
X93657000Y-130872000D01*
X93657000Y-130872000D02*
X97852000Y-130872000D01*
X97852000Y-130872000D02*
X99060000Y-132080000D01*
X94547000Y-132865000D02*
X94547000Y-133082000D01*
X94547000Y-133082000D02*
X96085000Y-134620000D01*
X96085000Y-134620000D02*
X99060000Y-134620000D01*
X83611639Y-130091621D02*
X83621621Y-130091621D01*
X85719000Y-132189000D02*
X93871000Y-132189000D01*
X83621621Y-130091621D02*
X85719000Y-132189000D01*
X93871000Y-132189000D02*
X94547000Y-132865000D01*
X84124000Y-131526613D02*
X84124000Y-134798000D01*
X85799000Y-136712000D02*
X84124000Y-135037000D01*
X84124000Y-135037000D02*
X84124000Y-134798000D01*
X83258086Y-130660699D02*
X84124000Y-131526613D01*
X83258086Y-130445173D02*
X83258086Y-130660699D01*
X82261914Y-130445173D02*
X83365000Y-131548259D01*
X84428000Y-138426000D02*
X85254000Y-139252000D01*
X83365000Y-131548259D02*
X83365000Y-136246000D01*
X85254000Y-139252000D02*
X85799000Y-139252000D01*
X83365000Y-136246000D02*
X84428000Y-137309000D01*
X84428000Y-137309000D02*
X84428000Y-138426000D01*
X78740000Y-111760000D02*
X80789000Y-113809000D01*
X80789000Y-113809000D02*
X80789000Y-121612128D01*
X80789000Y-121612128D02*
X81554806Y-122377934D01*
X81908361Y-122024379D02*
X81590263Y-121706281D01*
X81590263Y-121706281D02*
X81590263Y-113242263D01*
X81590263Y-113242263D02*
X81280000Y-112932000D01*
X81280000Y-112932000D02*
X81280000Y-111760000D01*
X86793621Y-125206361D02*
X87709422Y-124290560D01*
X87709422Y-124290560D02*
X92634440Y-124290560D01*
X94030000Y-117387000D02*
X97117000Y-114300000D01*
X92634440Y-124290560D02*
X94030000Y-122895000D01*
X94030000Y-122895000D02*
X94030000Y-117387000D01*
X97117000Y-114300000D02*
X99060000Y-114300000D01*
X91774000Y-121690999D02*
X91774000Y-120369000D01*
X91774000Y-120369000D02*
X91768000Y-120363000D01*
X86440066Y-124852806D02*
X87405832Y-123887040D01*
X91774000Y-122663000D02*
X91774000Y-121690999D01*
X87405832Y-123887040D02*
X90549960Y-123887040D01*
X90549960Y-123887040D02*
X91774000Y-122663000D01*
X91768000Y-117863000D02*
X91767999Y-116593000D01*
X86086513Y-124499254D02*
X87102247Y-123483520D01*
X87102247Y-123483520D02*
X89169480Y-123483520D01*
X89169480Y-123483520D02*
X90467000Y-122186000D01*
X90467000Y-122186000D02*
X90467000Y-119164000D01*
X90467000Y-119164000D02*
X91768000Y-117863000D01*
X88439142Y-121655967D02*
X88336033Y-121655967D01*
X88336033Y-121655967D02*
X87689000Y-122303000D01*
X89399142Y-121655967D02*
X89399142Y-122270858D01*
X86798661Y-123080000D02*
X85732960Y-124145701D01*
X89399142Y-122270858D02*
X88590000Y-123080000D01*
X88590000Y-123080000D02*
X86798661Y-123080000D01*
X84672299Y-123085040D02*
X85479000Y-122278339D01*
X85479000Y-122278339D02*
X85479000Y-117018000D01*
X85479000Y-117018000D02*
X87633000Y-114864000D01*
X87633000Y-114864000D02*
X93416000Y-114864000D01*
X93416000Y-114864000D02*
X96520000Y-111760000D01*
X84318746Y-122731487D02*
X84970000Y-122080233D01*
X84970000Y-122080233D02*
X84970000Y-116614000D01*
X84970000Y-116614000D02*
X87335000Y-114249000D01*
X87335000Y-114249000D02*
X91491000Y-114249000D01*
X91491000Y-114249000D02*
X93980000Y-111760000D01*
X83965194Y-122377934D02*
X83965194Y-122375806D01*
X84507000Y-121834000D02*
X84507000Y-116165000D01*
X89461000Y-113739000D02*
X91440000Y-111760000D01*
X83965194Y-122375806D02*
X84507000Y-121834000D01*
X84507000Y-116165000D02*
X86933000Y-113739000D01*
X86933000Y-113739000D02*
X89461000Y-113739000D01*
X83611639Y-122024379D02*
X83929737Y-121706281D01*
X83929737Y-121706281D02*
X83929737Y-115365263D01*
X83929737Y-115365263D02*
X86095000Y-113200000D01*
X86095000Y-113200000D02*
X88080000Y-113200000D01*
X88080000Y-113200000D02*
X88900000Y-112380000D01*
X88900000Y-112380000D02*
X88900000Y-111760000D01*
X83258086Y-121670827D02*
X83258086Y-114861914D01*
X83258086Y-114861914D02*
X86360000Y-111760000D01*
X80140594Y-123792147D02*
X78800000Y-122451553D01*
X78800000Y-122451553D02*
X78800000Y-122058000D01*
X71120000Y-111760000D02*
X77224000Y-117864000D01*
X77802000Y-117864000D02*
X79542960Y-119604960D01*
X77224000Y-117864000D02*
X77802000Y-117864000D01*
X79542960Y-119604960D02*
X79542960Y-122487407D01*
X79542960Y-122487407D02*
X80494147Y-123438594D01*
X77413567Y-120268916D02*
X77413567Y-120262433D01*
X77413567Y-120262433D02*
X78018000Y-119658000D01*
X78205526Y-121060876D02*
X78205526Y-121024474D01*
X78205526Y-121024474D02*
X78795000Y-120435000D01*
X73660000Y-111760000D02*
X79946480Y-118046480D01*
X79946480Y-118046480D02*
X79946480Y-122183819D01*
X79946480Y-122183819D02*
X80847701Y-123085040D01*
X76200000Y-111760000D02*
X80350000Y-115910000D01*
X80350000Y-121880233D02*
X81201254Y-122731487D01*
X80350000Y-115910000D02*
X80350000Y-121880233D01*
X82261914Y-121670827D02*
X82261914Y-113318086D01*
X82261914Y-113318086D02*
X83820000Y-111760000D01*
X73626000Y-121931000D02*
X73626000Y-121886000D01*
X73626000Y-121886000D02*
X66040000Y-114300000D01*
X66040000Y-119380000D02*
X73772000Y-127112000D01*
X73772000Y-127112000D02*
X76669000Y-127112000D01*
X76669000Y-127112000D02*
X76671000Y-127110000D01*
X77818913Y-127110000D02*
X78372827Y-126556086D01*
X76671000Y-127110000D02*
X77818913Y-127110000D01*
X66040000Y-121920000D02*
X71801000Y-127681000D01*
X71801000Y-127681000D02*
X77955018Y-127681000D01*
X77955018Y-127681000D02*
X78726379Y-126909639D01*
X66040000Y-124460000D02*
X69728000Y-128148000D01*
X69728000Y-128148000D02*
X78195128Y-128148000D01*
X78195128Y-128148000D02*
X79079934Y-127263194D01*
X66040000Y-127000000D02*
X67905000Y-128865000D01*
X67905000Y-128865000D02*
X78185233Y-128865000D01*
X78185233Y-128865000D02*
X79433487Y-127616746D01*
X66040000Y-132080000D02*
X76384447Y-132080000D01*
X76384447Y-132080000D02*
X80140594Y-128323853D01*
X66040000Y-134620000D02*
X68509000Y-134620000D01*
X68509000Y-134620000D02*
X69525000Y-133604000D01*
X69525000Y-133604000D02*
X75567553Y-133604000D01*
X75567553Y-133604000D02*
X80494147Y-128677406D01*
X66040000Y-137160000D02*
X67369000Y-137160000D01*
X67369000Y-137160000D02*
X70197000Y-134332000D01*
X70197000Y-134332000D02*
X75546661Y-134332000D01*
X75546661Y-134332000D02*
X80847701Y-129030960D01*
D44*
X79617156Y-133230836D02*
X79617156Y-131650483D01*
X81100143Y-135689524D02*
X81004157Y-135689524D01*
X81722000Y-136632100D02*
X81352076Y-136262176D01*
X81352076Y-136262176D02*
X81352076Y-135941457D01*
X81352076Y-135941457D02*
X81100143Y-135689524D01*
X81201254Y-129409747D02*
X81201254Y-129384513D01*
X81004156Y-134617836D02*
X79617156Y-133230836D01*
X80443857Y-135689524D02*
X80539843Y-135689524D01*
X79617156Y-131650483D02*
X81529573Y-129738066D01*
X81004157Y-135689524D02*
X81004156Y-134617836D01*
X81529573Y-129738066D02*
X81554806Y-129738066D01*
X80539844Y-134810164D02*
X79152844Y-133423164D01*
X79822000Y-136632100D02*
X80191924Y-136262176D01*
X80191924Y-136262176D02*
X80191924Y-135941457D01*
X80191924Y-135941457D02*
X80443857Y-135689524D01*
X80539843Y-135689524D02*
X80539844Y-134810164D01*
X79152844Y-133423164D02*
X79152844Y-131458157D01*
X79152844Y-131458157D02*
X81201254Y-129409747D01*
D42*
X81236000Y-132328000D02*
X81250000Y-132342000D01*
X81236000Y-132315000D02*
X81236000Y-132328000D01*
X81834412Y-131717589D02*
X81833411Y-131717589D01*
X81833411Y-131717589D02*
X81236000Y-132315000D01*
X77239618Y-125278061D02*
X76659083Y-124697526D01*
X76659083Y-124697526D02*
X76659083Y-124464181D01*
X75980261Y-125143004D02*
X75485993Y-124648736D01*
X75485993Y-124648736D02*
X75485993Y-123812936D01*
X78726380Y-125206361D02*
X77984200Y-124464181D01*
X77984200Y-124464181D02*
X76659083Y-124464181D01*
D45*
X82330000Y-137752000D02*
X83433000Y-137752000D01*
X80772000Y-138907100D02*
X80772000Y-138417462D01*
X83433000Y-137752000D02*
X83439000Y-137758000D01*
X80772000Y-138417462D02*
X81437462Y-137752000D01*
X81437462Y-137752000D02*
X82330000Y-137752000D01*
X80772000Y-137121738D02*
X80127738Y-137766000D01*
X80127738Y-137766000D02*
X79141000Y-137766000D01*
X80772000Y-136632100D02*
X80772000Y-137121738D01*
X77698600Y-139208400D02*
X77698600Y-140817600D01*
X79141000Y-137766000D02*
X77698600Y-139208400D01*
D44*
X81722000Y-138907100D02*
X81352076Y-139277024D01*
X81352076Y-139597743D02*
X81100143Y-139849676D01*
X81100143Y-139849676D02*
X81004157Y-139849676D01*
X81352076Y-139277024D02*
X81352076Y-139597743D01*
X80191924Y-139277024D02*
X80191924Y-139597743D01*
X80191924Y-139597743D02*
X80443857Y-139849676D01*
X81004157Y-139849676D02*
X81004156Y-142036800D01*
X79822000Y-138907100D02*
X80191924Y-139277024D01*
X80443857Y-139849676D02*
X80539843Y-139849676D01*
X80539843Y-139849676D02*
X80539844Y-142036800D01*
D43*
X75151500Y-141961000D02*
X75151500Y-141891500D01*
X75151500Y-141891500D02*
X76225400Y-140817600D01*
X76225400Y-140817600D02*
X77698600Y-140817600D01*
D42*
X74426500Y-137536500D02*
X75311000Y-136652000D01*
X74426500Y-138242000D02*
X74426500Y-137536500D01*
D45*
X79543622Y-140817600D02*
X77698600Y-140817600D01*
D43*
X74426500Y-140142000D02*
X75151500Y-140867000D01*
X75151500Y-140867000D02*
X75151500Y-141961000D01*
X72151500Y-138242000D02*
X72151500Y-136752000D01*
X72151500Y-136752000D02*
X71968500Y-136569000D01*
D45*
X79794000Y-141067978D02*
X79543622Y-140817600D01*
X79794000Y-142082000D02*
X79794000Y-141067978D01*
D43*
X71901500Y-141936000D02*
X71901500Y-140392000D01*
X71901500Y-140392000D02*
X72151500Y-140142000D01*
D42*
X88439142Y-121655967D02*
X87699141Y-120915966D01*
X87699141Y-120915966D02*
X87699141Y-120085967D01*
X87699141Y-120085967D02*
X89399141Y-118385968D01*
X89399141Y-118385968D02*
X89399141Y-117885967D01*
X88659141Y-116315967D02*
X89399141Y-117055966D01*
X89399141Y-117055966D02*
X89399141Y-117885967D01*
X87699141Y-117885967D02*
X87699142Y-116315967D01*
X86282142Y-117659968D02*
X86508140Y-117885967D01*
X86508140Y-117885967D02*
X87699141Y-117885967D01*
X78205526Y-121060875D02*
X77413567Y-120268916D01*
X76113198Y-123120678D02*
X75321238Y-122328718D01*
X75485993Y-123747883D02*
X75485993Y-123812936D01*
X76113198Y-123120678D02*
X75485993Y-123747883D01*
X74677770Y-122972186D02*
X74677770Y-123004713D01*
X75321238Y-122328718D02*
X74677770Y-122972186D01*
X75306388Y-120956223D02*
X75306388Y-120939254D01*
X76000060Y-121649895D02*
X75306388Y-120956223D01*
X76024808Y-120237802D02*
X76024808Y-120220833D01*
X76734744Y-120947738D02*
X76024808Y-120237802D01*
X77680854Y-123453725D02*
X77282044Y-123453725D01*
X79079935Y-124852806D02*
X77680854Y-123453725D01*
X76792021Y-122441856D02*
X76000060Y-121649895D01*
X79433487Y-124499254D02*
X77376089Y-122441856D01*
X77376089Y-122441856D02*
X76792021Y-122441856D01*
X77526704Y-121739698D02*
X76734744Y-120947738D01*
X79787040Y-124145701D02*
X77526704Y-121885365D01*
X77526704Y-121885365D02*
X77526704Y-121739698D01*
%TA.AperFunction,Conductor*%
G36*
X81070532Y-130840168D02*
G01*
X81127368Y-130882715D01*
X81152179Y-130949235D01*
X81152500Y-130958224D01*
X81152500Y-131359465D01*
X81149985Y-131383094D01*
X81149897Y-131384968D01*
X81147705Y-131395148D01*
X81148929Y-131405487D01*
X81151627Y-131428286D01*
X81151974Y-131434167D01*
X81152072Y-131434159D01*
X81152500Y-131439335D01*
X81152500Y-131444539D01*
X81153355Y-131449675D01*
X81155646Y-131463443D01*
X81156483Y-131469318D01*
X81162476Y-131519952D01*
X81166419Y-131528162D01*
X81167914Y-131537147D01*
X81172858Y-131546311D01*
X81173942Y-131549476D01*
X81177080Y-131620403D01*
X81141373Y-131681767D01*
X81084147Y-131712801D01*
X81028967Y-131726048D01*
X81028963Y-131726049D01*
X81021588Y-131727820D01*
X80881679Y-131800032D01*
X80875957Y-131805024D01*
X80875955Y-131805025D01*
X80768759Y-131898538D01*
X80768756Y-131898541D01*
X80763034Y-131903533D01*
X80672501Y-132032348D01*
X80615309Y-132179039D01*
X80614318Y-132186568D01*
X80596962Y-132318398D01*
X80594758Y-132335138D01*
X80612035Y-132491633D01*
X80666143Y-132639490D01*
X80670380Y-132645796D01*
X80670382Y-132645799D01*
X80705510Y-132698074D01*
X80753958Y-132770172D01*
X80783180Y-132796762D01*
X80845836Y-132853774D01*
X80870410Y-132876135D01*
X80882796Y-132882860D01*
X81002099Y-132947637D01*
X81002101Y-132947638D01*
X81008776Y-132951262D01*
X81016125Y-132953190D01*
X81153719Y-132989287D01*
X81153721Y-132989287D01*
X81161069Y-132991215D01*
X81244380Y-132992524D01*
X81310898Y-132993569D01*
X81310901Y-132993569D01*
X81318495Y-132993688D01*
X81471968Y-132958538D01*
X81612625Y-132887795D01*
X81652459Y-132853774D01*
X81726574Y-132790474D01*
X81726576Y-132790471D01*
X81732348Y-132785542D01*
X81824224Y-132657683D01*
X81882950Y-132511598D01*
X81899763Y-132393460D01*
X81929164Y-132328838D01*
X81975243Y-132298240D01*
X81974425Y-132296634D01*
X81983263Y-132292131D01*
X81992692Y-132289067D01*
X82034934Y-132258377D01*
X82063590Y-132237557D01*
X82063591Y-132237556D01*
X82067591Y-132234650D01*
X82351472Y-131950768D01*
X82405890Y-131875869D01*
X82419259Y-131834723D01*
X82441050Y-131767659D01*
X82441050Y-131767657D01*
X82444115Y-131758225D01*
X82444115Y-131634527D01*
X82433868Y-131602988D01*
X82408955Y-131526315D01*
X82405890Y-131516882D01*
X82351473Y-131441984D01*
X82172144Y-131262655D01*
X82138119Y-131200344D01*
X82143183Y-131129528D01*
X82191233Y-131068798D01*
X82201427Y-131061986D01*
X82269179Y-131040768D01*
X82337647Y-131059548D01*
X82360528Y-131077653D01*
X82950596Y-131667721D01*
X82984621Y-131730033D01*
X82987500Y-131756816D01*
X82987500Y-136192288D01*
X82984985Y-136215917D01*
X82984897Y-136217791D01*
X82982705Y-136227971D01*
X82984950Y-136246937D01*
X82986627Y-136261109D01*
X82986974Y-136266990D01*
X82987072Y-136266982D01*
X82987500Y-136272158D01*
X82987500Y-136277362D01*
X82988355Y-136282498D01*
X82990646Y-136296266D01*
X82991483Y-136302141D01*
X82997476Y-136352775D01*
X83001419Y-136360985D01*
X83002914Y-136369970D01*
X83007860Y-136379137D01*
X83007861Y-136379139D01*
X83027129Y-136414849D01*
X83029824Y-136420139D01*
X83051878Y-136466066D01*
X83055450Y-136470315D01*
X83057379Y-136472244D01*
X83059127Y-136474149D01*
X83059186Y-136474258D01*
X83059069Y-136474365D01*
X83059518Y-136474874D01*
X83062592Y-136480572D01*
X83070238Y-136487640D01*
X83070239Y-136487641D01*
X83101976Y-136516978D01*
X83105543Y-136520408D01*
X84013596Y-137428462D01*
X84047621Y-137490774D01*
X84050500Y-137517557D01*
X84050500Y-138372288D01*
X84047985Y-138395917D01*
X84047897Y-138397791D01*
X84045705Y-138407971D01*
X84046929Y-138418310D01*
X84049627Y-138441109D01*
X84049974Y-138446990D01*
X84050072Y-138446982D01*
X84050500Y-138452158D01*
X84050500Y-138457362D01*
X84051355Y-138462498D01*
X84053646Y-138476266D01*
X84054483Y-138482141D01*
X84060476Y-138532775D01*
X84064419Y-138540985D01*
X84065914Y-138549970D01*
X84070860Y-138559137D01*
X84070861Y-138559139D01*
X84090129Y-138594849D01*
X84092824Y-138600139D01*
X84114878Y-138646066D01*
X84118450Y-138650315D01*
X84120379Y-138652244D01*
X84122127Y-138654149D01*
X84122186Y-138654258D01*
X84122069Y-138654365D01*
X84122518Y-138654874D01*
X84125592Y-138660572D01*
X84133238Y-138667640D01*
X84133239Y-138667641D01*
X84164989Y-138696990D01*
X84168555Y-138700420D01*
X84660838Y-139192703D01*
X84694864Y-139255015D01*
X84697473Y-139273557D01*
X84703430Y-139364448D01*
X84707392Y-139424894D01*
X84708815Y-139430497D01*
X84755739Y-139615261D01*
X84757178Y-139620928D01*
X84841856Y-139804607D01*
X84855562Y-139824000D01*
X84913117Y-139905439D01*
X84958588Y-139969780D01*
X85103466Y-140110913D01*
X85108270Y-140114123D01*
X85126225Y-140126120D01*
X85271637Y-140223282D01*
X85276940Y-140225560D01*
X85276943Y-140225562D01*
X85411703Y-140283459D01*
X85457470Y-140303122D01*
X85594138Y-140334047D01*
X85621401Y-140340216D01*
X85654740Y-140347760D01*
X85660509Y-140347987D01*
X85660512Y-140347987D01*
X85736683Y-140350979D01*
X85856842Y-140355700D01*
X85943132Y-140343189D01*
X86051286Y-140327508D01*
X86051291Y-140327507D01*
X86057007Y-140326678D01*
X86062479Y-140324820D01*
X86062481Y-140324820D01*
X86243067Y-140263519D01*
X86243069Y-140263518D01*
X86248531Y-140261664D01*
X86396772Y-140178646D01*
X86419964Y-140165658D01*
X86419965Y-140165657D01*
X86425001Y-140162837D01*
X86433566Y-140155714D01*
X86549987Y-140058887D01*
X86580505Y-140033505D01*
X86709837Y-139878001D01*
X86712668Y-139872947D01*
X86783398Y-139746647D01*
X86808664Y-139701531D01*
X86834205Y-139626292D01*
X86871820Y-139515481D01*
X86871820Y-139515479D01*
X86873678Y-139510007D01*
X86874507Y-139504291D01*
X86874508Y-139504286D01*
X86899368Y-139332822D01*
X86902700Y-139309842D01*
X86904215Y-139252000D01*
X86885708Y-139050591D01*
X86882256Y-139038349D01*
X86842087Y-138895923D01*
X86830807Y-138855926D01*
X86741351Y-138674527D01*
X86732443Y-138662597D01*
X86623788Y-138517091D01*
X86623787Y-138517090D01*
X86620335Y-138512467D01*
X86614976Y-138507513D01*
X86476053Y-138379094D01*
X86476051Y-138379092D01*
X86471812Y-138375174D01*
X86460496Y-138368034D01*
X86305637Y-138270325D01*
X86300757Y-138267246D01*
X86112898Y-138192298D01*
X85914526Y-138152839D01*
X85908752Y-138152763D01*
X85908748Y-138152763D01*
X85806257Y-138151422D01*
X85712286Y-138150192D01*
X85706589Y-138151171D01*
X85706588Y-138151171D01*
X85518646Y-138183465D01*
X85518645Y-138183465D01*
X85512949Y-138184444D01*
X85323193Y-138254449D01*
X85318232Y-138257401D01*
X85318231Y-138257401D01*
X85201767Y-138326690D01*
X85149371Y-138357862D01*
X85101896Y-138399496D01*
X85037494Y-138429373D01*
X84967161Y-138419687D01*
X84929725Y-138393859D01*
X84842405Y-138306539D01*
X84808379Y-138244227D01*
X84805500Y-138217444D01*
X84805500Y-137579295D01*
X84825502Y-137511174D01*
X84879158Y-137464681D01*
X84949432Y-137454577D01*
X85014012Y-137484071D01*
X85019412Y-137489032D01*
X85103466Y-137570913D01*
X85271637Y-137683282D01*
X85276940Y-137685560D01*
X85276943Y-137685562D01*
X85365291Y-137723519D01*
X85457470Y-137763122D01*
X85654740Y-137807760D01*
X85660509Y-137807987D01*
X85660512Y-137807987D01*
X85736683Y-137810979D01*
X85856842Y-137815700D01*
X85943132Y-137803189D01*
X86051286Y-137787508D01*
X86051291Y-137787507D01*
X86057007Y-137786678D01*
X86062479Y-137784820D01*
X86062481Y-137784820D01*
X86243067Y-137723519D01*
X86243069Y-137723518D01*
X86248531Y-137721664D01*
X86425001Y-137622837D01*
X86487433Y-137570913D01*
X86541743Y-137525743D01*
X86580505Y-137493505D01*
X86709837Y-137338001D01*
X86713438Y-137331572D01*
X86747749Y-137270303D01*
X86808664Y-137161531D01*
X86831065Y-137095542D01*
X86871820Y-136975481D01*
X86871820Y-136975479D01*
X86873678Y-136970007D01*
X86874507Y-136964291D01*
X86874508Y-136964286D01*
X86894728Y-136824823D01*
X86902700Y-136769842D01*
X86904215Y-136712000D01*
X86885708Y-136510591D01*
X86879504Y-136488591D01*
X86841199Y-136352775D01*
X86830807Y-136315926D01*
X86752860Y-136157864D01*
X86743906Y-136139708D01*
X86741351Y-136134527D01*
X86723079Y-136110057D01*
X86623788Y-135977091D01*
X86623787Y-135977090D01*
X86620335Y-135972467D01*
X86597350Y-135951220D01*
X86476053Y-135839094D01*
X86476051Y-135839092D01*
X86471812Y-135835174D01*
X86444374Y-135817862D01*
X86305637Y-135730325D01*
X86300757Y-135727246D01*
X86112898Y-135652298D01*
X85914526Y-135612839D01*
X85908752Y-135612763D01*
X85908748Y-135612763D01*
X85806257Y-135611422D01*
X85712286Y-135610192D01*
X85706589Y-135611171D01*
X85706588Y-135611171D01*
X85518646Y-135643465D01*
X85518645Y-135643465D01*
X85512949Y-135644444D01*
X85440684Y-135671104D01*
X85407720Y-135683265D01*
X85336886Y-135688077D01*
X85275014Y-135654148D01*
X84538405Y-134917539D01*
X84504379Y-134855227D01*
X84501500Y-134828444D01*
X84501500Y-134542195D01*
X84521502Y-134474074D01*
X84575158Y-134427581D01*
X84645432Y-134417477D01*
X84710012Y-134446971D01*
X84749623Y-134511180D01*
X84757178Y-134540928D01*
X84841856Y-134724607D01*
X84845189Y-134729323D01*
X84942803Y-134867444D01*
X84958588Y-134889780D01*
X85103466Y-135030913D01*
X85271637Y-135143282D01*
X85276940Y-135145560D01*
X85276943Y-135145562D01*
X85452163Y-135220842D01*
X85457470Y-135223122D01*
X85597664Y-135254845D01*
X85641690Y-135264807D01*
X85654740Y-135267760D01*
X85660509Y-135267987D01*
X85660512Y-135267987D01*
X85736683Y-135270979D01*
X85856842Y-135275700D01*
X85943132Y-135263189D01*
X86051286Y-135247508D01*
X86051291Y-135247507D01*
X86057007Y-135246678D01*
X86062479Y-135244820D01*
X86062481Y-135244820D01*
X86243067Y-135183519D01*
X86243069Y-135183518D01*
X86248531Y-135181664D01*
X86425001Y-135082837D01*
X86468482Y-135046674D01*
X87238500Y-135046674D01*
X87253034Y-135119740D01*
X87308399Y-135202601D01*
X87391260Y-135257966D01*
X87464326Y-135272500D01*
X89213674Y-135272500D01*
X89286740Y-135257966D01*
X89369601Y-135202601D01*
X89424966Y-135119740D01*
X89439500Y-135046674D01*
X89439500Y-133297326D01*
X89424966Y-133224260D01*
X89369601Y-133141399D01*
X89286740Y-133086034D01*
X89213674Y-133071500D01*
X87464326Y-133071500D01*
X87391260Y-133086034D01*
X87308399Y-133141399D01*
X87253034Y-133224260D01*
X87238500Y-133297326D01*
X87238500Y-135046674D01*
X86468482Y-135046674D01*
X86487433Y-135030913D01*
X86576073Y-134957191D01*
X86580505Y-134953505D01*
X86709837Y-134798001D01*
X86808664Y-134621531D01*
X86818278Y-134593211D01*
X86871820Y-134435481D01*
X86871820Y-134435479D01*
X86873678Y-134430007D01*
X86874507Y-134424291D01*
X86874508Y-134424286D01*
X86894060Y-134289432D01*
X86902700Y-134229842D01*
X86904215Y-134172000D01*
X86885708Y-133970591D01*
X86860291Y-133880467D01*
X86832376Y-133781490D01*
X86830807Y-133775926D01*
X86741351Y-133594527D01*
X86723079Y-133570057D01*
X86623788Y-133437091D01*
X86623787Y-133437090D01*
X86620335Y-133432467D01*
X86602264Y-133415762D01*
X86476053Y-133299094D01*
X86476051Y-133299092D01*
X86471812Y-133295174D01*
X86444374Y-133277862D01*
X86305637Y-133190325D01*
X86300757Y-133187246D01*
X86112898Y-133112298D01*
X85914526Y-133072839D01*
X85908752Y-133072763D01*
X85908748Y-133072763D01*
X85806257Y-133071422D01*
X85712286Y-133070192D01*
X85706589Y-133071171D01*
X85706588Y-133071171D01*
X85518646Y-133103465D01*
X85518645Y-133103465D01*
X85512949Y-133104444D01*
X85323193Y-133174449D01*
X85318232Y-133177401D01*
X85318231Y-133177401D01*
X85164563Y-133268824D01*
X85149371Y-133277862D01*
X84997305Y-133411220D01*
X84872089Y-133570057D01*
X84777914Y-133749053D01*
X84776201Y-133754571D01*
X84747833Y-133845931D01*
X84708530Y-133905056D01*
X84643501Y-133933547D01*
X84573391Y-133922357D01*
X84520461Y-133875040D01*
X84501500Y-133808567D01*
X84501500Y-131809555D01*
X84521502Y-131741434D01*
X84575158Y-131694941D01*
X84645432Y-131684837D01*
X84710012Y-131714331D01*
X84716595Y-131720460D01*
X85414085Y-132417950D01*
X85429022Y-132436444D01*
X85430278Y-132437824D01*
X85435928Y-132446575D01*
X85444106Y-132453022D01*
X85462140Y-132467239D01*
X85466541Y-132471150D01*
X85466605Y-132471075D01*
X85470569Y-132474434D01*
X85474244Y-132478109D01*
X85478469Y-132481129D01*
X85478471Y-132481130D01*
X85489849Y-132489261D01*
X85494594Y-132492824D01*
X85526443Y-132517932D01*
X85526445Y-132517933D01*
X85534623Y-132524380D01*
X85543215Y-132527397D01*
X85550627Y-132532694D01*
X85560599Y-132535676D01*
X85560601Y-132535677D01*
X85583816Y-132542619D01*
X85599484Y-132547304D01*
X85605124Y-132549138D01*
X85645720Y-132563395D01*
X85645724Y-132563396D01*
X85653199Y-132566021D01*
X85658730Y-132566500D01*
X85661439Y-132566500D01*
X85664046Y-132566613D01*
X85664171Y-132566650D01*
X85664164Y-132566805D01*
X85664830Y-132566847D01*
X85671033Y-132568702D01*
X85724608Y-132566597D01*
X85729555Y-132566500D01*
X91719807Y-132566500D01*
X91787928Y-132586502D01*
X91834421Y-132640158D01*
X91844525Y-132710432D01*
X91841219Y-132722483D01*
X91841034Y-132722760D01*
X91826500Y-132795826D01*
X91826500Y-133359944D01*
X91806498Y-133428065D01*
X91789595Y-133449039D01*
X90999039Y-134239595D01*
X90936727Y-134273621D01*
X90909944Y-134276500D01*
X90671828Y-134276501D01*
X90644266Y-134276501D01*
X90639372Y-134277276D01*
X90639373Y-134277276D01*
X90562617Y-134289432D01*
X90562616Y-134289432D01*
X90552825Y-134290983D01*
X90442609Y-134347141D01*
X90355141Y-134434609D01*
X90298983Y-134544825D01*
X90284500Y-134636265D01*
X90284501Y-134977734D01*
X90286245Y-134988748D01*
X90294440Y-135040487D01*
X90298983Y-135069175D01*
X90303484Y-135078008D01*
X90303484Y-135078009D01*
X90318546Y-135107569D01*
X90355141Y-135179391D01*
X90430595Y-135254845D01*
X90464621Y-135317157D01*
X90467500Y-135343940D01*
X90467500Y-136172017D01*
X90447498Y-136240138D01*
X90430674Y-136261034D01*
X90423236Y-136268485D01*
X90395504Y-136296266D01*
X90394255Y-136297517D01*
X90331972Y-136331597D01*
X90305081Y-136334500D01*
X89458318Y-136334500D01*
X89390197Y-136314498D01*
X89345312Y-136264228D01*
X89343925Y-136261414D01*
X89281351Y-136134527D01*
X89263079Y-136110057D01*
X89163788Y-135977091D01*
X89163787Y-135977090D01*
X89160335Y-135972467D01*
X89137350Y-135951220D01*
X89016053Y-135839094D01*
X89016051Y-135839092D01*
X89011812Y-135835174D01*
X88984374Y-135817862D01*
X88845637Y-135730325D01*
X88840757Y-135727246D01*
X88652898Y-135652298D01*
X88454526Y-135612839D01*
X88448752Y-135612763D01*
X88448748Y-135612763D01*
X88346257Y-135611422D01*
X88252286Y-135610192D01*
X88246589Y-135611171D01*
X88246588Y-135611171D01*
X88058646Y-135643465D01*
X88058645Y-135643465D01*
X88052949Y-135644444D01*
X87863193Y-135714449D01*
X87858232Y-135717401D01*
X87858231Y-135717401D01*
X87733598Y-135791550D01*
X87689371Y-135817862D01*
X87537305Y-135951220D01*
X87412089Y-136110057D01*
X87317914Y-136289053D01*
X87257937Y-136482213D01*
X87234164Y-136683069D01*
X87247392Y-136884894D01*
X87297178Y-137080928D01*
X87381856Y-137264607D01*
X87388972Y-137274676D01*
X87489531Y-137416964D01*
X87498588Y-137429780D01*
X87502730Y-137433815D01*
X87551342Y-137481170D01*
X87643466Y-137570913D01*
X87811637Y-137683282D01*
X87816940Y-137685560D01*
X87816943Y-137685562D01*
X87905291Y-137723519D01*
X87997470Y-137763122D01*
X88194740Y-137807760D01*
X88200509Y-137807987D01*
X88200512Y-137807987D01*
X88276683Y-137810979D01*
X88396842Y-137815700D01*
X88483132Y-137803189D01*
X88591286Y-137787508D01*
X88591291Y-137787507D01*
X88597007Y-137786678D01*
X88602479Y-137784820D01*
X88602481Y-137784820D01*
X88783067Y-137723519D01*
X88783069Y-137723518D01*
X88788531Y-137721664D01*
X88965001Y-137622837D01*
X89027433Y-137570913D01*
X89081743Y-137525743D01*
X89120505Y-137493505D01*
X89249837Y-137338001D01*
X89253438Y-137331572D01*
X89345841Y-137166572D01*
X89345845Y-137166564D01*
X89347650Y-137163341D01*
X89347652Y-137163339D01*
X89348664Y-137161531D01*
X89349019Y-137161730D01*
X89392850Y-137110158D01*
X89461981Y-137089500D01*
X90305104Y-137089500D01*
X90373225Y-137109502D01*
X90394124Y-137126329D01*
X90400612Y-137132806D01*
X90434690Y-137195089D01*
X90429685Y-137265909D01*
X90400765Y-137310995D01*
X90365948Y-137345873D01*
X90341819Y-137370044D01*
X90285459Y-137485344D01*
X90284047Y-137495024D01*
X90276742Y-137545100D01*
X90274500Y-137560465D01*
X90274501Y-137663903D01*
X90274501Y-137716442D01*
X90254499Y-137784563D01*
X90237596Y-137805538D01*
X90104047Y-137939087D01*
X90085558Y-137954020D01*
X90084175Y-137955278D01*
X90075425Y-137960928D01*
X90068978Y-137969106D01*
X90054765Y-137987135D01*
X90050848Y-137991542D01*
X90050924Y-137991606D01*
X90047570Y-137995564D01*
X90043891Y-137999243D01*
X90040870Y-138003471D01*
X90040862Y-138003480D01*
X90032735Y-138014852D01*
X90029174Y-138019595D01*
X90004069Y-138051441D01*
X90004066Y-138051446D01*
X89997620Y-138059623D01*
X89994602Y-138068218D01*
X89989307Y-138075627D01*
X89986322Y-138085607D01*
X89986321Y-138085610D01*
X89974701Y-138124464D01*
X89972866Y-138130112D01*
X89958607Y-138170713D01*
X89958605Y-138170720D01*
X89955979Y-138178199D01*
X89955500Y-138183730D01*
X89955500Y-138186442D01*
X89955387Y-138189046D01*
X89955350Y-138189171D01*
X89955195Y-138189164D01*
X89955153Y-138189830D01*
X89953298Y-138196033D01*
X89953963Y-138212955D01*
X89955403Y-138249608D01*
X89955500Y-138254555D01*
X89955500Y-141323700D01*
X89935498Y-141391821D01*
X89881842Y-141438314D01*
X89811568Y-141448418D01*
X89793398Y-141444417D01*
X89747535Y-141430701D01*
X89741888Y-141428866D01*
X89701287Y-141414607D01*
X89701280Y-141414605D01*
X89693801Y-141411979D01*
X89688270Y-141411500D01*
X89685558Y-141411500D01*
X89682954Y-141411387D01*
X89682829Y-141411350D01*
X89682836Y-141411195D01*
X89682170Y-141411153D01*
X89675967Y-141409298D01*
X89622392Y-141411403D01*
X89617445Y-141411500D01*
X89050203Y-141411500D01*
X88982082Y-141391498D01*
X88956212Y-141366422D01*
X88954858Y-141367616D01*
X88949832Y-141361916D01*
X88945531Y-141355657D01*
X88939602Y-141350374D01*
X88833648Y-141255972D01*
X88833645Y-141255970D01*
X88827976Y-141250919D01*
X88688831Y-141177245D01*
X88646682Y-141166658D01*
X88543498Y-141140740D01*
X88543496Y-141140740D01*
X88536128Y-141138889D01*
X88528530Y-141138849D01*
X88528528Y-141138849D01*
X88461319Y-141138497D01*
X88378684Y-141138065D01*
X88371305Y-141139837D01*
X88371301Y-141139837D01*
X88232967Y-141173048D01*
X88232963Y-141173049D01*
X88225588Y-141174820D01*
X88085679Y-141247032D01*
X88079957Y-141252024D01*
X88079955Y-141252025D01*
X87972759Y-141345538D01*
X87972756Y-141345541D01*
X87967034Y-141350533D01*
X87942715Y-141385135D01*
X87882383Y-141470979D01*
X87876501Y-141479348D01*
X87819309Y-141626039D01*
X87798758Y-141782138D01*
X87816035Y-141938633D01*
X87870143Y-142086490D01*
X87874380Y-142092796D01*
X87874382Y-142092799D01*
X87914709Y-142152811D01*
X87957958Y-142217172D01*
X87990694Y-142246959D01*
X88061550Y-142311433D01*
X88074410Y-142323135D01*
X88081081Y-142326757D01*
X88081085Y-142326760D01*
X88201445Y-142392110D01*
X88251767Y-142442193D01*
X88267023Y-142511531D01*
X88246089Y-142572842D01*
X88206852Y-142631566D01*
X88197034Y-142646260D01*
X88182500Y-142719326D01*
X88182500Y-143568674D01*
X88197034Y-143641740D01*
X88252399Y-143724601D01*
X88262714Y-143731493D01*
X88316343Y-143767326D01*
X88335260Y-143779966D01*
X88408326Y-143794500D01*
X89457674Y-143794500D01*
X89530740Y-143779966D01*
X89549658Y-143767326D01*
X89603286Y-143731493D01*
X89613601Y-143724601D01*
X89668966Y-143641740D01*
X89683500Y-143568674D01*
X89683500Y-143566488D01*
X89709563Y-143501946D01*
X89767518Y-143460937D01*
X89838444Y-143457771D01*
X89863309Y-143468728D01*
X89863477Y-143468323D01*
X89874942Y-143473072D01*
X89885260Y-143479966D01*
X89958326Y-143494500D01*
X90545488Y-143494500D01*
X90613609Y-143514502D01*
X90660102Y-143568158D01*
X90670206Y-143638432D01*
X90640712Y-143703012D01*
X90627689Y-143714658D01*
X90628308Y-143715361D01*
X90622608Y-143720387D01*
X90616349Y-143724688D01*
X90611297Y-143730358D01*
X90611296Y-143730359D01*
X90508612Y-143845608D01*
X90508610Y-143845612D01*
X90503560Y-143851279D01*
X90500008Y-143857988D01*
X90500007Y-143857989D01*
X90475377Y-143904507D01*
X90424224Y-144001119D01*
X90382919Y-144165559D01*
X90382031Y-144335105D01*
X90383805Y-144342492D01*
X90383805Y-144342496D01*
X90416721Y-144479595D01*
X90421612Y-144499968D01*
X90425093Y-144506712D01*
X90425094Y-144506715D01*
X90448887Y-144552813D01*
X90499375Y-144650631D01*
X90504367Y-144656353D01*
X90504368Y-144656355D01*
X90517526Y-144671438D01*
X90610831Y-144778396D01*
X90617045Y-144782763D01*
X90743330Y-144871518D01*
X90743332Y-144871519D01*
X90749547Y-144875887D01*
X90907513Y-144937476D01*
X90915046Y-144938468D01*
X90915047Y-144938468D01*
X91032739Y-144953962D01*
X91036826Y-144954500D01*
X91125516Y-144954500D01*
X91251320Y-144939276D01*
X91409923Y-144879345D01*
X91443512Y-144856260D01*
X91543392Y-144787614D01*
X91543393Y-144787613D01*
X91549651Y-144783312D01*
X91554704Y-144777641D01*
X91657388Y-144662392D01*
X91657390Y-144662388D01*
X91662440Y-144656721D01*
X91668896Y-144644529D01*
X91738224Y-144513589D01*
X91741776Y-144506881D01*
X91783081Y-144342441D01*
X91783969Y-144172895D01*
X91764428Y-144091500D01*
X91746161Y-144015417D01*
X91744388Y-144008032D01*
X91731955Y-143983942D01*
X91670108Y-143864117D01*
X91670108Y-143864116D01*
X91666625Y-143857369D01*
X91661313Y-143851279D01*
X91582783Y-143761259D01*
X91555169Y-143729604D01*
X91430151Y-143641740D01*
X91422670Y-143636482D01*
X91422668Y-143636481D01*
X91416453Y-143632113D01*
X91270706Y-143575288D01*
X91265566Y-143573284D01*
X91258487Y-143570524D01*
X91250954Y-143569532D01*
X91250953Y-143569532D01*
X91133261Y-143554038D01*
X91133260Y-143554038D01*
X91129174Y-143553500D01*
X91040484Y-143553500D01*
X91026603Y-143555180D01*
X90956574Y-143543505D01*
X90903973Y-143495822D01*
X90885502Y-143427271D01*
X90906704Y-143360091D01*
X90918966Y-143341740D01*
X90933500Y-143268674D01*
X90933500Y-141719326D01*
X90919901Y-141650960D01*
X90926229Y-141580246D01*
X90969783Y-141524178D01*
X91036736Y-141500559D01*
X91045459Y-141500394D01*
X91183898Y-141502569D01*
X91183901Y-141502569D01*
X91191495Y-141502688D01*
X91344968Y-141467538D01*
X91485625Y-141396795D01*
X91532515Y-141356747D01*
X91599574Y-141299474D01*
X91599576Y-141299471D01*
X91605348Y-141294542D01*
X91609777Y-141288378D01*
X91609781Y-141288374D01*
X91615100Y-141280972D01*
X91671095Y-141237325D01*
X91717421Y-141228500D01*
X91724031Y-141228500D01*
X91792152Y-141248502D01*
X91813049Y-141265327D01*
X91847256Y-141299474D01*
X91894044Y-141346181D01*
X91903400Y-141350754D01*
X91903401Y-141350755D01*
X91924890Y-141361259D01*
X92009344Y-141402541D01*
X92041779Y-141407273D01*
X92079939Y-141412840D01*
X92079943Y-141412840D01*
X92084465Y-141413500D01*
X92255346Y-141413500D01*
X92427534Y-141413499D01*
X92503309Y-141402346D01*
X92578709Y-141365326D01*
X92609163Y-141350374D01*
X92609164Y-141350373D01*
X92618511Y-141345784D01*
X92640557Y-141323700D01*
X92676804Y-141287390D01*
X92739087Y-141253311D01*
X92809907Y-141258314D01*
X92854995Y-141287236D01*
X92890873Y-141323052D01*
X92924952Y-141385334D01*
X92919949Y-141456154D01*
X92871856Y-141516990D01*
X92802399Y-141563399D01*
X92747034Y-141646260D01*
X92732500Y-141719326D01*
X92732500Y-143268674D01*
X92747034Y-143341740D01*
X92802399Y-143424601D01*
X92885260Y-143479966D01*
X92958326Y-143494500D01*
X93545488Y-143494500D01*
X93613609Y-143514502D01*
X93660102Y-143568158D01*
X93670206Y-143638432D01*
X93640712Y-143703012D01*
X93627689Y-143714658D01*
X93628308Y-143715361D01*
X93622608Y-143720387D01*
X93616349Y-143724688D01*
X93611297Y-143730358D01*
X93611296Y-143730359D01*
X93508612Y-143845608D01*
X93508610Y-143845612D01*
X93503560Y-143851279D01*
X93500008Y-143857988D01*
X93500007Y-143857989D01*
X93475377Y-143904507D01*
X93424224Y-144001119D01*
X93382919Y-144165559D01*
X93382031Y-144335105D01*
X93383805Y-144342492D01*
X93383805Y-144342496D01*
X93416721Y-144479595D01*
X93421612Y-144499968D01*
X93425093Y-144506712D01*
X93425094Y-144506715D01*
X93448887Y-144552813D01*
X93499375Y-144650631D01*
X93504367Y-144656353D01*
X93504368Y-144656355D01*
X93517526Y-144671438D01*
X93610831Y-144778396D01*
X93617045Y-144782763D01*
X93743330Y-144871518D01*
X93743332Y-144871519D01*
X93749547Y-144875887D01*
X93907513Y-144937476D01*
X93915046Y-144938468D01*
X93915047Y-144938468D01*
X94032739Y-144953962D01*
X94036826Y-144954500D01*
X94125516Y-144954500D01*
X94251320Y-144939276D01*
X94409923Y-144879345D01*
X94443512Y-144856260D01*
X94543392Y-144787614D01*
X94543393Y-144787613D01*
X94549651Y-144783312D01*
X94554704Y-144777641D01*
X94657388Y-144662392D01*
X94657390Y-144662388D01*
X94662440Y-144656721D01*
X94668896Y-144644529D01*
X94738224Y-144513589D01*
X94741776Y-144506881D01*
X94783081Y-144342441D01*
X94783969Y-144172895D01*
X94764428Y-144091500D01*
X94746161Y-144015417D01*
X94744388Y-144008032D01*
X94731955Y-143983942D01*
X94670108Y-143864117D01*
X94670108Y-143864116D01*
X94666625Y-143857369D01*
X94661313Y-143851279D01*
X94582783Y-143761259D01*
X94555169Y-143729604D01*
X94430151Y-143641740D01*
X94422670Y-143636482D01*
X94422668Y-143636481D01*
X94416453Y-143632113D01*
X94270706Y-143575288D01*
X94265566Y-143573284D01*
X94258487Y-143570524D01*
X94250954Y-143569532D01*
X94250953Y-143569532D01*
X94244436Y-143568674D01*
X95482500Y-143568674D01*
X95497034Y-143641740D01*
X95552399Y-143724601D01*
X95562714Y-143731493D01*
X95616343Y-143767326D01*
X95635260Y-143779966D01*
X95708326Y-143794500D01*
X96757674Y-143794500D01*
X96830740Y-143779966D01*
X96849658Y-143767326D01*
X96903286Y-143731493D01*
X96913601Y-143724601D01*
X96968966Y-143641740D01*
X96983500Y-143568674D01*
X96983500Y-142719326D01*
X96968966Y-142646260D01*
X96913601Y-142563399D01*
X96830740Y-142508034D01*
X96757674Y-142493500D01*
X95708326Y-142493500D01*
X95635260Y-142508034D01*
X95552399Y-142563399D01*
X95497034Y-142646260D01*
X95482500Y-142719326D01*
X95482500Y-143568674D01*
X94244436Y-143568674D01*
X94133261Y-143554038D01*
X94133260Y-143554038D01*
X94129174Y-143553500D01*
X94040484Y-143553500D01*
X94026603Y-143555180D01*
X93956574Y-143543505D01*
X93903973Y-143495822D01*
X93885502Y-143427271D01*
X93906704Y-143360091D01*
X93918966Y-143341740D01*
X93933500Y-143268674D01*
X93933500Y-141719326D01*
X93918966Y-141646260D01*
X93863601Y-141563399D01*
X93782830Y-141509430D01*
X93780740Y-141508034D01*
X93780885Y-141507817D01*
X93733000Y-141469229D01*
X93710500Y-141397369D01*
X93710500Y-141318534D01*
X93730625Y-141255662D01*
X93729181Y-141254956D01*
X93768352Y-141174820D01*
X93785541Y-141139656D01*
X93796500Y-141064535D01*
X93796499Y-140621466D01*
X93785346Y-140545691D01*
X93742534Y-140458494D01*
X93733374Y-140439837D01*
X93733373Y-140439836D01*
X93728784Y-140430489D01*
X93667138Y-140368950D01*
X93645327Y-140347177D01*
X93645326Y-140347177D01*
X93637956Y-140339819D01*
X93628051Y-140334977D01*
X93583344Y-140313124D01*
X93522656Y-140283459D01*
X93490221Y-140278727D01*
X93452061Y-140273160D01*
X93452057Y-140273160D01*
X93447535Y-140272500D01*
X93276654Y-140272500D01*
X93104466Y-140272501D01*
X93028691Y-140283654D01*
X92974624Y-140310200D01*
X92922837Y-140335626D01*
X92922836Y-140335627D01*
X92913489Y-140340216D01*
X92894084Y-140359655D01*
X92855196Y-140398610D01*
X92792913Y-140432689D01*
X92722093Y-140427686D01*
X92677005Y-140398765D01*
X92625327Y-140347177D01*
X92625326Y-140347177D01*
X92617956Y-140339819D01*
X92608051Y-140334977D01*
X92557362Y-140310200D01*
X92504945Y-140262314D01*
X92486738Y-140193692D01*
X92508522Y-140126120D01*
X92563380Y-140081052D01*
X92612695Y-140071000D01*
X92851674Y-140071000D01*
X92924740Y-140056466D01*
X93007601Y-140001101D01*
X93062966Y-139918240D01*
X93077500Y-139845174D01*
X93077500Y-139824000D01*
X93097502Y-139755879D01*
X93151158Y-139709386D01*
X93203500Y-139698000D01*
X93833788Y-139698000D01*
X93857417Y-139700515D01*
X93859291Y-139700603D01*
X93869471Y-139702795D01*
X93902609Y-139698873D01*
X93908490Y-139698526D01*
X93908482Y-139698428D01*
X93913658Y-139698000D01*
X93918862Y-139698000D01*
X93931194Y-139695948D01*
X93937766Y-139694854D01*
X93943641Y-139694017D01*
X93948904Y-139693394D01*
X93994275Y-139688024D01*
X94002485Y-139684081D01*
X94011470Y-139682586D01*
X94020637Y-139677640D01*
X94020639Y-139677639D01*
X94056349Y-139658371D01*
X94061639Y-139655676D01*
X94075314Y-139649109D01*
X94107566Y-139633622D01*
X94111815Y-139630050D01*
X94113744Y-139628121D01*
X94115649Y-139626373D01*
X94115758Y-139626314D01*
X94115865Y-139626431D01*
X94116374Y-139625982D01*
X94122072Y-139622908D01*
X94158491Y-139583510D01*
X94161920Y-139579945D01*
X96167461Y-137574405D01*
X96229773Y-137540379D01*
X96256556Y-137537500D01*
X97941472Y-137537500D01*
X98009593Y-137557502D01*
X98055898Y-137610748D01*
X98102856Y-137712607D01*
X98106189Y-137717323D01*
X98197586Y-137846647D01*
X98219588Y-137877780D01*
X98364466Y-138018913D01*
X98369270Y-138022123D01*
X98426678Y-138060482D01*
X98532637Y-138131282D01*
X98537940Y-138133560D01*
X98537943Y-138133562D01*
X98681015Y-138195030D01*
X98718470Y-138211122D01*
X98812646Y-138232432D01*
X98901329Y-138252499D01*
X98915740Y-138255760D01*
X98921509Y-138255987D01*
X98921512Y-138255987D01*
X98997683Y-138258979D01*
X99117842Y-138263700D01*
X99215035Y-138249608D01*
X99312286Y-138235508D01*
X99312291Y-138235507D01*
X99318007Y-138234678D01*
X99323479Y-138232820D01*
X99323481Y-138232820D01*
X99504067Y-138171519D01*
X99504069Y-138171518D01*
X99509531Y-138169664D01*
X99659622Y-138085610D01*
X99680964Y-138073658D01*
X99680965Y-138073657D01*
X99686001Y-138070837D01*
X99692231Y-138065656D01*
X99777335Y-137994875D01*
X99841505Y-137941505D01*
X99857126Y-137922723D01*
X99916064Y-137883139D01*
X99987046Y-137881704D01*
X100047536Y-137918872D01*
X100078329Y-137982843D01*
X100080000Y-138003293D01*
X100080000Y-141015403D01*
X100059998Y-141083524D01*
X100006342Y-141130017D01*
X99941653Y-141140797D01*
X99940745Y-141140708D01*
X99934674Y-141139500D01*
X98185326Y-141139500D01*
X98112260Y-141154034D01*
X98101943Y-141160928D01*
X98101942Y-141160928D01*
X98083803Y-141173048D01*
X98029399Y-141209399D01*
X97974034Y-141292260D01*
X97959500Y-141365326D01*
X97959500Y-143114674D01*
X97974034Y-143187740D01*
X98029399Y-143270601D01*
X98112260Y-143325966D01*
X98185326Y-143340500D01*
X99934674Y-143340500D01*
X99940745Y-143339292D01*
X99941653Y-143339203D01*
X100011406Y-143352434D01*
X100062933Y-143401275D01*
X100080000Y-143464597D01*
X100080000Y-144742966D01*
X100077579Y-144767547D01*
X100075102Y-144780000D01*
X100077523Y-144792170D01*
X100077523Y-144802808D01*
X100077044Y-144813789D01*
X100065986Y-144940188D01*
X100065465Y-144946140D01*
X100061651Y-144967770D01*
X100021340Y-145118213D01*
X100013828Y-145138852D01*
X99948003Y-145280013D01*
X99937021Y-145299033D01*
X99847688Y-145426615D01*
X99833570Y-145443440D01*
X99723440Y-145553570D01*
X99706615Y-145567688D01*
X99579033Y-145657021D01*
X99560013Y-145668003D01*
X99418852Y-145733828D01*
X99398213Y-145741340D01*
X99368773Y-145749228D01*
X99247766Y-145781652D01*
X99226143Y-145785464D01*
X99117662Y-145794955D01*
X99093789Y-145797044D01*
X99082808Y-145797523D01*
X99072170Y-145797523D01*
X99060000Y-145795102D01*
X99047829Y-145797523D01*
X99047547Y-145797579D01*
X99022966Y-145800000D01*
X97109500Y-145800000D01*
X97041379Y-145779998D01*
X96994886Y-145726342D01*
X96983500Y-145674000D01*
X96983500Y-144929326D01*
X96968966Y-144856260D01*
X96913601Y-144773399D01*
X96851834Y-144732128D01*
X96841058Y-144724928D01*
X96841057Y-144724928D01*
X96830740Y-144718034D01*
X96757674Y-144703500D01*
X95708326Y-144703500D01*
X95635260Y-144718034D01*
X95624943Y-144724928D01*
X95624942Y-144724928D01*
X95614166Y-144732128D01*
X95552399Y-144773399D01*
X95497034Y-144856260D01*
X95482500Y-144929326D01*
X95482500Y-145674000D01*
X95462498Y-145742121D01*
X95408842Y-145788614D01*
X95356500Y-145800000D01*
X89809500Y-145800000D01*
X89741379Y-145779998D01*
X89694886Y-145726342D01*
X89683500Y-145674000D01*
X89683500Y-144929326D01*
X89668966Y-144856260D01*
X89613601Y-144773399D01*
X89551834Y-144732128D01*
X89541058Y-144724928D01*
X89541057Y-144724928D01*
X89530740Y-144718034D01*
X89457674Y-144703500D01*
X88408326Y-144703500D01*
X88335260Y-144718034D01*
X88324943Y-144724928D01*
X88324942Y-144724928D01*
X88314166Y-144732128D01*
X88252399Y-144773399D01*
X88197034Y-144856260D01*
X88182500Y-144929326D01*
X88182500Y-145674000D01*
X88162498Y-145742121D01*
X88108842Y-145788614D01*
X88056500Y-145800000D01*
X85547969Y-145800000D01*
X85479848Y-145779998D01*
X85433355Y-145726342D01*
X85423251Y-145656068D01*
X85452745Y-145591488D01*
X85458874Y-145584905D01*
X85464286Y-145579493D01*
X85474601Y-145572601D01*
X85507669Y-145523111D01*
X85523072Y-145500058D01*
X85523072Y-145500057D01*
X85529966Y-145489740D01*
X85544500Y-145416674D01*
X85544500Y-144067326D01*
X85529966Y-143994260D01*
X85474601Y-143911399D01*
X85391740Y-143856034D01*
X85318674Y-143841500D01*
X85245500Y-143841500D01*
X85177379Y-143821498D01*
X85130886Y-143767842D01*
X85119500Y-143715500D01*
X85119500Y-143135501D01*
X85120049Y-143123860D01*
X85121760Y-143116204D01*
X85119562Y-143046256D01*
X85119500Y-143042299D01*
X85119500Y-143013575D01*
X85118962Y-143009312D01*
X85118029Y-142997473D01*
X85116847Y-142959857D01*
X85116598Y-142951931D01*
X85110719Y-142931693D01*
X85106711Y-142912339D01*
X85105065Y-142899308D01*
X85105065Y-142899306D01*
X85104071Y-142891442D01*
X85099564Y-142880058D01*
X85087301Y-142849084D01*
X85083456Y-142837854D01*
X85072956Y-142801712D01*
X85072956Y-142801711D01*
X85070745Y-142794102D01*
X85066712Y-142787283D01*
X85066710Y-142787278D01*
X85060020Y-142775967D01*
X85051320Y-142758208D01*
X85046488Y-142746004D01*
X85043568Y-142738629D01*
X85016791Y-142701773D01*
X85010275Y-142691853D01*
X84992323Y-142661499D01*
X84987081Y-142652635D01*
X84972188Y-142637742D01*
X84959347Y-142622708D01*
X84951623Y-142612077D01*
X84946963Y-142605663D01*
X84911856Y-142576620D01*
X84903077Y-142568631D01*
X84581405Y-142246959D01*
X84547379Y-142184647D01*
X84544500Y-142157864D01*
X84544500Y-141367326D01*
X84529966Y-141294260D01*
X84521088Y-141280972D01*
X84481493Y-141221714D01*
X84474601Y-141211399D01*
X84428804Y-141180799D01*
X84402058Y-141162928D01*
X84402057Y-141162928D01*
X84391740Y-141156034D01*
X84318674Y-141141500D01*
X82844326Y-141141500D01*
X82771260Y-141156034D01*
X82760943Y-141162928D01*
X82760942Y-141162928D01*
X82734196Y-141180799D01*
X82688399Y-141211399D01*
X82681507Y-141221714D01*
X82641913Y-141280972D01*
X82633034Y-141294260D01*
X82618500Y-141367326D01*
X82618500Y-142966674D01*
X82633034Y-143039740D01*
X82688399Y-143122601D01*
X82771260Y-143177966D01*
X82844326Y-143192500D01*
X83634864Y-143192500D01*
X83702985Y-143212502D01*
X83723959Y-143229405D01*
X83781595Y-143287041D01*
X83815621Y-143349353D01*
X83818500Y-143376136D01*
X83818500Y-143715500D01*
X83798498Y-143783621D01*
X83744842Y-143830114D01*
X83692500Y-143841500D01*
X83619326Y-143841500D01*
X83546260Y-143856034D01*
X83545670Y-143853069D01*
X83494079Y-143858611D01*
X83430595Y-143826826D01*
X83392883Y-143759197D01*
X83382387Y-143706431D01*
X83379966Y-143694260D01*
X83324601Y-143611399D01*
X83269739Y-143574742D01*
X83252058Y-143562928D01*
X83252057Y-143562928D01*
X83241740Y-143556034D01*
X83168674Y-143541500D01*
X82119326Y-143541500D01*
X82046260Y-143556034D01*
X82035943Y-143562928D01*
X82035942Y-143562928D01*
X82018261Y-143574742D01*
X81963399Y-143611399D01*
X81908034Y-143694260D01*
X81893500Y-143767326D01*
X81893500Y-143965500D01*
X81873498Y-144033621D01*
X81819842Y-144080114D01*
X81767500Y-144091500D01*
X81220500Y-144091500D01*
X81152379Y-144071498D01*
X81105886Y-144017842D01*
X81094500Y-143965500D01*
X81094500Y-143767326D01*
X81079966Y-143694260D01*
X81024601Y-143611399D01*
X80969739Y-143574742D01*
X80952058Y-143562928D01*
X80952057Y-143562928D01*
X80941740Y-143556034D01*
X80868674Y-143541500D01*
X79019326Y-143541500D01*
X78946260Y-143556034D01*
X78935943Y-143562928D01*
X78935942Y-143562928D01*
X78918261Y-143574742D01*
X78863399Y-143611399D01*
X78808034Y-143694260D01*
X78805613Y-143706431D01*
X78795117Y-143759197D01*
X78762209Y-143822106D01*
X78700514Y-143857238D01*
X78642430Y-143852565D01*
X78641740Y-143856034D01*
X78568674Y-143841500D01*
X78495500Y-143841500D01*
X78427379Y-143821498D01*
X78380886Y-143767842D01*
X78369500Y-143715500D01*
X78369500Y-143376136D01*
X78389502Y-143308015D01*
X78406405Y-143287041D01*
X78464041Y-143229405D01*
X78526353Y-143195379D01*
X78553136Y-143192500D01*
X79343674Y-143192500D01*
X79416740Y-143177966D01*
X79499601Y-143122601D01*
X79506493Y-143112286D01*
X79506495Y-143112284D01*
X79529070Y-143078498D01*
X79583547Y-143032970D01*
X79633835Y-143022500D01*
X80043674Y-143022500D01*
X80094419Y-143012406D01*
X80143581Y-143012406D01*
X80194326Y-143022500D01*
X80693674Y-143022500D01*
X80744419Y-143012406D01*
X80793581Y-143012406D01*
X80844326Y-143022500D01*
X81343674Y-143022500D01*
X81394419Y-143012406D01*
X81443581Y-143012406D01*
X81494326Y-143022500D01*
X81993674Y-143022500D01*
X82066740Y-143007966D01*
X82149601Y-142952601D01*
X82185210Y-142899308D01*
X82198072Y-142880058D01*
X82198072Y-142880057D01*
X82204966Y-142869740D01*
X82219500Y-142796674D01*
X82219500Y-141367326D01*
X82204966Y-141294260D01*
X82196088Y-141280972D01*
X82156493Y-141221714D01*
X82149601Y-141211399D01*
X82103804Y-141180799D01*
X82077058Y-141162928D01*
X82077057Y-141162928D01*
X82066740Y-141156034D01*
X81993674Y-141141500D01*
X81511212Y-141141500D01*
X81443091Y-141121498D01*
X81396598Y-141067842D01*
X81385212Y-141015500D01*
X81385213Y-140626074D01*
X81385213Y-140155691D01*
X81405215Y-140087570D01*
X81422118Y-140066596D01*
X81583275Y-139905439D01*
X81602228Y-139890131D01*
X81603326Y-139889132D01*
X81612078Y-139883481D01*
X81618523Y-139875306D01*
X81618528Y-139875301D01*
X81624207Y-139868096D01*
X81682088Y-139826982D01*
X81723157Y-139820100D01*
X81885408Y-139820099D01*
X81903518Y-139820099D01*
X81908412Y-139819324D01*
X81987506Y-139806798D01*
X81987508Y-139806797D01*
X81997304Y-139805246D01*
X82110342Y-139747650D01*
X82200050Y-139657942D01*
X82257646Y-139544904D01*
X82260745Y-139525341D01*
X82266231Y-139490698D01*
X82272500Y-139451119D01*
X82272499Y-138363082D01*
X82271672Y-138357862D01*
X82259198Y-138279094D01*
X82259197Y-138279092D01*
X82257646Y-138269296D01*
X82250555Y-138255378D01*
X82231226Y-138217444D01*
X82200050Y-138156258D01*
X82110342Y-138066550D01*
X81997304Y-138008954D01*
X81987515Y-138007404D01*
X81987513Y-138007403D01*
X81960151Y-138003070D01*
X81903519Y-137994100D01*
X81722037Y-137994100D01*
X81540482Y-137994101D01*
X81535589Y-137994876D01*
X81535588Y-137994876D01*
X81456494Y-138007402D01*
X81456492Y-138007403D01*
X81446696Y-138008954D01*
X81437859Y-138013457D01*
X81437858Y-138013457D01*
X81420850Y-138022123D01*
X81333658Y-138066550D01*
X81243950Y-138156258D01*
X81186354Y-138269296D01*
X81171500Y-138363081D01*
X81171501Y-138639899D01*
X81171501Y-138866514D01*
X81151499Y-138934635D01*
X81134596Y-138955609D01*
X81120877Y-138969328D01*
X81101924Y-138984636D01*
X81100826Y-138985635D01*
X81092074Y-138991286D01*
X81085627Y-138999464D01*
X81071178Y-139017793D01*
X81067209Y-139022259D01*
X81067281Y-139022320D01*
X81063930Y-139026275D01*
X81060245Y-139029960D01*
X81048956Y-139045758D01*
X81045425Y-139050461D01*
X81013537Y-139090911D01*
X81010491Y-139099586D01*
X81005146Y-139107065D01*
X80991928Y-139151262D01*
X80990394Y-139156390D01*
X80988559Y-139162036D01*
X80980634Y-139184604D01*
X80971504Y-139210603D01*
X80971020Y-139216191D01*
X80971020Y-139218903D01*
X80970905Y-139221554D01*
X80970882Y-139221631D01*
X80970712Y-139221624D01*
X80970666Y-139222355D01*
X80968797Y-139228604D01*
X80970098Y-139261708D01*
X80970923Y-139282708D01*
X80971020Y-139287655D01*
X80971020Y-139364448D01*
X80951018Y-139432569D01*
X80897362Y-139479062D01*
X80888461Y-139482609D01*
X80879020Y-139484180D01*
X80869851Y-139489127D01*
X80865264Y-139490698D01*
X80860838Y-139492613D01*
X80850729Y-139495124D01*
X80841983Y-139500771D01*
X80841979Y-139500773D01*
X80841486Y-139501092D01*
X80840717Y-139501320D01*
X80832417Y-139504911D01*
X80831982Y-139503905D01*
X80773409Y-139521241D01*
X80726607Y-139509279D01*
X80725955Y-139511137D01*
X80684913Y-139496724D01*
X80675721Y-139493084D01*
X80648034Y-139480844D01*
X80593817Y-139435006D01*
X80572980Y-139365603D01*
X80572980Y-139331115D01*
X80575558Y-139306894D01*
X80575628Y-139305407D01*
X80577821Y-139295222D01*
X80576597Y-139284880D01*
X80576597Y-139284877D01*
X80573854Y-139261708D01*
X80573502Y-139255739D01*
X80573408Y-139255747D01*
X80572980Y-139250567D01*
X80572980Y-139245369D01*
X80571922Y-139239008D01*
X80569798Y-139226254D01*
X80568961Y-139220374D01*
X80568466Y-139216191D01*
X80562909Y-139169243D01*
X80558929Y-139160956D01*
X80557420Y-139151887D01*
X80532972Y-139106577D01*
X80530275Y-139101284D01*
X80527314Y-139095117D01*
X80507996Y-139054886D01*
X80504387Y-139050592D01*
X80502466Y-139048671D01*
X80500675Y-139046719D01*
X80500637Y-139046649D01*
X80500764Y-139046533D01*
X80500276Y-139045980D01*
X80497181Y-139040243D01*
X80457413Y-139003482D01*
X80453848Y-139000053D01*
X80409405Y-138955610D01*
X80375379Y-138893298D01*
X80372500Y-138866515D01*
X80372499Y-138368037D01*
X80372499Y-138363082D01*
X80371672Y-138357862D01*
X80362959Y-138302843D01*
X80372059Y-138232432D01*
X80405160Y-138187681D01*
X80435413Y-138161613D01*
X80443334Y-138155324D01*
X80450140Y-138150352D01*
X80454074Y-138147478D01*
X80464817Y-138136735D01*
X80471664Y-138130377D01*
X80501975Y-138104259D01*
X80508775Y-138098400D01*
X80513658Y-138090866D01*
X80519557Y-138084104D01*
X80519562Y-138084108D01*
X80528538Y-138073014D01*
X81076280Y-137525272D01*
X81085630Y-137517801D01*
X81085298Y-137517411D01*
X81092132Y-137511596D01*
X81099720Y-137506808D01*
X81100703Y-137505695D01*
X81117588Y-137494435D01*
X81151507Y-137477152D01*
X81151510Y-137477150D01*
X81160342Y-137472650D01*
X81167354Y-137465638D01*
X81172938Y-137461581D01*
X81239806Y-137437722D01*
X81308957Y-137453801D01*
X81321063Y-137461581D01*
X81326644Y-137465636D01*
X81333658Y-137472650D01*
X81342494Y-137477152D01*
X81342495Y-137477153D01*
X81380405Y-137496469D01*
X81446696Y-137530246D01*
X81456485Y-137531796D01*
X81456487Y-137531797D01*
X81483849Y-137536130D01*
X81540481Y-137545100D01*
X81721963Y-137545100D01*
X81903518Y-137545099D01*
X81908412Y-137544324D01*
X81987506Y-137531798D01*
X81987508Y-137531797D01*
X81997304Y-137530246D01*
X82007520Y-137525041D01*
X82034735Y-137511174D01*
X82110342Y-137472650D01*
X82200050Y-137382942D01*
X82257646Y-137269904D01*
X82259316Y-137259364D01*
X82269495Y-137195089D01*
X82272500Y-137176119D01*
X82272499Y-136088082D01*
X82268363Y-136061966D01*
X82259198Y-136004094D01*
X82259197Y-136004092D01*
X82257646Y-135994296D01*
X82200050Y-135881258D01*
X82110342Y-135791550D01*
X81997304Y-135733954D01*
X81987515Y-135732404D01*
X81987513Y-135732403D01*
X81953081Y-135726950D01*
X81903519Y-135719100D01*
X81883825Y-135719100D01*
X81722253Y-135719101D01*
X81654133Y-135699099D01*
X81636723Y-135685624D01*
X81617565Y-135667914D01*
X81614000Y-135664486D01*
X81422118Y-135472604D01*
X81388092Y-135410292D01*
X81385213Y-135383509D01*
X81385212Y-134671926D01*
X81387790Y-134647704D01*
X81387860Y-134646214D01*
X81390052Y-134636034D01*
X81386085Y-134602518D01*
X81385733Y-134596552D01*
X81385640Y-134596560D01*
X81385212Y-134591382D01*
X81385212Y-134586181D01*
X81382030Y-134567063D01*
X81381193Y-134561186D01*
X81380416Y-134554617D01*
X81375141Y-134510054D01*
X81371161Y-134501766D01*
X81369652Y-134492699D01*
X81345191Y-134447365D01*
X81342513Y-134442107D01*
X81323659Y-134402842D01*
X81323657Y-134402839D01*
X81320228Y-134395698D01*
X81316619Y-134391404D01*
X81314693Y-134389478D01*
X81312907Y-134387531D01*
X81312869Y-134387461D01*
X81312996Y-134387345D01*
X81312508Y-134386792D01*
X81309413Y-134381055D01*
X81269645Y-134344294D01*
X81266080Y-134340865D01*
X80035117Y-133109902D01*
X80001091Y-133047590D01*
X79998212Y-133020807D01*
X79998212Y-131860512D01*
X80018214Y-131792391D01*
X80035117Y-131771417D01*
X80937405Y-130869129D01*
X80999717Y-130835103D01*
X81070532Y-130840168D01*
G37*
%TD.AperFunction*%
%TA.AperFunction,Conductor*%
G36*
X78689820Y-131826872D02*
G01*
X78746656Y-131869419D01*
X78771467Y-131935939D01*
X78771788Y-131944928D01*
X78771788Y-133369074D01*
X78769210Y-133393296D01*
X78769140Y-133394786D01*
X78766948Y-133404966D01*
X78768172Y-133415305D01*
X78770915Y-133438482D01*
X78771267Y-133444447D01*
X78771360Y-133444439D01*
X78771788Y-133449615D01*
X78771788Y-133454819D01*
X78772643Y-133459954D01*
X78774969Y-133473933D01*
X78775805Y-133479808D01*
X78780633Y-133520599D01*
X78780635Y-133520607D01*
X78781859Y-133530945D01*
X78785839Y-133539232D01*
X78787348Y-133548301D01*
X78792293Y-133557466D01*
X78792294Y-133557468D01*
X78811796Y-133593611D01*
X78814489Y-133598897D01*
X78836772Y-133645302D01*
X78840381Y-133649596D01*
X78842302Y-133651517D01*
X78844093Y-133653469D01*
X78844131Y-133653539D01*
X78844004Y-133653655D01*
X78844492Y-133654208D01*
X78847587Y-133659945D01*
X78855230Y-133667010D01*
X78887354Y-133696705D01*
X78890920Y-133700135D01*
X80121883Y-134931098D01*
X80155909Y-134993410D01*
X80158788Y-135020193D01*
X80158787Y-135383509D01*
X80138785Y-135451630D01*
X80121882Y-135472604D01*
X79960725Y-135633761D01*
X79941772Y-135649069D01*
X79940674Y-135650068D01*
X79931922Y-135655719D01*
X79925477Y-135663894D01*
X79925472Y-135663899D01*
X79919793Y-135671104D01*
X79861912Y-135712218D01*
X79820843Y-135719100D01*
X79658592Y-135719101D01*
X79640482Y-135719101D01*
X79635589Y-135719876D01*
X79635588Y-135719876D01*
X79556494Y-135732402D01*
X79556492Y-135732403D01*
X79546696Y-135733954D01*
X79433658Y-135791550D01*
X79343950Y-135881258D01*
X79286354Y-135994296D01*
X79271500Y-136088081D01*
X79271501Y-136629208D01*
X79271501Y-137137976D01*
X79251499Y-137206097D01*
X79197843Y-137252590D01*
X79153303Y-137263734D01*
X79140216Y-137264546D01*
X79128734Y-137265258D01*
X79120933Y-137265500D01*
X79105060Y-137265500D01*
X79094948Y-137266948D01*
X79084894Y-137267978D01*
X79056903Y-137269715D01*
X79038462Y-137270859D01*
X79030018Y-137273907D01*
X79026306Y-137274676D01*
X79011601Y-137278343D01*
X79007973Y-137279404D01*
X78999082Y-137280677D01*
X78956718Y-137299939D01*
X78947363Y-137303746D01*
X78912057Y-137316491D01*
X78912053Y-137316493D01*
X78903613Y-137319540D01*
X78896365Y-137324835D01*
X78893025Y-137326611D01*
X78879911Y-137334274D01*
X78876739Y-137336303D01*
X78868572Y-137340016D01*
X78861777Y-137345871D01*
X78861774Y-137345873D01*
X78833325Y-137370387D01*
X78825405Y-137376675D01*
X78814664Y-137384522D01*
X78803921Y-137395265D01*
X78797075Y-137401623D01*
X78759963Y-137433600D01*
X78755080Y-137441134D01*
X78749181Y-137447896D01*
X78749176Y-137447892D01*
X78740200Y-137458986D01*
X77394320Y-138804866D01*
X77384976Y-138812332D01*
X77385308Y-138812722D01*
X77378472Y-138818540D01*
X77370880Y-138823330D01*
X77364938Y-138830058D01*
X77364937Y-138830059D01*
X77335845Y-138863000D01*
X77330498Y-138868688D01*
X77319280Y-138879906D01*
X77316591Y-138883494D01*
X77316590Y-138883495D01*
X77313150Y-138888084D01*
X77306768Y-138895923D01*
X77297785Y-138906095D01*
X77275977Y-138930788D01*
X77272163Y-138938911D01*
X77270092Y-138942064D01*
X77262273Y-138955076D01*
X77260456Y-138958395D01*
X77255074Y-138965576D01*
X77251925Y-138973977D01*
X77251924Y-138973978D01*
X77238744Y-139009136D01*
X77234817Y-139018453D01*
X77218863Y-139052434D01*
X77218862Y-139052437D01*
X77215047Y-139060563D01*
X77213665Y-139069437D01*
X77212561Y-139073050D01*
X77208715Y-139087707D01*
X77207901Y-139091410D01*
X77204748Y-139099820D01*
X77201298Y-139146243D01*
X77200148Y-139156256D01*
X77198100Y-139169409D01*
X77198100Y-139184604D01*
X77197754Y-139193941D01*
X77194124Y-139242792D01*
X77195997Y-139251568D01*
X77196608Y-139260525D01*
X77196602Y-139260525D01*
X77198100Y-139274718D01*
X77198100Y-140041100D01*
X77178098Y-140109221D01*
X77124442Y-140155714D01*
X77072100Y-140167100D01*
X76306400Y-140167100D01*
X76294760Y-140166551D01*
X76287104Y-140164840D01*
X76279181Y-140165089D01*
X76217170Y-140167038D01*
X76213212Y-140167100D01*
X76184475Y-140167100D01*
X76180204Y-140167639D01*
X76168376Y-140168571D01*
X76122831Y-140170003D01*
X76115217Y-140172215D01*
X76115212Y-140172216D01*
X76102608Y-140175878D01*
X76083244Y-140179889D01*
X76062342Y-140182529D01*
X76054971Y-140185448D01*
X76054969Y-140185448D01*
X76019980Y-140199302D01*
X76008769Y-140203141D01*
X75965002Y-140215856D01*
X75948590Y-140225562D01*
X75946867Y-140226581D01*
X75929119Y-140235276D01*
X75923766Y-140237395D01*
X75917662Y-140239812D01*
X75909529Y-140243032D01*
X75872662Y-140269818D01*
X75862754Y-140276325D01*
X75830358Y-140295483D01*
X75830353Y-140295487D01*
X75823535Y-140299519D01*
X75808642Y-140314412D01*
X75793608Y-140327253D01*
X75776563Y-140339637D01*
X75771510Y-140345746D01*
X75771507Y-140345748D01*
X75759574Y-140360172D01*
X75700740Y-140399909D01*
X75629762Y-140401530D01*
X75573396Y-140368950D01*
X75376404Y-140171958D01*
X75342378Y-140109646D01*
X75339499Y-140082863D01*
X75339499Y-139960482D01*
X75329280Y-139895955D01*
X75326198Y-139876494D01*
X75326197Y-139876492D01*
X75324646Y-139866696D01*
X75310528Y-139838987D01*
X75300904Y-139820100D01*
X75267050Y-139753658D01*
X75177342Y-139663950D01*
X75064304Y-139606354D01*
X75054515Y-139604804D01*
X75054513Y-139604803D01*
X75027151Y-139600470D01*
X74970519Y-139591500D01*
X74816221Y-139591500D01*
X74760823Y-139576346D01*
X74760264Y-139577638D01*
X74616701Y-139515513D01*
X74616700Y-139515513D01*
X74609426Y-139512365D01*
X74601603Y-139511126D01*
X74601600Y-139511125D01*
X74472633Y-139490698D01*
X74447095Y-139486653D01*
X74439204Y-139487399D01*
X74291359Y-139501375D01*
X74291357Y-139501376D01*
X74283471Y-139502121D01*
X74276017Y-139504805D01*
X74276015Y-139504805D01*
X74136292Y-139555108D01*
X74136290Y-139555109D01*
X74128832Y-139557794D01*
X74122276Y-139562250D01*
X74122275Y-139562250D01*
X74111294Y-139569713D01*
X74040471Y-139591501D01*
X73882482Y-139591501D01*
X73877589Y-139592276D01*
X73877588Y-139592276D01*
X73798494Y-139604802D01*
X73798492Y-139604803D01*
X73788696Y-139606354D01*
X73779859Y-139610857D01*
X73779858Y-139610857D01*
X73763537Y-139619173D01*
X73675658Y-139663950D01*
X73585950Y-139753658D01*
X73528354Y-139866696D01*
X73526804Y-139876485D01*
X73526803Y-139876487D01*
X73524642Y-139890131D01*
X73513500Y-139960481D01*
X73513501Y-140323518D01*
X73514276Y-140328411D01*
X73514276Y-140328412D01*
X73521508Y-140374074D01*
X73528354Y-140417304D01*
X73532857Y-140426141D01*
X73532857Y-140426142D01*
X73535072Y-140430489D01*
X73585950Y-140530342D01*
X73675658Y-140620050D01*
X73788696Y-140677646D01*
X73798485Y-140679196D01*
X73798487Y-140679197D01*
X73825849Y-140683530D01*
X73882481Y-140692500D01*
X74004863Y-140692500D01*
X74072984Y-140712502D01*
X74093958Y-140729404D01*
X74464095Y-141099540D01*
X74498120Y-141161853D01*
X74501000Y-141188636D01*
X74501000Y-141468475D01*
X74492982Y-141512704D01*
X74460090Y-141600442D01*
X74460089Y-141600446D01*
X74457316Y-141607843D01*
X74456463Y-141615696D01*
X74456462Y-141615700D01*
X74451369Y-141662586D01*
X74451000Y-141665985D01*
X74451001Y-142256014D01*
X74457316Y-142314157D01*
X74460090Y-142321556D01*
X74460090Y-142321557D01*
X74492982Y-142409296D01*
X74501000Y-142453525D01*
X74501000Y-143982864D01*
X74480998Y-144050985D01*
X74464095Y-144071959D01*
X74316459Y-144219595D01*
X74254147Y-144253621D01*
X74227364Y-144256500D01*
X68873636Y-144256500D01*
X68805515Y-144236498D01*
X68784541Y-144219595D01*
X67177405Y-142612459D01*
X67143379Y-142550147D01*
X67140500Y-142523364D01*
X67140500Y-141365326D01*
X67125966Y-141292260D01*
X67070601Y-141209399D01*
X67016197Y-141173048D01*
X66998058Y-141160928D01*
X66998057Y-141160928D01*
X66987740Y-141154034D01*
X66914674Y-141139500D01*
X65165326Y-141139500D01*
X65159255Y-141140708D01*
X65158347Y-141140797D01*
X65088594Y-141127566D01*
X65037067Y-141078725D01*
X65020000Y-141015403D01*
X65020000Y-138001480D01*
X65040002Y-137933359D01*
X65093658Y-137886866D01*
X65163932Y-137876762D01*
X65228512Y-137906256D01*
X65233912Y-137911216D01*
X65344466Y-138018913D01*
X65349270Y-138022123D01*
X65406678Y-138060482D01*
X65512637Y-138131282D01*
X65517940Y-138133560D01*
X65517943Y-138133562D01*
X65661015Y-138195030D01*
X65698470Y-138211122D01*
X65792646Y-138232432D01*
X65881329Y-138252499D01*
X65895740Y-138255760D01*
X65901509Y-138255987D01*
X65901512Y-138255987D01*
X65977683Y-138258979D01*
X66097842Y-138263700D01*
X66195035Y-138249608D01*
X66292286Y-138235508D01*
X66292291Y-138235507D01*
X66298007Y-138234678D01*
X66303479Y-138232820D01*
X66303481Y-138232820D01*
X66484067Y-138171519D01*
X66484069Y-138171518D01*
X66489531Y-138169664D01*
X66639622Y-138085610D01*
X66660964Y-138073658D01*
X66660965Y-138073657D01*
X66666001Y-138070837D01*
X66672231Y-138065656D01*
X66757335Y-137994875D01*
X66821505Y-137941505D01*
X66925583Y-137816365D01*
X66947146Y-137790439D01*
X66950837Y-137786001D01*
X66960564Y-137768633D01*
X67046841Y-137614572D01*
X67046841Y-137614571D01*
X67048650Y-137611341D01*
X67048652Y-137611339D01*
X67049664Y-137609531D01*
X67050019Y-137609730D01*
X67093850Y-137558158D01*
X67162981Y-137537500D01*
X67315288Y-137537500D01*
X67338917Y-137540015D01*
X67340791Y-137540103D01*
X67350971Y-137542295D01*
X67384109Y-137538373D01*
X67389990Y-137538026D01*
X67389982Y-137537928D01*
X67395158Y-137537500D01*
X67400362Y-137537500D01*
X67412694Y-137535448D01*
X67419266Y-137534354D01*
X67425141Y-137533517D01*
X67439664Y-137531798D01*
X67475775Y-137527524D01*
X67483985Y-137523581D01*
X67492970Y-137522086D01*
X67502137Y-137517140D01*
X67502139Y-137517139D01*
X67537849Y-137497871D01*
X67543139Y-137495176D01*
X67556973Y-137488533D01*
X67589066Y-137473122D01*
X67593315Y-137469550D01*
X67595244Y-137467621D01*
X67597149Y-137465873D01*
X67597258Y-137465814D01*
X67597365Y-137465931D01*
X67597874Y-137465482D01*
X67603572Y-137462408D01*
X67616991Y-137447892D01*
X67639991Y-137423010D01*
X67643421Y-137419444D01*
X68368905Y-136693960D01*
X68431217Y-136659934D01*
X68502032Y-136664999D01*
X68558868Y-136707546D01*
X68583679Y-136774066D01*
X68584000Y-136783055D01*
X68584000Y-140717000D01*
X68584360Y-140720347D01*
X68584360Y-140720350D01*
X68588892Y-140762500D01*
X68589713Y-140770140D01*
X68601099Y-140822482D01*
X68601546Y-140824110D01*
X68605532Y-140838640D01*
X68608179Y-140848291D01*
X68656448Y-140933057D01*
X68702941Y-140986713D01*
X68704961Y-140988662D01*
X68728528Y-141011403D01*
X68728530Y-141011405D01*
X68735012Y-141017659D01*
X68821446Y-141062871D01*
X68889567Y-141082873D01*
X68894026Y-141083514D01*
X68894030Y-141083515D01*
X68924783Y-141087936D01*
X68960000Y-141093000D01*
X70998000Y-141093000D01*
X71066121Y-141113002D01*
X71112614Y-141166658D01*
X71124000Y-141219000D01*
X71124000Y-142241000D01*
X71124360Y-142244347D01*
X71124360Y-142244350D01*
X71128672Y-142284454D01*
X71129713Y-142294140D01*
X71141099Y-142346482D01*
X71148179Y-142372291D01*
X71196448Y-142457057D01*
X71215296Y-142478809D01*
X71240620Y-142508034D01*
X71242941Y-142510713D01*
X71244961Y-142512662D01*
X71268528Y-142535403D01*
X71268530Y-142535405D01*
X71275012Y-142541659D01*
X71361446Y-142586871D01*
X71388818Y-142594908D01*
X71425241Y-142605603D01*
X71425244Y-142605604D01*
X71429567Y-142606873D01*
X71440237Y-142608407D01*
X71466530Y-142615142D01*
X71565942Y-142652410D01*
X71565946Y-142652411D01*
X71573343Y-142655184D01*
X71581196Y-142656037D01*
X71581200Y-142656038D01*
X71628086Y-142661131D01*
X71628090Y-142661131D01*
X71631485Y-142661500D01*
X71901460Y-142661500D01*
X72171514Y-142661499D01*
X72229657Y-142655184D01*
X72357195Y-142607372D01*
X72360054Y-142605229D01*
X72381123Y-142596708D01*
X72387684Y-142594908D01*
X72387686Y-142594907D01*
X72395291Y-142592821D01*
X72480057Y-142544552D01*
X72516860Y-142512662D01*
X72531590Y-142499899D01*
X72531595Y-142499894D01*
X72533713Y-142498059D01*
X72556526Y-142474417D01*
X72558403Y-142472472D01*
X72558405Y-142472470D01*
X72564659Y-142465988D01*
X72609871Y-142379554D01*
X72629873Y-142311433D01*
X72632360Y-142294140D01*
X72637841Y-142256014D01*
X72640000Y-142241000D01*
X72640000Y-140965000D01*
X72660002Y-140896879D01*
X72713658Y-140850386D01*
X72766000Y-140839000D01*
X72772000Y-140839000D01*
X72775347Y-140838640D01*
X72775350Y-140838640D01*
X72821776Y-140833649D01*
X72821782Y-140833648D01*
X72825140Y-140833287D01*
X72877482Y-140821901D01*
X72886501Y-140819427D01*
X72895685Y-140816908D01*
X72895689Y-140816907D01*
X72903291Y-140814821D01*
X72988057Y-140766552D01*
X73009809Y-140747704D01*
X73039590Y-140721899D01*
X73039595Y-140721894D01*
X73041713Y-140720059D01*
X73049005Y-140712502D01*
X73066403Y-140694472D01*
X73066405Y-140694470D01*
X73072659Y-140687988D01*
X73117871Y-140601554D01*
X73137873Y-140533433D01*
X73139588Y-140521509D01*
X73144135Y-140489880D01*
X73148000Y-140463000D01*
X73148000Y-139826000D01*
X73147366Y-139820099D01*
X73142649Y-139776224D01*
X73142648Y-139776218D01*
X73142287Y-139772860D01*
X73130901Y-139720518D01*
X73127073Y-139706564D01*
X73125908Y-139702315D01*
X73125907Y-139702311D01*
X73123821Y-139694709D01*
X73075552Y-139609943D01*
X73029059Y-139556287D01*
X73017262Y-139544904D01*
X73003472Y-139531597D01*
X73003470Y-139531595D01*
X72996988Y-139525341D01*
X72910554Y-139480129D01*
X72842433Y-139460127D01*
X72837974Y-139459486D01*
X72837970Y-139459485D01*
X72807216Y-139455063D01*
X72772000Y-139450000D01*
X71496000Y-139450000D01*
X71427879Y-139429998D01*
X71381386Y-139376342D01*
X71370000Y-139324000D01*
X71370000Y-138902414D01*
X71390002Y-138834293D01*
X71443658Y-138787800D01*
X71515711Y-138777965D01*
X71607481Y-138792500D01*
X71765422Y-138792500D01*
X71819071Y-138804492D01*
X71948887Y-138865579D01*
X71956670Y-138867064D01*
X71956674Y-138867065D01*
X72102544Y-138894891D01*
X72102546Y-138894891D01*
X72110330Y-138896376D01*
X72192345Y-138891216D01*
X72266449Y-138886554D01*
X72266451Y-138886554D01*
X72274360Y-138886056D01*
X72281896Y-138883607D01*
X72281898Y-138883607D01*
X72332809Y-138867065D01*
X72430671Y-138835268D01*
X72467155Y-138812114D01*
X72534670Y-138792499D01*
X72695518Y-138792499D01*
X72700412Y-138791724D01*
X72779506Y-138779198D01*
X72779508Y-138779197D01*
X72789304Y-138777646D01*
X72902342Y-138720050D01*
X72992050Y-138630342D01*
X73049646Y-138517304D01*
X73064500Y-138423519D01*
X73064499Y-138060482D01*
X73064499Y-138060481D01*
X73513500Y-138060481D01*
X73513501Y-138423518D01*
X73514276Y-138428409D01*
X73514276Y-138428412D01*
X73518100Y-138452555D01*
X73528354Y-138517304D01*
X73585950Y-138630342D01*
X73675658Y-138720050D01*
X73788696Y-138777646D01*
X73798485Y-138779196D01*
X73798487Y-138779197D01*
X73825849Y-138783530D01*
X73882481Y-138792500D01*
X74426390Y-138792500D01*
X74970518Y-138792499D01*
X74975412Y-138791724D01*
X75054506Y-138779198D01*
X75054508Y-138779197D01*
X75064304Y-138777646D01*
X75177342Y-138720050D01*
X75267050Y-138630342D01*
X75324646Y-138517304D01*
X75339500Y-138423519D01*
X75339499Y-138060482D01*
X75332051Y-138013455D01*
X75326198Y-137976494D01*
X75326197Y-137976492D01*
X75324646Y-137966696D01*
X75311811Y-137941505D01*
X75307660Y-137933359D01*
X75267050Y-137853658D01*
X75177342Y-137763950D01*
X75064304Y-137706354D01*
X75054511Y-137704803D01*
X75051972Y-137703978D01*
X74993367Y-137663903D01*
X74965731Y-137598506D01*
X74977839Y-137528550D01*
X75001815Y-137495050D01*
X75158332Y-137338533D01*
X75220644Y-137304507D01*
X75249403Y-137301644D01*
X75319207Y-137302741D01*
X75371898Y-137303569D01*
X75371901Y-137303569D01*
X75379495Y-137303688D01*
X75532968Y-137268538D01*
X75673625Y-137197795D01*
X75704804Y-137171166D01*
X75787574Y-137100474D01*
X75787576Y-137100471D01*
X75793348Y-137095542D01*
X75885224Y-136967683D01*
X75943950Y-136821598D01*
X75959115Y-136715041D01*
X75965553Y-136669807D01*
X75965553Y-136669804D01*
X75966134Y-136665723D01*
X75966278Y-136652000D01*
X75947363Y-136495694D01*
X75939309Y-136474380D01*
X75894394Y-136355514D01*
X75894393Y-136355511D01*
X75891710Y-136348412D01*
X75802531Y-136218657D01*
X75713921Y-136139708D01*
X75690648Y-136118972D01*
X75690645Y-136118970D01*
X75684976Y-136113919D01*
X75545831Y-136040245D01*
X75401879Y-136004087D01*
X75400498Y-136003740D01*
X75400496Y-136003740D01*
X75393128Y-136001889D01*
X75385530Y-136001849D01*
X75385528Y-136001849D01*
X75318319Y-136001497D01*
X75235684Y-136001065D01*
X75228305Y-136002837D01*
X75228301Y-136002837D01*
X75089967Y-136036048D01*
X75089963Y-136036049D01*
X75082588Y-136037820D01*
X75037989Y-136060839D01*
X74984775Y-136088305D01*
X74942679Y-136110032D01*
X74936957Y-136115024D01*
X74936955Y-136115025D01*
X74829759Y-136208538D01*
X74829756Y-136208541D01*
X74824034Y-136213533D01*
X74805336Y-136240138D01*
X74739017Y-136334500D01*
X74733501Y-136342348D01*
X74676309Y-136489039D01*
X74673472Y-136510591D01*
X74660405Y-136609843D01*
X74655758Y-136645138D01*
X74661869Y-136700487D01*
X74649463Y-136770391D01*
X74625725Y-136803410D01*
X74197547Y-137231587D01*
X74179055Y-137246521D01*
X74177670Y-137247781D01*
X74168925Y-137253428D01*
X74152174Y-137274676D01*
X74148265Y-137279635D01*
X74144348Y-137284042D01*
X74144424Y-137284106D01*
X74141070Y-137288064D01*
X74137391Y-137291743D01*
X74134370Y-137295971D01*
X74134362Y-137295980D01*
X74126235Y-137307352D01*
X74122674Y-137312095D01*
X74097569Y-137343941D01*
X74097566Y-137343946D01*
X74091120Y-137352123D01*
X74088102Y-137360718D01*
X74082807Y-137368127D01*
X74079822Y-137378107D01*
X74079821Y-137378110D01*
X74068201Y-137416964D01*
X74066366Y-137422612D01*
X74052107Y-137463213D01*
X74052105Y-137463220D01*
X74049479Y-137470699D01*
X74049000Y-137476230D01*
X74049000Y-137478942D01*
X74048887Y-137481546D01*
X74048850Y-137481671D01*
X74048695Y-137481664D01*
X74048653Y-137482330D01*
X74046798Y-137488533D01*
X74048260Y-137525743D01*
X74048903Y-137542108D01*
X74049000Y-137547055D01*
X74049000Y-137565501D01*
X74028998Y-137633622D01*
X73975342Y-137680115D01*
X73923000Y-137691501D01*
X73882482Y-137691501D01*
X73877589Y-137692276D01*
X73877588Y-137692276D01*
X73798494Y-137704802D01*
X73798492Y-137704803D01*
X73788696Y-137706354D01*
X73675658Y-137763950D01*
X73585950Y-137853658D01*
X73528354Y-137966696D01*
X73526804Y-137976485D01*
X73526803Y-137976487D01*
X73525125Y-137987081D01*
X73513500Y-138060481D01*
X73064499Y-138060481D01*
X73057051Y-138013455D01*
X73051198Y-137976494D01*
X73051197Y-137976492D01*
X73049646Y-137966696D01*
X73036811Y-137941505D01*
X73032660Y-137933359D01*
X72992050Y-137853658D01*
X72902342Y-137763950D01*
X72870797Y-137747877D01*
X72819182Y-137699129D01*
X72802000Y-137635610D01*
X72802000Y-136832999D01*
X72802549Y-136821359D01*
X72804260Y-136813703D01*
X72803937Y-136803410D01*
X72802062Y-136743769D01*
X72802000Y-136739811D01*
X72802000Y-136711075D01*
X72801461Y-136706807D01*
X72800528Y-136694964D01*
X72800497Y-136693960D01*
X72799097Y-136649431D01*
X72796885Y-136641817D01*
X72796884Y-136641812D01*
X72793222Y-136629208D01*
X72789211Y-136609843D01*
X72787564Y-136596807D01*
X72786571Y-136588942D01*
X72769797Y-136546577D01*
X72765959Y-136535369D01*
X72753244Y-136491602D01*
X72742518Y-136473464D01*
X72733823Y-136455716D01*
X72728987Y-136443501D01*
X72728986Y-136443500D01*
X72726068Y-136436129D01*
X72699282Y-136399262D01*
X72692774Y-136389352D01*
X72686544Y-136378817D01*
X72668999Y-136314681D01*
X72668999Y-136273986D01*
X72662684Y-136215843D01*
X72614872Y-136088305D01*
X72533187Y-135979313D01*
X72424195Y-135897628D01*
X72296657Y-135849816D01*
X72288804Y-135848963D01*
X72288800Y-135848962D01*
X72241914Y-135843869D01*
X72241910Y-135843869D01*
X72238515Y-135843500D01*
X71968540Y-135843500D01*
X71698486Y-135843501D01*
X71640343Y-135849816D01*
X71512805Y-135897628D01*
X71403813Y-135979313D01*
X71322128Y-136088305D01*
X71318977Y-136096711D01*
X71318975Y-136096714D01*
X71317332Y-136101098D01*
X71274692Y-136157864D01*
X71208131Y-136182566D01*
X71143854Y-136169127D01*
X71143778Y-136169316D01*
X71142727Y-136168892D01*
X71140948Y-136168520D01*
X71132554Y-136164129D01*
X71064433Y-136144127D01*
X71059974Y-136143486D01*
X71059970Y-136143485D01*
X71020081Y-136137750D01*
X70994000Y-136134000D01*
X69233055Y-136134000D01*
X69164934Y-136113998D01*
X69118441Y-136060342D01*
X69108337Y-135990068D01*
X69137831Y-135925488D01*
X69143960Y-135918905D01*
X70316460Y-134746405D01*
X70378772Y-134712379D01*
X70405555Y-134709500D01*
X75492949Y-134709500D01*
X75516578Y-134712015D01*
X75518452Y-134712103D01*
X75528632Y-134714295D01*
X75561770Y-134710373D01*
X75567651Y-134710026D01*
X75567643Y-134709928D01*
X75572819Y-134709500D01*
X75578023Y-134709500D01*
X75590355Y-134707448D01*
X75596927Y-134706354D01*
X75602802Y-134705517D01*
X75608065Y-134704894D01*
X75653436Y-134699524D01*
X75661646Y-134695581D01*
X75670631Y-134694086D01*
X75679798Y-134689140D01*
X75679800Y-134689139D01*
X75715510Y-134669871D01*
X75720800Y-134667176D01*
X75738836Y-134658515D01*
X75766727Y-134645122D01*
X75770976Y-134641550D01*
X75772905Y-134639621D01*
X75774810Y-134637873D01*
X75774919Y-134637814D01*
X75775026Y-134637931D01*
X75775535Y-134637482D01*
X75781233Y-134634408D01*
X75793137Y-134621531D01*
X75817652Y-134595010D01*
X75821082Y-134591444D01*
X78556693Y-131855833D01*
X78619005Y-131821807D01*
X78689820Y-131826872D01*
G37*
%TD.AperFunction*%
%TA.AperFunction,Conductor*%
G36*
X93730565Y-132586502D02*
G01*
X93751540Y-132603405D01*
X93939596Y-132791462D01*
X93973621Y-132853774D01*
X93976500Y-132880556D01*
X93976501Y-132958538D01*
X93976501Y-133036534D01*
X93987654Y-133112309D01*
X94044216Y-133227511D01*
X94058181Y-133241452D01*
X94122168Y-133305327D01*
X94135044Y-133318181D01*
X94250344Y-133374541D01*
X94272904Y-133377832D01*
X94273773Y-133377959D01*
X94338293Y-133407585D01*
X94344679Y-133413544D01*
X95780085Y-134848951D01*
X95795021Y-134867444D01*
X95796279Y-134868827D01*
X95801928Y-134877575D01*
X95810105Y-134884021D01*
X95828135Y-134898235D01*
X95832540Y-134902150D01*
X95832604Y-134902075D01*
X95836567Y-134905433D01*
X95840243Y-134909109D01*
X95844473Y-134912132D01*
X95855843Y-134920258D01*
X95860587Y-134923819D01*
X95863428Y-134926058D01*
X95900623Y-134955380D01*
X95909216Y-134958398D01*
X95916626Y-134963693D01*
X95965506Y-134978311D01*
X95971081Y-134980123D01*
X96019199Y-134997021D01*
X96024730Y-134997500D01*
X96027439Y-134997500D01*
X96030045Y-134997613D01*
X96030171Y-134997650D01*
X96030164Y-134997805D01*
X96030829Y-134997847D01*
X96037032Y-134999702D01*
X96090607Y-134997597D01*
X96095554Y-134997500D01*
X97941472Y-134997500D01*
X98009593Y-135017502D01*
X98055898Y-135070748D01*
X98102856Y-135172607D01*
X98109257Y-135181664D01*
X98199711Y-135309654D01*
X98219588Y-135337780D01*
X98364466Y-135478913D01*
X98532637Y-135591282D01*
X98537940Y-135593560D01*
X98537943Y-135593562D01*
X98682618Y-135655719D01*
X98718470Y-135671122D01*
X98822572Y-135694678D01*
X98901709Y-135712585D01*
X98915740Y-135715760D01*
X98921509Y-135715987D01*
X98921512Y-135715987D01*
X98997683Y-135718979D01*
X99117842Y-135723700D01*
X99204179Y-135711182D01*
X99312286Y-135695508D01*
X99312291Y-135695507D01*
X99318007Y-135694678D01*
X99323479Y-135692820D01*
X99323481Y-135692820D01*
X99504067Y-135631519D01*
X99504069Y-135631518D01*
X99509531Y-135629664D01*
X99686001Y-135530837D01*
X99730828Y-135493555D01*
X99837073Y-135405191D01*
X99841505Y-135401505D01*
X99857126Y-135382723D01*
X99916064Y-135343139D01*
X99987046Y-135341704D01*
X100047536Y-135378872D01*
X100078329Y-135442843D01*
X100080000Y-135463293D01*
X100080000Y-136316051D01*
X100059998Y-136384172D01*
X100006342Y-136430665D01*
X99936068Y-136440769D01*
X99868471Y-136408576D01*
X99863264Y-136403762D01*
X99766389Y-136314212D01*
X99737053Y-136287094D01*
X99737051Y-136287092D01*
X99732812Y-136283174D01*
X99705374Y-136265862D01*
X99566637Y-136178325D01*
X99561757Y-136175246D01*
X99373898Y-136100298D01*
X99199261Y-136065560D01*
X99181192Y-136061966D01*
X99181191Y-136061966D01*
X99175526Y-136060839D01*
X99169752Y-136060763D01*
X99169748Y-136060763D01*
X99067257Y-136059422D01*
X98973286Y-136058192D01*
X98967589Y-136059171D01*
X98967588Y-136059171D01*
X98779646Y-136091465D01*
X98779645Y-136091465D01*
X98773949Y-136092444D01*
X98584193Y-136162449D01*
X98579232Y-136165401D01*
X98579231Y-136165401D01*
X98439519Y-136248521D01*
X98410371Y-136265862D01*
X98258305Y-136399220D01*
X98133089Y-136558057D01*
X98083663Y-136652000D01*
X98050428Y-136715168D01*
X98001008Y-136766140D01*
X97938920Y-136782500D01*
X96101708Y-136782500D01*
X96078089Y-136779986D01*
X96076212Y-136779897D01*
X96066029Y-136777705D01*
X96032893Y-136781627D01*
X96027009Y-136781974D01*
X96027017Y-136782072D01*
X96021839Y-136782500D01*
X96016638Y-136782500D01*
X96011507Y-136783354D01*
X95997719Y-136785649D01*
X95991842Y-136786486D01*
X95941224Y-136792477D01*
X95933016Y-136796418D01*
X95924030Y-136797914D01*
X95879134Y-136822139D01*
X95873906Y-136824803D01*
X95827934Y-136846878D01*
X95823684Y-136850450D01*
X95821759Y-136852375D01*
X95819847Y-136854128D01*
X95819732Y-136854190D01*
X95819627Y-136854076D01*
X95819126Y-136854517D01*
X95813428Y-136857592D01*
X95783012Y-136890496D01*
X95777021Y-136896977D01*
X95773591Y-136900543D01*
X93768039Y-138906095D01*
X93705727Y-138940121D01*
X93678944Y-138943000D01*
X93203500Y-138943000D01*
X93135379Y-138922998D01*
X93088886Y-138869342D01*
X93077500Y-138817000D01*
X93077500Y-138795826D01*
X93062966Y-138722760D01*
X93046859Y-138698653D01*
X93015042Y-138651035D01*
X93007601Y-138639899D01*
X92924740Y-138584534D01*
X92912569Y-138582113D01*
X92907282Y-138579923D01*
X92852001Y-138535375D01*
X92829500Y-138463514D01*
X92829500Y-138372712D01*
X92832015Y-138349083D01*
X92832103Y-138347209D01*
X92834295Y-138337029D01*
X92830373Y-138303891D01*
X92830026Y-138298010D01*
X92829928Y-138298018D01*
X92829500Y-138292842D01*
X92829500Y-138287638D01*
X92826504Y-138269634D01*
X92826354Y-138268734D01*
X92825517Y-138262859D01*
X92823312Y-138244227D01*
X92819524Y-138212225D01*
X92815581Y-138204015D01*
X92814086Y-138195030D01*
X92808578Y-138184822D01*
X92789871Y-138150151D01*
X92787176Y-138144861D01*
X92768553Y-138106079D01*
X92765122Y-138098934D01*
X92761550Y-138094684D01*
X92759625Y-138092759D01*
X92757872Y-138090847D01*
X92757810Y-138090732D01*
X92757924Y-138090627D01*
X92757483Y-138090126D01*
X92754408Y-138084428D01*
X92715022Y-138048020D01*
X92711457Y-138044591D01*
X91452405Y-136785539D01*
X91418379Y-136723227D01*
X91415500Y-136696445D01*
X91415499Y-136545074D01*
X91415499Y-136540466D01*
X91404346Y-136464691D01*
X91373048Y-136400946D01*
X91352374Y-136358837D01*
X91352373Y-136358836D01*
X91347784Y-136349489D01*
X91259482Y-136261340D01*
X91225403Y-136199059D01*
X91222500Y-136172168D01*
X91222500Y-135343940D01*
X91242502Y-135275819D01*
X91259405Y-135254845D01*
X91334859Y-135179391D01*
X91391017Y-135069175D01*
X91405500Y-134977735D01*
X91405500Y-134953056D01*
X91425502Y-134884935D01*
X91442405Y-134863960D01*
X92198462Y-134107904D01*
X92260774Y-134073879D01*
X92287557Y-134071000D01*
X92851674Y-134071000D01*
X92924740Y-134056466D01*
X92937848Y-134047708D01*
X92997286Y-134007993D01*
X93007601Y-134001101D01*
X93062966Y-133918240D01*
X93077500Y-133845174D01*
X93077500Y-132795826D01*
X93062966Y-132722760D01*
X93065793Y-132722198D01*
X93060195Y-132670130D01*
X93091973Y-132606643D01*
X93153031Y-132570414D01*
X93184193Y-132566500D01*
X93662444Y-132566500D01*
X93730565Y-132586502D01*
G37*
%TD.AperFunction*%
%TA.AperFunction,Conductor*%
G36*
X68838552Y-134962258D02*
G01*
X68878080Y-135021234D01*
X68879448Y-135092217D01*
X68846986Y-135148149D01*
X68047726Y-135947408D01*
X67249539Y-136745595D01*
X67187227Y-136779621D01*
X67160444Y-136782500D01*
X67159318Y-136782500D01*
X67091197Y-136762498D01*
X67046312Y-136712228D01*
X67045744Y-136711075D01*
X66982351Y-136582527D01*
X66964079Y-136558057D01*
X66864788Y-136425091D01*
X66864787Y-136425090D01*
X66861335Y-136420467D01*
X66857099Y-136416551D01*
X66717053Y-136287094D01*
X66717051Y-136287092D01*
X66712812Y-136283174D01*
X66685374Y-136265862D01*
X66546637Y-136178325D01*
X66541757Y-136175246D01*
X66353898Y-136100298D01*
X66179261Y-136065560D01*
X66161192Y-136061966D01*
X66161191Y-136061966D01*
X66155526Y-136060839D01*
X66149752Y-136060763D01*
X66149748Y-136060763D01*
X66047257Y-136059422D01*
X65953286Y-136058192D01*
X65947589Y-136059171D01*
X65947588Y-136059171D01*
X65759646Y-136091465D01*
X65759645Y-136091465D01*
X65753949Y-136092444D01*
X65564193Y-136162449D01*
X65559232Y-136165401D01*
X65559231Y-136165401D01*
X65419519Y-136248521D01*
X65390371Y-136265862D01*
X65333284Y-136315926D01*
X65242650Y-136395409D01*
X65242647Y-136395412D01*
X65238305Y-136399220D01*
X65236563Y-136401429D01*
X65175995Y-136436590D01*
X65105071Y-136433379D01*
X65047142Y-136392334D01*
X65020599Y-136326486D01*
X65020000Y-136314212D01*
X65020000Y-135461480D01*
X65040002Y-135393359D01*
X65093658Y-135346866D01*
X65163932Y-135336762D01*
X65228512Y-135366256D01*
X65233912Y-135371216D01*
X65344466Y-135478913D01*
X65512637Y-135591282D01*
X65517940Y-135593560D01*
X65517943Y-135593562D01*
X65662618Y-135655719D01*
X65698470Y-135671122D01*
X65802572Y-135694678D01*
X65881709Y-135712585D01*
X65895740Y-135715760D01*
X65901509Y-135715987D01*
X65901512Y-135715987D01*
X65977683Y-135718979D01*
X66097842Y-135723700D01*
X66184179Y-135711182D01*
X66292286Y-135695508D01*
X66292291Y-135695507D01*
X66298007Y-135694678D01*
X66303479Y-135692820D01*
X66303481Y-135692820D01*
X66484067Y-135631519D01*
X66484069Y-135631518D01*
X66489531Y-135629664D01*
X66666001Y-135530837D01*
X66710828Y-135493555D01*
X66817073Y-135405191D01*
X66821505Y-135401505D01*
X66922941Y-135279542D01*
X66947146Y-135250439D01*
X66950837Y-135246001D01*
X67048650Y-135071341D01*
X67048652Y-135071339D01*
X67049664Y-135069531D01*
X67050019Y-135069730D01*
X67093850Y-135018158D01*
X67162981Y-134997500D01*
X68455288Y-134997500D01*
X68478917Y-135000015D01*
X68480791Y-135000103D01*
X68490971Y-135002295D01*
X68522842Y-134998523D01*
X68524109Y-134998373D01*
X68529990Y-134998026D01*
X68529982Y-134997928D01*
X68535158Y-134997500D01*
X68540362Y-134997500D01*
X68552694Y-134995448D01*
X68559266Y-134994354D01*
X68565141Y-134993517D01*
X68570404Y-134992894D01*
X68615775Y-134987524D01*
X68623985Y-134983581D01*
X68632970Y-134982086D01*
X68642137Y-134977140D01*
X68642139Y-134977139D01*
X68677849Y-134957871D01*
X68683128Y-134955181D01*
X68703349Y-134945471D01*
X68773415Y-134934015D01*
X68838552Y-134962258D01*
G37*
%TD.AperFunction*%
%TA.AperFunction,Conductor*%
G36*
X97711565Y-131269502D02*
G01*
X97732540Y-131286405D01*
X98000344Y-131554210D01*
X98034369Y-131616522D01*
X98031581Y-131680669D01*
X97983747Y-131834723D01*
X97978937Y-131850213D01*
X97955164Y-132051069D01*
X97968392Y-132252894D01*
X97985028Y-132318398D01*
X98014419Y-132434125D01*
X98018178Y-132448928D01*
X98102856Y-132632607D01*
X98112179Y-132645799D01*
X98214425Y-132790474D01*
X98219588Y-132797780D01*
X98364466Y-132938913D01*
X98532637Y-133051282D01*
X98537940Y-133053560D01*
X98537943Y-133053562D01*
X98695145Y-133121101D01*
X98718470Y-133131122D01*
X98915740Y-133175760D01*
X98921509Y-133175987D01*
X98921512Y-133175987D01*
X98997683Y-133178979D01*
X99117842Y-133183700D01*
X99204132Y-133171189D01*
X99312286Y-133155508D01*
X99312291Y-133155507D01*
X99318007Y-133154678D01*
X99323479Y-133152820D01*
X99323481Y-133152820D01*
X99504067Y-133091519D01*
X99504069Y-133091518D01*
X99509531Y-133089664D01*
X99686001Y-132990837D01*
X99748433Y-132938913D01*
X99809895Y-132887795D01*
X99841505Y-132861505D01*
X99857126Y-132842723D01*
X99916064Y-132803139D01*
X99987046Y-132801704D01*
X100047536Y-132838872D01*
X100078329Y-132902843D01*
X100080000Y-132923293D01*
X100080000Y-133776051D01*
X100059998Y-133844172D01*
X100006342Y-133890665D01*
X99936068Y-133900769D01*
X99868471Y-133868576D01*
X99863264Y-133863762D01*
X99762636Y-133770743D01*
X99737053Y-133747094D01*
X99737051Y-133747092D01*
X99732812Y-133743174D01*
X99705374Y-133725862D01*
X99566637Y-133638325D01*
X99561757Y-133635246D01*
X99373898Y-133560298D01*
X99175526Y-133520839D01*
X99169752Y-133520763D01*
X99169748Y-133520763D01*
X99067257Y-133519422D01*
X98973286Y-133518192D01*
X98967589Y-133519171D01*
X98967588Y-133519171D01*
X98779646Y-133551465D01*
X98779645Y-133551465D01*
X98773949Y-133552444D01*
X98584193Y-133622449D01*
X98579232Y-133625401D01*
X98579231Y-133625401D01*
X98459380Y-133696705D01*
X98410371Y-133725862D01*
X98258305Y-133859220D01*
X98133089Y-134018057D01*
X98085818Y-134107904D01*
X98050428Y-134175168D01*
X98001008Y-134226140D01*
X97938920Y-134242500D01*
X96293556Y-134242500D01*
X96225435Y-134222498D01*
X96204461Y-134205595D01*
X95151761Y-133152895D01*
X95117735Y-133090583D01*
X95116176Y-133045612D01*
X95116839Y-133041064D01*
X95117500Y-133036535D01*
X95117499Y-132693466D01*
X95106346Y-132617691D01*
X95081560Y-132567208D01*
X95069492Y-132497247D01*
X95097165Y-132431865D01*
X95155793Y-132391824D01*
X95226761Y-132389835D01*
X95254785Y-132400947D01*
X95302099Y-132426637D01*
X95302101Y-132426638D01*
X95308776Y-132430262D01*
X95316125Y-132432190D01*
X95453719Y-132468287D01*
X95453721Y-132468287D01*
X95461069Y-132470215D01*
X95544380Y-132471524D01*
X95610898Y-132472569D01*
X95610901Y-132472569D01*
X95618495Y-132472688D01*
X95771968Y-132437538D01*
X95912625Y-132366795D01*
X96010457Y-132283239D01*
X96026574Y-132269474D01*
X96026576Y-132269471D01*
X96032348Y-132264542D01*
X96124224Y-132136683D01*
X96182950Y-131990598D01*
X96196052Y-131898538D01*
X96204553Y-131838807D01*
X96204553Y-131838804D01*
X96205134Y-131834723D01*
X96205202Y-131828254D01*
X96205235Y-131825134D01*
X96205235Y-131825128D01*
X96205278Y-131821000D01*
X96186363Y-131664694D01*
X96169627Y-131620403D01*
X96133394Y-131524514D01*
X96133393Y-131524511D01*
X96130710Y-131517412D01*
X96082226Y-131446868D01*
X96060126Y-131379398D01*
X96078011Y-131310691D01*
X96130203Y-131262561D01*
X96186066Y-131249500D01*
X97643444Y-131249500D01*
X97711565Y-131269502D01*
G37*
%TD.AperFunction*%
%TA.AperFunction,Conductor*%
G36*
X75944118Y-132477502D02*
G01*
X75990611Y-132531158D01*
X76000715Y-132601432D01*
X75971221Y-132666012D01*
X75965092Y-132672595D01*
X75448092Y-133189595D01*
X75385780Y-133223621D01*
X75358997Y-133226500D01*
X69578712Y-133226500D01*
X69555083Y-133223985D01*
X69553209Y-133223897D01*
X69543029Y-133221705D01*
X69511158Y-133225477D01*
X69509891Y-133225627D01*
X69504010Y-133225974D01*
X69504018Y-133226072D01*
X69498842Y-133226500D01*
X69493638Y-133226500D01*
X69481306Y-133228552D01*
X69474734Y-133229646D01*
X69468858Y-133230483D01*
X69418225Y-133236476D01*
X69410015Y-133240419D01*
X69401030Y-133241914D01*
X69391863Y-133246860D01*
X69391861Y-133246861D01*
X69356151Y-133266129D01*
X69350861Y-133268824D01*
X69304934Y-133290878D01*
X69300685Y-133294450D01*
X69298756Y-133296379D01*
X69296851Y-133298127D01*
X69296742Y-133298186D01*
X69296635Y-133298069D01*
X69296126Y-133298518D01*
X69290428Y-133301592D01*
X69283360Y-133309238D01*
X69283359Y-133309239D01*
X69254022Y-133340976D01*
X69250592Y-133344543D01*
X68389538Y-134205596D01*
X68327226Y-134239621D01*
X68300443Y-134242500D01*
X67159318Y-134242500D01*
X67091197Y-134222498D01*
X67046312Y-134172228D01*
X67044378Y-134168305D01*
X66982351Y-134042527D01*
X66969967Y-134025942D01*
X66864788Y-133885091D01*
X66864787Y-133885090D01*
X66861335Y-133880467D01*
X66855464Y-133875040D01*
X66717053Y-133747094D01*
X66717051Y-133747092D01*
X66712812Y-133743174D01*
X66685374Y-133725862D01*
X66546637Y-133638325D01*
X66541757Y-133635246D01*
X66353898Y-133560298D01*
X66155526Y-133520839D01*
X66149752Y-133520763D01*
X66149748Y-133520763D01*
X66047257Y-133519422D01*
X65953286Y-133518192D01*
X65947589Y-133519171D01*
X65947588Y-133519171D01*
X65759646Y-133551465D01*
X65759645Y-133551465D01*
X65753949Y-133552444D01*
X65564193Y-133622449D01*
X65559232Y-133625401D01*
X65559231Y-133625401D01*
X65439380Y-133696705D01*
X65390371Y-133725862D01*
X65363927Y-133749053D01*
X65242650Y-133855409D01*
X65242647Y-133855412D01*
X65238305Y-133859220D01*
X65236563Y-133861429D01*
X65175995Y-133896590D01*
X65105071Y-133893379D01*
X65047142Y-133852334D01*
X65020599Y-133786486D01*
X65020000Y-133774212D01*
X65020000Y-132921480D01*
X65040002Y-132853359D01*
X65093658Y-132806866D01*
X65163932Y-132796762D01*
X65228512Y-132826256D01*
X65233912Y-132831216D01*
X65344466Y-132938913D01*
X65512637Y-133051282D01*
X65517940Y-133053560D01*
X65517943Y-133053562D01*
X65675145Y-133121101D01*
X65698470Y-133131122D01*
X65895740Y-133175760D01*
X65901509Y-133175987D01*
X65901512Y-133175987D01*
X65977683Y-133178979D01*
X66097842Y-133183700D01*
X66184132Y-133171189D01*
X66292286Y-133155508D01*
X66292291Y-133155507D01*
X66298007Y-133154678D01*
X66303479Y-133152820D01*
X66303481Y-133152820D01*
X66484067Y-133091519D01*
X66484069Y-133091518D01*
X66489531Y-133089664D01*
X66666001Y-132990837D01*
X66728433Y-132938913D01*
X66789895Y-132887795D01*
X66821505Y-132861505D01*
X66950837Y-132706001D01*
X66960410Y-132688908D01*
X67046841Y-132534572D01*
X67046841Y-132534571D01*
X67048650Y-132531341D01*
X67048652Y-132531339D01*
X67049664Y-132529531D01*
X67050019Y-132529730D01*
X67093850Y-132478158D01*
X67162981Y-132457500D01*
X75875997Y-132457500D01*
X75944118Y-132477502D01*
G37*
%TD.AperFunction*%
%TA.AperFunction,Conductor*%
G36*
X65228512Y-130286256D02*
G01*
X65233912Y-130291216D01*
X65344466Y-130398913D01*
X65349270Y-130402123D01*
X65409800Y-130442568D01*
X65512637Y-130511282D01*
X65517940Y-130513560D01*
X65517943Y-130513562D01*
X65679312Y-130582891D01*
X65698470Y-130591122D01*
X65772967Y-130607979D01*
X65885461Y-130633434D01*
X65895740Y-130635760D01*
X65901509Y-130635987D01*
X65901512Y-130635987D01*
X65977683Y-130638979D01*
X66097842Y-130643700D01*
X66184132Y-130631189D01*
X66292286Y-130615508D01*
X66292291Y-130615507D01*
X66298007Y-130614678D01*
X66303479Y-130612820D01*
X66303481Y-130612820D01*
X66367400Y-130591122D01*
X66434950Y-130568192D01*
X66505883Y-130565235D01*
X66564545Y-130598410D01*
X66590085Y-130623950D01*
X66605022Y-130642444D01*
X66606278Y-130643824D01*
X66611928Y-130652575D01*
X66620106Y-130659022D01*
X66638140Y-130673239D01*
X66642541Y-130677150D01*
X66642605Y-130677075D01*
X66646569Y-130680434D01*
X66650244Y-130684109D01*
X66654469Y-130687129D01*
X66654471Y-130687130D01*
X66665849Y-130695261D01*
X66670594Y-130698824D01*
X66702443Y-130723932D01*
X66702445Y-130723933D01*
X66710623Y-130730380D01*
X66719215Y-130733397D01*
X66726627Y-130738694D01*
X66736599Y-130741676D01*
X66736601Y-130741677D01*
X66759816Y-130748619D01*
X66775484Y-130753304D01*
X66781124Y-130755138D01*
X66821720Y-130769395D01*
X66821724Y-130769396D01*
X66829199Y-130772021D01*
X66834730Y-130772500D01*
X66837439Y-130772500D01*
X66840046Y-130772613D01*
X66840171Y-130772650D01*
X66840164Y-130772805D01*
X66840830Y-130772847D01*
X66847033Y-130774702D01*
X66900608Y-130772597D01*
X66905555Y-130772500D01*
X76853891Y-130772500D01*
X76922012Y-130792502D01*
X76968505Y-130846158D01*
X76978609Y-130916432D01*
X76949115Y-130981012D01*
X76942986Y-130987595D01*
X76264986Y-131665595D01*
X76202674Y-131699621D01*
X76175891Y-131702500D01*
X67159318Y-131702500D01*
X67091197Y-131682498D01*
X67046312Y-131632228D01*
X67042794Y-131625093D01*
X66982351Y-131502527D01*
X66964079Y-131478057D01*
X66864788Y-131345091D01*
X66864787Y-131345090D01*
X66861335Y-131340467D01*
X66857099Y-131336551D01*
X66717053Y-131207094D01*
X66717051Y-131207092D01*
X66712812Y-131203174D01*
X66685374Y-131185862D01*
X66546637Y-131098325D01*
X66541757Y-131095246D01*
X66353898Y-131020298D01*
X66155526Y-130980839D01*
X66149752Y-130980763D01*
X66149748Y-130980763D01*
X66047257Y-130979422D01*
X65953286Y-130978192D01*
X65947589Y-130979171D01*
X65947588Y-130979171D01*
X65759646Y-131011465D01*
X65759645Y-131011465D01*
X65753949Y-131012444D01*
X65564193Y-131082449D01*
X65559232Y-131085401D01*
X65559231Y-131085401D01*
X65457187Y-131146111D01*
X65390371Y-131185862D01*
X65335238Y-131234212D01*
X65242650Y-131315409D01*
X65242647Y-131315412D01*
X65238305Y-131319220D01*
X65236563Y-131321429D01*
X65175995Y-131356590D01*
X65105071Y-131353379D01*
X65047142Y-131312334D01*
X65020599Y-131246486D01*
X65020000Y-131234212D01*
X65020000Y-130381480D01*
X65040002Y-130313359D01*
X65093658Y-130266866D01*
X65163932Y-130256762D01*
X65228512Y-130286256D01*
G37*
%TD.AperFunction*%
%TA.AperFunction,Conductor*%
G36*
X87809859Y-129524716D02*
G01*
X88656550Y-130371407D01*
X88690574Y-130433717D01*
X88685510Y-130504532D01*
X88642963Y-130561368D01*
X88576443Y-130586179D01*
X88567454Y-130586500D01*
X86937021Y-130586500D01*
X86868900Y-130566498D01*
X86822407Y-130512842D01*
X86812303Y-130442568D01*
X86820114Y-130413503D01*
X86832115Y-130383651D01*
X86832116Y-130383649D01*
X86834950Y-130376598D01*
X86849044Y-130277564D01*
X86878444Y-130212942D01*
X86938116Y-130174473D01*
X86975765Y-130169334D01*
X87010897Y-130169886D01*
X87010900Y-130169886D01*
X87018495Y-130170005D01*
X87171968Y-130134855D01*
X87312625Y-130064112D01*
X87338869Y-130041698D01*
X87426574Y-129966791D01*
X87426576Y-129966788D01*
X87432348Y-129961859D01*
X87524224Y-129834000D01*
X87582950Y-129687915D01*
X87596023Y-129596059D01*
X87625424Y-129531437D01*
X87685095Y-129492968D01*
X87756092Y-129492866D01*
X87809859Y-129524716D01*
G37*
%TD.AperFunction*%
%TA.AperFunction,Conductor*%
G36*
X65228512Y-127746256D02*
G01*
X65233912Y-127751216D01*
X65344466Y-127858913D01*
X65512637Y-127971282D01*
X65517940Y-127973560D01*
X65517943Y-127973562D01*
X65638216Y-128025235D01*
X65698470Y-128051122D01*
X65895740Y-128095760D01*
X65901509Y-128095987D01*
X65901512Y-128095987D01*
X65977683Y-128098979D01*
X66097842Y-128103700D01*
X66184132Y-128091189D01*
X66292286Y-128075508D01*
X66292291Y-128075507D01*
X66298007Y-128074678D01*
X66303479Y-128072820D01*
X66303481Y-128072820D01*
X66367400Y-128051122D01*
X66434950Y-128028192D01*
X66505883Y-128025235D01*
X66564545Y-128058410D01*
X67600086Y-129093951D01*
X67615016Y-129112437D01*
X67616278Y-129113824D01*
X67621928Y-129122575D01*
X67642437Y-129138743D01*
X67648135Y-129143235D01*
X67652540Y-129147150D01*
X67652604Y-129147075D01*
X67656567Y-129150433D01*
X67660243Y-129154109D01*
X67664473Y-129157132D01*
X67675843Y-129165258D01*
X67680587Y-129168819D01*
X67698399Y-129182860D01*
X67720623Y-129200380D01*
X67729216Y-129203398D01*
X67736626Y-129208693D01*
X67785506Y-129223311D01*
X67791081Y-129225123D01*
X67839199Y-129242021D01*
X67844730Y-129242500D01*
X67847439Y-129242500D01*
X67850045Y-129242613D01*
X67850171Y-129242650D01*
X67850164Y-129242805D01*
X67850829Y-129242847D01*
X67857032Y-129244702D01*
X67910607Y-129242597D01*
X67915554Y-129242500D01*
X77676783Y-129242500D01*
X77744904Y-129262502D01*
X77791397Y-129316158D01*
X77801501Y-129386432D01*
X77772007Y-129451012D01*
X77765878Y-129457595D01*
X77242878Y-129980595D01*
X77180566Y-130014621D01*
X77153783Y-130017500D01*
X67216003Y-130017500D01*
X67147882Y-129997498D01*
X67101389Y-129943842D01*
X67091285Y-129873568D01*
X67096690Y-129850999D01*
X67112819Y-129803485D01*
X67112820Y-129803480D01*
X67114678Y-129798007D01*
X67115507Y-129792291D01*
X67115508Y-129792286D01*
X67132865Y-129672568D01*
X67143700Y-129597842D01*
X67145215Y-129540000D01*
X67126708Y-129338591D01*
X67071807Y-129143926D01*
X66982351Y-128962527D01*
X66964079Y-128938057D01*
X66864788Y-128805091D01*
X66864787Y-128805090D01*
X66861335Y-128800467D01*
X66855209Y-128794804D01*
X66717053Y-128667094D01*
X66717051Y-128667092D01*
X66712812Y-128663174D01*
X66685374Y-128645862D01*
X66546637Y-128558325D01*
X66541757Y-128555246D01*
X66353898Y-128480298D01*
X66155526Y-128440839D01*
X66149752Y-128440763D01*
X66149748Y-128440763D01*
X66047257Y-128439422D01*
X65953286Y-128438192D01*
X65947589Y-128439171D01*
X65947588Y-128439171D01*
X65759646Y-128471465D01*
X65759645Y-128471465D01*
X65753949Y-128472444D01*
X65564193Y-128542449D01*
X65390371Y-128645862D01*
X65343128Y-128687293D01*
X65242650Y-128775409D01*
X65242647Y-128775412D01*
X65238305Y-128779220D01*
X65236563Y-128781429D01*
X65175995Y-128816590D01*
X65105071Y-128813379D01*
X65047142Y-128772334D01*
X65020599Y-128706486D01*
X65020000Y-128694212D01*
X65020000Y-127841480D01*
X65040002Y-127773359D01*
X65093658Y-127726866D01*
X65163932Y-127716762D01*
X65228512Y-127746256D01*
G37*
%TD.AperFunction*%
%TA.AperFunction,Conductor*%
G36*
X82804032Y-122161872D02*
G01*
X82849095Y-122190833D01*
X82918798Y-122260536D01*
X82959785Y-122287922D01*
X82994546Y-122322683D01*
X83021930Y-122363667D01*
X83272351Y-122614088D01*
X83313338Y-122641474D01*
X83348099Y-122676235D01*
X83375485Y-122717222D01*
X83625906Y-122967643D01*
X83666890Y-122995027D01*
X83701651Y-123029788D01*
X83729037Y-123070775D01*
X83979458Y-123321196D01*
X83984605Y-123324635D01*
X84020442Y-123348581D01*
X84055205Y-123383344D01*
X84066534Y-123400298D01*
X84082590Y-123424328D01*
X84333011Y-123674749D01*
X84338154Y-123678186D01*
X84338156Y-123678187D01*
X84373995Y-123702133D01*
X84408759Y-123736897D01*
X84436144Y-123777882D01*
X84686565Y-124028303D01*
X84691712Y-124031742D01*
X84727549Y-124055688D01*
X84762312Y-124090451D01*
X84789697Y-124131435D01*
X85040118Y-124381856D01*
X85045261Y-124385293D01*
X85045263Y-124385294D01*
X85081102Y-124409240D01*
X85115866Y-124444004D01*
X85143251Y-124484989D01*
X85393672Y-124735410D01*
X85398819Y-124738849D01*
X85434656Y-124762795D01*
X85469419Y-124797558D01*
X85496804Y-124838542D01*
X85747225Y-125088963D01*
X85788212Y-125116349D01*
X85822973Y-125151110D01*
X85850357Y-125192094D01*
X86100778Y-125442515D01*
X86141765Y-125469901D01*
X86176526Y-125504662D01*
X86203912Y-125545649D01*
X86454333Y-125796070D01*
X86495317Y-125823454D01*
X86530078Y-125858215D01*
X86557464Y-125899202D01*
X86627167Y-125968905D01*
X86661193Y-126031217D01*
X86656128Y-126102032D01*
X86627167Y-126147095D01*
X86557464Y-126216798D01*
X86530078Y-126257785D01*
X86495317Y-126292546D01*
X86454333Y-126319930D01*
X86203912Y-126570351D01*
X86176526Y-126611338D01*
X86141765Y-126646099D01*
X86100778Y-126673485D01*
X85850357Y-126923906D01*
X85822973Y-126964890D01*
X85788212Y-126999651D01*
X85747225Y-127027037D01*
X85496804Y-127277458D01*
X85493365Y-127282605D01*
X85469419Y-127318442D01*
X85434656Y-127353205D01*
X85393672Y-127380590D01*
X85143251Y-127631011D01*
X85139814Y-127636154D01*
X85139813Y-127636156D01*
X85115867Y-127671995D01*
X85081103Y-127706759D01*
X85040118Y-127734144D01*
X84789697Y-127984565D01*
X84786258Y-127989712D01*
X84762312Y-128025549D01*
X84727549Y-128060312D01*
X84686565Y-128087697D01*
X84436144Y-128338118D01*
X84432707Y-128343261D01*
X84432706Y-128343263D01*
X84408760Y-128379102D01*
X84373996Y-128413866D01*
X84333011Y-128441251D01*
X84082590Y-128691672D01*
X84079151Y-128696819D01*
X84055205Y-128732656D01*
X84020442Y-128767419D01*
X84002781Y-128779220D01*
X83979458Y-128794804D01*
X83729037Y-129045225D01*
X83701651Y-129086212D01*
X83666890Y-129120973D01*
X83625906Y-129148357D01*
X83375485Y-129398778D01*
X83348099Y-129439765D01*
X83313338Y-129474526D01*
X83272351Y-129501912D01*
X83021930Y-129752333D01*
X82994546Y-129793317D01*
X82959785Y-129828078D01*
X82918798Y-129855464D01*
X82849095Y-129925167D01*
X82786783Y-129959193D01*
X82715968Y-129954128D01*
X82670905Y-129925167D01*
X82601202Y-129855464D01*
X82560215Y-129828078D01*
X82525454Y-129793317D01*
X82498070Y-129752333D01*
X82247649Y-129501912D01*
X82206662Y-129474526D01*
X82171901Y-129439765D01*
X82144515Y-129398778D01*
X81894094Y-129148357D01*
X81853110Y-129120973D01*
X81818349Y-129086212D01*
X81790963Y-129045225D01*
X81540542Y-128794804D01*
X81517219Y-128779220D01*
X81499558Y-128767419D01*
X81464795Y-128732656D01*
X81440849Y-128696819D01*
X81437410Y-128691672D01*
X81186989Y-128441251D01*
X81146004Y-128413866D01*
X81111240Y-128379102D01*
X81087294Y-128343263D01*
X81087293Y-128343261D01*
X81083856Y-128338118D01*
X80833435Y-128087697D01*
X80792451Y-128060312D01*
X80757688Y-128025549D01*
X80733742Y-127989712D01*
X80730303Y-127984565D01*
X80479882Y-127734144D01*
X80438897Y-127706759D01*
X80404133Y-127671995D01*
X80380187Y-127636156D01*
X80380186Y-127636154D01*
X80376749Y-127631011D01*
X80126328Y-127380590D01*
X80085344Y-127353205D01*
X80050581Y-127318442D01*
X80026635Y-127282605D01*
X80023196Y-127277458D01*
X79772775Y-127027037D01*
X79731788Y-126999651D01*
X79697027Y-126964890D01*
X79669643Y-126923906D01*
X79419222Y-126673485D01*
X79378235Y-126646099D01*
X79343474Y-126611338D01*
X79316088Y-126570351D01*
X79065667Y-126319930D01*
X79024683Y-126292546D01*
X78989922Y-126257785D01*
X78962536Y-126216798D01*
X78892833Y-126147095D01*
X78858807Y-126084783D01*
X78863872Y-126013968D01*
X78892833Y-125968905D01*
X78962536Y-125899202D01*
X78989922Y-125858215D01*
X79024683Y-125823454D01*
X79065667Y-125796070D01*
X79316088Y-125545649D01*
X79343474Y-125504662D01*
X79378235Y-125469901D01*
X79419222Y-125442515D01*
X79669643Y-125192094D01*
X79697027Y-125151110D01*
X79731788Y-125116349D01*
X79772775Y-125088963D01*
X80023196Y-124838542D01*
X80050581Y-124797558D01*
X80085344Y-124762795D01*
X80121181Y-124738849D01*
X80126328Y-124735410D01*
X80376749Y-124484989D01*
X80404134Y-124444004D01*
X80438898Y-124409240D01*
X80474737Y-124385294D01*
X80474739Y-124385293D01*
X80479882Y-124381856D01*
X80730303Y-124131435D01*
X80757688Y-124090451D01*
X80792451Y-124055688D01*
X80828288Y-124031742D01*
X80833435Y-124028303D01*
X81083856Y-123777882D01*
X81111241Y-123736897D01*
X81146005Y-123702133D01*
X81181844Y-123678187D01*
X81181846Y-123678186D01*
X81186989Y-123674749D01*
X81437410Y-123424328D01*
X81453466Y-123400298D01*
X81464795Y-123383344D01*
X81499558Y-123348581D01*
X81535395Y-123324635D01*
X81540542Y-123321196D01*
X81790963Y-123070775D01*
X81818349Y-123029788D01*
X81853110Y-122995027D01*
X81894094Y-122967643D01*
X82144515Y-122717222D01*
X82171901Y-122676235D01*
X82206662Y-122641474D01*
X82247649Y-122614088D01*
X82498070Y-122363667D01*
X82525454Y-122322683D01*
X82560215Y-122287922D01*
X82601202Y-122260536D01*
X82670905Y-122190833D01*
X82733217Y-122156807D01*
X82804032Y-122161872D01*
G37*
%TD.AperFunction*%
%TA.AperFunction,Conductor*%
G36*
X98009593Y-127397502D02*
G01*
X98055898Y-127450748D01*
X98102856Y-127552607D01*
X98106189Y-127557323D01*
X98198918Y-127688532D01*
X98219588Y-127717780D01*
X98364466Y-127858913D01*
X98532637Y-127971282D01*
X98537940Y-127973560D01*
X98537943Y-127973562D01*
X98658216Y-128025235D01*
X98718470Y-128051122D01*
X98915740Y-128095760D01*
X98921509Y-128095987D01*
X98921512Y-128095987D01*
X98997683Y-128098979D01*
X99117842Y-128103700D01*
X99204132Y-128091189D01*
X99312286Y-128075508D01*
X99312291Y-128075507D01*
X99318007Y-128074678D01*
X99323479Y-128072820D01*
X99323481Y-128072820D01*
X99504067Y-128011519D01*
X99504069Y-128011518D01*
X99509531Y-128009664D01*
X99686001Y-127910837D01*
X99748433Y-127858913D01*
X99786212Y-127827492D01*
X99841505Y-127781505D01*
X99857126Y-127762723D01*
X99916064Y-127723139D01*
X99987046Y-127721704D01*
X100047536Y-127758872D01*
X100078329Y-127822843D01*
X100080000Y-127843293D01*
X100080000Y-128696051D01*
X100059998Y-128764172D01*
X100006342Y-128810665D01*
X99936068Y-128820769D01*
X99868471Y-128788576D01*
X99863264Y-128783762D01*
X99732812Y-128663174D01*
X99705374Y-128645862D01*
X99566637Y-128558325D01*
X99561757Y-128555246D01*
X99373898Y-128480298D01*
X99175526Y-128440839D01*
X99169752Y-128440763D01*
X99169748Y-128440763D01*
X99067257Y-128439422D01*
X98973286Y-128438192D01*
X98967589Y-128439171D01*
X98967588Y-128439171D01*
X98779646Y-128471465D01*
X98779645Y-128471465D01*
X98773949Y-128472444D01*
X98584193Y-128542449D01*
X98410371Y-128645862D01*
X98258305Y-128779220D01*
X98133089Y-128938057D01*
X98122649Y-128957900D01*
X98050428Y-129095168D01*
X98001008Y-129146140D01*
X97938920Y-129162500D01*
X97895712Y-129162500D01*
X97872083Y-129159985D01*
X97870209Y-129159897D01*
X97860029Y-129157705D01*
X97828158Y-129161477D01*
X97826891Y-129161627D01*
X97821010Y-129161974D01*
X97821018Y-129162072D01*
X97815842Y-129162500D01*
X97810638Y-129162500D01*
X97798306Y-129164552D01*
X97791734Y-129165646D01*
X97785858Y-129166483D01*
X97735225Y-129172476D01*
X97727014Y-129176419D01*
X97718030Y-129177914D01*
X97708863Y-129182860D01*
X97708864Y-129182860D01*
X97673179Y-129202115D01*
X97667890Y-129204810D01*
X97621934Y-129226877D01*
X97617685Y-129230450D01*
X97615753Y-129232382D01*
X97613852Y-129234126D01*
X97613749Y-129234182D01*
X97613641Y-129234064D01*
X97613127Y-129234517D01*
X97607428Y-129237592D01*
X97600360Y-129245238D01*
X97600359Y-129245239D01*
X97571022Y-129276976D01*
X97567592Y-129280543D01*
X97068538Y-129779596D01*
X97006226Y-129813621D01*
X96979443Y-129816500D01*
X95882639Y-129816500D01*
X95814518Y-129796498D01*
X95768025Y-129742842D01*
X95757921Y-129672568D01*
X95765732Y-129643503D01*
X95774115Y-129622651D01*
X95774116Y-129622649D01*
X95776950Y-129615598D01*
X95791004Y-129516848D01*
X95798553Y-129463807D01*
X95798553Y-129463804D01*
X95799134Y-129459723D01*
X95799202Y-129453254D01*
X95799235Y-129450134D01*
X95799235Y-129450128D01*
X95799278Y-129446000D01*
X95793538Y-129398567D01*
X95805211Y-129328538D01*
X95829530Y-129294336D01*
X97709461Y-127414405D01*
X97771773Y-127380379D01*
X97798556Y-127377500D01*
X97941472Y-127377500D01*
X98009593Y-127397502D01*
G37*
%TD.AperFunction*%
%TA.AperFunction,Conductor*%
G36*
X65228512Y-125206256D02*
G01*
X65233912Y-125211216D01*
X65344466Y-125318913D01*
X65512637Y-125431282D01*
X65517940Y-125433560D01*
X65517943Y-125433562D01*
X65602518Y-125469898D01*
X65698470Y-125511122D01*
X65895740Y-125555760D01*
X65901509Y-125555987D01*
X65901512Y-125555987D01*
X65977683Y-125558979D01*
X66097842Y-125563700D01*
X66192138Y-125550028D01*
X66292286Y-125535508D01*
X66292291Y-125535507D01*
X66298007Y-125534678D01*
X66303479Y-125532820D01*
X66303481Y-125532820D01*
X66367400Y-125511122D01*
X66434950Y-125488192D01*
X66505883Y-125485235D01*
X66564545Y-125518410D01*
X69318540Y-128272405D01*
X69352566Y-128334717D01*
X69347501Y-128405532D01*
X69304954Y-128462368D01*
X69238434Y-128487179D01*
X69229445Y-128487500D01*
X68113556Y-128487500D01*
X68045435Y-128467498D01*
X68024461Y-128450595D01*
X67098411Y-127524545D01*
X67064385Y-127462233D01*
X67068193Y-127394949D01*
X67112819Y-127263485D01*
X67112820Y-127263480D01*
X67114678Y-127258007D01*
X67115507Y-127252291D01*
X67115508Y-127252286D01*
X67135584Y-127113815D01*
X67143700Y-127057842D01*
X67145215Y-127000000D01*
X67126708Y-126798591D01*
X67110596Y-126741460D01*
X67096125Y-126690150D01*
X67071807Y-126603926D01*
X66998316Y-126454901D01*
X66984906Y-126427708D01*
X66982351Y-126422527D01*
X66968171Y-126403537D01*
X66864788Y-126265091D01*
X66864787Y-126265090D01*
X66861335Y-126260467D01*
X66857099Y-126256551D01*
X66717053Y-126127094D01*
X66717051Y-126127092D01*
X66712812Y-126123174D01*
X66682590Y-126104105D01*
X66546637Y-126018325D01*
X66541757Y-126015246D01*
X66353898Y-125940298D01*
X66155526Y-125900839D01*
X66149752Y-125900763D01*
X66149748Y-125900763D01*
X66047257Y-125899422D01*
X65953286Y-125898192D01*
X65947589Y-125899171D01*
X65947588Y-125899171D01*
X65759646Y-125931465D01*
X65759645Y-125931465D01*
X65753949Y-125932444D01*
X65564193Y-126002449D01*
X65559232Y-126005401D01*
X65559231Y-126005401D01*
X65396809Y-126102032D01*
X65390371Y-126105862D01*
X65343354Y-126147095D01*
X65242650Y-126235409D01*
X65242647Y-126235412D01*
X65238305Y-126239220D01*
X65236563Y-126241429D01*
X65175995Y-126276590D01*
X65105071Y-126273379D01*
X65047142Y-126232334D01*
X65020599Y-126166486D01*
X65020000Y-126154212D01*
X65020000Y-125301480D01*
X65040002Y-125233359D01*
X65093658Y-125186866D01*
X65163932Y-125176762D01*
X65228512Y-125206256D01*
G37*
%TD.AperFunction*%
%TA.AperFunction,Conductor*%
G36*
X94255532Y-123307499D02*
G01*
X94312368Y-123350046D01*
X94337179Y-123416566D01*
X94337500Y-123425555D01*
X94337500Y-125019444D01*
X94317498Y-125087565D01*
X94300595Y-125108539D01*
X91568056Y-127841078D01*
X91505744Y-127875104D01*
X91434929Y-127870039D01*
X91378093Y-127827492D01*
X91361095Y-127796520D01*
X91318395Y-127683516D01*
X91318393Y-127683512D01*
X91315710Y-127676412D01*
X91226531Y-127546657D01*
X91154191Y-127482204D01*
X91114648Y-127446972D01*
X91114645Y-127446970D01*
X91108976Y-127441919D01*
X90969831Y-127368245D01*
X90909954Y-127353205D01*
X90857136Y-127339938D01*
X90795940Y-127303943D01*
X90763919Y-127240578D01*
X90762072Y-127220368D01*
X90763104Y-127213161D01*
X90755216Y-127158079D01*
X90745068Y-127087218D01*
X90745067Y-127087215D01*
X90743795Y-127078332D01*
X90731762Y-127051865D01*
X90690691Y-126961534D01*
X90690691Y-126961533D01*
X90687420Y-126954340D01*
X90650773Y-126908762D01*
X90233559Y-126491549D01*
X90230908Y-126489418D01*
X90230902Y-126489412D01*
X90194139Y-126459852D01*
X90194136Y-126459850D01*
X90187981Y-126454901D01*
X90140010Y-126433090D01*
X90072158Y-126402240D01*
X90072157Y-126402240D01*
X90063989Y-126398526D01*
X90055106Y-126397254D01*
X90055103Y-126397253D01*
X89938049Y-126380490D01*
X89929160Y-126379217D01*
X89920271Y-126380490D01*
X89803217Y-126397253D01*
X89803214Y-126397254D01*
X89794331Y-126398526D01*
X89786163Y-126402240D01*
X89781453Y-126403617D01*
X89710456Y-126403537D01*
X89656997Y-126371776D01*
X89532786Y-126247565D01*
X89498760Y-126185253D01*
X89495881Y-126158470D01*
X89495881Y-126094186D01*
X89492699Y-126084391D01*
X89466074Y-126002449D01*
X89457656Y-125976542D01*
X89443761Y-125957416D01*
X89406146Y-125905644D01*
X89406145Y-125905643D01*
X89403239Y-125901643D01*
X89119357Y-125617762D01*
X89044458Y-125563344D01*
X88989999Y-125545649D01*
X88936248Y-125528184D01*
X88936246Y-125528184D01*
X88926814Y-125525119D01*
X88862531Y-125525119D01*
X88794410Y-125505117D01*
X88773436Y-125488214D01*
X88616185Y-125330963D01*
X88601249Y-125312470D01*
X88599991Y-125311087D01*
X88594342Y-125302339D01*
X88568135Y-125281679D01*
X88563728Y-125277762D01*
X88563664Y-125277838D01*
X88559706Y-125274484D01*
X88556027Y-125270805D01*
X88551799Y-125267784D01*
X88551790Y-125267776D01*
X88540418Y-125259649D01*
X88535675Y-125256088D01*
X88503829Y-125230983D01*
X88503824Y-125230980D01*
X88495647Y-125224534D01*
X88487052Y-125221516D01*
X88479643Y-125216221D01*
X88469663Y-125213236D01*
X88469660Y-125213235D01*
X88430806Y-125201615D01*
X88425158Y-125199780D01*
X88384557Y-125185521D01*
X88384550Y-125185519D01*
X88377071Y-125182893D01*
X88371540Y-125182414D01*
X88368828Y-125182414D01*
X88366224Y-125182301D01*
X88366099Y-125182264D01*
X88366106Y-125182109D01*
X88365440Y-125182067D01*
X88359237Y-125180212D01*
X88305662Y-125182317D01*
X88300715Y-125182414D01*
X87750860Y-125182414D01*
X87682739Y-125162412D01*
X87661765Y-125145509D01*
X87614147Y-125097891D01*
X87580121Y-125035579D01*
X87585186Y-124964764D01*
X87614147Y-124919701D01*
X87828883Y-124704965D01*
X87891195Y-124670939D01*
X87917978Y-124668060D01*
X92580728Y-124668060D01*
X92604357Y-124670575D01*
X92606231Y-124670663D01*
X92616411Y-124672855D01*
X92649549Y-124668933D01*
X92655430Y-124668586D01*
X92655422Y-124668488D01*
X92660598Y-124668060D01*
X92665802Y-124668060D01*
X92678134Y-124666008D01*
X92684706Y-124664914D01*
X92690581Y-124664077D01*
X92695844Y-124663454D01*
X92741215Y-124658084D01*
X92749425Y-124654141D01*
X92758410Y-124652646D01*
X92767577Y-124647700D01*
X92767579Y-124647699D01*
X92803289Y-124628431D01*
X92808579Y-124625736D01*
X92835045Y-124613027D01*
X92854506Y-124603682D01*
X92858755Y-124600110D01*
X92860684Y-124598181D01*
X92862589Y-124596433D01*
X92862698Y-124596374D01*
X92862805Y-124596491D01*
X92863314Y-124596042D01*
X92869012Y-124592968D01*
X92905432Y-124553569D01*
X92908861Y-124550004D01*
X94122405Y-123336460D01*
X94184717Y-123302434D01*
X94255532Y-123307499D01*
G37*
%TD.AperFunction*%
%TA.AperFunction,Conductor*%
G36*
X65228512Y-122666256D02*
G01*
X65233912Y-122671216D01*
X65344466Y-122778913D01*
X65512637Y-122891282D01*
X65517940Y-122893560D01*
X65517943Y-122893562D01*
X65676826Y-122961823D01*
X65698470Y-122971122D01*
X65794361Y-122992820D01*
X65885019Y-123013334D01*
X65895740Y-123015760D01*
X65901509Y-123015987D01*
X65901512Y-123015987D01*
X65977683Y-123018979D01*
X66097842Y-123023700D01*
X66199573Y-123008950D01*
X66292286Y-122995508D01*
X66292291Y-122995507D01*
X66298007Y-122994678D01*
X66303479Y-122992820D01*
X66303481Y-122992820D01*
X66367400Y-122971122D01*
X66434950Y-122948192D01*
X66505883Y-122945235D01*
X66564545Y-122978410D01*
X71141539Y-127555405D01*
X71175565Y-127617717D01*
X71170500Y-127688532D01*
X71127953Y-127745368D01*
X71061433Y-127770179D01*
X71052444Y-127770500D01*
X69936555Y-127770500D01*
X69868434Y-127750498D01*
X69847460Y-127733595D01*
X67098411Y-124984545D01*
X67064385Y-124922233D01*
X67068193Y-124854949D01*
X67112819Y-124723485D01*
X67112820Y-124723480D01*
X67114678Y-124718007D01*
X67115507Y-124712291D01*
X67115508Y-124712286D01*
X67138520Y-124553570D01*
X67143700Y-124517842D01*
X67145215Y-124460000D01*
X67126708Y-124258591D01*
X67071807Y-124063926D01*
X66982351Y-123882527D01*
X66964079Y-123858057D01*
X66864788Y-123725091D01*
X66864787Y-123725090D01*
X66861335Y-123720467D01*
X66857099Y-123716551D01*
X66717053Y-123587094D01*
X66717051Y-123587092D01*
X66712812Y-123583174D01*
X66685374Y-123565862D01*
X66546637Y-123478325D01*
X66541757Y-123475246D01*
X66353898Y-123400298D01*
X66179261Y-123365560D01*
X66161192Y-123361966D01*
X66161191Y-123361966D01*
X66155526Y-123360839D01*
X66149752Y-123360763D01*
X66149748Y-123360763D01*
X66047257Y-123359422D01*
X65953286Y-123358192D01*
X65947589Y-123359171D01*
X65947588Y-123359171D01*
X65759646Y-123391465D01*
X65759645Y-123391465D01*
X65753949Y-123392444D01*
X65564193Y-123462449D01*
X65390371Y-123565862D01*
X65335238Y-123614212D01*
X65242650Y-123695409D01*
X65242647Y-123695412D01*
X65238305Y-123699220D01*
X65236563Y-123701429D01*
X65175995Y-123736590D01*
X65105071Y-123733379D01*
X65047142Y-123692334D01*
X65020599Y-123626486D01*
X65020000Y-123614212D01*
X65020000Y-122761480D01*
X65040002Y-122693359D01*
X65093658Y-122646866D01*
X65163932Y-122636762D01*
X65228512Y-122666256D01*
G37*
%TD.AperFunction*%
%TA.AperFunction,Conductor*%
G36*
X94789533Y-125791500D02*
G01*
X94846368Y-125834047D01*
X94871179Y-125900567D01*
X94871500Y-125909556D01*
X94871500Y-126599445D01*
X94851498Y-126667566D01*
X94834595Y-126688540D01*
X93807021Y-127716114D01*
X93744709Y-127750140D01*
X93673894Y-127745075D01*
X93617058Y-127702528D01*
X93600060Y-127671556D01*
X93576753Y-127609874D01*
X93576751Y-127609870D01*
X93574068Y-127602770D01*
X93484889Y-127473015D01*
X93419107Y-127414405D01*
X93373006Y-127373330D01*
X93373003Y-127373328D01*
X93367334Y-127368277D01*
X93348918Y-127358526D01*
X93298078Y-127308974D01*
X93282097Y-127239799D01*
X93306052Y-127172966D01*
X93318786Y-127158079D01*
X94656405Y-125820461D01*
X94718717Y-125786435D01*
X94789533Y-125791500D01*
G37*
%TD.AperFunction*%
%TA.AperFunction,Conductor*%
G36*
X65228512Y-120126256D02*
G01*
X65233912Y-120131216D01*
X65344466Y-120238913D01*
X65512637Y-120351282D01*
X65517940Y-120353560D01*
X65517943Y-120353562D01*
X65618276Y-120396668D01*
X65698470Y-120431122D01*
X65895740Y-120475760D01*
X65901509Y-120475987D01*
X65901512Y-120475987D01*
X65977683Y-120478979D01*
X66097842Y-120483700D01*
X66184132Y-120471189D01*
X66292286Y-120455508D01*
X66292291Y-120455507D01*
X66298007Y-120454678D01*
X66303479Y-120452820D01*
X66303481Y-120452820D01*
X66345931Y-120438410D01*
X66434950Y-120408192D01*
X66505883Y-120405235D01*
X66564545Y-120438410D01*
X73214539Y-127088405D01*
X73248565Y-127150717D01*
X73243500Y-127221532D01*
X73200953Y-127278368D01*
X73134433Y-127303179D01*
X73125444Y-127303500D01*
X72009556Y-127303500D01*
X71941435Y-127283498D01*
X71920461Y-127266595D01*
X67098411Y-122444545D01*
X67064385Y-122382233D01*
X67068193Y-122314949D01*
X67112819Y-122183485D01*
X67112820Y-122183480D01*
X67114678Y-122178007D01*
X67115507Y-122172291D01*
X67115508Y-122172286D01*
X67143167Y-121981516D01*
X67143700Y-121977842D01*
X67145215Y-121920000D01*
X67126708Y-121718591D01*
X67120216Y-121695570D01*
X67095874Y-121609260D01*
X67071807Y-121523926D01*
X66982351Y-121342527D01*
X66967620Y-121322799D01*
X66864788Y-121185091D01*
X66864787Y-121185090D01*
X66861335Y-121180467D01*
X66854392Y-121174049D01*
X66717053Y-121047094D01*
X66717051Y-121047092D01*
X66712812Y-121043174D01*
X66681474Y-121023401D01*
X66546637Y-120938325D01*
X66541757Y-120935246D01*
X66353898Y-120860298D01*
X66155526Y-120820839D01*
X66149752Y-120820763D01*
X66149748Y-120820763D01*
X66047257Y-120819422D01*
X65953286Y-120818192D01*
X65947589Y-120819171D01*
X65947588Y-120819171D01*
X65759646Y-120851465D01*
X65759645Y-120851465D01*
X65753949Y-120852444D01*
X65564193Y-120922449D01*
X65390371Y-121025862D01*
X65350898Y-121060479D01*
X65242650Y-121155409D01*
X65242647Y-121155412D01*
X65238305Y-121159220D01*
X65236563Y-121161429D01*
X65175995Y-121196590D01*
X65105071Y-121193379D01*
X65047142Y-121152334D01*
X65020599Y-121086486D01*
X65020000Y-121074212D01*
X65020000Y-120221480D01*
X65040002Y-120153359D01*
X65093658Y-120106866D01*
X65163932Y-120096762D01*
X65228512Y-120126256D01*
G37*
%TD.AperFunction*%
%TA.AperFunction,Conductor*%
G36*
X67172443Y-117364860D02*
G01*
X67184954Y-117375819D01*
X67698095Y-117888960D01*
X67732121Y-117951272D01*
X67735000Y-117978055D01*
X67735000Y-119333788D01*
X67732485Y-119357417D01*
X67732397Y-119359291D01*
X67730205Y-119369471D01*
X67731429Y-119379810D01*
X67734127Y-119402609D01*
X67734474Y-119408490D01*
X67734572Y-119408482D01*
X67735000Y-119413658D01*
X67735000Y-119418862D01*
X67735855Y-119423998D01*
X67738146Y-119437766D01*
X67738983Y-119443641D01*
X67744976Y-119494275D01*
X67748919Y-119502485D01*
X67750414Y-119511470D01*
X67755360Y-119520637D01*
X67755361Y-119520639D01*
X67774629Y-119556349D01*
X67777324Y-119561639D01*
X67799378Y-119607566D01*
X67802950Y-119611815D01*
X67804879Y-119613744D01*
X67806627Y-119615649D01*
X67806686Y-119615758D01*
X67806569Y-119615865D01*
X67807018Y-119616374D01*
X67810092Y-119622072D01*
X67817738Y-119629140D01*
X67817739Y-119629141D01*
X67849490Y-119658491D01*
X67853056Y-119661921D01*
X74710540Y-126519405D01*
X74744566Y-126581717D01*
X74739501Y-126652532D01*
X74696954Y-126709368D01*
X74630434Y-126734179D01*
X74621445Y-126734500D01*
X73980556Y-126734500D01*
X73912435Y-126714498D01*
X73891461Y-126697595D01*
X67098411Y-119904545D01*
X67064385Y-119842233D01*
X67068193Y-119774949D01*
X67112819Y-119643485D01*
X67112820Y-119643480D01*
X67114678Y-119638007D01*
X67115507Y-119632291D01*
X67115508Y-119632286D01*
X67134327Y-119502485D01*
X67143700Y-119437842D01*
X67145215Y-119380000D01*
X67126708Y-119178591D01*
X67071807Y-118983926D01*
X66982351Y-118802527D01*
X66964079Y-118778057D01*
X66864788Y-118645091D01*
X66864787Y-118645090D01*
X66861335Y-118640467D01*
X66857099Y-118636551D01*
X66717053Y-118507094D01*
X66717051Y-118507092D01*
X66712812Y-118503174D01*
X66685374Y-118485862D01*
X66546637Y-118398325D01*
X66541757Y-118395246D01*
X66353898Y-118320298D01*
X66179261Y-118285560D01*
X66161192Y-118281966D01*
X66161191Y-118281966D01*
X66155526Y-118280839D01*
X66149752Y-118280763D01*
X66149748Y-118280763D01*
X66047257Y-118279422D01*
X65953286Y-118278192D01*
X65947589Y-118279171D01*
X65947588Y-118279171D01*
X65759646Y-118311465D01*
X65759645Y-118311465D01*
X65753949Y-118312444D01*
X65564193Y-118382449D01*
X65559232Y-118385401D01*
X65559231Y-118385401D01*
X65428204Y-118463354D01*
X65390371Y-118485862D01*
X65336294Y-118533286D01*
X65242650Y-118615409D01*
X65242647Y-118615412D01*
X65238305Y-118619220D01*
X65236563Y-118621429D01*
X65175995Y-118656590D01*
X65105071Y-118653379D01*
X65047142Y-118612334D01*
X65020599Y-118546486D01*
X65020000Y-118534212D01*
X65020000Y-117681480D01*
X65040002Y-117613359D01*
X65093658Y-117566866D01*
X65163932Y-117556762D01*
X65228512Y-117586256D01*
X65233912Y-117591216D01*
X65344466Y-117698913D01*
X65512637Y-117811282D01*
X65517940Y-117813560D01*
X65517943Y-117813562D01*
X65693163Y-117888842D01*
X65698470Y-117891122D01*
X65895740Y-117935760D01*
X65901509Y-117935987D01*
X65901512Y-117935987D01*
X65977683Y-117938979D01*
X66097842Y-117943700D01*
X66184132Y-117931189D01*
X66292286Y-117915508D01*
X66292291Y-117915507D01*
X66298007Y-117914678D01*
X66303479Y-117912820D01*
X66303481Y-117912820D01*
X66484067Y-117851519D01*
X66484069Y-117851518D01*
X66489531Y-117849664D01*
X66666001Y-117750837D01*
X66728433Y-117698913D01*
X66817073Y-117625191D01*
X66821505Y-117621505D01*
X66935279Y-117484707D01*
X66947146Y-117470439D01*
X66950837Y-117466001D01*
X66966918Y-117437287D01*
X66985924Y-117403348D01*
X67036661Y-117353686D01*
X67106193Y-117339338D01*
X67172443Y-117364860D01*
G37*
%TD.AperFunction*%
%TA.AperFunction,Conductor*%
G36*
X98009593Y-122317502D02*
G01*
X98055898Y-122370748D01*
X98102856Y-122472607D01*
X98109842Y-122482492D01*
X98212362Y-122627555D01*
X98219588Y-122637780D01*
X98364466Y-122778913D01*
X98532637Y-122891282D01*
X98537940Y-122893560D01*
X98537943Y-122893562D01*
X98696826Y-122961823D01*
X98718470Y-122971122D01*
X98814361Y-122992820D01*
X98905019Y-123013334D01*
X98915740Y-123015760D01*
X98921509Y-123015987D01*
X98921512Y-123015987D01*
X98997683Y-123018979D01*
X99117842Y-123023700D01*
X99219573Y-123008950D01*
X99312286Y-122995508D01*
X99312291Y-122995507D01*
X99318007Y-122994678D01*
X99323479Y-122992820D01*
X99323481Y-122992820D01*
X99504067Y-122931519D01*
X99504069Y-122931518D01*
X99509531Y-122929664D01*
X99641860Y-122855557D01*
X99680964Y-122833658D01*
X99680965Y-122833657D01*
X99686001Y-122830837D01*
X99748433Y-122778913D01*
X99815336Y-122723270D01*
X99841505Y-122701505D01*
X99857126Y-122682723D01*
X99916064Y-122643139D01*
X99987046Y-122641704D01*
X100047536Y-122678872D01*
X100078329Y-122742843D01*
X100080000Y-122763293D01*
X100080000Y-123616051D01*
X100059998Y-123684172D01*
X100006342Y-123730665D01*
X99936068Y-123740769D01*
X99868471Y-123708576D01*
X99863264Y-123703762D01*
X99766389Y-123614212D01*
X99737053Y-123587094D01*
X99737051Y-123587092D01*
X99732812Y-123583174D01*
X99705374Y-123565862D01*
X99566637Y-123478325D01*
X99561757Y-123475246D01*
X99373898Y-123400298D01*
X99199261Y-123365560D01*
X99181192Y-123361966D01*
X99181191Y-123361966D01*
X99175526Y-123360839D01*
X99169752Y-123360763D01*
X99169748Y-123360763D01*
X99067257Y-123359422D01*
X98973286Y-123358192D01*
X98967589Y-123359171D01*
X98967588Y-123359171D01*
X98779646Y-123391465D01*
X98779645Y-123391465D01*
X98773949Y-123392444D01*
X98584193Y-123462449D01*
X98410371Y-123565862D01*
X98258305Y-123699220D01*
X98133089Y-123858057D01*
X98038914Y-124037053D01*
X97978937Y-124230213D01*
X97955164Y-124431069D01*
X97968392Y-124632894D01*
X97969814Y-124638494D01*
X97969815Y-124638499D01*
X97987382Y-124707671D01*
X97984763Y-124778619D01*
X97954354Y-124827780D01*
X96280595Y-126501539D01*
X96218283Y-126535565D01*
X96147468Y-126530500D01*
X96090632Y-126487953D01*
X96065821Y-126421433D01*
X96065500Y-126412444D01*
X96065500Y-122627555D01*
X96085502Y-122559434D01*
X96102405Y-122538460D01*
X96306460Y-122334405D01*
X96368772Y-122300379D01*
X96395555Y-122297500D01*
X97941472Y-122297500D01*
X98009593Y-122317502D01*
G37*
%TD.AperFunction*%
%TA.AperFunction,Conductor*%
G36*
X67423524Y-110760002D02*
G01*
X67470017Y-110813658D01*
X67480797Y-110878347D01*
X67480708Y-110879255D01*
X67479500Y-110885326D01*
X67479500Y-112634674D01*
X67494034Y-112707740D01*
X67500928Y-112718057D01*
X67500928Y-112718058D01*
X67507619Y-112728072D01*
X67549399Y-112790601D01*
X67632260Y-112845966D01*
X67705326Y-112860500D01*
X68919445Y-112860500D01*
X68987566Y-112880502D01*
X69008540Y-112897405D01*
X74015085Y-117903950D01*
X74030022Y-117922444D01*
X74031278Y-117923824D01*
X74036928Y-117932575D01*
X74045106Y-117939022D01*
X74063140Y-117953239D01*
X74067541Y-117957150D01*
X74067605Y-117957075D01*
X74071569Y-117960434D01*
X74075244Y-117964109D01*
X74079469Y-117967129D01*
X74079471Y-117967130D01*
X74090849Y-117975261D01*
X74095594Y-117978824D01*
X74127443Y-118003932D01*
X74127445Y-118003933D01*
X74135623Y-118010380D01*
X74144215Y-118013397D01*
X74151627Y-118018694D01*
X74161599Y-118021676D01*
X74161601Y-118021677D01*
X74184816Y-118028619D01*
X74200484Y-118033304D01*
X74206124Y-118035138D01*
X74246720Y-118049395D01*
X74246724Y-118049396D01*
X74254199Y-118052021D01*
X74259730Y-118052500D01*
X74262439Y-118052500D01*
X74265046Y-118052613D01*
X74265171Y-118052650D01*
X74265164Y-118052805D01*
X74265830Y-118052847D01*
X74272033Y-118054702D01*
X74284193Y-118054224D01*
X74286518Y-118054809D01*
X74292773Y-118055599D01*
X74292677Y-118056357D01*
X74353046Y-118071535D01*
X74384119Y-118097459D01*
X74387958Y-118103172D01*
X74393576Y-118108284D01*
X74498378Y-118203646D01*
X74504410Y-118209135D01*
X74532042Y-118224138D01*
X74636099Y-118280637D01*
X74636101Y-118280638D01*
X74642776Y-118284262D01*
X74650125Y-118286190D01*
X74787719Y-118322287D01*
X74787721Y-118322287D01*
X74795069Y-118324215D01*
X74878380Y-118325524D01*
X74944898Y-118326569D01*
X74944901Y-118326569D01*
X74952495Y-118326688D01*
X75105968Y-118291538D01*
X75246625Y-118220795D01*
X75308646Y-118167824D01*
X75360574Y-118123474D01*
X75360576Y-118123471D01*
X75366348Y-118118542D01*
X75458224Y-117990683D01*
X75463301Y-117978055D01*
X75480303Y-117935760D01*
X75516950Y-117844598D01*
X75539134Y-117688723D01*
X75539278Y-117675000D01*
X75520363Y-117518694D01*
X75507822Y-117485506D01*
X75467394Y-117378514D01*
X75467393Y-117378511D01*
X75464710Y-117371412D01*
X75375531Y-117241657D01*
X75320599Y-117192714D01*
X75263648Y-117141972D01*
X75263645Y-117141970D01*
X75257976Y-117136919D01*
X75245164Y-117130135D01*
X75125543Y-117066799D01*
X75125544Y-117066799D01*
X75118831Y-117063245D01*
X75021678Y-117038842D01*
X74973498Y-117026740D01*
X74973496Y-117026740D01*
X74966128Y-117024889D01*
X74958530Y-117024849D01*
X74958528Y-117024849D01*
X74891319Y-117024497D01*
X74808684Y-117024065D01*
X74801305Y-117025837D01*
X74801301Y-117025837D01*
X74662967Y-117059048D01*
X74662963Y-117059049D01*
X74655588Y-117060820D01*
X74614384Y-117082087D01*
X74531991Y-117124613D01*
X74515679Y-117133032D01*
X74495538Y-117150603D01*
X74431059Y-117180311D01*
X74360752Y-117170443D01*
X74323614Y-117144749D01*
X72036189Y-114857323D01*
X69717405Y-112538539D01*
X69683379Y-112476227D01*
X69680500Y-112449444D01*
X69680500Y-110885326D01*
X69679292Y-110879255D01*
X69679203Y-110878347D01*
X69692434Y-110808594D01*
X69741275Y-110757067D01*
X69804597Y-110740000D01*
X70279115Y-110740000D01*
X70347236Y-110760002D01*
X70393729Y-110813658D01*
X70403833Y-110883932D01*
X70374339Y-110948512D01*
X70362198Y-110960727D01*
X70318305Y-110999220D01*
X70193089Y-111158057D01*
X70098914Y-111337053D01*
X70038937Y-111530213D01*
X70015164Y-111731069D01*
X70028392Y-111932894D01*
X70078178Y-112128928D01*
X70162856Y-112312607D01*
X70279588Y-112477780D01*
X70424466Y-112618913D01*
X70592637Y-112731282D01*
X70597940Y-112733560D01*
X70597943Y-112733562D01*
X70758397Y-112802498D01*
X70778470Y-112811122D01*
X70975740Y-112855760D01*
X70981509Y-112855987D01*
X70981512Y-112855987D01*
X71057683Y-112858979D01*
X71177842Y-112863700D01*
X71264132Y-112851189D01*
X71372286Y-112835508D01*
X71372291Y-112835507D01*
X71378007Y-112834678D01*
X71383479Y-112832820D01*
X71383481Y-112832820D01*
X71454108Y-112808845D01*
X71514950Y-112788192D01*
X71585883Y-112785235D01*
X71644545Y-112818410D01*
X76919085Y-118092950D01*
X76934022Y-118111444D01*
X76935278Y-118112824D01*
X76940928Y-118121575D01*
X76949106Y-118128022D01*
X76967140Y-118142239D01*
X76971541Y-118146150D01*
X76971605Y-118146075D01*
X76975569Y-118149434D01*
X76979244Y-118153109D01*
X76983469Y-118156129D01*
X76983471Y-118156130D01*
X76994849Y-118164261D01*
X76999594Y-118167824D01*
X77031443Y-118192932D01*
X77031445Y-118192933D01*
X77039623Y-118199380D01*
X77048215Y-118202397D01*
X77055627Y-118207694D01*
X77065599Y-118210676D01*
X77065601Y-118210677D01*
X77088816Y-118217619D01*
X77104484Y-118222304D01*
X77110124Y-118224138D01*
X77150720Y-118238395D01*
X77150724Y-118238396D01*
X77158199Y-118241021D01*
X77163730Y-118241500D01*
X77166439Y-118241500D01*
X77169046Y-118241613D01*
X77169171Y-118241650D01*
X77169164Y-118241805D01*
X77169830Y-118241847D01*
X77176033Y-118243702D01*
X77229608Y-118241597D01*
X77234555Y-118241500D01*
X77593445Y-118241500D01*
X77661566Y-118261502D01*
X77682540Y-118278405D01*
X79128555Y-119724421D01*
X79162581Y-119786733D01*
X79165460Y-119813516D01*
X79165460Y-121317494D01*
X79145458Y-121385615D01*
X79091802Y-121432108D01*
X79021528Y-121442212D01*
X79008770Y-121439699D01*
X78940375Y-121422519D01*
X78889498Y-121409740D01*
X78889496Y-121409740D01*
X78882128Y-121407889D01*
X78874530Y-121407849D01*
X78874528Y-121407849D01*
X78807319Y-121407497D01*
X78724684Y-121407065D01*
X78717305Y-121408837D01*
X78717301Y-121408837D01*
X78578967Y-121442048D01*
X78578963Y-121442049D01*
X78571588Y-121443820D01*
X78521702Y-121469568D01*
X78455152Y-121503917D01*
X78431679Y-121516032D01*
X78425957Y-121521024D01*
X78425955Y-121521025D01*
X78328202Y-121606301D01*
X78313034Y-121619533D01*
X78309626Y-121624381D01*
X78249785Y-121661248D01*
X78178801Y-121659896D01*
X78119817Y-121620381D01*
X78104328Y-121596899D01*
X78101248Y-121590854D01*
X78098182Y-121581418D01*
X78043765Y-121506519D01*
X77759883Y-121222638D01*
X77684984Y-121168220D01*
X77645556Y-121155409D01*
X77576774Y-121133060D01*
X77576772Y-121133060D01*
X77567340Y-121129995D01*
X77503057Y-121129995D01*
X77434936Y-121109993D01*
X77413960Y-121093089D01*
X77381351Y-121060479D01*
X77347327Y-120998166D01*
X77344448Y-120971385D01*
X77344448Y-120907102D01*
X77340240Y-120894149D01*
X77322054Y-120838180D01*
X77306223Y-120789458D01*
X77296659Y-120776293D01*
X77254713Y-120718560D01*
X77254712Y-120718559D01*
X77251806Y-120714559D01*
X76967924Y-120430678D01*
X76893025Y-120376260D01*
X76882503Y-120372841D01*
X76775381Y-120338035D01*
X76775889Y-120336471D01*
X76721923Y-120310888D01*
X76684396Y-120250620D01*
X76680050Y-120224222D01*
X76680086Y-120220833D01*
X76661171Y-120064527D01*
X76622270Y-119961577D01*
X76608202Y-119924347D01*
X76608201Y-119924344D01*
X76605518Y-119917245D01*
X76516339Y-119787490D01*
X76445552Y-119724421D01*
X76404456Y-119687805D01*
X76404453Y-119687803D01*
X76398784Y-119682752D01*
X76259639Y-119609078D01*
X76124573Y-119575152D01*
X76114306Y-119572573D01*
X76114304Y-119572573D01*
X76106936Y-119570722D01*
X76099338Y-119570682D01*
X76099336Y-119570682D01*
X76032127Y-119570330D01*
X75949492Y-119569898D01*
X75942113Y-119571670D01*
X75942109Y-119571670D01*
X75803775Y-119604881D01*
X75803771Y-119604882D01*
X75796396Y-119606653D01*
X75752826Y-119629141D01*
X75689316Y-119661921D01*
X75656487Y-119678865D01*
X75650765Y-119683857D01*
X75650763Y-119683858D01*
X75543567Y-119777371D01*
X75543564Y-119777374D01*
X75537842Y-119782366D01*
X75499077Y-119837522D01*
X75451973Y-119904545D01*
X75447309Y-119911181D01*
X75390117Y-120057872D01*
X75376474Y-120161505D01*
X75374189Y-120178859D01*
X75345467Y-120243786D01*
X75286202Y-120282878D01*
X75248608Y-120288411D01*
X75231072Y-120288319D01*
X75223693Y-120290091D01*
X75223689Y-120290091D01*
X75085355Y-120323302D01*
X75085351Y-120323303D01*
X75077976Y-120325074D01*
X75050629Y-120339189D01*
X74979419Y-120375943D01*
X74938067Y-120397286D01*
X74932345Y-120402278D01*
X74932343Y-120402279D01*
X74825147Y-120495792D01*
X74825144Y-120495795D01*
X74819422Y-120500787D01*
X74728889Y-120629602D01*
X74671697Y-120776293D01*
X74670706Y-120783822D01*
X74652600Y-120921351D01*
X74651146Y-120932392D01*
X74668423Y-121088887D01*
X74722531Y-121236744D01*
X74726768Y-121243050D01*
X74726770Y-121243053D01*
X74751653Y-121280082D01*
X74810346Y-121367426D01*
X74840159Y-121394554D01*
X74909829Y-121457948D01*
X74926798Y-121473389D01*
X74971494Y-121497657D01*
X75058487Y-121544891D01*
X75058489Y-121544892D01*
X75065164Y-121548516D01*
X75072513Y-121550444D01*
X75210107Y-121586541D01*
X75210109Y-121586541D01*
X75217457Y-121588469D01*
X75270256Y-121589298D01*
X75338053Y-121610367D01*
X75383698Y-121664745D01*
X75390357Y-121687481D01*
X75390357Y-121690532D01*
X75393422Y-121699964D01*
X75393422Y-121699966D01*
X75409143Y-121748348D01*
X75428582Y-121808176D01*
X75434411Y-121816199D01*
X75434412Y-121816201D01*
X75480092Y-121879074D01*
X75482999Y-121883075D01*
X75766881Y-122166956D01*
X75841780Y-122221374D01*
X75851213Y-122224439D01*
X75949990Y-122256534D01*
X75949992Y-122256534D01*
X75959424Y-122259599D01*
X76023708Y-122259599D01*
X76091829Y-122279601D01*
X76112805Y-122296505D01*
X76145414Y-122329115D01*
X76179438Y-122391428D01*
X76182317Y-122418209D01*
X76182317Y-122482492D01*
X76185382Y-122491924D01*
X76185382Y-122491926D01*
X76195338Y-122522566D01*
X76220542Y-122600136D01*
X76226371Y-122608159D01*
X76226372Y-122608161D01*
X76268101Y-122665596D01*
X76274959Y-122675035D01*
X76558841Y-122958916D01*
X76562841Y-122961823D01*
X76562842Y-122961823D01*
X76608063Y-122994678D01*
X76633740Y-123013334D01*
X76636931Y-123014371D01*
X76685899Y-123060619D01*
X76702964Y-123129535D01*
X76694473Y-123169906D01*
X76647353Y-123290764D01*
X76646362Y-123298293D01*
X76628248Y-123435882D01*
X76626802Y-123446863D01*
X76644079Y-123603358D01*
X76646689Y-123610490D01*
X76675134Y-123688220D01*
X76679760Y-123759066D01*
X76645350Y-123821166D01*
X76579471Y-123854478D01*
X76576021Y-123854478D01*
X76566589Y-123857543D01*
X76566587Y-123857543D01*
X76488685Y-123882855D01*
X76458376Y-123892703D01*
X76383478Y-123947120D01*
X76142023Y-124188576D01*
X76087605Y-124263474D01*
X76049380Y-124381119D01*
X76049380Y-124504817D01*
X76087605Y-124622461D01*
X76093434Y-124630484D01*
X76093435Y-124630486D01*
X76122826Y-124670939D01*
X76142022Y-124697360D01*
X76145519Y-124700857D01*
X76315718Y-124871055D01*
X76340207Y-124905610D01*
X76345961Y-124917592D01*
X76349533Y-124921841D01*
X76351461Y-124923769D01*
X76353210Y-124925675D01*
X76353269Y-124925784D01*
X76353152Y-124925891D01*
X76353601Y-124926400D01*
X76356675Y-124932098D01*
X76364321Y-124939166D01*
X76364322Y-124939167D01*
X76396059Y-124968504D01*
X76399626Y-124971934D01*
X76553762Y-125126071D01*
X76587787Y-125188383D01*
X76589588Y-125231610D01*
X76587800Y-125245191D01*
X76585897Y-125259649D01*
X76584376Y-125271199D01*
X76601653Y-125427694D01*
X76655761Y-125575551D01*
X76743576Y-125706233D01*
X76749195Y-125711346D01*
X76749196Y-125711347D01*
X76774427Y-125734306D01*
X76811350Y-125794946D01*
X76809627Y-125865922D01*
X76769805Y-125924699D01*
X76704527Y-125952616D01*
X76689628Y-125953500D01*
X75264555Y-125953500D01*
X75196434Y-125933498D01*
X75175460Y-125916595D01*
X68526905Y-119268039D01*
X68492879Y-119205727D01*
X68490000Y-119178944D01*
X68490000Y-117823213D01*
X68492515Y-117799583D01*
X68492603Y-117797714D01*
X68494796Y-117787529D01*
X68490873Y-117754384D01*
X68490527Y-117748509D01*
X68490428Y-117748517D01*
X68490000Y-117743340D01*
X68490000Y-117738138D01*
X68486853Y-117719230D01*
X68486017Y-117713360D01*
X68481248Y-117673068D01*
X68480024Y-117662725D01*
X68476081Y-117654515D01*
X68474586Y-117645530D01*
X68469641Y-117636364D01*
X68469639Y-117636360D01*
X68453486Y-117606425D01*
X68450376Y-117600660D01*
X68447701Y-117595413D01*
X68440741Y-117580918D01*
X68429288Y-117510853D01*
X68457533Y-117445716D01*
X68516510Y-117406191D01*
X68587493Y-117404825D01*
X68643421Y-117437287D01*
X72945378Y-121739244D01*
X72979404Y-121801556D01*
X72981205Y-121844785D01*
X72975704Y-121886572D01*
X72970758Y-121924138D01*
X72988035Y-122080633D01*
X73042143Y-122228490D01*
X73046380Y-122234796D01*
X73046382Y-122234799D01*
X73065521Y-122263280D01*
X73129958Y-122359172D01*
X73152270Y-122379474D01*
X73221936Y-122442865D01*
X73246410Y-122465135D01*
X73293889Y-122490914D01*
X73378099Y-122536637D01*
X73378101Y-122536638D01*
X73384776Y-122540262D01*
X73392125Y-122542190D01*
X73529719Y-122578287D01*
X73529721Y-122578287D01*
X73537069Y-122580215D01*
X73620380Y-122581524D01*
X73686898Y-122582569D01*
X73686901Y-122582569D01*
X73694495Y-122582688D01*
X73847968Y-122547538D01*
X73988625Y-122476795D01*
X74028902Y-122442395D01*
X74102574Y-122379474D01*
X74102576Y-122379471D01*
X74108348Y-122374542D01*
X74200224Y-122246683D01*
X74205336Y-122233968D01*
X74225265Y-122184392D01*
X74258950Y-122100598D01*
X74269050Y-122029634D01*
X74280553Y-121948807D01*
X74280553Y-121948804D01*
X74281134Y-121944723D01*
X74281278Y-121931000D01*
X74262363Y-121774694D01*
X74241164Y-121718591D01*
X74209394Y-121634514D01*
X74209393Y-121634511D01*
X74206710Y-121627412D01*
X74117531Y-121497657D01*
X74070509Y-121455762D01*
X74005648Y-121397972D01*
X74005645Y-121397970D01*
X73999976Y-121392919D01*
X73961480Y-121372536D01*
X73939919Y-121361120D01*
X73860831Y-121319245D01*
X73838039Y-121313520D01*
X73715498Y-121282740D01*
X73715496Y-121282740D01*
X73708128Y-121280889D01*
X73700529Y-121280849D01*
X73700527Y-121280849D01*
X73605751Y-121280353D01*
X73537736Y-121259995D01*
X73517316Y-121243450D01*
X67098411Y-114824545D01*
X67064385Y-114762233D01*
X67068193Y-114694949D01*
X67112819Y-114563485D01*
X67112820Y-114563480D01*
X67114678Y-114558007D01*
X67115507Y-114552291D01*
X67115508Y-114552286D01*
X67132809Y-114432956D01*
X67143700Y-114357842D01*
X67145215Y-114300000D01*
X67126708Y-114098591D01*
X67109839Y-114038776D01*
X67094234Y-113983447D01*
X67071807Y-113903926D01*
X66982351Y-113722527D01*
X66964079Y-113698057D01*
X66864788Y-113565091D01*
X66864787Y-113565090D01*
X66861335Y-113560467D01*
X66857099Y-113556551D01*
X66717053Y-113427094D01*
X66717051Y-113427092D01*
X66712812Y-113423174D01*
X66685374Y-113405862D01*
X66546637Y-113318325D01*
X66541757Y-113315246D01*
X66353898Y-113240298D01*
X66155526Y-113200839D01*
X66149752Y-113200763D01*
X66149748Y-113200763D01*
X66047257Y-113199422D01*
X65953286Y-113198192D01*
X65947589Y-113199171D01*
X65947588Y-113199171D01*
X65759646Y-113231465D01*
X65759645Y-113231465D01*
X65753949Y-113232444D01*
X65564193Y-113302449D01*
X65559232Y-113305401D01*
X65559231Y-113305401D01*
X65402529Y-113398629D01*
X65390371Y-113405862D01*
X65354242Y-113437546D01*
X65242650Y-113535409D01*
X65242647Y-113535412D01*
X65238305Y-113539220D01*
X65236563Y-113541429D01*
X65175995Y-113576590D01*
X65105071Y-113573379D01*
X65047142Y-113532334D01*
X65020599Y-113466486D01*
X65020000Y-113454212D01*
X65020000Y-111797034D01*
X65022421Y-111772453D01*
X65022477Y-111772171D01*
X65024898Y-111760000D01*
X65022477Y-111747830D01*
X65022477Y-111737192D01*
X65022956Y-111726211D01*
X65034535Y-111593860D01*
X65038349Y-111572230D01*
X65043495Y-111553027D01*
X65078660Y-111421787D01*
X65086172Y-111401148D01*
X65151997Y-111259987D01*
X65162979Y-111240967D01*
X65252312Y-111113385D01*
X65266430Y-111096560D01*
X65376560Y-110986430D01*
X65393385Y-110972312D01*
X65520967Y-110882979D01*
X65539987Y-110871997D01*
X65681148Y-110806172D01*
X65701787Y-110798660D01*
X65731227Y-110790772D01*
X65852234Y-110758348D01*
X65873857Y-110754536D01*
X65984013Y-110744898D01*
X66006211Y-110742956D01*
X66017192Y-110742477D01*
X66027830Y-110742477D01*
X66040000Y-110744898D01*
X66052171Y-110742477D01*
X66052453Y-110742421D01*
X66077034Y-110740000D01*
X67355403Y-110740000D01*
X67423524Y-110760002D01*
G37*
%TD.AperFunction*%
%TA.AperFunction,Conductor*%
G36*
X99047547Y-110742421D02*
G01*
X99060000Y-110744898D01*
X99072170Y-110742477D01*
X99082808Y-110742477D01*
X99093789Y-110742956D01*
X99115987Y-110744898D01*
X99226143Y-110754536D01*
X99247766Y-110758348D01*
X99368773Y-110790772D01*
X99398213Y-110798660D01*
X99418852Y-110806172D01*
X99560013Y-110871997D01*
X99579033Y-110882979D01*
X99706615Y-110972312D01*
X99723440Y-110986430D01*
X99833570Y-111096560D01*
X99847688Y-111113385D01*
X99937021Y-111240967D01*
X99948003Y-111259987D01*
X100013828Y-111401148D01*
X100021340Y-111421787D01*
X100056506Y-111553027D01*
X100061651Y-111572230D01*
X100065465Y-111593860D01*
X100077044Y-111726211D01*
X100077523Y-111737192D01*
X100077523Y-111747830D01*
X100075102Y-111760000D01*
X100077523Y-111772171D01*
X100077579Y-111772453D01*
X100080000Y-111797034D01*
X100080000Y-113456051D01*
X100059998Y-113524172D01*
X100006342Y-113570665D01*
X99936068Y-113580769D01*
X99868471Y-113548576D01*
X99863264Y-113543762D01*
X99732812Y-113423174D01*
X99705374Y-113405862D01*
X99566637Y-113318325D01*
X99561757Y-113315246D01*
X99373898Y-113240298D01*
X99175526Y-113200839D01*
X99169752Y-113200763D01*
X99169748Y-113200763D01*
X99067257Y-113199422D01*
X98973286Y-113198192D01*
X98967589Y-113199171D01*
X98967588Y-113199171D01*
X98779646Y-113231465D01*
X98779645Y-113231465D01*
X98773949Y-113232444D01*
X98584193Y-113302449D01*
X98579232Y-113305401D01*
X98579231Y-113305401D01*
X98422529Y-113398629D01*
X98410371Y-113405862D01*
X98258305Y-113539220D01*
X98133089Y-113698057D01*
X98091219Y-113777638D01*
X98050428Y-113855168D01*
X98001008Y-113906140D01*
X97938920Y-113922500D01*
X97170712Y-113922500D01*
X97147083Y-113919985D01*
X97145209Y-113919897D01*
X97135029Y-113917705D01*
X97103158Y-113921477D01*
X97101891Y-113921627D01*
X97096010Y-113921974D01*
X97096018Y-113922072D01*
X97090842Y-113922500D01*
X97085638Y-113922500D01*
X97073306Y-113924552D01*
X97066734Y-113925646D01*
X97060858Y-113926483D01*
X97010225Y-113932476D01*
X97002015Y-113936419D01*
X96993030Y-113937914D01*
X96983863Y-113942860D01*
X96983861Y-113942861D01*
X96948151Y-113962129D01*
X96942861Y-113964824D01*
X96904079Y-113983447D01*
X96896934Y-113986878D01*
X96892684Y-113990450D01*
X96890759Y-113992375D01*
X96888847Y-113994128D01*
X96888732Y-113994190D01*
X96888627Y-113994076D01*
X96888126Y-113994517D01*
X96882428Y-113997592D01*
X96846021Y-114036977D01*
X96842591Y-114040543D01*
X93801047Y-117082087D01*
X93782558Y-117097020D01*
X93781175Y-117098278D01*
X93772425Y-117103928D01*
X93765978Y-117112106D01*
X93751765Y-117130135D01*
X93747848Y-117134542D01*
X93747924Y-117134606D01*
X93744570Y-117138564D01*
X93740891Y-117142243D01*
X93737870Y-117146471D01*
X93737862Y-117146480D01*
X93729735Y-117157852D01*
X93726174Y-117162595D01*
X93701069Y-117194441D01*
X93701066Y-117194446D01*
X93694620Y-117202623D01*
X93691602Y-117211218D01*
X93686307Y-117218627D01*
X93683322Y-117228607D01*
X93683321Y-117228610D01*
X93671701Y-117267464D01*
X93669866Y-117273112D01*
X93655607Y-117313713D01*
X93655605Y-117313720D01*
X93652979Y-117321199D01*
X93652500Y-117326730D01*
X93652500Y-117329442D01*
X93652387Y-117332046D01*
X93652350Y-117332171D01*
X93652195Y-117332164D01*
X93652153Y-117332830D01*
X93650298Y-117339033D01*
X93651570Y-117371412D01*
X93652403Y-117392608D01*
X93652500Y-117397555D01*
X93652500Y-122686445D01*
X93632498Y-122754566D01*
X93615595Y-122775540D01*
X92514979Y-123876155D01*
X92452667Y-123910181D01*
X92425884Y-123913060D01*
X91361996Y-123913060D01*
X91293875Y-123893058D01*
X91247382Y-123839402D01*
X91237278Y-123769128D01*
X91266772Y-123704548D01*
X91272901Y-123697964D01*
X91542159Y-123428707D01*
X92002953Y-122967913D01*
X92021445Y-122952979D01*
X92022830Y-122951719D01*
X92031575Y-122946072D01*
X92052235Y-122919865D01*
X92056152Y-122915458D01*
X92056076Y-122915394D01*
X92059430Y-122911436D01*
X92063109Y-122907757D01*
X92073253Y-122893562D01*
X92074266Y-122892145D01*
X92077828Y-122887401D01*
X92102932Y-122855557D01*
X92102933Y-122855554D01*
X92109380Y-122847377D01*
X92112397Y-122838785D01*
X92117694Y-122831373D01*
X92132304Y-122782516D01*
X92134138Y-122776876D01*
X92148395Y-122736280D01*
X92148396Y-122736276D01*
X92151021Y-122728801D01*
X92151500Y-122723270D01*
X92151500Y-122720561D01*
X92151613Y-122717954D01*
X92151650Y-122717829D01*
X92151805Y-122717836D01*
X92151847Y-122717170D01*
X92153702Y-122710967D01*
X92151597Y-122657392D01*
X92151500Y-122652445D01*
X92151500Y-122227939D01*
X92171502Y-122159818D01*
X92188405Y-122138844D01*
X92233859Y-122093390D01*
X92290017Y-121983174D01*
X92304500Y-121891734D01*
X92304499Y-121490265D01*
X92297143Y-121443820D01*
X92291568Y-121408616D01*
X92291568Y-121408615D01*
X92290017Y-121398824D01*
X92283287Y-121385615D01*
X92237984Y-121296703D01*
X92224880Y-121226926D01*
X92251580Y-121161141D01*
X92309608Y-121120235D01*
X92350251Y-121113500D01*
X92692674Y-121113500D01*
X92765740Y-121098966D01*
X92776202Y-121091976D01*
X92838286Y-121050493D01*
X92848601Y-121043601D01*
X92889008Y-120983127D01*
X92897072Y-120971058D01*
X92897072Y-120971057D01*
X92903966Y-120960740D01*
X92918500Y-120887674D01*
X92918500Y-119838326D01*
X92903966Y-119765260D01*
X92848601Y-119682399D01*
X92765740Y-119627034D01*
X92692674Y-119612500D01*
X90970500Y-119612500D01*
X90902379Y-119592498D01*
X90855886Y-119538842D01*
X90844500Y-119486500D01*
X90844500Y-119372555D01*
X90864502Y-119304434D01*
X90881405Y-119283460D01*
X91514460Y-118650405D01*
X91576772Y-118616379D01*
X91603555Y-118613500D01*
X92692674Y-118613500D01*
X92765740Y-118598966D01*
X92848601Y-118543601D01*
X92903966Y-118460740D01*
X92918500Y-118387674D01*
X92918500Y-117338326D01*
X92903966Y-117265260D01*
X92896713Y-117254404D01*
X92866145Y-117208656D01*
X92848601Y-117182399D01*
X92800751Y-117150427D01*
X92776058Y-117133928D01*
X92776057Y-117133928D01*
X92765740Y-117127034D01*
X92692674Y-117112500D01*
X92373802Y-117112500D01*
X92305681Y-117092498D01*
X92259188Y-117038842D01*
X92249084Y-116968568D01*
X92261535Y-116929298D01*
X92279514Y-116894011D01*
X92279514Y-116894010D01*
X92284016Y-116885175D01*
X92298499Y-116793735D01*
X92298498Y-116392266D01*
X92284016Y-116300825D01*
X92227858Y-116190609D01*
X92140390Y-116103141D01*
X92030174Y-116046983D01*
X91938734Y-116032500D01*
X91768034Y-116032500D01*
X91597265Y-116032501D01*
X91592371Y-116033276D01*
X91592372Y-116033276D01*
X91515616Y-116045432D01*
X91515615Y-116045432D01*
X91505824Y-116046983D01*
X91395608Y-116103141D01*
X91308140Y-116190609D01*
X91251982Y-116300825D01*
X91237499Y-116392265D01*
X91237500Y-116793734D01*
X91251982Y-116885175D01*
X91256483Y-116894008D01*
X91256484Y-116894012D01*
X91274463Y-116929298D01*
X91287567Y-116999075D01*
X91260866Y-117064859D01*
X91202839Y-117105765D01*
X91162196Y-117112500D01*
X90843326Y-117112500D01*
X90770260Y-117127034D01*
X90759943Y-117133928D01*
X90759942Y-117133928D01*
X90735249Y-117150427D01*
X90687399Y-117182399D01*
X90669855Y-117208656D01*
X90639288Y-117254404D01*
X90632034Y-117265260D01*
X90617500Y-117338326D01*
X90617500Y-118387674D01*
X90618707Y-118393741D01*
X90618708Y-118393748D01*
X90619618Y-118398326D01*
X90613289Y-118469040D01*
X90585134Y-118512000D01*
X90238049Y-118859085D01*
X90219556Y-118874021D01*
X90218173Y-118875279D01*
X90209425Y-118880928D01*
X90202979Y-118889105D01*
X90188765Y-118907135D01*
X90184848Y-118911542D01*
X90184924Y-118911606D01*
X90181570Y-118915564D01*
X90177891Y-118919243D01*
X90174870Y-118923471D01*
X90174862Y-118923480D01*
X90166735Y-118934852D01*
X90163174Y-118939595D01*
X90138069Y-118971441D01*
X90138066Y-118971446D01*
X90131620Y-118979623D01*
X90128602Y-118988218D01*
X90123307Y-118995627D01*
X90120322Y-119005607D01*
X90120321Y-119005610D01*
X90108701Y-119044464D01*
X90106856Y-119050141D01*
X90106468Y-119051245D01*
X90065011Y-119108880D01*
X89998975Y-119134952D01*
X89987596Y-119135467D01*
X88774467Y-119135467D01*
X88701401Y-119150001D01*
X88618540Y-119205366D01*
X88563175Y-119288227D01*
X88548641Y-119361293D01*
X88548641Y-120810641D01*
X88563175Y-120883707D01*
X88618540Y-120966568D01*
X88701401Y-121021933D01*
X88774467Y-121036467D01*
X88852202Y-121036467D01*
X88920323Y-121056469D01*
X88966816Y-121110125D01*
X88976920Y-121180399D01*
X88950803Y-121237585D01*
X88952122Y-121238544D01*
X88946295Y-121246564D01*
X88939283Y-121253576D01*
X88883125Y-121363792D01*
X88868642Y-121455232D01*
X88868643Y-121856701D01*
X88869418Y-121861594D01*
X88879760Y-121926892D01*
X88883125Y-121948142D01*
X88935859Y-122051638D01*
X88939283Y-122058358D01*
X88938415Y-122058800D01*
X88959277Y-122117261D01*
X88943201Y-122186413D01*
X88922578Y-122213556D01*
X88470538Y-122665596D01*
X88408226Y-122699621D01*
X88381443Y-122702500D01*
X87308586Y-122702500D01*
X87240465Y-122682498D01*
X87193972Y-122628842D01*
X87183868Y-122558568D01*
X87213362Y-122493988D01*
X87223787Y-122483306D01*
X87228826Y-122478721D01*
X87237575Y-122473072D01*
X87258239Y-122446860D01*
X87262150Y-122442459D01*
X87262075Y-122442395D01*
X87265434Y-122438431D01*
X87269109Y-122434756D01*
X87280261Y-122419151D01*
X87283824Y-122414406D01*
X87308932Y-122382557D01*
X87308933Y-122382555D01*
X87315380Y-122374377D01*
X87318397Y-122365785D01*
X87323694Y-122358373D01*
X87327279Y-122346387D01*
X87338302Y-122309524D01*
X87340138Y-122303876D01*
X87354395Y-122263280D01*
X87354396Y-122263276D01*
X87357021Y-122255801D01*
X87357500Y-122250270D01*
X87357500Y-122247561D01*
X87357613Y-122244954D01*
X87357650Y-122244829D01*
X87357805Y-122244836D01*
X87357847Y-122244170D01*
X87359702Y-122237967D01*
X87357597Y-122184392D01*
X87357500Y-122179445D01*
X87357500Y-121619712D01*
X87360015Y-121596083D01*
X87360103Y-121594209D01*
X87362295Y-121584029D01*
X87358373Y-121550891D01*
X87358026Y-121545010D01*
X87357928Y-121545018D01*
X87357500Y-121539842D01*
X87357500Y-121534638D01*
X87354855Y-121518743D01*
X87354354Y-121515734D01*
X87353517Y-121509859D01*
X87349093Y-121472480D01*
X87347524Y-121459225D01*
X87343581Y-121451015D01*
X87342086Y-121442030D01*
X87337139Y-121432861D01*
X87317871Y-121397151D01*
X87315176Y-121391861D01*
X87296553Y-121353079D01*
X87293122Y-121345934D01*
X87289550Y-121341684D01*
X87287625Y-121339759D01*
X87285872Y-121337847D01*
X87285810Y-121337732D01*
X87285924Y-121337627D01*
X87285483Y-121337126D01*
X87282408Y-121331428D01*
X87243022Y-121295020D01*
X87239457Y-121291591D01*
X86696547Y-120748681D01*
X86662521Y-120686369D01*
X86659642Y-120659586D01*
X86659642Y-119219951D01*
X86679644Y-119151830D01*
X86696469Y-119130933D01*
X86777965Y-119049295D01*
X86777965Y-119049294D01*
X86785323Y-119041924D01*
X86801884Y-119008045D01*
X86827818Y-118954989D01*
X86841683Y-118926624D01*
X86843095Y-118916944D01*
X86845981Y-118907607D01*
X86848923Y-118908516D01*
X86871817Y-118858670D01*
X86931626Y-118820415D01*
X86999349Y-118820562D01*
X87001401Y-118821933D01*
X87012982Y-118824237D01*
X87012983Y-118824237D01*
X87038847Y-118829382D01*
X87074467Y-118836467D01*
X88323815Y-118836467D01*
X88396881Y-118821933D01*
X88479742Y-118766568D01*
X88535107Y-118683707D01*
X88549641Y-118610641D01*
X88549641Y-117161293D01*
X88535107Y-117088227D01*
X88519121Y-117064301D01*
X88486634Y-117015681D01*
X88479742Y-117005366D01*
X88396881Y-116950001D01*
X88323815Y-116935467D01*
X88246082Y-116935467D01*
X88177961Y-116915465D01*
X88131468Y-116861809D01*
X88121364Y-116791535D01*
X88147481Y-116734349D01*
X88146162Y-116733390D01*
X88151989Y-116725370D01*
X88159001Y-116718358D01*
X88215159Y-116608142D01*
X88229642Y-116516702D01*
X88229641Y-116115233D01*
X88219545Y-116051484D01*
X88216710Y-116033584D01*
X88216710Y-116033583D01*
X88215159Y-116023792D01*
X88159001Y-115913576D01*
X88071533Y-115826108D01*
X87961317Y-115769950D01*
X87869877Y-115755467D01*
X87839747Y-115755467D01*
X87579587Y-115755468D01*
X87511468Y-115735466D01*
X87464975Y-115681811D01*
X87454870Y-115611537D01*
X87484363Y-115546956D01*
X87490493Y-115540373D01*
X87752461Y-115278405D01*
X87814773Y-115244379D01*
X87841556Y-115241500D01*
X93362288Y-115241500D01*
X93385917Y-115244015D01*
X93387791Y-115244103D01*
X93397971Y-115246295D01*
X93431109Y-115242373D01*
X93436990Y-115242026D01*
X93436982Y-115241928D01*
X93442158Y-115241500D01*
X93447362Y-115241500D01*
X93459694Y-115239448D01*
X93466266Y-115238354D01*
X93472141Y-115237517D01*
X93477404Y-115236894D01*
X93522775Y-115231524D01*
X93530985Y-115227581D01*
X93539970Y-115226086D01*
X93549137Y-115221140D01*
X93549139Y-115221139D01*
X93584849Y-115201871D01*
X93590139Y-115199176D01*
X93601612Y-115193667D01*
X93636066Y-115177122D01*
X93640315Y-115173550D01*
X93642244Y-115171621D01*
X93644149Y-115169873D01*
X93644258Y-115169814D01*
X93644365Y-115169931D01*
X93644874Y-115169482D01*
X93650572Y-115166408D01*
X93661229Y-115154880D01*
X93686991Y-115127010D01*
X93690421Y-115123444D01*
X95995173Y-112818692D01*
X96057485Y-112784666D01*
X96134004Y-112792019D01*
X96171527Y-112808139D01*
X96178470Y-112811122D01*
X96184099Y-112812396D01*
X96184100Y-112812396D01*
X96296873Y-112837914D01*
X96375740Y-112855760D01*
X96381509Y-112855987D01*
X96381512Y-112855987D01*
X96457683Y-112858979D01*
X96577842Y-112863700D01*
X96664132Y-112851189D01*
X96772286Y-112835508D01*
X96772291Y-112835507D01*
X96778007Y-112834678D01*
X96783479Y-112832820D01*
X96783481Y-112832820D01*
X96964067Y-112771519D01*
X96964069Y-112771518D01*
X96969531Y-112769664D01*
X97146001Y-112670837D01*
X97208433Y-112618913D01*
X97297073Y-112545191D01*
X97301505Y-112541505D01*
X97430837Y-112386001D01*
X97529664Y-112209531D01*
X97555245Y-112134174D01*
X97592820Y-112023481D01*
X97592820Y-112023479D01*
X97594678Y-112018007D01*
X97595507Y-112012291D01*
X97595508Y-112012286D01*
X97623167Y-111821516D01*
X97623700Y-111817842D01*
X97625215Y-111760000D01*
X97606708Y-111558591D01*
X97551807Y-111363926D01*
X97462351Y-111182527D01*
X97444079Y-111158057D01*
X97344788Y-111025091D01*
X97344787Y-111025090D01*
X97341335Y-111020467D01*
X97274326Y-110958524D01*
X97237881Y-110897597D01*
X97240161Y-110826637D01*
X97280444Y-110768174D01*
X97345939Y-110740771D01*
X97359855Y-110740000D01*
X99022966Y-110740000D01*
X99047547Y-110742421D01*
G37*
%TD.AperFunction*%
%TA.AperFunction,Conductor*%
G36*
X98009593Y-117237502D02*
G01*
X98055898Y-117290748D01*
X98102856Y-117392607D01*
X98106189Y-117397323D01*
X98209401Y-117543365D01*
X98219588Y-117557780D01*
X98364466Y-117698913D01*
X98532637Y-117811282D01*
X98537940Y-117813560D01*
X98537943Y-117813562D01*
X98713163Y-117888842D01*
X98718470Y-117891122D01*
X98915740Y-117935760D01*
X98921509Y-117935987D01*
X98921512Y-117935987D01*
X98997683Y-117938979D01*
X99117842Y-117943700D01*
X99204132Y-117931189D01*
X99312286Y-117915508D01*
X99312291Y-117915507D01*
X99318007Y-117914678D01*
X99323479Y-117912820D01*
X99323481Y-117912820D01*
X99504067Y-117851519D01*
X99504069Y-117851518D01*
X99509531Y-117849664D01*
X99686001Y-117750837D01*
X99748433Y-117698913D01*
X99837073Y-117625191D01*
X99841505Y-117621505D01*
X99857126Y-117602723D01*
X99916064Y-117563139D01*
X99987046Y-117561704D01*
X100047536Y-117598872D01*
X100078329Y-117662843D01*
X100080000Y-117683293D01*
X100080000Y-118536051D01*
X100059998Y-118604172D01*
X100006342Y-118650665D01*
X99936068Y-118660769D01*
X99868471Y-118628576D01*
X99863264Y-118623762D01*
X99802296Y-118567404D01*
X99737053Y-118507094D01*
X99737051Y-118507092D01*
X99732812Y-118503174D01*
X99705374Y-118485862D01*
X99566637Y-118398325D01*
X99561757Y-118395246D01*
X99373898Y-118320298D01*
X99199261Y-118285560D01*
X99181192Y-118281966D01*
X99181191Y-118281966D01*
X99175526Y-118280839D01*
X99169752Y-118280763D01*
X99169748Y-118280763D01*
X99067257Y-118279422D01*
X98973286Y-118278192D01*
X98967589Y-118279171D01*
X98967588Y-118279171D01*
X98779646Y-118311465D01*
X98779645Y-118311465D01*
X98773949Y-118312444D01*
X98584193Y-118382449D01*
X98579232Y-118385401D01*
X98579231Y-118385401D01*
X98448204Y-118463354D01*
X98410371Y-118485862D01*
X98258305Y-118619220D01*
X98133089Y-118778057D01*
X98082600Y-118874021D01*
X98053585Y-118929168D01*
X98004165Y-118980140D01*
X97942077Y-118996500D01*
X96811712Y-118996500D01*
X96788083Y-118993985D01*
X96786209Y-118993897D01*
X96776029Y-118991705D01*
X96744158Y-118995477D01*
X96742891Y-118995627D01*
X96737010Y-118995974D01*
X96737018Y-118996072D01*
X96731842Y-118996500D01*
X96726638Y-118996500D01*
X96714306Y-118998552D01*
X96707734Y-118999646D01*
X96701858Y-119000483D01*
X96651225Y-119006476D01*
X96643015Y-119010419D01*
X96634030Y-119011914D01*
X96624863Y-119016860D01*
X96624861Y-119016861D01*
X96589151Y-119036129D01*
X96583861Y-119038824D01*
X96560294Y-119050141D01*
X96537934Y-119060878D01*
X96533684Y-119064450D01*
X96531759Y-119066375D01*
X96529847Y-119068128D01*
X96529732Y-119068190D01*
X96529627Y-119068076D01*
X96529126Y-119068517D01*
X96523428Y-119071592D01*
X96499836Y-119097114D01*
X96487021Y-119110977D01*
X96483591Y-119114543D01*
X96103262Y-119494872D01*
X96040950Y-119528898D01*
X95995907Y-119530027D01*
X95988564Y-119527520D01*
X95978150Y-119527529D01*
X95978149Y-119527529D01*
X95924130Y-119527576D01*
X95860226Y-119527632D01*
X95738844Y-119569309D01*
X95731007Y-119575150D01*
X95731004Y-119575152D01*
X95681642Y-119611945D01*
X95681638Y-119611949D01*
X95677976Y-119614678D01*
X95364679Y-119927976D01*
X95361933Y-119931670D01*
X95361932Y-119931671D01*
X95319620Y-119988588D01*
X95262927Y-120031325D01*
X95192128Y-120036626D01*
X95129703Y-120002810D01*
X95095470Y-119940612D01*
X95092500Y-119913417D01*
X95092500Y-118083556D01*
X95112502Y-118015435D01*
X95129405Y-117994460D01*
X95869462Y-117254404D01*
X95931774Y-117220379D01*
X95958557Y-117217500D01*
X97941472Y-117217500D01*
X98009593Y-117237502D01*
G37*
%TD.AperFunction*%
%TA.AperFunction,Conductor*%
G36*
X72887236Y-110760002D02*
G01*
X72933729Y-110813658D01*
X72943833Y-110883932D01*
X72914339Y-110948512D01*
X72902198Y-110960727D01*
X72858305Y-110999220D01*
X72733089Y-111158057D01*
X72638914Y-111337053D01*
X72578937Y-111530213D01*
X72555164Y-111731069D01*
X72568392Y-111932894D01*
X72618178Y-112128928D01*
X72702856Y-112312607D01*
X72819588Y-112477780D01*
X72964466Y-112618913D01*
X73132637Y-112731282D01*
X73137940Y-112733560D01*
X73137943Y-112733562D01*
X73298397Y-112802498D01*
X73318470Y-112811122D01*
X73515740Y-112855760D01*
X73521509Y-112855987D01*
X73521512Y-112855987D01*
X73597683Y-112858979D01*
X73717842Y-112863700D01*
X73804132Y-112851189D01*
X73912286Y-112835508D01*
X73912291Y-112835507D01*
X73918007Y-112834678D01*
X73923479Y-112832820D01*
X73923481Y-112832820D01*
X73994108Y-112808845D01*
X74054950Y-112788192D01*
X74125883Y-112785235D01*
X74184545Y-112818410D01*
X79532075Y-118165941D01*
X79566101Y-118228253D01*
X79568980Y-118255036D01*
X79568980Y-118792924D01*
X79548978Y-118861045D01*
X79495322Y-118907538D01*
X79425048Y-118917642D01*
X79360468Y-118888148D01*
X79353885Y-118882019D01*
X78106913Y-117635047D01*
X78091980Y-117616558D01*
X78090722Y-117615175D01*
X78085072Y-117606425D01*
X78058865Y-117585765D01*
X78054458Y-117581848D01*
X78054394Y-117581924D01*
X78050436Y-117578570D01*
X78046757Y-117574891D01*
X78042529Y-117571870D01*
X78042520Y-117571862D01*
X78031148Y-117563735D01*
X78026405Y-117560174D01*
X77994559Y-117535069D01*
X77994554Y-117535066D01*
X77986377Y-117528620D01*
X77977782Y-117525602D01*
X77970373Y-117520307D01*
X77960393Y-117517322D01*
X77960390Y-117517321D01*
X77921536Y-117505701D01*
X77915888Y-117503866D01*
X77875287Y-117489607D01*
X77875280Y-117489605D01*
X77867801Y-117486979D01*
X77862270Y-117486500D01*
X77859558Y-117486500D01*
X77856954Y-117486387D01*
X77856829Y-117486350D01*
X77856836Y-117486195D01*
X77856170Y-117486153D01*
X77849967Y-117484298D01*
X77796392Y-117486403D01*
X77791445Y-117486500D01*
X77432555Y-117486500D01*
X77364434Y-117466498D01*
X77343460Y-117449595D01*
X72178411Y-112284545D01*
X72144385Y-112222233D01*
X72148193Y-112154949D01*
X72192819Y-112023485D01*
X72192820Y-112023480D01*
X72194678Y-112018007D01*
X72195507Y-112012291D01*
X72195508Y-112012286D01*
X72223167Y-111821516D01*
X72223700Y-111817842D01*
X72225215Y-111760000D01*
X72206708Y-111558591D01*
X72151807Y-111363926D01*
X72062351Y-111182527D01*
X72044079Y-111158057D01*
X71944788Y-111025091D01*
X71944787Y-111025090D01*
X71941335Y-111020467D01*
X71874326Y-110958524D01*
X71837881Y-110897597D01*
X71840161Y-110826637D01*
X71880444Y-110768174D01*
X71945939Y-110740771D01*
X71959855Y-110740000D01*
X72819115Y-110740000D01*
X72887236Y-110760002D01*
G37*
%TD.AperFunction*%
%TA.AperFunction,Conductor*%
G36*
X75427236Y-110760002D02*
G01*
X75473729Y-110813658D01*
X75483833Y-110883932D01*
X75454339Y-110948512D01*
X75442198Y-110960727D01*
X75398305Y-110999220D01*
X75273089Y-111158057D01*
X75178914Y-111337053D01*
X75118937Y-111530213D01*
X75095164Y-111731069D01*
X75108392Y-111932894D01*
X75158178Y-112128928D01*
X75242856Y-112312607D01*
X75359588Y-112477780D01*
X75504466Y-112618913D01*
X75672637Y-112731282D01*
X75677940Y-112733560D01*
X75677943Y-112733562D01*
X75838397Y-112802498D01*
X75858470Y-112811122D01*
X76055740Y-112855760D01*
X76061509Y-112855987D01*
X76061512Y-112855987D01*
X76137683Y-112858979D01*
X76257842Y-112863700D01*
X76344132Y-112851189D01*
X76452286Y-112835508D01*
X76452291Y-112835507D01*
X76458007Y-112834678D01*
X76463479Y-112832820D01*
X76463481Y-112832820D01*
X76534108Y-112808845D01*
X76594950Y-112788192D01*
X76665883Y-112785235D01*
X76724545Y-112818410D01*
X79935595Y-116029461D01*
X79969621Y-116091773D01*
X79972500Y-116118556D01*
X79972500Y-117234444D01*
X79952498Y-117302565D01*
X79898842Y-117349058D01*
X79828568Y-117359162D01*
X79763988Y-117329668D01*
X79757405Y-117323539D01*
X74718411Y-112284545D01*
X74684385Y-112222233D01*
X74688193Y-112154949D01*
X74732819Y-112023485D01*
X74732820Y-112023480D01*
X74734678Y-112018007D01*
X74735507Y-112012291D01*
X74735508Y-112012286D01*
X74763167Y-111821516D01*
X74763700Y-111817842D01*
X74765215Y-111760000D01*
X74746708Y-111558591D01*
X74691807Y-111363926D01*
X74602351Y-111182527D01*
X74584079Y-111158057D01*
X74484788Y-111025091D01*
X74484787Y-111025090D01*
X74481335Y-111020467D01*
X74414326Y-110958524D01*
X74377881Y-110897597D01*
X74380161Y-110826637D01*
X74420444Y-110768174D01*
X74485939Y-110740771D01*
X74499855Y-110740000D01*
X75359115Y-110740000D01*
X75427236Y-110760002D01*
G37*
%TD.AperFunction*%
%TA.AperFunction,Conductor*%
G36*
X98009593Y-114697502D02*
G01*
X98055898Y-114750748D01*
X98102856Y-114852607D01*
X98219588Y-115017780D01*
X98364466Y-115158913D01*
X98369270Y-115162123D01*
X98396855Y-115180555D01*
X98532637Y-115271282D01*
X98537940Y-115273560D01*
X98537943Y-115273562D01*
X98626291Y-115311519D01*
X98718470Y-115351122D01*
X98915740Y-115395760D01*
X98921509Y-115395987D01*
X98921512Y-115395987D01*
X98997683Y-115398979D01*
X99117842Y-115403700D01*
X99204132Y-115391189D01*
X99312286Y-115375508D01*
X99312291Y-115375507D01*
X99318007Y-115374678D01*
X99323479Y-115372820D01*
X99323481Y-115372820D01*
X99504067Y-115311519D01*
X99504069Y-115311518D01*
X99509531Y-115309664D01*
X99658772Y-115226086D01*
X99680964Y-115213658D01*
X99680965Y-115213657D01*
X99686001Y-115210837D01*
X99748433Y-115158913D01*
X99786791Y-115127010D01*
X99841505Y-115081505D01*
X99857126Y-115062723D01*
X99916064Y-115023139D01*
X99987046Y-115021704D01*
X100047536Y-115058872D01*
X100078329Y-115122843D01*
X100080000Y-115143293D01*
X100080000Y-115996051D01*
X100059998Y-116064172D01*
X100006342Y-116110665D01*
X99936068Y-116120769D01*
X99868471Y-116088576D01*
X99863264Y-116083762D01*
X99732812Y-115963174D01*
X99705374Y-115945862D01*
X99566637Y-115858325D01*
X99561757Y-115855246D01*
X99373898Y-115780298D01*
X99175526Y-115740839D01*
X99169752Y-115740763D01*
X99169748Y-115740763D01*
X99067257Y-115739422D01*
X98973286Y-115738192D01*
X98967589Y-115739171D01*
X98967588Y-115739171D01*
X98779646Y-115771465D01*
X98779645Y-115771465D01*
X98773949Y-115772444D01*
X98584193Y-115842449D01*
X98410371Y-115945862D01*
X98258305Y-116079220D01*
X98133089Y-116238057D01*
X98095204Y-116310064D01*
X98050428Y-116395168D01*
X98001008Y-116446140D01*
X97938920Y-116462500D01*
X95803712Y-116462500D01*
X95777192Y-116459677D01*
X95768028Y-116457704D01*
X95768897Y-116453666D01*
X95720931Y-116436797D01*
X95677323Y-116380772D01*
X95670926Y-116310064D01*
X95705434Y-116245431D01*
X95840526Y-116110340D01*
X97236461Y-114714405D01*
X97298773Y-114680379D01*
X97325556Y-114677500D01*
X97941472Y-114677500D01*
X98009593Y-114697502D01*
G37*
%TD.AperFunction*%
%TA.AperFunction,Conductor*%
G36*
X77967236Y-110760002D02*
G01*
X78013729Y-110813658D01*
X78023833Y-110883932D01*
X77994339Y-110948512D01*
X77982198Y-110960727D01*
X77938305Y-110999220D01*
X77813089Y-111158057D01*
X77718914Y-111337053D01*
X77658937Y-111530213D01*
X77635164Y-111731069D01*
X77648392Y-111932894D01*
X77698178Y-112128928D01*
X77782856Y-112312607D01*
X77899588Y-112477780D01*
X78044466Y-112618913D01*
X78212637Y-112731282D01*
X78217940Y-112733560D01*
X78217943Y-112733562D01*
X78378397Y-112802498D01*
X78398470Y-112811122D01*
X78595740Y-112855760D01*
X78601509Y-112855987D01*
X78601512Y-112855987D01*
X78677683Y-112858979D01*
X78797842Y-112863700D01*
X78884132Y-112851189D01*
X78992286Y-112835508D01*
X78992291Y-112835507D01*
X78998007Y-112834678D01*
X79003479Y-112832820D01*
X79003481Y-112832820D01*
X79074108Y-112808845D01*
X79134950Y-112788192D01*
X79205883Y-112785235D01*
X79264545Y-112818410D01*
X80374595Y-113928460D01*
X80408621Y-113990772D01*
X80411500Y-114017555D01*
X80411500Y-115133444D01*
X80391498Y-115201565D01*
X80337842Y-115248058D01*
X80267568Y-115258162D01*
X80202988Y-115228668D01*
X80196405Y-115222539D01*
X77258411Y-112284545D01*
X77224385Y-112222233D01*
X77228193Y-112154949D01*
X77272819Y-112023485D01*
X77272820Y-112023480D01*
X77274678Y-112018007D01*
X77275507Y-112012291D01*
X77275508Y-112012286D01*
X77303167Y-111821516D01*
X77303700Y-111817842D01*
X77305215Y-111760000D01*
X77286708Y-111558591D01*
X77231807Y-111363926D01*
X77142351Y-111182527D01*
X77124079Y-111158057D01*
X77024788Y-111025091D01*
X77024787Y-111025090D01*
X77021335Y-111020467D01*
X76954326Y-110958524D01*
X76917881Y-110897597D01*
X76920161Y-110826637D01*
X76960444Y-110768174D01*
X77025939Y-110740771D01*
X77039855Y-110740000D01*
X77899115Y-110740000D01*
X77967236Y-110760002D01*
G37*
%TD.AperFunction*%
%TA.AperFunction,Conductor*%
G36*
X85587236Y-110760002D02*
G01*
X85633729Y-110813658D01*
X85643833Y-110883932D01*
X85614339Y-110948512D01*
X85602198Y-110960727D01*
X85558305Y-110999220D01*
X85433089Y-111158057D01*
X85338914Y-111337053D01*
X85278937Y-111530213D01*
X85255164Y-111731069D01*
X85268392Y-111932894D01*
X85318178Y-112128928D01*
X85320597Y-112134175D01*
X85325281Y-112144335D01*
X85335637Y-112214572D01*
X85306376Y-112279258D01*
X85299951Y-112286183D01*
X83029133Y-114557001D01*
X83010644Y-114571934D01*
X83009261Y-114573192D01*
X83000511Y-114578842D01*
X82994064Y-114587020D01*
X82979851Y-114605049D01*
X82975934Y-114609456D01*
X82976010Y-114609520D01*
X82972656Y-114613478D01*
X82968977Y-114617157D01*
X82965956Y-114621385D01*
X82965948Y-114621394D01*
X82957821Y-114632766D01*
X82954260Y-114637509D01*
X82929155Y-114669355D01*
X82929152Y-114669360D01*
X82922706Y-114677537D01*
X82919688Y-114686132D01*
X82914393Y-114693541D01*
X82911408Y-114703521D01*
X82911407Y-114703524D01*
X82899787Y-114742378D01*
X82897952Y-114748026D01*
X82884296Y-114786912D01*
X82842853Y-114844557D01*
X82776823Y-114870645D01*
X82707171Y-114856894D01*
X82656011Y-114807668D01*
X82639414Y-114745163D01*
X82639414Y-113526642D01*
X82659416Y-113458521D01*
X82676319Y-113437546D01*
X83295175Y-112818691D01*
X83357487Y-112784666D01*
X83434006Y-112792019D01*
X83478470Y-112811122D01*
X83484099Y-112812396D01*
X83484100Y-112812396D01*
X83596873Y-112837914D01*
X83675740Y-112855760D01*
X83681509Y-112855987D01*
X83681512Y-112855987D01*
X83757683Y-112858979D01*
X83877842Y-112863700D01*
X83964132Y-112851189D01*
X84072286Y-112835508D01*
X84072291Y-112835507D01*
X84078007Y-112834678D01*
X84083479Y-112832820D01*
X84083481Y-112832820D01*
X84264067Y-112771519D01*
X84264069Y-112771518D01*
X84269531Y-112769664D01*
X84446001Y-112670837D01*
X84508433Y-112618913D01*
X84597073Y-112545191D01*
X84601505Y-112541505D01*
X84730837Y-112386001D01*
X84829664Y-112209531D01*
X84855245Y-112134174D01*
X84892820Y-112023481D01*
X84892820Y-112023479D01*
X84894678Y-112018007D01*
X84895507Y-112012291D01*
X84895508Y-112012286D01*
X84923167Y-111821516D01*
X84923700Y-111817842D01*
X84925215Y-111760000D01*
X84906708Y-111558591D01*
X84851807Y-111363926D01*
X84762351Y-111182527D01*
X84744079Y-111158057D01*
X84644788Y-111025091D01*
X84644787Y-111025090D01*
X84641335Y-111020467D01*
X84574326Y-110958524D01*
X84537881Y-110897597D01*
X84540161Y-110826637D01*
X84580444Y-110768174D01*
X84645939Y-110740771D01*
X84659855Y-110740000D01*
X85519115Y-110740000D01*
X85587236Y-110760002D01*
G37*
%TD.AperFunction*%
%TA.AperFunction,Conductor*%
G36*
X95747236Y-110760002D02*
G01*
X95793729Y-110813658D01*
X95803833Y-110883932D01*
X95774339Y-110948512D01*
X95762198Y-110960727D01*
X95718305Y-110999220D01*
X95593089Y-111158057D01*
X95498914Y-111337053D01*
X95438937Y-111530213D01*
X95415164Y-111731069D01*
X95428392Y-111932894D01*
X95478178Y-112128928D01*
X95480597Y-112134175D01*
X95485281Y-112144335D01*
X95495637Y-112214572D01*
X95466376Y-112279258D01*
X95459951Y-112286183D01*
X93296539Y-114449595D01*
X93234227Y-114483621D01*
X93207444Y-114486500D01*
X92091555Y-114486500D01*
X92023434Y-114466498D01*
X91976941Y-114412842D01*
X91966837Y-114342568D01*
X91996331Y-114277988D01*
X92002460Y-114271405D01*
X93455173Y-112818692D01*
X93517485Y-112784666D01*
X93594004Y-112792019D01*
X93631527Y-112808139D01*
X93638470Y-112811122D01*
X93644099Y-112812396D01*
X93644100Y-112812396D01*
X93756873Y-112837914D01*
X93835740Y-112855760D01*
X93841509Y-112855987D01*
X93841512Y-112855987D01*
X93917683Y-112858979D01*
X94037842Y-112863700D01*
X94124132Y-112851189D01*
X94232286Y-112835508D01*
X94232291Y-112835507D01*
X94238007Y-112834678D01*
X94243479Y-112832820D01*
X94243481Y-112832820D01*
X94424067Y-112771519D01*
X94424069Y-112771518D01*
X94429531Y-112769664D01*
X94606001Y-112670837D01*
X94668433Y-112618913D01*
X94757073Y-112545191D01*
X94761505Y-112541505D01*
X94890837Y-112386001D01*
X94989664Y-112209531D01*
X95015245Y-112134174D01*
X95052820Y-112023481D01*
X95052820Y-112023479D01*
X95054678Y-112018007D01*
X95055507Y-112012291D01*
X95055508Y-112012286D01*
X95083167Y-111821516D01*
X95083700Y-111817842D01*
X95085215Y-111760000D01*
X95066708Y-111558591D01*
X95011807Y-111363926D01*
X94922351Y-111182527D01*
X94904079Y-111158057D01*
X94804788Y-111025091D01*
X94804787Y-111025090D01*
X94801335Y-111020467D01*
X94734326Y-110958524D01*
X94697881Y-110897597D01*
X94700161Y-110826637D01*
X94740444Y-110768174D01*
X94805939Y-110740771D01*
X94819855Y-110740000D01*
X95679115Y-110740000D01*
X95747236Y-110760002D01*
G37*
%TD.AperFunction*%
%TA.AperFunction,Conductor*%
G36*
X93207236Y-110760002D02*
G01*
X93253729Y-110813658D01*
X93263833Y-110883932D01*
X93234339Y-110948512D01*
X93222198Y-110960727D01*
X93178305Y-110999220D01*
X93053089Y-111158057D01*
X92958914Y-111337053D01*
X92898937Y-111530213D01*
X92875164Y-111731069D01*
X92888392Y-111932894D01*
X92938178Y-112128928D01*
X92940597Y-112134175D01*
X92945281Y-112144335D01*
X92955637Y-112214572D01*
X92926376Y-112279258D01*
X92919951Y-112286183D01*
X91371539Y-113834595D01*
X91309227Y-113868621D01*
X91282444Y-113871500D01*
X90166555Y-113871500D01*
X90098434Y-113851498D01*
X90051941Y-113797842D01*
X90041837Y-113727568D01*
X90071331Y-113662988D01*
X90077460Y-113656405D01*
X90915173Y-112818692D01*
X90977485Y-112784666D01*
X91054004Y-112792019D01*
X91091527Y-112808139D01*
X91098470Y-112811122D01*
X91104099Y-112812396D01*
X91104100Y-112812396D01*
X91216873Y-112837914D01*
X91295740Y-112855760D01*
X91301509Y-112855987D01*
X91301512Y-112855987D01*
X91377683Y-112858979D01*
X91497842Y-112863700D01*
X91584132Y-112851189D01*
X91692286Y-112835508D01*
X91692291Y-112835507D01*
X91698007Y-112834678D01*
X91703479Y-112832820D01*
X91703481Y-112832820D01*
X91884067Y-112771519D01*
X91884069Y-112771518D01*
X91889531Y-112769664D01*
X92066001Y-112670837D01*
X92128433Y-112618913D01*
X92217073Y-112545191D01*
X92221505Y-112541505D01*
X92350837Y-112386001D01*
X92449664Y-112209531D01*
X92475245Y-112134174D01*
X92512820Y-112023481D01*
X92512820Y-112023479D01*
X92514678Y-112018007D01*
X92515507Y-112012291D01*
X92515508Y-112012286D01*
X92543167Y-111821516D01*
X92543700Y-111817842D01*
X92545215Y-111760000D01*
X92526708Y-111558591D01*
X92471807Y-111363926D01*
X92382351Y-111182527D01*
X92364079Y-111158057D01*
X92264788Y-111025091D01*
X92264787Y-111025090D01*
X92261335Y-111020467D01*
X92194326Y-110958524D01*
X92157881Y-110897597D01*
X92160161Y-110826637D01*
X92200444Y-110768174D01*
X92265939Y-110740771D01*
X92279855Y-110740000D01*
X93139115Y-110740000D01*
X93207236Y-110760002D01*
G37*
%TD.AperFunction*%
%TA.AperFunction,Conductor*%
G36*
X71062121Y-136404002D02*
G01*
X71108614Y-136457658D01*
X71120000Y-136510000D01*
X71120000Y-139700000D01*
X72772000Y-139700000D01*
X72840121Y-139720002D01*
X72886614Y-139773658D01*
X72898000Y-139826000D01*
X72898000Y-140463000D01*
X72877998Y-140531121D01*
X72824342Y-140577614D01*
X72772000Y-140589000D01*
X72390000Y-140589000D01*
X72390000Y-142241000D01*
X72369998Y-142309121D01*
X72316342Y-142355614D01*
X72264000Y-142367000D01*
X71500000Y-142367000D01*
X71431879Y-142346998D01*
X71385386Y-142293342D01*
X71374000Y-142241000D01*
X71374000Y-140843000D01*
X68960000Y-140843000D01*
X68891879Y-140822998D01*
X68845386Y-140769342D01*
X68834000Y-140717000D01*
X68834000Y-136510000D01*
X68854002Y-136441879D01*
X68907658Y-136395386D01*
X68960000Y-136384000D01*
X70994000Y-136384000D01*
X71062121Y-136404002D01*
G37*
%TD.AperFunction*%
M02*
