%TF.GenerationSoftware,KiCad,Pcbnew,(6.0.0-0)*%
%TF.CreationDate,2022-04-20T00:31:45+02:00*%
%TF.ProjectId,STM32G4_PCB,53544d33-3247-4345-9f50-43422e6b6963,rev?*%
%TF.SameCoordinates,Original*%
%TF.FileFunction,Legend,Bot*%
%TF.FilePolarity,Positive*%
%FSLAX46Y46*%
G04 Gerber Fmt 4.6, Leading zero omitted, Abs format (unit mm)*
G04 Created by KiCad (PCBNEW (6.0.0-0)) date 2022-04-20 00:31:45*
%MOMM*%
%LPD*%
G01*
G04 APERTURE LIST*
%ADD10C,0.150000*%
%ADD11C,0.120000*%
%ADD12O,1.700000X1.700000*%
%ADD13R,1.700000X1.700000*%
%ADD14C,0.900000*%
G04 APERTURE END LIST*
D10*
X85578238Y-117739904D02*
X85578238Y-118311333D01*
X85616333Y-118425619D01*
X85692523Y-118501809D01*
X85806809Y-118539904D01*
X85883000Y-118539904D01*
X84816333Y-118539904D02*
X85197285Y-118539904D01*
X85197285Y-117739904D01*
X84092523Y-118463714D02*
X84130619Y-118501809D01*
X84244904Y-118539904D01*
X84321095Y-118539904D01*
X84435380Y-118501809D01*
X84511571Y-118425619D01*
X84549666Y-118349428D01*
X84587761Y-118197047D01*
X84587761Y-118082761D01*
X84549666Y-117930380D01*
X84511571Y-117854190D01*
X84435380Y-117778000D01*
X84321095Y-117739904D01*
X84244904Y-117739904D01*
X84130619Y-117778000D01*
X84092523Y-117816095D01*
X83521095Y-117739904D02*
X83521095Y-118311333D01*
X83559190Y-118425619D01*
X83635380Y-118501809D01*
X83749666Y-118539904D01*
X83825857Y-118539904D01*
X82759190Y-118539904D02*
X83140142Y-118539904D01*
X83140142Y-117739904D01*
X82035380Y-118463714D02*
X82073476Y-118501809D01*
X82187761Y-118539904D01*
X82263952Y-118539904D01*
X82378238Y-118501809D01*
X82454428Y-118425619D01*
X82492523Y-118349428D01*
X82530619Y-118197047D01*
X82530619Y-118082761D01*
X82492523Y-117930380D01*
X82454428Y-117854190D01*
X82378238Y-117778000D01*
X82263952Y-117739904D01*
X82187761Y-117739904D01*
X82073476Y-117778000D01*
X82035380Y-117816095D01*
X81463952Y-117739904D02*
X81463952Y-118311333D01*
X81502047Y-118425619D01*
X81578238Y-118501809D01*
X81692523Y-118539904D01*
X81768714Y-118539904D01*
X80702047Y-118539904D02*
X81083000Y-118539904D01*
X81083000Y-117739904D01*
X79978238Y-118463714D02*
X80016333Y-118501809D01*
X80130619Y-118539904D01*
X80206809Y-118539904D01*
X80321095Y-118501809D01*
X80397285Y-118425619D01*
X80435380Y-118349428D01*
X80473476Y-118197047D01*
X80473476Y-118082761D01*
X80435380Y-117930380D01*
X80397285Y-117854190D01*
X80321095Y-117778000D01*
X80206809Y-117739904D01*
X80130619Y-117739904D01*
X80016333Y-117778000D01*
X79978238Y-117816095D01*
X79406809Y-117739904D02*
X79406809Y-118311333D01*
X79444904Y-118425619D01*
X79521095Y-118501809D01*
X79635380Y-118539904D01*
X79711571Y-118539904D01*
X78644904Y-118539904D02*
X79025857Y-118539904D01*
X79025857Y-117739904D01*
X77921095Y-118463714D02*
X77959190Y-118501809D01*
X78073476Y-118539904D01*
X78149666Y-118539904D01*
X78263952Y-118501809D01*
X78340142Y-118425619D01*
X78378238Y-118349428D01*
X78416333Y-118197047D01*
X78416333Y-118082761D01*
X78378238Y-117930380D01*
X78340142Y-117854190D01*
X78263952Y-117778000D01*
X78149666Y-117739904D01*
X78073476Y-117739904D01*
X77959190Y-117778000D01*
X77921095Y-117816095D01*
D11*
X97730000Y-143570000D02*
X99060000Y-143570000D01*
X97730000Y-142240000D02*
X97730000Y-143570000D01*
X97730000Y-140970000D02*
X100390000Y-140970000D01*
X100390000Y-140970000D02*
X100390000Y-112970000D01*
X97730000Y-140970000D02*
X97730000Y-112970000D01*
X97730000Y-112970000D02*
X100390000Y-112970000D01*
X64710000Y-143570000D02*
X66040000Y-143570000D01*
X64710000Y-142240000D02*
X64710000Y-143570000D01*
X64710000Y-140970000D02*
X67370000Y-140970000D01*
X67370000Y-140970000D02*
X67370000Y-112970000D01*
X64710000Y-140970000D02*
X64710000Y-112970000D01*
X64710000Y-112970000D02*
X67370000Y-112970000D01*
X97850000Y-110430000D02*
X97850000Y-113090000D01*
X69850000Y-110430000D02*
X97850000Y-110430000D01*
X69850000Y-113090000D02*
X97850000Y-113090000D01*
X69850000Y-110430000D02*
X69850000Y-113090000D01*
X68580000Y-110430000D02*
X67250000Y-110430000D01*
X67250000Y-110430000D02*
X67250000Y-111760000D01*
%LPC*%
D12*
X99060000Y-114300000D03*
X99060000Y-116840000D03*
X99060000Y-119380000D03*
X99060000Y-121920000D03*
X99060000Y-124460000D03*
X99060000Y-127000000D03*
X99060000Y-129540000D03*
X99060000Y-132080000D03*
X99060000Y-134620000D03*
X99060000Y-137160000D03*
X99060000Y-139700000D03*
D13*
X99060000Y-142240000D03*
D12*
X66040000Y-114300000D03*
X66040000Y-116840000D03*
X66040000Y-119380000D03*
X66040000Y-121920000D03*
X66040000Y-124460000D03*
X66040000Y-127000000D03*
X66040000Y-129540000D03*
X66040000Y-132080000D03*
X66040000Y-134620000D03*
X66040000Y-137160000D03*
X66040000Y-139700000D03*
D13*
X66040000Y-142240000D03*
X68580000Y-111760000D03*
D12*
X71120000Y-111760000D03*
X73660000Y-111760000D03*
X76200000Y-111760000D03*
X78740000Y-111760000D03*
X81280000Y-111760000D03*
X83820000Y-111760000D03*
X86360000Y-111760000D03*
X88900000Y-111760000D03*
X91440000Y-111760000D03*
X93980000Y-111760000D03*
X96520000Y-111760000D03*
X85799000Y-139252000D03*
X88339000Y-139252000D03*
X85799000Y-136712000D03*
X88339000Y-136712000D03*
X85799000Y-134172000D03*
D13*
X88339000Y-134172000D03*
D14*
X91083000Y-144254000D03*
X94083000Y-144254000D03*
M02*
