%TF.GenerationSoftware,KiCad,Pcbnew,(6.0.0-0)*%
%TF.CreationDate,2022-04-20T00:31:45+02:00*%
%TF.ProjectId,STM32G4_PCB,53544d33-3247-4345-9f50-43422e6b6963,rev?*%
%TF.SameCoordinates,Original*%
%TF.FileFunction,Soldermask,Top*%
%TF.FilePolarity,Negative*%
%FSLAX46Y46*%
G04 Gerber Fmt 4.6, Leading zero omitted, Abs format (unit mm)*
G04 Created by KiCad (PCBNEW (6.0.0-0)) date 2022-04-20 00:31:45*
%MOMM*%
%LPD*%
G01*
G04 APERTURE LIST*
G04 Aperture macros list*
%AMRoundRect*
0 Rectangle with rounded corners*
0 $1 Rounding radius*
0 $2 $3 $4 $5 $6 $7 $8 $9 X,Y pos of 4 corners*
0 Add a 4 corners polygon primitive as box body*
4,1,4,$2,$3,$4,$5,$6,$7,$8,$9,$2,$3,0*
0 Add four circle primitives for the rounded corners*
1,1,$1+$1,$2,$3*
1,1,$1+$1,$4,$5*
1,1,$1+$1,$6,$7*
1,1,$1+$1,$8,$9*
0 Add four rect primitives between the rounded corners*
20,1,$1+$1,$2,$3,$4,$5,0*
20,1,$1+$1,$4,$5,$6,$7,0*
20,1,$1+$1,$6,$7,$8,$9,0*
20,1,$1+$1,$8,$9,$2,$3,0*%
%AMRotRect*
0 Rectangle, with rotation*
0 The origin of the aperture is its center*
0 $1 length*
0 $2 width*
0 $3 Rotation angle, in degrees counterclockwise*
0 Add horizontal line*
21,1,$1,$2,0,0,$3*%
G04 Aperture macros list end*
%ADD10R,0.750000X1.000000*%
%ADD11O,1.700000X1.700000*%
%ADD12R,1.700000X1.700000*%
%ADD13RoundRect,0.140000X0.219203X0.021213X0.021213X0.219203X-0.219203X-0.021213X-0.021213X-0.219203X0*%
%ADD14RoundRect,0.135000X-0.185000X0.135000X-0.185000X-0.135000X0.185000X-0.135000X0.185000X0.135000X0*%
%ADD15RoundRect,0.135000X0.185000X-0.135000X0.185000X0.135000X-0.185000X0.135000X-0.185000X-0.135000X0*%
%ADD16RoundRect,0.135000X-0.135000X-0.185000X0.135000X-0.185000X0.135000X0.185000X-0.135000X0.185000X0*%
%ADD17RoundRect,0.135000X-0.226274X-0.035355X-0.035355X-0.226274X0.226274X0.035355X0.035355X0.226274X0*%
%ADD18RoundRect,0.140000X0.021213X-0.219203X0.219203X-0.021213X-0.021213X0.219203X-0.219203X0.021213X0*%
%ADD19RoundRect,0.140000X-0.140000X-0.170000X0.140000X-0.170000X0.140000X0.170000X-0.140000X0.170000X0*%
%ADD20R,0.450000X1.380000*%
%ADD21R,1.425000X1.550000*%
%ADD22R,1.650000X1.300000*%
%ADD23R,1.800000X1.900000*%
%ADD24R,1.000000X1.900000*%
%ADD25RoundRect,0.140000X-0.021213X0.219203X-0.219203X0.021213X0.021213X-0.219203X0.219203X-0.021213X0*%
%ADD26RoundRect,0.140000X0.140000X0.170000X-0.140000X0.170000X-0.140000X-0.170000X0.140000X-0.170000X0*%
%ADD27RoundRect,0.225000X0.225000X0.250000X-0.225000X0.250000X-0.225000X-0.250000X0.225000X-0.250000X0*%
%ADD28RotRect,0.304800X0.812800X315.000000*%
%ADD29RotRect,0.304800X0.812800X225.000000*%
%ADD30RotRect,5.689600X5.689600X225.000000*%
%ADD31RoundRect,0.140000X0.170000X-0.140000X0.170000X0.140000X-0.170000X0.140000X-0.170000X-0.140000X0*%
%ADD32RoundRect,0.225000X-0.225000X-0.250000X0.225000X-0.250000X0.225000X0.250000X-0.225000X0.250000X0*%
%ADD33R,1.200000X1.400000*%
%ADD34R,1.800000X1.000000*%
%ADD35R,0.700000X1.500000*%
%ADD36R,1.000000X0.800000*%
%ADD37C,0.900000*%
%ADD38RoundRect,0.225000X0.017678X-0.335876X0.335876X-0.017678X-0.017678X0.335876X-0.335876X0.017678X0*%
%ADD39RoundRect,0.140000X-0.219203X-0.021213X-0.021213X-0.219203X0.219203X0.021213X0.021213X0.219203X0*%
%ADD40RoundRect,0.150000X0.512500X0.150000X-0.512500X0.150000X-0.512500X-0.150000X0.512500X-0.150000X0*%
%ADD41RoundRect,0.150000X0.150000X-0.512500X0.150000X0.512500X-0.150000X0.512500X-0.150000X-0.512500X0*%
G04 APERTURE END LIST*
D10*
X92452000Y-139320500D03*
X92452000Y-133320500D03*
X96202000Y-139320500D03*
X96202000Y-133320500D03*
D11*
X99060000Y-114300000D03*
X99060000Y-116840000D03*
X99060000Y-119380000D03*
X99060000Y-121920000D03*
X99060000Y-124460000D03*
X99060000Y-127000000D03*
X99060000Y-129540000D03*
X99060000Y-132080000D03*
X99060000Y-134620000D03*
X99060000Y-137160000D03*
X99060000Y-139700000D03*
D12*
X99060000Y-142240000D03*
D11*
X66040000Y-114300000D03*
X66040000Y-116840000D03*
X66040000Y-119380000D03*
X66040000Y-121920000D03*
X66040000Y-124460000D03*
X66040000Y-127000000D03*
X66040000Y-129540000D03*
X66040000Y-132080000D03*
X66040000Y-134620000D03*
X66040000Y-137160000D03*
X66040000Y-139700000D03*
D12*
X66040000Y-142240000D03*
X68580000Y-111760000D03*
D11*
X71120000Y-111760000D03*
X73660000Y-111760000D03*
X76200000Y-111760000D03*
X78740000Y-111760000D03*
X81280000Y-111760000D03*
X83820000Y-111760000D03*
X86360000Y-111760000D03*
X88900000Y-111760000D03*
X91440000Y-111760000D03*
X93980000Y-111760000D03*
X96520000Y-111760000D03*
X85799000Y-139252000D03*
X88339000Y-139252000D03*
X85799000Y-136712000D03*
X88339000Y-136712000D03*
X85799000Y-134172000D03*
D12*
X88339000Y-134172000D03*
D13*
X77572589Y-138026589D03*
X78251411Y-138705411D03*
D14*
X90845000Y-137732000D03*
X90845000Y-136712000D03*
D15*
X94547000Y-131845000D03*
X94547000Y-132865000D03*
D16*
X93276000Y-140843000D03*
X92256000Y-140843000D03*
D17*
X95889376Y-120139376D03*
X96610624Y-120860624D03*
D14*
X86282142Y-118679968D03*
X86282142Y-117659968D03*
D18*
X78205526Y-121060876D03*
X77526704Y-121739698D03*
D19*
X91767999Y-116593000D03*
X92727999Y-116593000D03*
D18*
X77413567Y-120268916D03*
X76734745Y-120947738D03*
X88886178Y-126134822D03*
X89565000Y-125456000D03*
D20*
X79794000Y-142082000D03*
X80444000Y-142082000D03*
X81094000Y-142082000D03*
X81744000Y-142082000D03*
X82394000Y-142082000D03*
D21*
X78606500Y-142167000D03*
X83581500Y-142167000D03*
D22*
X77719000Y-144742000D03*
D23*
X79944000Y-144742000D03*
D24*
X82644000Y-144742000D03*
D22*
X84469000Y-144742000D03*
D25*
X76659083Y-124464181D03*
X75980261Y-125143003D03*
D26*
X89399142Y-121655967D03*
X88439142Y-121655967D03*
D27*
X71901500Y-141936000D03*
X70351500Y-141936000D03*
D25*
X76792020Y-122441856D03*
X76113198Y-123120678D03*
D19*
X91774000Y-121690999D03*
X92734000Y-121690999D03*
D27*
X75151500Y-141961000D03*
X73601500Y-141961000D03*
D19*
X88659142Y-116315967D03*
X87699142Y-116315967D03*
D28*
X87147173Y-125559914D03*
X86793621Y-125206361D03*
X86440066Y-124852806D03*
X86086513Y-124499254D03*
X85732960Y-124145701D03*
X85379406Y-123792147D03*
X85025853Y-123438594D03*
X84672299Y-123085040D03*
X84318746Y-122731487D03*
X83965194Y-122377934D03*
X83611639Y-122024379D03*
X83258086Y-121670827D03*
D29*
X82261914Y-121670827D03*
X81908361Y-122024379D03*
X81554806Y-122377934D03*
X81201254Y-122731487D03*
X80847701Y-123085040D03*
X80494147Y-123438594D03*
X80140594Y-123792147D03*
X79787040Y-124145701D03*
X79433487Y-124499254D03*
X79079934Y-124852806D03*
X78726379Y-125206361D03*
X78372827Y-125559914D03*
D28*
X78372827Y-126556086D03*
X78726379Y-126909639D03*
X79079934Y-127263194D03*
X79433487Y-127616746D03*
X79787040Y-127970299D03*
X80140594Y-128323853D03*
X80494147Y-128677406D03*
X80847701Y-129030960D03*
X81201254Y-129384513D03*
X81554806Y-129738066D03*
X81908361Y-130091621D03*
X82261914Y-130445173D03*
D29*
X83258086Y-130445173D03*
X83611639Y-130091621D03*
X83965194Y-129738066D03*
X84318746Y-129384513D03*
X84672299Y-129030960D03*
X85025853Y-128677406D03*
X85379406Y-128323853D03*
X85732960Y-127970299D03*
X86086513Y-127616746D03*
X86440066Y-127263194D03*
X86793621Y-126909639D03*
X87147173Y-126556086D03*
D30*
X82760000Y-126058000D03*
D25*
X76000060Y-121649896D03*
X75321238Y-122328718D03*
D31*
X90845000Y-134807000D03*
X90845000Y-133847000D03*
D32*
X71968500Y-136569000D03*
X73518500Y-136569000D03*
D33*
X87699141Y-120085967D03*
X87699141Y-117885967D03*
X89399141Y-117885967D03*
X89399141Y-120085967D03*
D34*
X91768000Y-120363000D03*
X91768000Y-117863000D03*
D35*
X94833000Y-142494000D03*
X93333000Y-142494000D03*
X90333000Y-142494000D03*
D36*
X88933000Y-145354000D03*
D37*
X91083000Y-144254000D03*
D36*
X96233000Y-145354000D03*
D37*
X94083000Y-144254000D03*
D36*
X88933000Y-143144000D03*
X96233000Y-143144000D03*
D38*
X89946838Y-127195483D03*
X91042854Y-126099467D03*
D39*
X81834412Y-131717589D03*
X82513234Y-132396411D03*
D40*
X74426500Y-140142000D03*
X74426500Y-139192000D03*
X74426500Y-138242000D03*
X72151500Y-138242000D03*
X72151500Y-140142000D03*
D41*
X79822000Y-136632100D03*
X80772000Y-136632100D03*
X81722000Y-136632100D03*
X81722000Y-138907100D03*
X80772000Y-138907100D03*
X79822000Y-138907100D03*
M02*
