%FSLAX45Y45*%
G04 Gerber Fmt 4.5, Leading zero omitted, Abs format (unit mm)*
G04 Created by KiCad (PCBNEW (6.0.0-0)) date 2022-04-20 00:32:56*
%MOMM*%
%LPD*%
G01*
G04 APERTURE LIST*
%TA.AperFunction,Profile*%
%ADD10C,0.100000*%
%TD*%
%ADD11C,0.200000*%
%ADD12C,0.090000*%
G04 APERTURE END LIST*
D10*
X6477000Y-14478000D02*
G75*
G03*
X6604000Y-14605000I127000J0D01*
G01*
X9906000Y-14605000D02*
G75*
G03*
X10033000Y-14478000I0J127000D01*
G01*
X10033000Y-11176000D02*
G75*
G03*
X9906000Y-11049000I-127000J0D01*
G01*
X6604000Y-11049000D02*
G75*
G03*
X6477000Y-11176000I0J-127000D01*
G01*
X9906000Y-14605000D02*
X6604000Y-14605000D01*
X10033000Y-14351000D02*
X10033000Y-14478000D01*
X6477000Y-11176000D02*
X6477000Y-14478000D01*
X9906000Y-11049000D02*
X6604000Y-11049000D01*
X10033000Y-14351000D02*
X10033000Y-11176000D01*
D11*
D12*
X9063300Y-14380400D02*
X9153300Y-14470400D01*
X9153300Y-14380400D02*
X9063300Y-14470400D01*
X9363300Y-14380400D02*
X9453300Y-14470400D01*
X9453300Y-14380400D02*
X9363300Y-14470400D01*
D11*
X6729619Y-14920476D02*
X6729619Y-14720476D01*
X6777238Y-14720476D01*
X6805809Y-14730000D01*
X6824857Y-14749048D01*
X6834381Y-14768095D01*
X6843905Y-14806190D01*
X6843905Y-14834762D01*
X6834381Y-14872857D01*
X6824857Y-14891905D01*
X6805809Y-14910952D01*
X6777238Y-14920476D01*
X6729619Y-14920476D01*
X6929619Y-14920476D02*
X6929619Y-14787143D01*
X6929619Y-14825238D02*
X6939143Y-14806190D01*
X6948667Y-14796667D01*
X6967714Y-14787143D01*
X6986762Y-14787143D01*
X7053428Y-14920476D02*
X7053428Y-14787143D01*
X7053428Y-14720476D02*
X7043905Y-14730000D01*
X7053428Y-14739524D01*
X7062952Y-14730000D01*
X7053428Y-14720476D01*
X7053428Y-14739524D01*
X7177238Y-14920476D02*
X7158190Y-14910952D01*
X7148667Y-14891905D01*
X7148667Y-14720476D01*
X7282000Y-14920476D02*
X7262952Y-14910952D01*
X7253428Y-14891905D01*
X7253428Y-14720476D01*
X7510571Y-14920476D02*
X7510571Y-14720476D01*
X7577238Y-14863333D01*
X7643905Y-14720476D01*
X7643905Y-14920476D01*
X7824857Y-14920476D02*
X7824857Y-14815714D01*
X7815333Y-14796667D01*
X7796286Y-14787143D01*
X7758190Y-14787143D01*
X7739143Y-14796667D01*
X7824857Y-14910952D02*
X7805809Y-14920476D01*
X7758190Y-14920476D01*
X7739143Y-14910952D01*
X7729619Y-14891905D01*
X7729619Y-14872857D01*
X7739143Y-14853809D01*
X7758190Y-14844286D01*
X7805809Y-14844286D01*
X7824857Y-14834762D01*
X7920095Y-14787143D02*
X7920095Y-14987143D01*
X7920095Y-14796667D02*
X7939143Y-14787143D01*
X7977238Y-14787143D01*
X7996286Y-14796667D01*
X8005809Y-14806190D01*
X8015333Y-14825238D01*
X8015333Y-14882381D01*
X8005809Y-14901428D01*
X7996286Y-14910952D01*
X7977238Y-14920476D01*
X7939143Y-14920476D01*
X7920095Y-14910952D01*
X8101048Y-14901428D02*
X8110571Y-14910952D01*
X8101048Y-14920476D01*
X8091524Y-14910952D01*
X8101048Y-14901428D01*
X8101048Y-14920476D01*
X8101048Y-14796667D02*
X8110571Y-14806190D01*
X8101048Y-14815714D01*
X8091524Y-14806190D01*
X8101048Y-14796667D01*
X8101048Y-14815714D01*
D12*
X6382000Y-15205000D02*
X6472000Y-15295000D01*
X6472000Y-15205000D02*
X6382000Y-15295000D01*
D11*
X6767714Y-15140476D02*
X6786762Y-15140476D01*
X6805809Y-15150000D01*
X6815333Y-15159524D01*
X6824857Y-15178571D01*
X6834381Y-15216667D01*
X6834381Y-15264286D01*
X6824857Y-15302381D01*
X6815333Y-15321428D01*
X6805809Y-15330952D01*
X6786762Y-15340476D01*
X6767714Y-15340476D01*
X6748667Y-15330952D01*
X6739143Y-15321428D01*
X6729619Y-15302381D01*
X6720095Y-15264286D01*
X6720095Y-15216667D01*
X6729619Y-15178571D01*
X6739143Y-15159524D01*
X6748667Y-15150000D01*
X6767714Y-15140476D01*
X6920095Y-15321428D02*
X6929619Y-15330952D01*
X6920095Y-15340476D01*
X6910571Y-15330952D01*
X6920095Y-15321428D01*
X6920095Y-15340476D01*
X7024857Y-15340476D02*
X7062952Y-15340476D01*
X7082000Y-15330952D01*
X7091524Y-15321428D01*
X7110571Y-15292857D01*
X7120095Y-15254762D01*
X7120095Y-15178571D01*
X7110571Y-15159524D01*
X7101048Y-15150000D01*
X7082000Y-15140476D01*
X7043905Y-15140476D01*
X7024857Y-15150000D01*
X7015333Y-15159524D01*
X7005809Y-15178571D01*
X7005809Y-15226190D01*
X7015333Y-15245238D01*
X7024857Y-15254762D01*
X7043905Y-15264286D01*
X7082000Y-15264286D01*
X7101048Y-15254762D01*
X7110571Y-15245238D01*
X7120095Y-15226190D01*
X7243905Y-15140476D02*
X7262952Y-15140476D01*
X7282000Y-15150000D01*
X7291524Y-15159524D01*
X7301048Y-15178571D01*
X7310571Y-15216667D01*
X7310571Y-15264286D01*
X7301048Y-15302381D01*
X7291524Y-15321428D01*
X7282000Y-15330952D01*
X7262952Y-15340476D01*
X7243905Y-15340476D01*
X7224857Y-15330952D01*
X7215333Y-15321428D01*
X7205809Y-15302381D01*
X7196286Y-15264286D01*
X7196286Y-15216667D01*
X7205809Y-15178571D01*
X7215333Y-15159524D01*
X7224857Y-15150000D01*
X7243905Y-15140476D01*
X7434381Y-15140476D02*
X7453428Y-15140476D01*
X7472476Y-15150000D01*
X7482000Y-15159524D01*
X7491524Y-15178571D01*
X7501048Y-15216667D01*
X7501048Y-15264286D01*
X7491524Y-15302381D01*
X7482000Y-15321428D01*
X7472476Y-15330952D01*
X7453428Y-15340476D01*
X7434381Y-15340476D01*
X7415333Y-15330952D01*
X7405809Y-15321428D01*
X7396286Y-15302381D01*
X7386762Y-15264286D01*
X7386762Y-15216667D01*
X7396286Y-15178571D01*
X7405809Y-15159524D01*
X7415333Y-15150000D01*
X7434381Y-15140476D01*
X7586762Y-15340476D02*
X7586762Y-15207143D01*
X7586762Y-15226190D02*
X7596286Y-15216667D01*
X7615333Y-15207143D01*
X7643905Y-15207143D01*
X7662952Y-15216667D01*
X7672476Y-15235714D01*
X7672476Y-15340476D01*
X7672476Y-15235714D02*
X7682000Y-15216667D01*
X7701048Y-15207143D01*
X7729619Y-15207143D01*
X7748667Y-15216667D01*
X7758190Y-15235714D01*
X7758190Y-15340476D01*
X7853428Y-15340476D02*
X7853428Y-15207143D01*
X7853428Y-15226190D02*
X7862952Y-15216667D01*
X7882000Y-15207143D01*
X7910571Y-15207143D01*
X7929619Y-15216667D01*
X7939143Y-15235714D01*
X7939143Y-15340476D01*
X7939143Y-15235714D02*
X7948667Y-15216667D01*
X7967714Y-15207143D01*
X7996286Y-15207143D01*
X8015333Y-15216667D01*
X8024857Y-15235714D01*
X8024857Y-15340476D01*
X8415333Y-15130952D02*
X8243905Y-15388095D01*
X8672476Y-15140476D02*
X8691524Y-15140476D01*
X8710571Y-15150000D01*
X8720095Y-15159524D01*
X8729619Y-15178571D01*
X8739143Y-15216667D01*
X8739143Y-15264286D01*
X8729619Y-15302381D01*
X8720095Y-15321428D01*
X8710571Y-15330952D01*
X8691524Y-15340476D01*
X8672476Y-15340476D01*
X8653429Y-15330952D01*
X8643905Y-15321428D01*
X8634381Y-15302381D01*
X8624857Y-15264286D01*
X8624857Y-15216667D01*
X8634381Y-15178571D01*
X8643905Y-15159524D01*
X8653429Y-15150000D01*
X8672476Y-15140476D01*
X8824857Y-15321428D02*
X8834381Y-15330952D01*
X8824857Y-15340476D01*
X8815333Y-15330952D01*
X8824857Y-15321428D01*
X8824857Y-15340476D01*
X8958190Y-15140476D02*
X8977238Y-15140476D01*
X8996286Y-15150000D01*
X9005810Y-15159524D01*
X9015333Y-15178571D01*
X9024857Y-15216667D01*
X9024857Y-15264286D01*
X9015333Y-15302381D01*
X9005810Y-15321428D01*
X8996286Y-15330952D01*
X8977238Y-15340476D01*
X8958190Y-15340476D01*
X8939143Y-15330952D01*
X8929619Y-15321428D01*
X8920095Y-15302381D01*
X8910571Y-15264286D01*
X8910571Y-15216667D01*
X8920095Y-15178571D01*
X8929619Y-15159524D01*
X8939143Y-15150000D01*
X8958190Y-15140476D01*
X9091524Y-15140476D02*
X9215333Y-15140476D01*
X9148667Y-15216667D01*
X9177238Y-15216667D01*
X9196286Y-15226190D01*
X9205810Y-15235714D01*
X9215333Y-15254762D01*
X9215333Y-15302381D01*
X9205810Y-15321428D01*
X9196286Y-15330952D01*
X9177238Y-15340476D01*
X9120095Y-15340476D01*
X9101048Y-15330952D01*
X9091524Y-15321428D01*
X9396286Y-15140476D02*
X9301048Y-15140476D01*
X9291524Y-15235714D01*
X9301048Y-15226190D01*
X9320095Y-15216667D01*
X9367714Y-15216667D01*
X9386762Y-15226190D01*
X9396286Y-15235714D01*
X9405810Y-15254762D01*
X9405810Y-15302381D01*
X9396286Y-15321428D01*
X9386762Y-15330952D01*
X9367714Y-15340476D01*
X9320095Y-15340476D01*
X9301048Y-15330952D01*
X9291524Y-15321428D01*
X9577238Y-15207143D02*
X9577238Y-15340476D01*
X9529619Y-15130952D02*
X9482000Y-15273809D01*
X9605810Y-15273809D01*
X9672476Y-15140476D02*
X9672476Y-15178571D01*
X9748667Y-15140476D02*
X9748667Y-15178571D01*
X10043905Y-15416667D02*
X10034381Y-15407143D01*
X10015333Y-15378571D01*
X10005810Y-15359524D01*
X9996286Y-15330952D01*
X9986762Y-15283333D01*
X9986762Y-15245238D01*
X9996286Y-15197619D01*
X10005810Y-15169048D01*
X10015333Y-15150000D01*
X10034381Y-15121428D01*
X10043905Y-15111905D01*
X10110571Y-15159524D02*
X10120095Y-15150000D01*
X10139143Y-15140476D01*
X10186762Y-15140476D01*
X10205810Y-15150000D01*
X10215333Y-15159524D01*
X10224857Y-15178571D01*
X10224857Y-15197619D01*
X10215333Y-15226190D01*
X10101048Y-15340476D01*
X10224857Y-15340476D01*
X10462952Y-15340476D02*
X10462952Y-15140476D01*
X10548667Y-15340476D02*
X10548667Y-15235714D01*
X10539143Y-15216667D01*
X10520095Y-15207143D01*
X10491524Y-15207143D01*
X10472476Y-15216667D01*
X10462952Y-15226190D01*
X10672476Y-15340476D02*
X10653429Y-15330952D01*
X10643905Y-15321428D01*
X10634381Y-15302381D01*
X10634381Y-15245238D01*
X10643905Y-15226190D01*
X10653429Y-15216667D01*
X10672476Y-15207143D01*
X10701048Y-15207143D01*
X10720095Y-15216667D01*
X10729619Y-15226190D01*
X10739143Y-15245238D01*
X10739143Y-15302381D01*
X10729619Y-15321428D01*
X10720095Y-15330952D01*
X10701048Y-15340476D01*
X10672476Y-15340476D01*
X10853429Y-15340476D02*
X10834381Y-15330952D01*
X10824857Y-15311905D01*
X10824857Y-15140476D01*
X11005810Y-15330952D02*
X10986762Y-15340476D01*
X10948667Y-15340476D01*
X10929619Y-15330952D01*
X10920095Y-15311905D01*
X10920095Y-15235714D01*
X10929619Y-15216667D01*
X10948667Y-15207143D01*
X10986762Y-15207143D01*
X11005810Y-15216667D01*
X11015333Y-15235714D01*
X11015333Y-15254762D01*
X10920095Y-15273809D01*
X11091524Y-15330952D02*
X11110571Y-15340476D01*
X11148667Y-15340476D01*
X11167714Y-15330952D01*
X11177238Y-15311905D01*
X11177238Y-15302381D01*
X11167714Y-15283333D01*
X11148667Y-15273809D01*
X11120095Y-15273809D01*
X11101048Y-15264286D01*
X11091524Y-15245238D01*
X11091524Y-15235714D01*
X11101048Y-15216667D01*
X11120095Y-15207143D01*
X11148667Y-15207143D01*
X11167714Y-15216667D01*
X11243905Y-15416667D02*
X11253428Y-15407143D01*
X11272476Y-15378571D01*
X11282000Y-15359524D01*
X11291524Y-15330952D01*
X11301048Y-15283333D01*
X11301048Y-15245238D01*
X11291524Y-15197619D01*
X11282000Y-15169048D01*
X11272476Y-15150000D01*
X11253428Y-15121428D01*
X11243905Y-15111905D01*
X11605809Y-15416667D02*
X11596286Y-15407143D01*
X11577238Y-15378571D01*
X11567714Y-15359524D01*
X11558190Y-15330952D01*
X11548667Y-15283333D01*
X11548667Y-15245238D01*
X11558190Y-15197619D01*
X11567714Y-15169048D01*
X11577238Y-15150000D01*
X11596286Y-15121428D01*
X11605809Y-15111905D01*
X11682000Y-15207143D02*
X11682000Y-15340476D01*
X11682000Y-15226190D02*
X11691524Y-15216667D01*
X11710571Y-15207143D01*
X11739143Y-15207143D01*
X11758190Y-15216667D01*
X11767714Y-15235714D01*
X11767714Y-15340476D01*
X11891524Y-15340476D02*
X11872476Y-15330952D01*
X11862952Y-15321428D01*
X11853428Y-15302381D01*
X11853428Y-15245238D01*
X11862952Y-15226190D01*
X11872476Y-15216667D01*
X11891524Y-15207143D01*
X11920095Y-15207143D01*
X11939143Y-15216667D01*
X11948667Y-15226190D01*
X11958190Y-15245238D01*
X11958190Y-15302381D01*
X11948667Y-15321428D01*
X11939143Y-15330952D01*
X11920095Y-15340476D01*
X11891524Y-15340476D01*
X12015333Y-15207143D02*
X12091524Y-15207143D01*
X12043905Y-15140476D02*
X12043905Y-15311905D01*
X12053428Y-15330952D01*
X12072476Y-15340476D01*
X12091524Y-15340476D01*
X12310571Y-15207143D02*
X12310571Y-15407143D01*
X12310571Y-15216667D02*
X12329619Y-15207143D01*
X12367714Y-15207143D01*
X12386762Y-15216667D01*
X12396286Y-15226190D01*
X12405809Y-15245238D01*
X12405809Y-15302381D01*
X12396286Y-15321428D01*
X12386762Y-15330952D01*
X12367714Y-15340476D01*
X12329619Y-15340476D01*
X12310571Y-15330952D01*
X12520095Y-15340476D02*
X12501048Y-15330952D01*
X12491524Y-15311905D01*
X12491524Y-15140476D01*
X12682000Y-15340476D02*
X12682000Y-15235714D01*
X12672476Y-15216667D01*
X12653428Y-15207143D01*
X12615333Y-15207143D01*
X12596286Y-15216667D01*
X12682000Y-15330952D02*
X12662952Y-15340476D01*
X12615333Y-15340476D01*
X12596286Y-15330952D01*
X12586762Y-15311905D01*
X12586762Y-15292857D01*
X12596286Y-15273809D01*
X12615333Y-15264286D01*
X12662952Y-15264286D01*
X12682000Y-15254762D01*
X12748667Y-15207143D02*
X12824857Y-15207143D01*
X12777238Y-15140476D02*
X12777238Y-15311905D01*
X12786762Y-15330952D01*
X12805809Y-15340476D01*
X12824857Y-15340476D01*
X12967714Y-15330952D02*
X12948667Y-15340476D01*
X12910571Y-15340476D01*
X12891524Y-15330952D01*
X12882000Y-15311905D01*
X12882000Y-15235714D01*
X12891524Y-15216667D01*
X12910571Y-15207143D01*
X12948667Y-15207143D01*
X12967714Y-15216667D01*
X12977238Y-15235714D01*
X12977238Y-15254762D01*
X12882000Y-15273809D01*
X13148667Y-15340476D02*
X13148667Y-15140476D01*
X13148667Y-15330952D02*
X13129619Y-15340476D01*
X13091524Y-15340476D01*
X13072476Y-15330952D01*
X13062952Y-15321428D01*
X13053428Y-15302381D01*
X13053428Y-15245238D01*
X13062952Y-15226190D01*
X13072476Y-15216667D01*
X13091524Y-15207143D01*
X13129619Y-15207143D01*
X13148667Y-15216667D01*
X13224857Y-15416667D02*
X13234381Y-15407143D01*
X13253428Y-15378571D01*
X13262952Y-15359524D01*
X13272476Y-15330952D01*
X13282000Y-15283333D01*
X13282000Y-15245238D01*
X13272476Y-15197619D01*
X13262952Y-15169048D01*
X13253428Y-15150000D01*
X13234381Y-15121428D01*
X13224857Y-15111905D01*
M02*
