%FSLAX45Y45*%
G04 Gerber Fmt 4.5, Leading zero omitted, Abs format (unit mm)*
G04 Created by KiCad (PCBNEW (6.0.0-0)) date 2022-04-20 00:32:56*
%MOMM*%
%LPD*%
G01*
G04 APERTURE LIST*
%TA.AperFunction,Profile*%
%ADD10C,0.100000*%
%TD*%
%ADD11C,0.200000*%
%ADD12C,0.040000*%
%ADD13C,0.100000*%
G04 APERTURE END LIST*
D10*
X6477000Y-14478000D02*
G75*
G03*
X6604000Y-14605000I127000J0D01*
G01*
X9906000Y-14605000D02*
G75*
G03*
X10033000Y-14478000I0J127000D01*
G01*
X10033000Y-11176000D02*
G75*
G03*
X9906000Y-11049000I-127000J0D01*
G01*
X6604000Y-11049000D02*
G75*
G03*
X6477000Y-11176000I0J-127000D01*
G01*
X9906000Y-14605000D02*
X6604000Y-14605000D01*
X10033000Y-14351000D02*
X10033000Y-14478000D01*
X6477000Y-11176000D02*
X6477000Y-14478000D01*
X9906000Y-11049000D02*
X6604000Y-11049000D01*
X10033000Y-14351000D02*
X10033000Y-11176000D01*
D11*
D12*
X6705000Y-11805000D02*
X6745000Y-11845000D01*
X6745000Y-11805000D02*
X6705000Y-11845000D01*
X6720000Y-11310000D02*
X6760000Y-11350000D01*
X6760000Y-11310000D02*
X6720000Y-11350000D01*
X6720000Y-13550000D02*
X6760000Y-13590000D01*
X6760000Y-13550000D02*
X6720000Y-13590000D01*
X6755000Y-13305000D02*
X6795000Y-13345000D01*
X6795000Y-13305000D02*
X6755000Y-13345000D01*
X6804600Y-12777900D02*
X6844600Y-12817900D01*
X6844600Y-12777900D02*
X6804600Y-12817900D01*
X6805000Y-12255000D02*
X6845000Y-12295000D01*
X6845000Y-12255000D02*
X6805000Y-12295000D01*
X6830000Y-12555000D02*
X6870000Y-12595000D01*
X6870000Y-12555000D02*
X6830000Y-12595000D01*
X6855000Y-12080000D02*
X6895000Y-12120000D01*
X6895000Y-12080000D02*
X6855000Y-12120000D01*
X6880000Y-11855000D02*
X6920000Y-11895000D01*
X6920000Y-11855000D02*
X6880000Y-11895000D01*
X6880000Y-14180000D02*
X6920000Y-14220000D01*
X6920000Y-14180000D02*
X6880000Y-14220000D01*
X6920000Y-13780000D02*
X6960000Y-13820000D01*
X6960000Y-13780000D02*
X6920000Y-13820000D01*
X6920000Y-13880000D02*
X6960000Y-13920000D01*
X6960000Y-13880000D02*
X6920000Y-13920000D01*
X6920000Y-13980000D02*
X6960000Y-14020000D01*
X6960000Y-13980000D02*
X6920000Y-14020000D01*
X6930000Y-13105000D02*
X6970000Y-13145000D01*
X6970000Y-13105000D02*
X6930000Y-13145000D01*
X6940000Y-11520000D02*
X6980000Y-11560000D01*
X6980000Y-11520000D02*
X6940000Y-11560000D01*
X7012000Y-14323700D02*
X7052000Y-14363700D01*
X7052000Y-14323700D02*
X7012000Y-14363700D01*
X7027000Y-12941400D02*
X7067000Y-12981400D01*
X7067000Y-12941400D02*
X7027000Y-12981400D01*
X7030000Y-13530000D02*
X7070000Y-13570000D01*
X7070000Y-13530000D02*
X7030000Y-13570000D01*
X7040000Y-13680000D02*
X7080000Y-13720000D01*
X7080000Y-13680000D02*
X7040000Y-13720000D01*
X7040000Y-13780000D02*
X7080000Y-13820000D01*
X7080000Y-13780000D02*
X7040000Y-13820000D01*
X7040000Y-13880000D02*
X7080000Y-13920000D01*
X7080000Y-13880000D02*
X7040000Y-13920000D01*
X7040000Y-13980000D02*
X7080000Y-14020000D01*
X7080000Y-13980000D02*
X7040000Y-14020000D01*
X7080000Y-12305000D02*
X7120000Y-12345000D01*
X7120000Y-12305000D02*
X7080000Y-12345000D01*
X7140000Y-13260000D02*
X7180000Y-13300000D01*
X7180000Y-13260000D02*
X7140000Y-13300000D01*
X7155000Y-12130000D02*
X7195000Y-12170000D01*
X7195000Y-12130000D02*
X7155000Y-12170000D01*
X7180000Y-12630000D02*
X7220000Y-12670000D01*
X7220000Y-12630000D02*
X7180000Y-12670000D01*
X7183600Y-11850700D02*
X7223600Y-11890700D01*
X7223600Y-11850700D02*
X7183600Y-11890700D01*
X7334900Y-13511200D02*
X7374900Y-13551200D01*
X7374900Y-13511200D02*
X7334900Y-13551200D01*
X7340100Y-14325300D02*
X7380100Y-14365300D01*
X7380100Y-14325300D02*
X7340100Y-14365300D01*
X7342600Y-12173100D02*
X7382600Y-12213100D01*
X7382600Y-12173100D02*
X7342600Y-12213100D01*
X7355000Y-13105000D02*
X7395000Y-13145000D01*
X7395000Y-13105000D02*
X7355000Y-13145000D01*
X7380000Y-12380000D02*
X7420000Y-12420000D01*
X7420000Y-12380000D02*
X7380000Y-12420000D01*
X7380000Y-12605000D02*
X7420000Y-12645000D01*
X7420000Y-12605000D02*
X7380000Y-12645000D01*
X7420000Y-11920000D02*
X7460000Y-11960000D01*
X7460000Y-11920000D02*
X7420000Y-11960000D01*
X7447777Y-12280471D02*
X7487777Y-12320471D01*
X7487777Y-12280471D02*
X7447777Y-12320471D01*
X7468400Y-11747500D02*
X7508400Y-11787500D01*
X7508400Y-11747500D02*
X7468400Y-11787500D01*
X7470000Y-11420000D02*
X7510000Y-11460000D01*
X7510000Y-11420000D02*
X7470000Y-11460000D01*
X7510639Y-12073925D02*
X7550639Y-12113925D01*
X7550639Y-12073925D02*
X7510639Y-12113925D01*
X7511100Y-13645200D02*
X7551100Y-13685200D01*
X7551100Y-13645200D02*
X7511100Y-13685200D01*
X7528599Y-12361294D02*
X7568599Y-12401294D01*
X7568599Y-12361294D02*
X7528599Y-12401294D01*
X7561100Y-13898500D02*
X7601100Y-13938500D01*
X7601100Y-13898500D02*
X7561100Y-13938500D01*
X7582481Y-12002083D02*
X7622481Y-12042083D01*
X7622481Y-12002083D02*
X7582481Y-12042083D01*
X7583800Y-12942900D02*
X7623800Y-12982900D01*
X7623800Y-12942900D02*
X7583800Y-12982900D01*
X7703962Y-12507806D02*
X7743962Y-12547806D01*
X7743962Y-12507806D02*
X7703962Y-12547806D01*
X7708204Y-12325372D02*
X7748204Y-12365372D01*
X7748204Y-12325372D02*
X7708204Y-12365372D01*
X7710000Y-13480000D02*
X7750000Y-13520000D01*
X7750000Y-13480000D02*
X7710000Y-13520000D01*
X7730000Y-11430000D02*
X7770000Y-11470000D01*
X7770000Y-11430000D02*
X7730000Y-11470000D01*
X7740000Y-11680000D02*
X7780000Y-11720000D01*
X7780000Y-11680000D02*
X7740000Y-11720000D01*
X7749860Y-14061760D02*
X7789860Y-14101760D01*
X7789860Y-14061760D02*
X7749860Y-14101760D01*
X7780000Y-13610000D02*
X7820000Y-13650000D01*
X7820000Y-13610000D02*
X7780000Y-13650000D01*
X7781800Y-11945800D02*
X7821800Y-11985800D01*
X7821800Y-11945800D02*
X7781800Y-11985800D01*
X7800000Y-13300000D02*
X7840000Y-13340000D01*
X7840000Y-13300000D02*
X7800000Y-13340000D01*
X7859500Y-12023500D02*
X7899500Y-12063500D01*
X7899500Y-12023500D02*
X7859500Y-12063500D01*
X7860000Y-12185800D02*
X7900000Y-12225800D01*
X7900000Y-12185800D02*
X7860000Y-12225800D01*
X7930000Y-11610000D02*
X7970000Y-11650000D01*
X7970000Y-11610000D02*
X7930000Y-11650000D01*
X7980000Y-11420000D02*
X8020000Y-11460000D01*
X8020000Y-11420000D02*
X7980000Y-11460000D01*
X7990000Y-12590000D02*
X8030000Y-12630000D01*
X8030000Y-12590000D02*
X7990000Y-12630000D01*
X8105000Y-13214200D02*
X8145000Y-13254200D01*
X8145000Y-13214200D02*
X8105000Y-13254200D01*
X8130000Y-12455000D02*
X8170000Y-12495000D01*
X8170000Y-12455000D02*
X8130000Y-12495000D01*
X8130000Y-12705000D02*
X8170000Y-12745000D01*
X8170000Y-12705000D02*
X8130000Y-12745000D01*
X8180200Y-13356000D02*
X8220200Y-13396000D01*
X8220200Y-13356000D02*
X8180200Y-13396000D01*
X8223000Y-14019600D02*
X8263000Y-14059600D01*
X8263000Y-14019600D02*
X8223000Y-14059600D01*
X8260000Y-12320000D02*
X8300000Y-12360000D01*
X8300000Y-12320000D02*
X8260000Y-12360000D01*
X8260000Y-12590000D02*
X8300000Y-12630000D01*
X8300000Y-12590000D02*
X8260000Y-12630000D01*
X8260000Y-12860000D02*
X8300000Y-12900000D01*
X8300000Y-12860000D02*
X8260000Y-12900000D01*
X8275300Y-13892600D02*
X8315300Y-13932600D01*
X8315300Y-13892600D02*
X8275300Y-13932600D01*
X8280000Y-11370000D02*
X8320000Y-11410000D01*
X8320000Y-11370000D02*
X8280000Y-11410000D01*
X8323900Y-13755800D02*
X8363900Y-13795800D01*
X8363900Y-13755800D02*
X8323900Y-13795800D01*
X8405000Y-12455000D02*
X8445000Y-12495000D01*
X8445000Y-12455000D02*
X8405000Y-12495000D01*
X8405000Y-12705000D02*
X8445000Y-12745000D01*
X8445000Y-12705000D02*
X8405000Y-12745000D01*
X8530000Y-12590000D02*
X8570000Y-12630000D01*
X8570000Y-12590000D02*
X8530000Y-12630000D01*
X8600200Y-13000700D02*
X8640200Y-13040700D01*
X8640200Y-13000700D02*
X8600200Y-13040700D01*
X8602900Y-12163800D02*
X8642900Y-12203800D01*
X8642900Y-12163800D02*
X8602900Y-12203800D01*
X8604600Y-14154900D02*
X8644600Y-14194900D01*
X8644600Y-14154900D02*
X8604600Y-14194900D01*
X8605400Y-14300600D02*
X8645400Y-14340600D01*
X8645400Y-14300600D02*
X8605400Y-14340600D01*
X8675000Y-12931832D02*
X8715000Y-12971832D01*
X8715000Y-12931832D02*
X8675000Y-12971832D01*
X8748900Y-12210300D02*
X8788900Y-12250300D01*
X8788900Y-12210300D02*
X8748900Y-12250300D01*
X8754900Y-12990400D02*
X8794900Y-13030400D01*
X8794900Y-12990400D02*
X8754900Y-13030400D01*
X8825400Y-14158900D02*
X8865400Y-14198900D01*
X8865400Y-14158900D02*
X8825400Y-14198900D01*
X8950000Y-11610000D02*
X8990000Y-11650000D01*
X8990000Y-11610000D02*
X8950000Y-11650000D01*
X9024900Y-12484500D02*
X9064900Y-12524500D01*
X9064900Y-12484500D02*
X9024900Y-12524500D01*
X9047100Y-11564500D02*
X9087100Y-11604500D01*
X9087100Y-11564500D02*
X9047100Y-11604500D01*
X9050000Y-11330000D02*
X9090000Y-11370000D01*
X9090000Y-11330000D02*
X9050000Y-11370000D01*
X9053500Y-12778000D02*
X9093500Y-12818000D01*
X9093500Y-12778000D02*
X9053500Y-12818000D01*
X9067000Y-13267000D02*
X9107000Y-13307000D01*
X9107000Y-13267000D02*
X9067000Y-13307000D01*
X9092300Y-14065100D02*
X9132300Y-14105100D01*
X9132300Y-14065100D02*
X9092300Y-14105100D01*
X9170000Y-14200000D02*
X9210000Y-14240000D01*
X9210000Y-14200000D02*
X9170000Y-14240000D01*
X9179900Y-12502900D02*
X9219900Y-12542900D01*
X9219900Y-12502900D02*
X9179900Y-12542900D01*
X9230000Y-13455000D02*
X9270000Y-13495000D01*
X9270000Y-13455000D02*
X9230000Y-13495000D01*
X9247100Y-12275300D02*
X9287100Y-12315300D01*
X9287100Y-12275300D02*
X9247100Y-12315300D01*
X9279336Y-12770636D02*
X9319336Y-12810636D01*
X9319336Y-12770636D02*
X9279336Y-12810636D01*
X9280000Y-11350000D02*
X9320000Y-11390000D01*
X9320000Y-11350000D02*
X9280000Y-11390000D01*
X9316000Y-12502200D02*
X9356000Y-12542200D01*
X9356000Y-12502200D02*
X9316000Y-12542200D01*
X9330000Y-13755000D02*
X9370000Y-13795000D01*
X9370000Y-13755000D02*
X9330000Y-13795000D01*
X9358100Y-11573900D02*
X9398100Y-11613900D01*
X9398100Y-11573900D02*
X9358100Y-11613900D01*
X9420000Y-12640000D02*
X9460000Y-12680000D01*
X9460000Y-12640000D02*
X9420000Y-12680000D01*
X9494400Y-12924600D02*
X9534400Y-12964600D01*
X9534400Y-12924600D02*
X9494400Y-12964600D01*
X9506800Y-13603500D02*
X9546800Y-13643500D01*
X9546800Y-13603500D02*
X9506800Y-13643500D01*
X9535000Y-13162100D02*
X9575000Y-13202100D01*
X9575000Y-13162100D02*
X9535000Y-13202100D01*
X9631300Y-12896100D02*
X9671300Y-12936100D01*
X9671300Y-12896100D02*
X9631300Y-12936100D01*
X9670000Y-14090000D02*
X9710000Y-14130000D01*
X9710000Y-14090000D02*
X9670000Y-14130000D01*
X9710000Y-12300000D02*
X9750000Y-12340000D01*
X9750000Y-12300000D02*
X9710000Y-12340000D01*
X9730000Y-11540000D02*
X9770000Y-11580000D01*
X9770000Y-11540000D02*
X9730000Y-11580000D01*
X9730000Y-11760000D02*
X9770000Y-11800000D01*
X9770000Y-11760000D02*
X9730000Y-11800000D01*
X9740000Y-11280000D02*
X9780000Y-11320000D01*
X9780000Y-11280000D02*
X9740000Y-11320000D01*
X9747000Y-13299000D02*
X9787000Y-13339000D01*
X9787000Y-13299000D02*
X9747000Y-13339000D01*
X9755000Y-12030000D02*
X9795000Y-12070000D01*
X9795000Y-12030000D02*
X9755000Y-12070000D01*
X9770000Y-14510000D02*
X9810000Y-14550000D01*
X9810000Y-14510000D02*
X9770000Y-14550000D01*
D13*
X6654000Y-11430000D02*
G75*
G03*
X6654000Y-11430000I-50000J0D01*
G01*
X6654000Y-11684000D02*
G75*
G03*
X6654000Y-11684000I-50000J0D01*
G01*
X6654000Y-11938000D02*
G75*
G03*
X6654000Y-11938000I-50000J0D01*
G01*
X6654000Y-12192000D02*
G75*
G03*
X6654000Y-12192000I-50000J0D01*
G01*
X6654000Y-12446000D02*
G75*
G03*
X6654000Y-12446000I-50000J0D01*
G01*
X6654000Y-12700000D02*
G75*
G03*
X6654000Y-12700000I-50000J0D01*
G01*
X6654000Y-12954000D02*
G75*
G03*
X6654000Y-12954000I-50000J0D01*
G01*
X6654000Y-13208000D02*
G75*
G03*
X6654000Y-13208000I-50000J0D01*
G01*
X6654000Y-13462000D02*
G75*
G03*
X6654000Y-13462000I-50000J0D01*
G01*
X6654000Y-13716000D02*
G75*
G03*
X6654000Y-13716000I-50000J0D01*
G01*
X6654000Y-13970000D02*
G75*
G03*
X6654000Y-13970000I-50000J0D01*
G01*
X6654000Y-14224000D02*
G75*
G03*
X6654000Y-14224000I-50000J0D01*
G01*
X6908000Y-11176000D02*
G75*
G03*
X6908000Y-11176000I-50000J0D01*
G01*
X7162000Y-11176000D02*
G75*
G03*
X7162000Y-11176000I-50000J0D01*
G01*
X7416000Y-11176000D02*
G75*
G03*
X7416000Y-11176000I-50000J0D01*
G01*
X7670000Y-11176000D02*
G75*
G03*
X7670000Y-11176000I-50000J0D01*
G01*
X7924000Y-11176000D02*
G75*
G03*
X7924000Y-11176000I-50000J0D01*
G01*
X8178000Y-11176000D02*
G75*
G03*
X8178000Y-11176000I-50000J0D01*
G01*
X8432000Y-11176000D02*
G75*
G03*
X8432000Y-11176000I-50000J0D01*
G01*
X8629900Y-13417200D02*
G75*
G03*
X8629900Y-13417200I-50000J0D01*
G01*
X8629900Y-13671200D02*
G75*
G03*
X8629900Y-13671200I-50000J0D01*
G01*
X8629900Y-13925200D02*
G75*
G03*
X8629900Y-13925200I-50000J0D01*
G01*
X8686000Y-11176000D02*
G75*
G03*
X8686000Y-11176000I-50000J0D01*
G01*
X8883900Y-13417200D02*
G75*
G03*
X8883900Y-13417200I-50000J0D01*
G01*
X8883900Y-13671200D02*
G75*
G03*
X8883900Y-13671200I-50000J0D01*
G01*
X8883900Y-13925200D02*
G75*
G03*
X8883900Y-13925200I-50000J0D01*
G01*
X8940000Y-11176000D02*
G75*
G03*
X8940000Y-11176000I-50000J0D01*
G01*
X9194000Y-11176000D02*
G75*
G03*
X9194000Y-11176000I-50000J0D01*
G01*
X9448000Y-11176000D02*
G75*
G03*
X9448000Y-11176000I-50000J0D01*
G01*
X9702000Y-11176000D02*
G75*
G03*
X9702000Y-11176000I-50000J0D01*
G01*
X9956000Y-11430000D02*
G75*
G03*
X9956000Y-11430000I-50000J0D01*
G01*
X9956000Y-11684000D02*
G75*
G03*
X9956000Y-11684000I-50000J0D01*
G01*
X9956000Y-11938000D02*
G75*
G03*
X9956000Y-11938000I-50000J0D01*
G01*
X9956000Y-12192000D02*
G75*
G03*
X9956000Y-12192000I-50000J0D01*
G01*
X9956000Y-12446000D02*
G75*
G03*
X9956000Y-12446000I-50000J0D01*
G01*
X9956000Y-12700000D02*
G75*
G03*
X9956000Y-12700000I-50000J0D01*
G01*
X9956000Y-12954000D02*
G75*
G03*
X9956000Y-12954000I-50000J0D01*
G01*
X9956000Y-13208000D02*
G75*
G03*
X9956000Y-13208000I-50000J0D01*
G01*
X9956000Y-13462000D02*
G75*
G03*
X9956000Y-13462000I-50000J0D01*
G01*
X9956000Y-13716000D02*
G75*
G03*
X9956000Y-13716000I-50000J0D01*
G01*
X9956000Y-13970000D02*
G75*
G03*
X9956000Y-13970000I-50000J0D01*
G01*
X9956000Y-14224000D02*
G75*
G03*
X9956000Y-14224000I-50000J0D01*
G01*
D11*
X6729619Y-14920476D02*
X6729619Y-14720476D01*
X6777238Y-14720476D01*
X6805809Y-14730000D01*
X6824857Y-14749048D01*
X6834381Y-14768095D01*
X6843905Y-14806190D01*
X6843905Y-14834762D01*
X6834381Y-14872857D01*
X6824857Y-14891905D01*
X6805809Y-14910952D01*
X6777238Y-14920476D01*
X6729619Y-14920476D01*
X6929619Y-14920476D02*
X6929619Y-14787143D01*
X6929619Y-14825238D02*
X6939143Y-14806190D01*
X6948667Y-14796667D01*
X6967714Y-14787143D01*
X6986762Y-14787143D01*
X7053428Y-14920476D02*
X7053428Y-14787143D01*
X7053428Y-14720476D02*
X7043905Y-14730000D01*
X7053428Y-14739524D01*
X7062952Y-14730000D01*
X7053428Y-14720476D01*
X7053428Y-14739524D01*
X7177238Y-14920476D02*
X7158190Y-14910952D01*
X7148667Y-14891905D01*
X7148667Y-14720476D01*
X7282000Y-14920476D02*
X7262952Y-14910952D01*
X7253428Y-14891905D01*
X7253428Y-14720476D01*
X7510571Y-14920476D02*
X7510571Y-14720476D01*
X7577238Y-14863333D01*
X7643905Y-14720476D01*
X7643905Y-14920476D01*
X7824857Y-14920476D02*
X7824857Y-14815714D01*
X7815333Y-14796667D01*
X7796286Y-14787143D01*
X7758190Y-14787143D01*
X7739143Y-14796667D01*
X7824857Y-14910952D02*
X7805809Y-14920476D01*
X7758190Y-14920476D01*
X7739143Y-14910952D01*
X7729619Y-14891905D01*
X7729619Y-14872857D01*
X7739143Y-14853809D01*
X7758190Y-14844286D01*
X7805809Y-14844286D01*
X7824857Y-14834762D01*
X7920095Y-14787143D02*
X7920095Y-14987143D01*
X7920095Y-14796667D02*
X7939143Y-14787143D01*
X7977238Y-14787143D01*
X7996286Y-14796667D01*
X8005809Y-14806190D01*
X8015333Y-14825238D01*
X8015333Y-14882381D01*
X8005809Y-14901428D01*
X7996286Y-14910952D01*
X7977238Y-14920476D01*
X7939143Y-14920476D01*
X7920095Y-14910952D01*
X8101048Y-14901428D02*
X8110571Y-14910952D01*
X8101048Y-14920476D01*
X8091524Y-14910952D01*
X8101048Y-14901428D01*
X8101048Y-14920476D01*
X8101048Y-14796667D02*
X8110571Y-14806190D01*
X8101048Y-14815714D01*
X8091524Y-14806190D01*
X8101048Y-14796667D01*
X8101048Y-14815714D01*
D12*
X6432000Y-15230000D02*
X6472000Y-15270000D01*
X6472000Y-15230000D02*
X6432000Y-15270000D01*
D11*
X6767714Y-15140476D02*
X6786762Y-15140476D01*
X6805809Y-15150000D01*
X6815333Y-15159524D01*
X6824857Y-15178571D01*
X6834381Y-15216667D01*
X6834381Y-15264286D01*
X6824857Y-15302381D01*
X6815333Y-15321428D01*
X6805809Y-15330952D01*
X6786762Y-15340476D01*
X6767714Y-15340476D01*
X6748667Y-15330952D01*
X6739143Y-15321428D01*
X6729619Y-15302381D01*
X6720095Y-15264286D01*
X6720095Y-15216667D01*
X6729619Y-15178571D01*
X6739143Y-15159524D01*
X6748667Y-15150000D01*
X6767714Y-15140476D01*
X6920095Y-15321428D02*
X6929619Y-15330952D01*
X6920095Y-15340476D01*
X6910571Y-15330952D01*
X6920095Y-15321428D01*
X6920095Y-15340476D01*
X7101048Y-15207143D02*
X7101048Y-15340476D01*
X7053428Y-15130952D02*
X7005809Y-15273809D01*
X7129619Y-15273809D01*
X7243905Y-15140476D02*
X7262952Y-15140476D01*
X7282000Y-15150000D01*
X7291524Y-15159524D01*
X7301048Y-15178571D01*
X7310571Y-15216667D01*
X7310571Y-15264286D01*
X7301048Y-15302381D01*
X7291524Y-15321428D01*
X7282000Y-15330952D01*
X7262952Y-15340476D01*
X7243905Y-15340476D01*
X7224857Y-15330952D01*
X7215333Y-15321428D01*
X7205809Y-15302381D01*
X7196286Y-15264286D01*
X7196286Y-15216667D01*
X7205809Y-15178571D01*
X7215333Y-15159524D01*
X7224857Y-15150000D01*
X7243905Y-15140476D01*
X7434381Y-15140476D02*
X7453428Y-15140476D01*
X7472476Y-15150000D01*
X7482000Y-15159524D01*
X7491524Y-15178571D01*
X7501048Y-15216667D01*
X7501048Y-15264286D01*
X7491524Y-15302381D01*
X7482000Y-15321428D01*
X7472476Y-15330952D01*
X7453428Y-15340476D01*
X7434381Y-15340476D01*
X7415333Y-15330952D01*
X7405809Y-15321428D01*
X7396286Y-15302381D01*
X7386762Y-15264286D01*
X7386762Y-15216667D01*
X7396286Y-15178571D01*
X7405809Y-15159524D01*
X7415333Y-15150000D01*
X7434381Y-15140476D01*
X7586762Y-15340476D02*
X7586762Y-15207143D01*
X7586762Y-15226190D02*
X7596286Y-15216667D01*
X7615333Y-15207143D01*
X7643905Y-15207143D01*
X7662952Y-15216667D01*
X7672476Y-15235714D01*
X7672476Y-15340476D01*
X7672476Y-15235714D02*
X7682000Y-15216667D01*
X7701048Y-15207143D01*
X7729619Y-15207143D01*
X7748667Y-15216667D01*
X7758190Y-15235714D01*
X7758190Y-15340476D01*
X7853428Y-15340476D02*
X7853428Y-15207143D01*
X7853428Y-15226190D02*
X7862952Y-15216667D01*
X7882000Y-15207143D01*
X7910571Y-15207143D01*
X7929619Y-15216667D01*
X7939143Y-15235714D01*
X7939143Y-15340476D01*
X7939143Y-15235714D02*
X7948667Y-15216667D01*
X7967714Y-15207143D01*
X7996286Y-15207143D01*
X8015333Y-15216667D01*
X8024857Y-15235714D01*
X8024857Y-15340476D01*
X8415333Y-15130952D02*
X8243905Y-15388095D01*
X8672476Y-15140476D02*
X8691524Y-15140476D01*
X8710571Y-15150000D01*
X8720095Y-15159524D01*
X8729619Y-15178571D01*
X8739143Y-15216667D01*
X8739143Y-15264286D01*
X8729619Y-15302381D01*
X8720095Y-15321428D01*
X8710571Y-15330952D01*
X8691524Y-15340476D01*
X8672476Y-15340476D01*
X8653429Y-15330952D01*
X8643905Y-15321428D01*
X8634381Y-15302381D01*
X8624857Y-15264286D01*
X8624857Y-15216667D01*
X8634381Y-15178571D01*
X8643905Y-15159524D01*
X8653429Y-15150000D01*
X8672476Y-15140476D01*
X8824857Y-15321428D02*
X8834381Y-15330952D01*
X8824857Y-15340476D01*
X8815333Y-15330952D01*
X8824857Y-15321428D01*
X8824857Y-15340476D01*
X8958190Y-15140476D02*
X8977238Y-15140476D01*
X8996286Y-15150000D01*
X9005810Y-15159524D01*
X9015333Y-15178571D01*
X9024857Y-15216667D01*
X9024857Y-15264286D01*
X9015333Y-15302381D01*
X9005810Y-15321428D01*
X8996286Y-15330952D01*
X8977238Y-15340476D01*
X8958190Y-15340476D01*
X8939143Y-15330952D01*
X8929619Y-15321428D01*
X8920095Y-15302381D01*
X8910571Y-15264286D01*
X8910571Y-15216667D01*
X8920095Y-15178571D01*
X8929619Y-15159524D01*
X8939143Y-15150000D01*
X8958190Y-15140476D01*
X9215333Y-15340476D02*
X9101048Y-15340476D01*
X9158190Y-15340476D02*
X9158190Y-15140476D01*
X9139143Y-15169048D01*
X9120095Y-15188095D01*
X9101048Y-15197619D01*
X9396286Y-15140476D02*
X9301048Y-15140476D01*
X9291524Y-15235714D01*
X9301048Y-15226190D01*
X9320095Y-15216667D01*
X9367714Y-15216667D01*
X9386762Y-15226190D01*
X9396286Y-15235714D01*
X9405810Y-15254762D01*
X9405810Y-15302381D01*
X9396286Y-15321428D01*
X9386762Y-15330952D01*
X9367714Y-15340476D01*
X9320095Y-15340476D01*
X9301048Y-15330952D01*
X9291524Y-15321428D01*
X9472476Y-15140476D02*
X9605810Y-15140476D01*
X9520095Y-15340476D01*
X9672476Y-15140476D02*
X9672476Y-15178571D01*
X9748667Y-15140476D02*
X9748667Y-15178571D01*
X10043905Y-15416667D02*
X10034381Y-15407143D01*
X10015333Y-15378571D01*
X10005810Y-15359524D01*
X9996286Y-15330952D01*
X9986762Y-15283333D01*
X9986762Y-15245238D01*
X9996286Y-15197619D01*
X10005810Y-15169048D01*
X10015333Y-15150000D01*
X10034381Y-15121428D01*
X10043905Y-15111905D01*
X10224857Y-15340476D02*
X10110571Y-15340476D01*
X10167714Y-15340476D02*
X10167714Y-15140476D01*
X10148667Y-15169048D01*
X10129619Y-15188095D01*
X10110571Y-15197619D01*
X10348667Y-15140476D02*
X10367714Y-15140476D01*
X10386762Y-15150000D01*
X10396286Y-15159524D01*
X10405810Y-15178571D01*
X10415333Y-15216667D01*
X10415333Y-15264286D01*
X10405810Y-15302381D01*
X10396286Y-15321428D01*
X10386762Y-15330952D01*
X10367714Y-15340476D01*
X10348667Y-15340476D01*
X10329619Y-15330952D01*
X10320095Y-15321428D01*
X10310571Y-15302381D01*
X10301048Y-15264286D01*
X10301048Y-15216667D01*
X10310571Y-15178571D01*
X10320095Y-15159524D01*
X10329619Y-15150000D01*
X10348667Y-15140476D01*
X10529619Y-15226190D02*
X10510571Y-15216667D01*
X10501048Y-15207143D01*
X10491524Y-15188095D01*
X10491524Y-15178571D01*
X10501048Y-15159524D01*
X10510571Y-15150000D01*
X10529619Y-15140476D01*
X10567714Y-15140476D01*
X10586762Y-15150000D01*
X10596286Y-15159524D01*
X10605810Y-15178571D01*
X10605810Y-15188095D01*
X10596286Y-15207143D01*
X10586762Y-15216667D01*
X10567714Y-15226190D01*
X10529619Y-15226190D01*
X10510571Y-15235714D01*
X10501048Y-15245238D01*
X10491524Y-15264286D01*
X10491524Y-15302381D01*
X10501048Y-15321428D01*
X10510571Y-15330952D01*
X10529619Y-15340476D01*
X10567714Y-15340476D01*
X10586762Y-15330952D01*
X10596286Y-15321428D01*
X10605810Y-15302381D01*
X10605810Y-15264286D01*
X10596286Y-15245238D01*
X10586762Y-15235714D01*
X10567714Y-15226190D01*
X10843905Y-15340476D02*
X10843905Y-15140476D01*
X10929619Y-15340476D02*
X10929619Y-15235714D01*
X10920095Y-15216667D01*
X10901048Y-15207143D01*
X10872476Y-15207143D01*
X10853429Y-15216667D01*
X10843905Y-15226190D01*
X11053429Y-15340476D02*
X11034381Y-15330952D01*
X11024857Y-15321428D01*
X11015333Y-15302381D01*
X11015333Y-15245238D01*
X11024857Y-15226190D01*
X11034381Y-15216667D01*
X11053429Y-15207143D01*
X11082000Y-15207143D01*
X11101048Y-15216667D01*
X11110571Y-15226190D01*
X11120095Y-15245238D01*
X11120095Y-15302381D01*
X11110571Y-15321428D01*
X11101048Y-15330952D01*
X11082000Y-15340476D01*
X11053429Y-15340476D01*
X11234381Y-15340476D02*
X11215333Y-15330952D01*
X11205809Y-15311905D01*
X11205809Y-15140476D01*
X11386762Y-15330952D02*
X11367714Y-15340476D01*
X11329619Y-15340476D01*
X11310571Y-15330952D01*
X11301048Y-15311905D01*
X11301048Y-15235714D01*
X11310571Y-15216667D01*
X11329619Y-15207143D01*
X11367714Y-15207143D01*
X11386762Y-15216667D01*
X11396286Y-15235714D01*
X11396286Y-15254762D01*
X11301048Y-15273809D01*
X11472476Y-15330952D02*
X11491524Y-15340476D01*
X11529619Y-15340476D01*
X11548667Y-15330952D01*
X11558190Y-15311905D01*
X11558190Y-15302381D01*
X11548667Y-15283333D01*
X11529619Y-15273809D01*
X11501048Y-15273809D01*
X11482000Y-15264286D01*
X11472476Y-15245238D01*
X11472476Y-15235714D01*
X11482000Y-15216667D01*
X11501048Y-15207143D01*
X11529619Y-15207143D01*
X11548667Y-15216667D01*
X11624857Y-15416667D02*
X11634381Y-15407143D01*
X11653428Y-15378571D01*
X11662952Y-15359524D01*
X11672476Y-15330952D01*
X11682000Y-15283333D01*
X11682000Y-15245238D01*
X11672476Y-15197619D01*
X11662952Y-15169048D01*
X11653428Y-15150000D01*
X11634381Y-15121428D01*
X11624857Y-15111905D01*
D13*
X6472000Y-15514000D02*
G75*
G03*
X6472000Y-15514000I-50000J0D01*
G01*
D11*
X6834381Y-15604476D02*
X6720095Y-15604476D01*
X6777238Y-15604476D02*
X6777238Y-15404476D01*
X6758190Y-15433048D01*
X6739143Y-15452095D01*
X6720095Y-15461619D01*
X6920095Y-15585428D02*
X6929619Y-15594952D01*
X6920095Y-15604476D01*
X6910571Y-15594952D01*
X6920095Y-15585428D01*
X6920095Y-15604476D01*
X7053428Y-15404476D02*
X7072476Y-15404476D01*
X7091524Y-15414000D01*
X7101048Y-15423524D01*
X7110571Y-15442571D01*
X7120095Y-15480667D01*
X7120095Y-15528286D01*
X7110571Y-15566381D01*
X7101048Y-15585428D01*
X7091524Y-15594952D01*
X7072476Y-15604476D01*
X7053428Y-15604476D01*
X7034381Y-15594952D01*
X7024857Y-15585428D01*
X7015333Y-15566381D01*
X7005809Y-15528286D01*
X7005809Y-15480667D01*
X7015333Y-15442571D01*
X7024857Y-15423524D01*
X7034381Y-15414000D01*
X7053428Y-15404476D01*
X7243905Y-15404476D02*
X7262952Y-15404476D01*
X7282000Y-15414000D01*
X7291524Y-15423524D01*
X7301048Y-15442571D01*
X7310571Y-15480667D01*
X7310571Y-15528286D01*
X7301048Y-15566381D01*
X7291524Y-15585428D01*
X7282000Y-15594952D01*
X7262952Y-15604476D01*
X7243905Y-15604476D01*
X7224857Y-15594952D01*
X7215333Y-15585428D01*
X7205809Y-15566381D01*
X7196286Y-15528286D01*
X7196286Y-15480667D01*
X7205809Y-15442571D01*
X7215333Y-15423524D01*
X7224857Y-15414000D01*
X7243905Y-15404476D01*
X7434381Y-15404476D02*
X7453428Y-15404476D01*
X7472476Y-15414000D01*
X7482000Y-15423524D01*
X7491524Y-15442571D01*
X7501048Y-15480667D01*
X7501048Y-15528286D01*
X7491524Y-15566381D01*
X7482000Y-15585428D01*
X7472476Y-15594952D01*
X7453428Y-15604476D01*
X7434381Y-15604476D01*
X7415333Y-15594952D01*
X7405809Y-15585428D01*
X7396286Y-15566381D01*
X7386762Y-15528286D01*
X7386762Y-15480667D01*
X7396286Y-15442571D01*
X7405809Y-15423524D01*
X7415333Y-15414000D01*
X7434381Y-15404476D01*
X7586762Y-15604476D02*
X7586762Y-15471143D01*
X7586762Y-15490190D02*
X7596286Y-15480667D01*
X7615333Y-15471143D01*
X7643905Y-15471143D01*
X7662952Y-15480667D01*
X7672476Y-15499714D01*
X7672476Y-15604476D01*
X7672476Y-15499714D02*
X7682000Y-15480667D01*
X7701048Y-15471143D01*
X7729619Y-15471143D01*
X7748667Y-15480667D01*
X7758190Y-15499714D01*
X7758190Y-15604476D01*
X7853428Y-15604476D02*
X7853428Y-15471143D01*
X7853428Y-15490190D02*
X7862952Y-15480667D01*
X7882000Y-15471143D01*
X7910571Y-15471143D01*
X7929619Y-15480667D01*
X7939143Y-15499714D01*
X7939143Y-15604476D01*
X7939143Y-15499714D02*
X7948667Y-15480667D01*
X7967714Y-15471143D01*
X7996286Y-15471143D01*
X8015333Y-15480667D01*
X8024857Y-15499714D01*
X8024857Y-15604476D01*
X8415333Y-15394952D02*
X8243905Y-15652095D01*
X8672476Y-15404476D02*
X8691524Y-15404476D01*
X8710571Y-15414000D01*
X8720095Y-15423524D01*
X8729619Y-15442571D01*
X8739143Y-15480667D01*
X8739143Y-15528286D01*
X8729619Y-15566381D01*
X8720095Y-15585428D01*
X8710571Y-15594952D01*
X8691524Y-15604476D01*
X8672476Y-15604476D01*
X8653429Y-15594952D01*
X8643905Y-15585428D01*
X8634381Y-15566381D01*
X8624857Y-15528286D01*
X8624857Y-15480667D01*
X8634381Y-15442571D01*
X8643905Y-15423524D01*
X8653429Y-15414000D01*
X8672476Y-15404476D01*
X8824857Y-15585428D02*
X8834381Y-15594952D01*
X8824857Y-15604476D01*
X8815333Y-15594952D01*
X8824857Y-15585428D01*
X8824857Y-15604476D01*
X8958190Y-15404476D02*
X8977238Y-15404476D01*
X8996286Y-15414000D01*
X9005810Y-15423524D01*
X9015333Y-15442571D01*
X9024857Y-15480667D01*
X9024857Y-15528286D01*
X9015333Y-15566381D01*
X9005810Y-15585428D01*
X8996286Y-15594952D01*
X8977238Y-15604476D01*
X8958190Y-15604476D01*
X8939143Y-15594952D01*
X8929619Y-15585428D01*
X8920095Y-15566381D01*
X8910571Y-15528286D01*
X8910571Y-15480667D01*
X8920095Y-15442571D01*
X8929619Y-15423524D01*
X8939143Y-15414000D01*
X8958190Y-15404476D01*
X9091524Y-15404476D02*
X9215333Y-15404476D01*
X9148667Y-15480667D01*
X9177238Y-15480667D01*
X9196286Y-15490190D01*
X9205810Y-15499714D01*
X9215333Y-15518762D01*
X9215333Y-15566381D01*
X9205810Y-15585428D01*
X9196286Y-15594952D01*
X9177238Y-15604476D01*
X9120095Y-15604476D01*
X9101048Y-15594952D01*
X9091524Y-15585428D01*
X9310571Y-15604476D02*
X9348667Y-15604476D01*
X9367714Y-15594952D01*
X9377238Y-15585428D01*
X9396286Y-15556857D01*
X9405810Y-15518762D01*
X9405810Y-15442571D01*
X9396286Y-15423524D01*
X9386762Y-15414000D01*
X9367714Y-15404476D01*
X9329619Y-15404476D01*
X9310571Y-15414000D01*
X9301048Y-15423524D01*
X9291524Y-15442571D01*
X9291524Y-15490190D01*
X9301048Y-15509238D01*
X9310571Y-15518762D01*
X9329619Y-15528286D01*
X9367714Y-15528286D01*
X9386762Y-15518762D01*
X9396286Y-15509238D01*
X9405810Y-15490190D01*
X9577238Y-15471143D02*
X9577238Y-15604476D01*
X9529619Y-15394952D02*
X9482000Y-15537809D01*
X9605810Y-15537809D01*
X9672476Y-15404476D02*
X9672476Y-15442571D01*
X9748667Y-15404476D02*
X9748667Y-15442571D01*
X10043905Y-15680667D02*
X10034381Y-15671143D01*
X10015333Y-15642571D01*
X10005810Y-15623524D01*
X9996286Y-15594952D01*
X9986762Y-15547333D01*
X9986762Y-15509238D01*
X9996286Y-15461619D01*
X10005810Y-15433048D01*
X10015333Y-15414000D01*
X10034381Y-15385428D01*
X10043905Y-15375905D01*
X10205810Y-15471143D02*
X10205810Y-15604476D01*
X10158190Y-15394952D02*
X10110571Y-15537809D01*
X10234381Y-15537809D01*
X10301048Y-15423524D02*
X10310571Y-15414000D01*
X10329619Y-15404476D01*
X10377238Y-15404476D01*
X10396286Y-15414000D01*
X10405810Y-15423524D01*
X10415333Y-15442571D01*
X10415333Y-15461619D01*
X10405810Y-15490190D01*
X10291524Y-15604476D01*
X10415333Y-15604476D01*
X10653429Y-15604476D02*
X10653429Y-15404476D01*
X10739143Y-15604476D02*
X10739143Y-15499714D01*
X10729619Y-15480667D01*
X10710571Y-15471143D01*
X10682000Y-15471143D01*
X10662952Y-15480667D01*
X10653429Y-15490190D01*
X10862952Y-15604476D02*
X10843905Y-15594952D01*
X10834381Y-15585428D01*
X10824857Y-15566381D01*
X10824857Y-15509238D01*
X10834381Y-15490190D01*
X10843905Y-15480667D01*
X10862952Y-15471143D01*
X10891524Y-15471143D01*
X10910571Y-15480667D01*
X10920095Y-15490190D01*
X10929619Y-15509238D01*
X10929619Y-15566381D01*
X10920095Y-15585428D01*
X10910571Y-15594952D01*
X10891524Y-15604476D01*
X10862952Y-15604476D01*
X11043905Y-15604476D02*
X11024857Y-15594952D01*
X11015333Y-15575905D01*
X11015333Y-15404476D01*
X11196286Y-15594952D02*
X11177238Y-15604476D01*
X11139143Y-15604476D01*
X11120095Y-15594952D01*
X11110571Y-15575905D01*
X11110571Y-15499714D01*
X11120095Y-15480667D01*
X11139143Y-15471143D01*
X11177238Y-15471143D01*
X11196286Y-15480667D01*
X11205809Y-15499714D01*
X11205809Y-15518762D01*
X11110571Y-15537809D01*
X11282000Y-15594952D02*
X11301048Y-15604476D01*
X11339143Y-15604476D01*
X11358190Y-15594952D01*
X11367714Y-15575905D01*
X11367714Y-15566381D01*
X11358190Y-15547333D01*
X11339143Y-15537809D01*
X11310571Y-15537809D01*
X11291524Y-15528286D01*
X11282000Y-15509238D01*
X11282000Y-15499714D01*
X11291524Y-15480667D01*
X11310571Y-15471143D01*
X11339143Y-15471143D01*
X11358190Y-15480667D01*
X11434381Y-15680667D02*
X11443905Y-15671143D01*
X11462952Y-15642571D01*
X11472476Y-15623524D01*
X11482000Y-15594952D01*
X11491524Y-15547333D01*
X11491524Y-15509238D01*
X11482000Y-15461619D01*
X11472476Y-15433048D01*
X11462952Y-15414000D01*
X11443905Y-15385428D01*
X11434381Y-15375905D01*
M02*
