M48
; DRILL file {KiCad (6.0.0-0)} date 2022 April 20, Wednesday 00:32:00
; FORMAT={-:-/ absolute / metric / decimal}
; #@! TF.CreationDate,2022-04-20T00:32:00+02:00
; #@! TF.GenerationSoftware,Kicad,Pcbnew,(6.0.0-0)
; #@! TF.FileFunction,Plated,1,4,PTH
FMAT,2
METRIC
; #@! TA.AperFunction,Plated,PTH,ViaDrill
T1C0.400
; #@! TA.AperFunction,Plated,PTH,ComponentDrill
T2C1.000
%
G90
G05
T1
X67.25Y-118.25
X67.4Y-113.3
X67.4Y-135.7
X67.75Y-133.25
X68.246Y-127.979
X68.25Y-122.75
X68.5Y-125.75
X68.75Y-121.0
X69.0Y-118.75
X69.0Y-142.0
X69.4Y-138.0
X69.4Y-139.0
X69.4Y-140.0
X69.5Y-131.25
X69.6Y-115.4
X70.32Y-143.437
X70.47Y-129.614
X70.5Y-135.5
X70.6Y-137.0
X70.6Y-138.0
X70.6Y-139.0
X70.6Y-140.0
X71.0Y-123.25
X71.6Y-132.8
X71.75Y-121.5
X72.0Y-126.5
X72.036Y-118.707
X73.549Y-135.312
X73.601Y-143.453
X73.626Y-121.931
X73.75Y-131.25
X74.0Y-124.0
X74.0Y-126.25
X74.4Y-119.4
X74.678Y-123.005
X74.884Y-117.675
X74.9Y-114.4
X75.306Y-120.939
X75.311Y-136.652
X75.486Y-123.813
X75.811Y-139.185
X76.025Y-120.221
X76.038Y-129.629
X77.24Y-125.278
X77.282Y-123.454
X77.3Y-135.0
X77.5Y-114.5
X77.6Y-117.0
X77.699Y-140.818
X78.0Y-136.3
X78.018Y-119.658
X78.2Y-133.2
X78.795Y-120.435
X78.8Y-122.058
X79.5Y-116.3
X80.0Y-114.4
X80.1Y-126.1
X81.25Y-132.342
X81.5Y-124.75
X81.5Y-127.25
X82.002Y-133.76
X82.43Y-140.396
X82.8Y-123.4
X82.8Y-126.1
X82.8Y-128.8
X82.953Y-139.126
X83.0Y-113.9
X83.439Y-137.758
X84.25Y-124.75
X84.25Y-127.25
X85.5Y-126.1
X86.202Y-130.207
X86.229Y-121.838
X86.246Y-141.749
X86.254Y-143.206
X86.95Y-129.518
X87.689Y-122.303
X87.749Y-130.104
X88.454Y-141.789
X89.7Y-116.3
X90.449Y-125.045
X90.671Y-115.845
X90.7Y-113.5
X90.735Y-127.98
X90.87Y-132.87
X91.123Y-140.851
X91.9Y-142.2
X91.999Y-125.229
X92.5Y-134.75
X92.671Y-122.953
X92.993Y-127.906
X93.0Y-113.7
X93.36Y-125.222
X93.5Y-137.75
X93.781Y-115.939
X94.4Y-126.6
X95.144Y-129.446
X95.268Y-136.235
X95.55Y-131.821
X96.513Y-129.161
X96.9Y-141.1
X97.3Y-123.2
X97.5Y-115.6
X97.5Y-117.8
X97.6Y-113.0
X97.67Y-133.19
X97.75Y-120.5
X97.9Y-145.3
T2
X66.04Y-114.3
X66.04Y-116.84
X66.04Y-119.38
X66.04Y-121.92
X66.04Y-124.46
X66.04Y-127.0
X66.04Y-129.54
X66.04Y-132.08
X66.04Y-134.62
X66.04Y-137.16
X66.04Y-139.7
X66.04Y-142.24
X68.58Y-111.76
X71.12Y-111.76
X73.66Y-111.76
X76.2Y-111.76
X78.74Y-111.76
X81.28Y-111.76
X83.82Y-111.76
X85.799Y-134.172
X85.799Y-136.712
X85.799Y-139.252
X86.36Y-111.76
X88.339Y-134.172
X88.339Y-136.712
X88.339Y-139.252
X88.9Y-111.76
X91.44Y-111.76
X93.98Y-111.76
X96.52Y-111.76
X99.06Y-114.3
X99.06Y-116.84
X99.06Y-119.38
X99.06Y-121.92
X99.06Y-124.46
X99.06Y-127.0
X99.06Y-129.54
X99.06Y-132.08
X99.06Y-134.62
X99.06Y-137.16
X99.06Y-139.7
X99.06Y-142.24
T0
M30
