%TF.GenerationSoftware,KiCad,Pcbnew,(6.0.0-0)*%
%TF.CreationDate,2022-04-20T00:31:43+02:00*%
%TF.ProjectId,STM32G4_PCB,53544d33-3247-4345-9f50-43422e6b6963,rev?*%
%TF.SameCoordinates,Original*%
%TF.FileFunction,Copper,L2,Inr*%
%TF.FilePolarity,Positive*%
%FSLAX46Y46*%
G04 Gerber Fmt 4.6, Leading zero omitted, Abs format (unit mm)*
G04 Created by KiCad (PCBNEW (6.0.0-0)) date 2022-04-20 00:31:43*
%MOMM*%
%LPD*%
G01*
G04 APERTURE LIST*
%TA.AperFunction,ComponentPad*%
%ADD10O,1.700000X1.700000*%
%TD*%
%TA.AperFunction,ComponentPad*%
%ADD11R,1.700000X1.700000*%
%TD*%
%TA.AperFunction,ViaPad*%
%ADD12C,0.800000*%
%TD*%
G04 APERTURE END LIST*
D10*
X99060000Y-114300000D03*
X99060000Y-116840000D03*
X99060000Y-119380000D03*
X99060000Y-121920000D03*
X99060000Y-124460000D03*
X99060000Y-127000000D03*
X99060000Y-129540000D03*
X99060000Y-132080000D03*
X99060000Y-134620000D03*
X99060000Y-137160000D03*
X99060000Y-139700000D03*
D11*
X99060000Y-142240000D03*
D10*
X66040000Y-114300000D03*
X66040000Y-116840000D03*
X66040000Y-119380000D03*
X66040000Y-121920000D03*
X66040000Y-124460000D03*
X66040000Y-127000000D03*
X66040000Y-129540000D03*
X66040000Y-132080000D03*
X66040000Y-134620000D03*
X66040000Y-137160000D03*
X66040000Y-139700000D03*
D11*
X66040000Y-142240000D03*
X68580000Y-111760000D03*
D10*
X71120000Y-111760000D03*
X73660000Y-111760000D03*
X76200000Y-111760000D03*
X78740000Y-111760000D03*
X81280000Y-111760000D03*
X83820000Y-111760000D03*
X86360000Y-111760000D03*
X88900000Y-111760000D03*
X91440000Y-111760000D03*
X93980000Y-111760000D03*
X96520000Y-111760000D03*
X85799000Y-139252000D03*
X88339000Y-139252000D03*
X85799000Y-136712000D03*
X88339000Y-136712000D03*
X85799000Y-134172000D03*
D11*
X88339000Y-134172000D03*
D12*
X93360000Y-125222000D03*
X68246000Y-127979000D03*
X70470000Y-129614000D03*
X76038000Y-129629000D03*
X69000000Y-142000000D03*
X70500000Y-135500000D03*
X93500000Y-137750000D03*
X92500000Y-134750000D03*
X90449000Y-125045000D03*
X81500000Y-127250000D03*
X84250000Y-127250000D03*
X84250000Y-124750000D03*
X81500000Y-124750000D03*
X70600000Y-138000000D03*
X70600000Y-140000000D03*
X69400000Y-140000000D03*
X69400000Y-139000000D03*
X90671000Y-115845000D03*
X74884000Y-117675000D03*
X82953000Y-139126000D03*
X82430000Y-140396000D03*
X82800000Y-123400000D03*
X80100000Y-126100000D03*
X82800000Y-128800000D03*
X85500000Y-126100000D03*
X89700000Y-116300000D03*
X96900000Y-141100000D03*
X91900000Y-142200000D03*
X94400000Y-126600000D03*
X97300000Y-123200000D03*
X97500000Y-117800000D03*
X97500000Y-115600000D03*
X97600000Y-113000000D03*
X90700000Y-113500000D03*
X93000000Y-113700000D03*
X83000000Y-113900000D03*
X80000000Y-114400000D03*
X74900000Y-114400000D03*
X77500000Y-114500000D03*
X79500000Y-116300000D03*
X77600000Y-117000000D03*
X67400000Y-113300000D03*
X69600000Y-115400000D03*
X72036000Y-118707000D03*
X74400000Y-119400000D03*
X95268000Y-136235000D03*
X78000000Y-136300000D03*
X77300000Y-135000000D03*
X78200000Y-133200000D03*
X86950000Y-129518317D03*
X90870000Y-132870000D03*
X97670000Y-133190000D03*
X86229000Y-121838000D03*
X97750000Y-120500000D03*
X71000000Y-123250000D03*
X68250000Y-122750000D03*
X97900000Y-145300000D03*
X86254000Y-143206000D03*
X86246000Y-141749000D03*
X82002000Y-133760000D03*
X88454000Y-141789000D03*
X91123000Y-140851000D03*
X96513000Y-129161000D03*
X95144000Y-129446000D03*
X87749000Y-130104000D03*
X93781000Y-115939000D03*
X92671000Y-122953000D03*
X92993358Y-127906358D03*
X90735000Y-127980000D03*
X91999000Y-125229000D03*
X86202000Y-130207000D03*
X95550000Y-131821000D03*
X87689000Y-122303000D03*
X82800000Y-126100000D03*
X78800000Y-122058000D03*
X67400000Y-135700000D03*
X71600000Y-132800000D03*
X67750000Y-133250000D03*
X69500000Y-131250000D03*
X73750000Y-131250000D03*
X68500000Y-125750000D03*
X72000000Y-126500000D03*
X67250000Y-118250000D03*
X68750000Y-121000000D03*
X74000000Y-126250000D03*
X71750000Y-121500000D03*
X74000000Y-124000000D03*
X69000000Y-118750000D03*
X73626000Y-121931000D03*
X81250000Y-132342000D03*
X77239618Y-125278061D03*
X73549000Y-135312000D03*
X70320000Y-143437000D03*
X73601000Y-143453000D03*
X75811000Y-139185000D03*
X83439000Y-137758000D03*
X70600000Y-139000000D03*
X69400000Y-138000000D03*
X70600000Y-137000000D03*
X75311000Y-136652000D03*
X77698600Y-140817600D03*
X78795000Y-120435000D03*
X78018000Y-119658000D03*
X75485993Y-123812936D03*
X74677770Y-123004713D03*
X75306388Y-120939254D03*
X76024808Y-120220833D03*
X77282044Y-123453725D03*
%TA.AperFunction,Conductor*%
G36*
X67423524Y-110760002D02*
G01*
X67470017Y-110813658D01*
X67480797Y-110878347D01*
X67480708Y-110879255D01*
X67479500Y-110885326D01*
X67479500Y-112634674D01*
X67494034Y-112707740D01*
X67549399Y-112790601D01*
X67632260Y-112845966D01*
X67705326Y-112860500D01*
X69454674Y-112860500D01*
X69527740Y-112845966D01*
X69610601Y-112790601D01*
X69665966Y-112707740D01*
X69680500Y-112634674D01*
X69680500Y-110885326D01*
X69679292Y-110879255D01*
X69679203Y-110878347D01*
X69692434Y-110808594D01*
X69741275Y-110757067D01*
X69804597Y-110740000D01*
X70279115Y-110740000D01*
X70347236Y-110760002D01*
X70393729Y-110813658D01*
X70403833Y-110883932D01*
X70374339Y-110948512D01*
X70362198Y-110960727D01*
X70318305Y-110999220D01*
X70193089Y-111158057D01*
X70098914Y-111337053D01*
X70038937Y-111530213D01*
X70015164Y-111731069D01*
X70028392Y-111932894D01*
X70078178Y-112128928D01*
X70162856Y-112312607D01*
X70279588Y-112477780D01*
X70424466Y-112618913D01*
X70592637Y-112731282D01*
X70597940Y-112733560D01*
X70597943Y-112733562D01*
X70773163Y-112808842D01*
X70778470Y-112811122D01*
X70975740Y-112855760D01*
X70981509Y-112855987D01*
X70981512Y-112855987D01*
X71057683Y-112858979D01*
X71177842Y-112863700D01*
X71264132Y-112851189D01*
X71372286Y-112835508D01*
X71372291Y-112835507D01*
X71378007Y-112834678D01*
X71383479Y-112832820D01*
X71383481Y-112832820D01*
X71564067Y-112771519D01*
X71564069Y-112771518D01*
X71569531Y-112769664D01*
X71746001Y-112670837D01*
X71808433Y-112618913D01*
X71897073Y-112545191D01*
X71901505Y-112541505D01*
X72030837Y-112386001D01*
X72129664Y-112209531D01*
X72194678Y-112018007D01*
X72195507Y-112012291D01*
X72195508Y-112012286D01*
X72223167Y-111821516D01*
X72223700Y-111817842D01*
X72225215Y-111760000D01*
X72206708Y-111558591D01*
X72151807Y-111363926D01*
X72062351Y-111182527D01*
X72044079Y-111158057D01*
X71944788Y-111025091D01*
X71944787Y-111025090D01*
X71941335Y-111020467D01*
X71874326Y-110958524D01*
X71837881Y-110897597D01*
X71840161Y-110826637D01*
X71880444Y-110768174D01*
X71945939Y-110740771D01*
X71959855Y-110740000D01*
X72819115Y-110740000D01*
X72887236Y-110760002D01*
X72933729Y-110813658D01*
X72943833Y-110883932D01*
X72914339Y-110948512D01*
X72902198Y-110960727D01*
X72858305Y-110999220D01*
X72733089Y-111158057D01*
X72638914Y-111337053D01*
X72578937Y-111530213D01*
X72555164Y-111731069D01*
X72568392Y-111932894D01*
X72618178Y-112128928D01*
X72702856Y-112312607D01*
X72819588Y-112477780D01*
X72964466Y-112618913D01*
X73132637Y-112731282D01*
X73137940Y-112733560D01*
X73137943Y-112733562D01*
X73313163Y-112808842D01*
X73318470Y-112811122D01*
X73515740Y-112855760D01*
X73521509Y-112855987D01*
X73521512Y-112855987D01*
X73597683Y-112858979D01*
X73717842Y-112863700D01*
X73804132Y-112851189D01*
X73912286Y-112835508D01*
X73912291Y-112835507D01*
X73918007Y-112834678D01*
X73923479Y-112832820D01*
X73923481Y-112832820D01*
X74104067Y-112771519D01*
X74104069Y-112771518D01*
X74109531Y-112769664D01*
X74286001Y-112670837D01*
X74348433Y-112618913D01*
X74437073Y-112545191D01*
X74441505Y-112541505D01*
X74570837Y-112386001D01*
X74669664Y-112209531D01*
X74734678Y-112018007D01*
X74735507Y-112012291D01*
X74735508Y-112012286D01*
X74763167Y-111821516D01*
X74763700Y-111817842D01*
X74765215Y-111760000D01*
X74746708Y-111558591D01*
X74691807Y-111363926D01*
X74602351Y-111182527D01*
X74584079Y-111158057D01*
X74484788Y-111025091D01*
X74484787Y-111025090D01*
X74481335Y-111020467D01*
X74414326Y-110958524D01*
X74377881Y-110897597D01*
X74380161Y-110826637D01*
X74420444Y-110768174D01*
X74485939Y-110740771D01*
X74499855Y-110740000D01*
X75359115Y-110740000D01*
X75427236Y-110760002D01*
X75473729Y-110813658D01*
X75483833Y-110883932D01*
X75454339Y-110948512D01*
X75442198Y-110960727D01*
X75398305Y-110999220D01*
X75273089Y-111158057D01*
X75178914Y-111337053D01*
X75118937Y-111530213D01*
X75095164Y-111731069D01*
X75108392Y-111932894D01*
X75158178Y-112128928D01*
X75242856Y-112312607D01*
X75359588Y-112477780D01*
X75504466Y-112618913D01*
X75672637Y-112731282D01*
X75677940Y-112733560D01*
X75677943Y-112733562D01*
X75853163Y-112808842D01*
X75858470Y-112811122D01*
X76055740Y-112855760D01*
X76061509Y-112855987D01*
X76061512Y-112855987D01*
X76137683Y-112858979D01*
X76257842Y-112863700D01*
X76344132Y-112851189D01*
X76452286Y-112835508D01*
X76452291Y-112835507D01*
X76458007Y-112834678D01*
X76463479Y-112832820D01*
X76463481Y-112832820D01*
X76644067Y-112771519D01*
X76644069Y-112771518D01*
X76649531Y-112769664D01*
X76826001Y-112670837D01*
X76888433Y-112618913D01*
X76977073Y-112545191D01*
X76981505Y-112541505D01*
X77110837Y-112386001D01*
X77209664Y-112209531D01*
X77274678Y-112018007D01*
X77275507Y-112012291D01*
X77275508Y-112012286D01*
X77303167Y-111821516D01*
X77303700Y-111817842D01*
X77305215Y-111760000D01*
X77286708Y-111558591D01*
X77231807Y-111363926D01*
X77142351Y-111182527D01*
X77124079Y-111158057D01*
X77024788Y-111025091D01*
X77024787Y-111025090D01*
X77021335Y-111020467D01*
X76954326Y-110958524D01*
X76917881Y-110897597D01*
X76920161Y-110826637D01*
X76960444Y-110768174D01*
X77025939Y-110740771D01*
X77039855Y-110740000D01*
X77899115Y-110740000D01*
X77967236Y-110760002D01*
X78013729Y-110813658D01*
X78023833Y-110883932D01*
X77994339Y-110948512D01*
X77982198Y-110960727D01*
X77938305Y-110999220D01*
X77813089Y-111158057D01*
X77718914Y-111337053D01*
X77658937Y-111530213D01*
X77635164Y-111731069D01*
X77648392Y-111932894D01*
X77698178Y-112128928D01*
X77782856Y-112312607D01*
X77899588Y-112477780D01*
X78044466Y-112618913D01*
X78212637Y-112731282D01*
X78217940Y-112733560D01*
X78217943Y-112733562D01*
X78393163Y-112808842D01*
X78398470Y-112811122D01*
X78595740Y-112855760D01*
X78601509Y-112855987D01*
X78601512Y-112855987D01*
X78677683Y-112858979D01*
X78797842Y-112863700D01*
X78884132Y-112851189D01*
X78992286Y-112835508D01*
X78992291Y-112835507D01*
X78998007Y-112834678D01*
X79003479Y-112832820D01*
X79003481Y-112832820D01*
X79184067Y-112771519D01*
X79184069Y-112771518D01*
X79189531Y-112769664D01*
X79366001Y-112670837D01*
X79428433Y-112618913D01*
X79517073Y-112545191D01*
X79521505Y-112541505D01*
X79650837Y-112386001D01*
X79749664Y-112209531D01*
X79814678Y-112018007D01*
X79815507Y-112012291D01*
X79815508Y-112012286D01*
X79843167Y-111821516D01*
X79843700Y-111817842D01*
X79845215Y-111760000D01*
X79826708Y-111558591D01*
X79771807Y-111363926D01*
X79682351Y-111182527D01*
X79664079Y-111158057D01*
X79564788Y-111025091D01*
X79564787Y-111025090D01*
X79561335Y-111020467D01*
X79494326Y-110958524D01*
X79457881Y-110897597D01*
X79460161Y-110826637D01*
X79500444Y-110768174D01*
X79565939Y-110740771D01*
X79579855Y-110740000D01*
X80439115Y-110740000D01*
X80507236Y-110760002D01*
X80553729Y-110813658D01*
X80563833Y-110883932D01*
X80534339Y-110948512D01*
X80522198Y-110960727D01*
X80478305Y-110999220D01*
X80353089Y-111158057D01*
X80258914Y-111337053D01*
X80198937Y-111530213D01*
X80175164Y-111731069D01*
X80188392Y-111932894D01*
X80238178Y-112128928D01*
X80322856Y-112312607D01*
X80439588Y-112477780D01*
X80584466Y-112618913D01*
X80752637Y-112731282D01*
X80757940Y-112733560D01*
X80757943Y-112733562D01*
X80933163Y-112808842D01*
X80938470Y-112811122D01*
X81135740Y-112855760D01*
X81141509Y-112855987D01*
X81141512Y-112855987D01*
X81217683Y-112858979D01*
X81337842Y-112863700D01*
X81424132Y-112851189D01*
X81532286Y-112835508D01*
X81532291Y-112835507D01*
X81538007Y-112834678D01*
X81543479Y-112832820D01*
X81543481Y-112832820D01*
X81724067Y-112771519D01*
X81724069Y-112771518D01*
X81729531Y-112769664D01*
X81906001Y-112670837D01*
X81968433Y-112618913D01*
X82057073Y-112545191D01*
X82061505Y-112541505D01*
X82190837Y-112386001D01*
X82289664Y-112209531D01*
X82354678Y-112018007D01*
X82355507Y-112012291D01*
X82355508Y-112012286D01*
X82383167Y-111821516D01*
X82383700Y-111817842D01*
X82385215Y-111760000D01*
X82366708Y-111558591D01*
X82311807Y-111363926D01*
X82222351Y-111182527D01*
X82204079Y-111158057D01*
X82104788Y-111025091D01*
X82104787Y-111025090D01*
X82101335Y-111020467D01*
X82034326Y-110958524D01*
X81997881Y-110897597D01*
X82000161Y-110826637D01*
X82040444Y-110768174D01*
X82105939Y-110740771D01*
X82119855Y-110740000D01*
X82979115Y-110740000D01*
X83047236Y-110760002D01*
X83093729Y-110813658D01*
X83103833Y-110883932D01*
X83074339Y-110948512D01*
X83062198Y-110960727D01*
X83018305Y-110999220D01*
X82893089Y-111158057D01*
X82798914Y-111337053D01*
X82738937Y-111530213D01*
X82715164Y-111731069D01*
X82728392Y-111932894D01*
X82778178Y-112128928D01*
X82862856Y-112312607D01*
X82979588Y-112477780D01*
X83124466Y-112618913D01*
X83292637Y-112731282D01*
X83297940Y-112733560D01*
X83297943Y-112733562D01*
X83473163Y-112808842D01*
X83478470Y-112811122D01*
X83675740Y-112855760D01*
X83681509Y-112855987D01*
X83681512Y-112855987D01*
X83757683Y-112858979D01*
X83877842Y-112863700D01*
X83964132Y-112851189D01*
X84072286Y-112835508D01*
X84072291Y-112835507D01*
X84078007Y-112834678D01*
X84083479Y-112832820D01*
X84083481Y-112832820D01*
X84264067Y-112771519D01*
X84264069Y-112771518D01*
X84269531Y-112769664D01*
X84446001Y-112670837D01*
X84508433Y-112618913D01*
X84597073Y-112545191D01*
X84601505Y-112541505D01*
X84730837Y-112386001D01*
X84829664Y-112209531D01*
X84894678Y-112018007D01*
X84895507Y-112012291D01*
X84895508Y-112012286D01*
X84923167Y-111821516D01*
X84923700Y-111817842D01*
X84925215Y-111760000D01*
X84906708Y-111558591D01*
X84851807Y-111363926D01*
X84762351Y-111182527D01*
X84744079Y-111158057D01*
X84644788Y-111025091D01*
X84644787Y-111025090D01*
X84641335Y-111020467D01*
X84574326Y-110958524D01*
X84537881Y-110897597D01*
X84540161Y-110826637D01*
X84580444Y-110768174D01*
X84645939Y-110740771D01*
X84659855Y-110740000D01*
X85519115Y-110740000D01*
X85587236Y-110760002D01*
X85633729Y-110813658D01*
X85643833Y-110883932D01*
X85614339Y-110948512D01*
X85602198Y-110960727D01*
X85558305Y-110999220D01*
X85433089Y-111158057D01*
X85338914Y-111337053D01*
X85278937Y-111530213D01*
X85255164Y-111731069D01*
X85268392Y-111932894D01*
X85318178Y-112128928D01*
X85402856Y-112312607D01*
X85519588Y-112477780D01*
X85664466Y-112618913D01*
X85832637Y-112731282D01*
X85837940Y-112733560D01*
X85837943Y-112733562D01*
X86013163Y-112808842D01*
X86018470Y-112811122D01*
X86215740Y-112855760D01*
X86221509Y-112855987D01*
X86221512Y-112855987D01*
X86297683Y-112858979D01*
X86417842Y-112863700D01*
X86504132Y-112851189D01*
X86612286Y-112835508D01*
X86612291Y-112835507D01*
X86618007Y-112834678D01*
X86623479Y-112832820D01*
X86623481Y-112832820D01*
X86804067Y-112771519D01*
X86804069Y-112771518D01*
X86809531Y-112769664D01*
X86986001Y-112670837D01*
X87048433Y-112618913D01*
X87137073Y-112545191D01*
X87141505Y-112541505D01*
X87270837Y-112386001D01*
X87369664Y-112209531D01*
X87434678Y-112018007D01*
X87435507Y-112012291D01*
X87435508Y-112012286D01*
X87463167Y-111821516D01*
X87463700Y-111817842D01*
X87465215Y-111760000D01*
X87446708Y-111558591D01*
X87391807Y-111363926D01*
X87302351Y-111182527D01*
X87284079Y-111158057D01*
X87184788Y-111025091D01*
X87184787Y-111025090D01*
X87181335Y-111020467D01*
X87114326Y-110958524D01*
X87077881Y-110897597D01*
X87080161Y-110826637D01*
X87120444Y-110768174D01*
X87185939Y-110740771D01*
X87199855Y-110740000D01*
X88059115Y-110740000D01*
X88127236Y-110760002D01*
X88173729Y-110813658D01*
X88183833Y-110883932D01*
X88154339Y-110948512D01*
X88142198Y-110960727D01*
X88098305Y-110999220D01*
X87973089Y-111158057D01*
X87878914Y-111337053D01*
X87818937Y-111530213D01*
X87795164Y-111731069D01*
X87808392Y-111932894D01*
X87858178Y-112128928D01*
X87942856Y-112312607D01*
X88059588Y-112477780D01*
X88204466Y-112618913D01*
X88372637Y-112731282D01*
X88377940Y-112733560D01*
X88377943Y-112733562D01*
X88553163Y-112808842D01*
X88558470Y-112811122D01*
X88755740Y-112855760D01*
X88761509Y-112855987D01*
X88761512Y-112855987D01*
X88837683Y-112858979D01*
X88957842Y-112863700D01*
X89044132Y-112851189D01*
X89152286Y-112835508D01*
X89152291Y-112835507D01*
X89158007Y-112834678D01*
X89163479Y-112832820D01*
X89163481Y-112832820D01*
X89344067Y-112771519D01*
X89344069Y-112771518D01*
X89349531Y-112769664D01*
X89526001Y-112670837D01*
X89588433Y-112618913D01*
X89677073Y-112545191D01*
X89681505Y-112541505D01*
X89810837Y-112386001D01*
X89909664Y-112209531D01*
X89974678Y-112018007D01*
X89975507Y-112012291D01*
X89975508Y-112012286D01*
X90003167Y-111821516D01*
X90003700Y-111817842D01*
X90005215Y-111760000D01*
X89986708Y-111558591D01*
X89931807Y-111363926D01*
X89842351Y-111182527D01*
X89824079Y-111158057D01*
X89724788Y-111025091D01*
X89724787Y-111025090D01*
X89721335Y-111020467D01*
X89654326Y-110958524D01*
X89617881Y-110897597D01*
X89620161Y-110826637D01*
X89660444Y-110768174D01*
X89725939Y-110740771D01*
X89739855Y-110740000D01*
X90599115Y-110740000D01*
X90667236Y-110760002D01*
X90713729Y-110813658D01*
X90723833Y-110883932D01*
X90694339Y-110948512D01*
X90682198Y-110960727D01*
X90638305Y-110999220D01*
X90513089Y-111158057D01*
X90418914Y-111337053D01*
X90358937Y-111530213D01*
X90335164Y-111731069D01*
X90348392Y-111932894D01*
X90398178Y-112128928D01*
X90482856Y-112312607D01*
X90599588Y-112477780D01*
X90744466Y-112618913D01*
X90912637Y-112731282D01*
X90917940Y-112733560D01*
X90917943Y-112733562D01*
X91093163Y-112808842D01*
X91098470Y-112811122D01*
X91295740Y-112855760D01*
X91301509Y-112855987D01*
X91301512Y-112855987D01*
X91377683Y-112858979D01*
X91497842Y-112863700D01*
X91584132Y-112851189D01*
X91692286Y-112835508D01*
X91692291Y-112835507D01*
X91698007Y-112834678D01*
X91703479Y-112832820D01*
X91703481Y-112832820D01*
X91884067Y-112771519D01*
X91884069Y-112771518D01*
X91889531Y-112769664D01*
X92066001Y-112670837D01*
X92128433Y-112618913D01*
X92217073Y-112545191D01*
X92221505Y-112541505D01*
X92350837Y-112386001D01*
X92449664Y-112209531D01*
X92514678Y-112018007D01*
X92515507Y-112012291D01*
X92515508Y-112012286D01*
X92543167Y-111821516D01*
X92543700Y-111817842D01*
X92545215Y-111760000D01*
X92526708Y-111558591D01*
X92471807Y-111363926D01*
X92382351Y-111182527D01*
X92364079Y-111158057D01*
X92264788Y-111025091D01*
X92264787Y-111025090D01*
X92261335Y-111020467D01*
X92194326Y-110958524D01*
X92157881Y-110897597D01*
X92160161Y-110826637D01*
X92200444Y-110768174D01*
X92265939Y-110740771D01*
X92279855Y-110740000D01*
X93139115Y-110740000D01*
X93207236Y-110760002D01*
X93253729Y-110813658D01*
X93263833Y-110883932D01*
X93234339Y-110948512D01*
X93222198Y-110960727D01*
X93178305Y-110999220D01*
X93053089Y-111158057D01*
X92958914Y-111337053D01*
X92898937Y-111530213D01*
X92875164Y-111731069D01*
X92888392Y-111932894D01*
X92938178Y-112128928D01*
X93022856Y-112312607D01*
X93139588Y-112477780D01*
X93284466Y-112618913D01*
X93452637Y-112731282D01*
X93457940Y-112733560D01*
X93457943Y-112733562D01*
X93633163Y-112808842D01*
X93638470Y-112811122D01*
X93835740Y-112855760D01*
X93841509Y-112855987D01*
X93841512Y-112855987D01*
X93917683Y-112858979D01*
X94037842Y-112863700D01*
X94124132Y-112851189D01*
X94232286Y-112835508D01*
X94232291Y-112835507D01*
X94238007Y-112834678D01*
X94243479Y-112832820D01*
X94243481Y-112832820D01*
X94424067Y-112771519D01*
X94424069Y-112771518D01*
X94429531Y-112769664D01*
X94606001Y-112670837D01*
X94668433Y-112618913D01*
X94757073Y-112545191D01*
X94761505Y-112541505D01*
X94890837Y-112386001D01*
X94989664Y-112209531D01*
X95054678Y-112018007D01*
X95055507Y-112012291D01*
X95055508Y-112012286D01*
X95083167Y-111821516D01*
X95083700Y-111817842D01*
X95085215Y-111760000D01*
X95066708Y-111558591D01*
X95011807Y-111363926D01*
X94922351Y-111182527D01*
X94904079Y-111158057D01*
X94804788Y-111025091D01*
X94804787Y-111025090D01*
X94801335Y-111020467D01*
X94734326Y-110958524D01*
X94697881Y-110897597D01*
X94700161Y-110826637D01*
X94740444Y-110768174D01*
X94805939Y-110740771D01*
X94819855Y-110740000D01*
X95679115Y-110740000D01*
X95747236Y-110760002D01*
X95793729Y-110813658D01*
X95803833Y-110883932D01*
X95774339Y-110948512D01*
X95762198Y-110960727D01*
X95718305Y-110999220D01*
X95593089Y-111158057D01*
X95498914Y-111337053D01*
X95438937Y-111530213D01*
X95415164Y-111731069D01*
X95428392Y-111932894D01*
X95478178Y-112128928D01*
X95562856Y-112312607D01*
X95679588Y-112477780D01*
X95824466Y-112618913D01*
X95992637Y-112731282D01*
X95997940Y-112733560D01*
X95997943Y-112733562D01*
X96173163Y-112808842D01*
X96178470Y-112811122D01*
X96375740Y-112855760D01*
X96381509Y-112855987D01*
X96381512Y-112855987D01*
X96457683Y-112858979D01*
X96577842Y-112863700D01*
X96664132Y-112851189D01*
X96772286Y-112835508D01*
X96772291Y-112835507D01*
X96778007Y-112834678D01*
X96783479Y-112832820D01*
X96783481Y-112832820D01*
X96964067Y-112771519D01*
X96964069Y-112771518D01*
X96969531Y-112769664D01*
X97146001Y-112670837D01*
X97208433Y-112618913D01*
X97297073Y-112545191D01*
X97301505Y-112541505D01*
X97430837Y-112386001D01*
X97529664Y-112209531D01*
X97594678Y-112018007D01*
X97595507Y-112012291D01*
X97595508Y-112012286D01*
X97623167Y-111821516D01*
X97623700Y-111817842D01*
X97625215Y-111760000D01*
X97606708Y-111558591D01*
X97551807Y-111363926D01*
X97462351Y-111182527D01*
X97444079Y-111158057D01*
X97344788Y-111025091D01*
X97344787Y-111025090D01*
X97341335Y-111020467D01*
X97274326Y-110958524D01*
X97237881Y-110897597D01*
X97240161Y-110826637D01*
X97280444Y-110768174D01*
X97345939Y-110740771D01*
X97359855Y-110740000D01*
X99022966Y-110740000D01*
X99047547Y-110742421D01*
X99060000Y-110744898D01*
X99072170Y-110742477D01*
X99082808Y-110742477D01*
X99093789Y-110742956D01*
X99115987Y-110744898D01*
X99226143Y-110754536D01*
X99247766Y-110758348D01*
X99368773Y-110790772D01*
X99398213Y-110798660D01*
X99418852Y-110806172D01*
X99560013Y-110871997D01*
X99579033Y-110882979D01*
X99706615Y-110972312D01*
X99723440Y-110986430D01*
X99833570Y-111096560D01*
X99847688Y-111113385D01*
X99937021Y-111240967D01*
X99948003Y-111259987D01*
X100013828Y-111401148D01*
X100021340Y-111421787D01*
X100056506Y-111553027D01*
X100061651Y-111572230D01*
X100065465Y-111593860D01*
X100077044Y-111726211D01*
X100077523Y-111737192D01*
X100077523Y-111747830D01*
X100075102Y-111760000D01*
X100077523Y-111772171D01*
X100077579Y-111772453D01*
X100080000Y-111797034D01*
X100080000Y-113456051D01*
X100059998Y-113524172D01*
X100006342Y-113570665D01*
X99936068Y-113580769D01*
X99868471Y-113548576D01*
X99863264Y-113543762D01*
X99732812Y-113423174D01*
X99705374Y-113405862D01*
X99566637Y-113318325D01*
X99561757Y-113315246D01*
X99373898Y-113240298D01*
X99175526Y-113200839D01*
X99169752Y-113200763D01*
X99169748Y-113200763D01*
X99067257Y-113199422D01*
X98973286Y-113198192D01*
X98967589Y-113199171D01*
X98967588Y-113199171D01*
X98779646Y-113231465D01*
X98779645Y-113231465D01*
X98773949Y-113232444D01*
X98584193Y-113302449D01*
X98410371Y-113405862D01*
X98258305Y-113539220D01*
X98133089Y-113698057D01*
X98038914Y-113877053D01*
X97978937Y-114070213D01*
X97955164Y-114271069D01*
X97968392Y-114472894D01*
X98018178Y-114668928D01*
X98102856Y-114852607D01*
X98219588Y-115017780D01*
X98364466Y-115158913D01*
X98532637Y-115271282D01*
X98537940Y-115273560D01*
X98537943Y-115273562D01*
X98626291Y-115311519D01*
X98718470Y-115351122D01*
X98915740Y-115395760D01*
X98921509Y-115395987D01*
X98921512Y-115395987D01*
X98997683Y-115398979D01*
X99117842Y-115403700D01*
X99204132Y-115391189D01*
X99312286Y-115375508D01*
X99312291Y-115375507D01*
X99318007Y-115374678D01*
X99323479Y-115372820D01*
X99323481Y-115372820D01*
X99504067Y-115311519D01*
X99504069Y-115311518D01*
X99509531Y-115309664D01*
X99686001Y-115210837D01*
X99748433Y-115158913D01*
X99837073Y-115085191D01*
X99841505Y-115081505D01*
X99857126Y-115062723D01*
X99916064Y-115023139D01*
X99987046Y-115021704D01*
X100047536Y-115058872D01*
X100078329Y-115122843D01*
X100080000Y-115143293D01*
X100080000Y-115996051D01*
X100059998Y-116064172D01*
X100006342Y-116110665D01*
X99936068Y-116120769D01*
X99868471Y-116088576D01*
X99863264Y-116083762D01*
X99732812Y-115963174D01*
X99705374Y-115945862D01*
X99566637Y-115858325D01*
X99561757Y-115855246D01*
X99373898Y-115780298D01*
X99175526Y-115740839D01*
X99169752Y-115740763D01*
X99169748Y-115740763D01*
X99067257Y-115739422D01*
X98973286Y-115738192D01*
X98967589Y-115739171D01*
X98967588Y-115739171D01*
X98779646Y-115771465D01*
X98779645Y-115771465D01*
X98773949Y-115772444D01*
X98584193Y-115842449D01*
X98410371Y-115945862D01*
X98258305Y-116079220D01*
X98133089Y-116238057D01*
X98038914Y-116417053D01*
X97978937Y-116610213D01*
X97955164Y-116811069D01*
X97968392Y-117012894D01*
X98018178Y-117208928D01*
X98102856Y-117392607D01*
X98106189Y-117397323D01*
X98197294Y-117526234D01*
X98219588Y-117557780D01*
X98364466Y-117698913D01*
X98532637Y-117811282D01*
X98537940Y-117813560D01*
X98537943Y-117813562D01*
X98713163Y-117888842D01*
X98718470Y-117891122D01*
X98915740Y-117935760D01*
X98921509Y-117935987D01*
X98921512Y-117935987D01*
X98997683Y-117938979D01*
X99117842Y-117943700D01*
X99204132Y-117931189D01*
X99312286Y-117915508D01*
X99312291Y-117915507D01*
X99318007Y-117914678D01*
X99323479Y-117912820D01*
X99323481Y-117912820D01*
X99504067Y-117851519D01*
X99504069Y-117851518D01*
X99509531Y-117849664D01*
X99686001Y-117750837D01*
X99748433Y-117698913D01*
X99837073Y-117625191D01*
X99841505Y-117621505D01*
X99857126Y-117602723D01*
X99916064Y-117563139D01*
X99987046Y-117561704D01*
X100047536Y-117598872D01*
X100078329Y-117662843D01*
X100080000Y-117683293D01*
X100080000Y-118536051D01*
X100059998Y-118604172D01*
X100006342Y-118650665D01*
X99936068Y-118660769D01*
X99868471Y-118628576D01*
X99863264Y-118623762D01*
X99732812Y-118503174D01*
X99705374Y-118485862D01*
X99566637Y-118398325D01*
X99561757Y-118395246D01*
X99373898Y-118320298D01*
X99199261Y-118285560D01*
X99181192Y-118281966D01*
X99181191Y-118281966D01*
X99175526Y-118280839D01*
X99169752Y-118280763D01*
X99169748Y-118280763D01*
X99067257Y-118279422D01*
X98973286Y-118278192D01*
X98967589Y-118279171D01*
X98967588Y-118279171D01*
X98779646Y-118311465D01*
X98779645Y-118311465D01*
X98773949Y-118312444D01*
X98584193Y-118382449D01*
X98410371Y-118485862D01*
X98258305Y-118619220D01*
X98133089Y-118778057D01*
X98038914Y-118957053D01*
X97978937Y-119150213D01*
X97955164Y-119351069D01*
X97968392Y-119552894D01*
X97988555Y-119632286D01*
X98006266Y-119702025D01*
X98003648Y-119772973D01*
X97963087Y-119831243D01*
X97897462Y-119858334D01*
X97853449Y-119855244D01*
X97839501Y-119851741D01*
X97832128Y-119849889D01*
X97824530Y-119849849D01*
X97824528Y-119849849D01*
X97757319Y-119849497D01*
X97674684Y-119849065D01*
X97667305Y-119850837D01*
X97667301Y-119850837D01*
X97528967Y-119884048D01*
X97528963Y-119884049D01*
X97521588Y-119885820D01*
X97381679Y-119958032D01*
X97375957Y-119963024D01*
X97375955Y-119963025D01*
X97268759Y-120056538D01*
X97268756Y-120056541D01*
X97263034Y-120061533D01*
X97258667Y-120067747D01*
X97180576Y-120178859D01*
X97172501Y-120190348D01*
X97115309Y-120337039D01*
X97113434Y-120351282D01*
X97096001Y-120483700D01*
X97094758Y-120493138D01*
X97112035Y-120649633D01*
X97166143Y-120797490D01*
X97170380Y-120803796D01*
X97170382Y-120803799D01*
X97194081Y-120839066D01*
X97253958Y-120928172D01*
X97370410Y-121034135D01*
X97430369Y-121066690D01*
X97502099Y-121105637D01*
X97502101Y-121105638D01*
X97508776Y-121109262D01*
X97516125Y-121111190D01*
X97653719Y-121147287D01*
X97653721Y-121147287D01*
X97661069Y-121149215D01*
X97744380Y-121150524D01*
X97810898Y-121151569D01*
X97810901Y-121151569D01*
X97818495Y-121151688D01*
X97971968Y-121116538D01*
X97978753Y-121113125D01*
X97978757Y-121113124D01*
X97995479Y-121104714D01*
X98065324Y-121091976D01*
X98130967Y-121119021D01*
X98171568Y-121177262D01*
X98174237Y-121248208D01*
X98151041Y-121295285D01*
X98136665Y-121313520D01*
X98136662Y-121313525D01*
X98133089Y-121318057D01*
X98038914Y-121497053D01*
X97978937Y-121690213D01*
X97955164Y-121891069D01*
X97968392Y-122092894D01*
X97969815Y-122098496D01*
X98014737Y-122275377D01*
X98018178Y-122288928D01*
X98102856Y-122472607D01*
X98114928Y-122489688D01*
X98187330Y-122592135D01*
X98219588Y-122637780D01*
X98364466Y-122778913D01*
X98532637Y-122891282D01*
X98537940Y-122893560D01*
X98537943Y-122893562D01*
X98626291Y-122931519D01*
X98718470Y-122971122D01*
X98915740Y-123015760D01*
X98921509Y-123015987D01*
X98921512Y-123015987D01*
X98997683Y-123018979D01*
X99117842Y-123023700D01*
X99210517Y-123010263D01*
X99312286Y-122995508D01*
X99312291Y-122995507D01*
X99318007Y-122994678D01*
X99323479Y-122992820D01*
X99323481Y-122992820D01*
X99504067Y-122931519D01*
X99504069Y-122931518D01*
X99509531Y-122929664D01*
X99664236Y-122843026D01*
X99680964Y-122833658D01*
X99680965Y-122833657D01*
X99686001Y-122830837D01*
X99748433Y-122778913D01*
X99834496Y-122707334D01*
X99841505Y-122701505D01*
X99857126Y-122682723D01*
X99916064Y-122643139D01*
X99987046Y-122641704D01*
X100047536Y-122678872D01*
X100078329Y-122742843D01*
X100080000Y-122763293D01*
X100080000Y-123616051D01*
X100059998Y-123684172D01*
X100006342Y-123730665D01*
X99936068Y-123740769D01*
X99868471Y-123708576D01*
X99863264Y-123703762D01*
X99768378Y-123616051D01*
X99737053Y-123587094D01*
X99737051Y-123587092D01*
X99732812Y-123583174D01*
X99705374Y-123565862D01*
X99566637Y-123478325D01*
X99561757Y-123475246D01*
X99373898Y-123400298D01*
X99175526Y-123360839D01*
X99169752Y-123360763D01*
X99169748Y-123360763D01*
X99067257Y-123359422D01*
X98973286Y-123358192D01*
X98967589Y-123359171D01*
X98967588Y-123359171D01*
X98779646Y-123391465D01*
X98779645Y-123391465D01*
X98773949Y-123392444D01*
X98584193Y-123462449D01*
X98410371Y-123565862D01*
X98258305Y-123699220D01*
X98133089Y-123858057D01*
X98038914Y-124037053D01*
X97978937Y-124230213D01*
X97955164Y-124431069D01*
X97968392Y-124632894D01*
X97969815Y-124638496D01*
X97996872Y-124745033D01*
X98018178Y-124828928D01*
X98102856Y-125012607D01*
X98219588Y-125177780D01*
X98364466Y-125318913D01*
X98532637Y-125431282D01*
X98537940Y-125433560D01*
X98537943Y-125433562D01*
X98626291Y-125471519D01*
X98718470Y-125511122D01*
X98915740Y-125555760D01*
X98921509Y-125555987D01*
X98921512Y-125555987D01*
X98997683Y-125558979D01*
X99117842Y-125563700D01*
X99204132Y-125551189D01*
X99312286Y-125535508D01*
X99312291Y-125535507D01*
X99318007Y-125534678D01*
X99323479Y-125532820D01*
X99323481Y-125532820D01*
X99504067Y-125471519D01*
X99504069Y-125471518D01*
X99509531Y-125469664D01*
X99686001Y-125370837D01*
X99748433Y-125318913D01*
X99837073Y-125245191D01*
X99841505Y-125241505D01*
X99857126Y-125222723D01*
X99916064Y-125183139D01*
X99987046Y-125181704D01*
X100047536Y-125218872D01*
X100078329Y-125282843D01*
X100080000Y-125303293D01*
X100080000Y-126156051D01*
X100059998Y-126224172D01*
X100006342Y-126270665D01*
X99936068Y-126280769D01*
X99868471Y-126248576D01*
X99863264Y-126243762D01*
X99732812Y-126123174D01*
X99705374Y-126105862D01*
X99566637Y-126018325D01*
X99561757Y-126015246D01*
X99373898Y-125940298D01*
X99175526Y-125900839D01*
X99169752Y-125900763D01*
X99169748Y-125900763D01*
X99067257Y-125899422D01*
X98973286Y-125898192D01*
X98967589Y-125899171D01*
X98967588Y-125899171D01*
X98779646Y-125931465D01*
X98779645Y-125931465D01*
X98773949Y-125932444D01*
X98584193Y-126002449D01*
X98410371Y-126105862D01*
X98258305Y-126239220D01*
X98133089Y-126398057D01*
X98038914Y-126577053D01*
X97978937Y-126770213D01*
X97955164Y-126971069D01*
X97968392Y-127172894D01*
X97969815Y-127178496D01*
X98008734Y-127331740D01*
X98018178Y-127368928D01*
X98102856Y-127552607D01*
X98106189Y-127557323D01*
X98191072Y-127677430D01*
X98219588Y-127717780D01*
X98223730Y-127721815D01*
X98253920Y-127751225D01*
X98364466Y-127858913D01*
X98532637Y-127971282D01*
X98537940Y-127973560D01*
X98537943Y-127973562D01*
X98626291Y-128011519D01*
X98718470Y-128051122D01*
X98915740Y-128095760D01*
X98921509Y-128095987D01*
X98921512Y-128095987D01*
X98997683Y-128098979D01*
X99117842Y-128103700D01*
X99204132Y-128091189D01*
X99312286Y-128075508D01*
X99312291Y-128075507D01*
X99318007Y-128074678D01*
X99323479Y-128072820D01*
X99323481Y-128072820D01*
X99504067Y-128011519D01*
X99504069Y-128011518D01*
X99509531Y-128009664D01*
X99662202Y-127924165D01*
X99680964Y-127913658D01*
X99680965Y-127913657D01*
X99686001Y-127910837D01*
X99748433Y-127858913D01*
X99789728Y-127824568D01*
X99841505Y-127781505D01*
X99857126Y-127762723D01*
X99916064Y-127723139D01*
X99987046Y-127721704D01*
X100047536Y-127758872D01*
X100078329Y-127822843D01*
X100080000Y-127843293D01*
X100080000Y-128696051D01*
X100059998Y-128764172D01*
X100006342Y-128810665D01*
X99936068Y-128820769D01*
X99868471Y-128788576D01*
X99863264Y-128783762D01*
X99732812Y-128663174D01*
X99705374Y-128645862D01*
X99566637Y-128558325D01*
X99561757Y-128555246D01*
X99373898Y-128480298D01*
X99199261Y-128445560D01*
X99181192Y-128441966D01*
X99181191Y-128441966D01*
X99175526Y-128440839D01*
X99169752Y-128440763D01*
X99169748Y-128440763D01*
X99067257Y-128439422D01*
X98973286Y-128438192D01*
X98967589Y-128439171D01*
X98967588Y-128439171D01*
X98779646Y-128471465D01*
X98779645Y-128471465D01*
X98773949Y-128472444D01*
X98584193Y-128542449D01*
X98579232Y-128545401D01*
X98579231Y-128545401D01*
X98502267Y-128591190D01*
X98410371Y-128645862D01*
X98258305Y-128779220D01*
X98133089Y-128938057D01*
X98038914Y-129117053D01*
X97978937Y-129310213D01*
X97955164Y-129511069D01*
X97968392Y-129712894D01*
X97984101Y-129774747D01*
X98013255Y-129889542D01*
X98018178Y-129908928D01*
X98102856Y-130092607D01*
X98106189Y-130097323D01*
X98173529Y-130192607D01*
X98219588Y-130257780D01*
X98364466Y-130398913D01*
X98532637Y-130511282D01*
X98537940Y-130513560D01*
X98537943Y-130513562D01*
X98626291Y-130551519D01*
X98718470Y-130591122D01*
X98915740Y-130635760D01*
X98921509Y-130635987D01*
X98921512Y-130635987D01*
X98997683Y-130638979D01*
X99117842Y-130643700D01*
X99204132Y-130631189D01*
X99312286Y-130615508D01*
X99312291Y-130615507D01*
X99318007Y-130614678D01*
X99323479Y-130612820D01*
X99323481Y-130612820D01*
X99504067Y-130551519D01*
X99504069Y-130551518D01*
X99509531Y-130549664D01*
X99686001Y-130450837D01*
X99748433Y-130398913D01*
X99837073Y-130325191D01*
X99841505Y-130321505D01*
X99857126Y-130302723D01*
X99916064Y-130263139D01*
X99987046Y-130261704D01*
X100047536Y-130298872D01*
X100078329Y-130362843D01*
X100080000Y-130383293D01*
X100080000Y-131236051D01*
X100059998Y-131304172D01*
X100006342Y-131350665D01*
X99936068Y-131360769D01*
X99868471Y-131328576D01*
X99863264Y-131323762D01*
X99766389Y-131234212D01*
X99737053Y-131207094D01*
X99737051Y-131207092D01*
X99732812Y-131203174D01*
X99705374Y-131185862D01*
X99566637Y-131098325D01*
X99561757Y-131095246D01*
X99373898Y-131020298D01*
X99175526Y-130980839D01*
X99169752Y-130980763D01*
X99169748Y-130980763D01*
X99067257Y-130979422D01*
X98973286Y-130978192D01*
X98967589Y-130979171D01*
X98967588Y-130979171D01*
X98779646Y-131011465D01*
X98779645Y-131011465D01*
X98773949Y-131012444D01*
X98584193Y-131082449D01*
X98579232Y-131085401D01*
X98579231Y-131085401D01*
X98435606Y-131170849D01*
X98410371Y-131185862D01*
X98258305Y-131319220D01*
X98133089Y-131478057D01*
X98038914Y-131657053D01*
X97978937Y-131850213D01*
X97955164Y-132051069D01*
X97968392Y-132252894D01*
X97969815Y-132258496D01*
X98014419Y-132434125D01*
X98018178Y-132448928D01*
X98102856Y-132632607D01*
X98106189Y-132637323D01*
X98214425Y-132790474D01*
X98219588Y-132797780D01*
X98364466Y-132938913D01*
X98532637Y-133051282D01*
X98537940Y-133053560D01*
X98537943Y-133053562D01*
X98713163Y-133128842D01*
X98718470Y-133131122D01*
X98915740Y-133175760D01*
X98921509Y-133175987D01*
X98921512Y-133175987D01*
X98997683Y-133178979D01*
X99117842Y-133183700D01*
X99204132Y-133171189D01*
X99312286Y-133155508D01*
X99312291Y-133155507D01*
X99318007Y-133154678D01*
X99323479Y-133152820D01*
X99323481Y-133152820D01*
X99504067Y-133091519D01*
X99504069Y-133091518D01*
X99509531Y-133089664D01*
X99686001Y-132990837D01*
X99748433Y-132938913D01*
X99809895Y-132887795D01*
X99841505Y-132861505D01*
X99857126Y-132842723D01*
X99916064Y-132803139D01*
X99987046Y-132801704D01*
X100047536Y-132838872D01*
X100078329Y-132902843D01*
X100080000Y-132923293D01*
X100080000Y-133776051D01*
X100059998Y-133844172D01*
X100006342Y-133890665D01*
X99936068Y-133900769D01*
X99868471Y-133868576D01*
X99863264Y-133863762D01*
X99762636Y-133770743D01*
X99737053Y-133747094D01*
X99737051Y-133747092D01*
X99732812Y-133743174D01*
X99705374Y-133725862D01*
X99566637Y-133638325D01*
X99561757Y-133635246D01*
X99373898Y-133560298D01*
X99175526Y-133520839D01*
X99169752Y-133520763D01*
X99169748Y-133520763D01*
X99067257Y-133519422D01*
X98973286Y-133518192D01*
X98967589Y-133519171D01*
X98967588Y-133519171D01*
X98779646Y-133551465D01*
X98779645Y-133551465D01*
X98773949Y-133552444D01*
X98584193Y-133622449D01*
X98410371Y-133725862D01*
X98258305Y-133859220D01*
X98133089Y-134018057D01*
X98038914Y-134197053D01*
X97978937Y-134390213D01*
X97955164Y-134591069D01*
X97968392Y-134792894D01*
X98018178Y-134988928D01*
X98102856Y-135172607D01*
X98106189Y-135177323D01*
X98175129Y-135274871D01*
X98219588Y-135337780D01*
X98364466Y-135478913D01*
X98532637Y-135591282D01*
X98537940Y-135593560D01*
X98537943Y-135593562D01*
X98713163Y-135668842D01*
X98718470Y-135671122D01*
X98915740Y-135715760D01*
X98921509Y-135715987D01*
X98921512Y-135715987D01*
X98997683Y-135718979D01*
X99117842Y-135723700D01*
X99204132Y-135711189D01*
X99312286Y-135695508D01*
X99312291Y-135695507D01*
X99318007Y-135694678D01*
X99323479Y-135692820D01*
X99323481Y-135692820D01*
X99504067Y-135631519D01*
X99504069Y-135631518D01*
X99509531Y-135629664D01*
X99686001Y-135530837D01*
X99748433Y-135478913D01*
X99837073Y-135405191D01*
X99841505Y-135401505D01*
X99857126Y-135382723D01*
X99916064Y-135343139D01*
X99987046Y-135341704D01*
X100047536Y-135378872D01*
X100078329Y-135442843D01*
X100080000Y-135463293D01*
X100080000Y-136316051D01*
X100059998Y-136384172D01*
X100006342Y-136430665D01*
X99936068Y-136440769D01*
X99868471Y-136408576D01*
X99863264Y-136403762D01*
X99762636Y-136310743D01*
X99737053Y-136287094D01*
X99737051Y-136287092D01*
X99732812Y-136283174D01*
X99705374Y-136265862D01*
X99566637Y-136178325D01*
X99561757Y-136175246D01*
X99373898Y-136100298D01*
X99175526Y-136060839D01*
X99169752Y-136060763D01*
X99169748Y-136060763D01*
X99067257Y-136059422D01*
X98973286Y-136058192D01*
X98967589Y-136059171D01*
X98967588Y-136059171D01*
X98779646Y-136091465D01*
X98779645Y-136091465D01*
X98773949Y-136092444D01*
X98584193Y-136162449D01*
X98579232Y-136165401D01*
X98579231Y-136165401D01*
X98479194Y-136224917D01*
X98410371Y-136265862D01*
X98258305Y-136399220D01*
X98133089Y-136558057D01*
X98038914Y-136737053D01*
X97978937Y-136930213D01*
X97955164Y-137131069D01*
X97968392Y-137332894D01*
X98018178Y-137528928D01*
X98102856Y-137712607D01*
X98106189Y-137717323D01*
X98195499Y-137843694D01*
X98219588Y-137877780D01*
X98364466Y-138018913D01*
X98532637Y-138131282D01*
X98537940Y-138133560D01*
X98537943Y-138133562D01*
X98713163Y-138208842D01*
X98718470Y-138211122D01*
X98915740Y-138255760D01*
X98921509Y-138255987D01*
X98921512Y-138255987D01*
X98997683Y-138258979D01*
X99117842Y-138263700D01*
X99204132Y-138251189D01*
X99312286Y-138235508D01*
X99312291Y-138235507D01*
X99318007Y-138234678D01*
X99323479Y-138232820D01*
X99323481Y-138232820D01*
X99504067Y-138171519D01*
X99504069Y-138171518D01*
X99509531Y-138169664D01*
X99686001Y-138070837D01*
X99748433Y-138018913D01*
X99837073Y-137945191D01*
X99841505Y-137941505D01*
X99857126Y-137922723D01*
X99916064Y-137883139D01*
X99987046Y-137881704D01*
X100047536Y-137918872D01*
X100078329Y-137982843D01*
X100080000Y-138003293D01*
X100080000Y-141015403D01*
X100059998Y-141083524D01*
X100006342Y-141130017D01*
X99941653Y-141140797D01*
X99940745Y-141140708D01*
X99934674Y-141139500D01*
X98185326Y-141139500D01*
X98112260Y-141154034D01*
X98029399Y-141209399D01*
X97974034Y-141292260D01*
X97959500Y-141365326D01*
X97959500Y-143114674D01*
X97974034Y-143187740D01*
X98029399Y-143270601D01*
X98112260Y-143325966D01*
X98185326Y-143340500D01*
X99934674Y-143340500D01*
X99940745Y-143339292D01*
X99941653Y-143339203D01*
X100011406Y-143352434D01*
X100062933Y-143401275D01*
X100080000Y-143464597D01*
X100080000Y-144742966D01*
X100077579Y-144767547D01*
X100075102Y-144780000D01*
X100077523Y-144792170D01*
X100077523Y-144802808D01*
X100077044Y-144813789D01*
X100065986Y-144940188D01*
X100065465Y-144946140D01*
X100061651Y-144967770D01*
X100021340Y-145118213D01*
X100013828Y-145138852D01*
X99948003Y-145280013D01*
X99937021Y-145299033D01*
X99847688Y-145426615D01*
X99833570Y-145443440D01*
X99723440Y-145553570D01*
X99706615Y-145567688D01*
X99579033Y-145657021D01*
X99560013Y-145668003D01*
X99418852Y-145733828D01*
X99398212Y-145741340D01*
X99247766Y-145781652D01*
X99226143Y-145785464D01*
X99117662Y-145794955D01*
X99093789Y-145797044D01*
X99082808Y-145797523D01*
X99072170Y-145797523D01*
X99060000Y-145795102D01*
X99047829Y-145797523D01*
X99047547Y-145797579D01*
X99022966Y-145800000D01*
X66077034Y-145800000D01*
X66052453Y-145797579D01*
X66052171Y-145797523D01*
X66040000Y-145795102D01*
X66027830Y-145797523D01*
X66017192Y-145797523D01*
X66006211Y-145797044D01*
X65982338Y-145794955D01*
X65873857Y-145785464D01*
X65852234Y-145781652D01*
X65701788Y-145741340D01*
X65681148Y-145733828D01*
X65539987Y-145668003D01*
X65520967Y-145657021D01*
X65393385Y-145567688D01*
X65376560Y-145553570D01*
X65266430Y-145443440D01*
X65252312Y-145426615D01*
X65162979Y-145299033D01*
X65151997Y-145280013D01*
X65086172Y-145138852D01*
X65078660Y-145118213D01*
X65038349Y-144967770D01*
X65034535Y-144946140D01*
X65034015Y-144940188D01*
X65022956Y-144813789D01*
X65022477Y-144802808D01*
X65022477Y-144792170D01*
X65024898Y-144780000D01*
X65022421Y-144767547D01*
X65020000Y-144742966D01*
X65020000Y-144335105D01*
X90382031Y-144335105D01*
X90421612Y-144499968D01*
X90499375Y-144650631D01*
X90504367Y-144656353D01*
X90504368Y-144656355D01*
X90566808Y-144727931D01*
X90610831Y-144778396D01*
X90617045Y-144782763D01*
X90743330Y-144871518D01*
X90743332Y-144871519D01*
X90749547Y-144875887D01*
X90907513Y-144937476D01*
X90915046Y-144938468D01*
X90915047Y-144938468D01*
X91032739Y-144953962D01*
X91036826Y-144954500D01*
X91125516Y-144954500D01*
X91251320Y-144939276D01*
X91409923Y-144879345D01*
X91505307Y-144813789D01*
X91543392Y-144787614D01*
X91543393Y-144787613D01*
X91549651Y-144783312D01*
X91563446Y-144767829D01*
X91657388Y-144662392D01*
X91657390Y-144662388D01*
X91662440Y-144656721D01*
X91669238Y-144643883D01*
X91738224Y-144513589D01*
X91741776Y-144506881D01*
X91783081Y-144342441D01*
X91783119Y-144335105D01*
X93382031Y-144335105D01*
X93421612Y-144499968D01*
X93499375Y-144650631D01*
X93504367Y-144656353D01*
X93504368Y-144656355D01*
X93566808Y-144727931D01*
X93610831Y-144778396D01*
X93617045Y-144782763D01*
X93743330Y-144871518D01*
X93743332Y-144871519D01*
X93749547Y-144875887D01*
X93907513Y-144937476D01*
X93915046Y-144938468D01*
X93915047Y-144938468D01*
X94032739Y-144953962D01*
X94036826Y-144954500D01*
X94125516Y-144954500D01*
X94251320Y-144939276D01*
X94409923Y-144879345D01*
X94505307Y-144813789D01*
X94543392Y-144787614D01*
X94543393Y-144787613D01*
X94549651Y-144783312D01*
X94563446Y-144767829D01*
X94657388Y-144662392D01*
X94657390Y-144662388D01*
X94662440Y-144656721D01*
X94669238Y-144643883D01*
X94738224Y-144513589D01*
X94741776Y-144506881D01*
X94783081Y-144342441D01*
X94783969Y-144172895D01*
X94744388Y-144008032D01*
X94666625Y-143857369D01*
X94661313Y-143851279D01*
X94560163Y-143735329D01*
X94555169Y-143729604D01*
X94496649Y-143688475D01*
X94422670Y-143636482D01*
X94422668Y-143636481D01*
X94416453Y-143632113D01*
X94258487Y-143570524D01*
X94250954Y-143569532D01*
X94250953Y-143569532D01*
X94133261Y-143554038D01*
X94133260Y-143554038D01*
X94129174Y-143553500D01*
X94040484Y-143553500D01*
X93914680Y-143568724D01*
X93756077Y-143628655D01*
X93616349Y-143724688D01*
X93611297Y-143730358D01*
X93611296Y-143730359D01*
X93508612Y-143845608D01*
X93508610Y-143845612D01*
X93503560Y-143851279D01*
X93500008Y-143857988D01*
X93500007Y-143857989D01*
X93467746Y-143918920D01*
X93424224Y-144001119D01*
X93382919Y-144165559D01*
X93382031Y-144335105D01*
X91783119Y-144335105D01*
X91783969Y-144172895D01*
X91744388Y-144008032D01*
X91666625Y-143857369D01*
X91661313Y-143851279D01*
X91560163Y-143735329D01*
X91555169Y-143729604D01*
X91496649Y-143688475D01*
X91422670Y-143636482D01*
X91422668Y-143636481D01*
X91416453Y-143632113D01*
X91258487Y-143570524D01*
X91250954Y-143569532D01*
X91250953Y-143569532D01*
X91133261Y-143554038D01*
X91133260Y-143554038D01*
X91129174Y-143553500D01*
X91040484Y-143553500D01*
X90914680Y-143568724D01*
X90756077Y-143628655D01*
X90616349Y-143724688D01*
X90611297Y-143730358D01*
X90611296Y-143730359D01*
X90508612Y-143845608D01*
X90508610Y-143845612D01*
X90503560Y-143851279D01*
X90500008Y-143857988D01*
X90500007Y-143857989D01*
X90467746Y-143918920D01*
X90424224Y-144001119D01*
X90382919Y-144165559D01*
X90382031Y-144335105D01*
X65020000Y-144335105D01*
X65020000Y-143464597D01*
X65040002Y-143396476D01*
X65093658Y-143349983D01*
X65158347Y-143339203D01*
X65159255Y-143339292D01*
X65165326Y-143340500D01*
X66914674Y-143340500D01*
X66987740Y-143325966D01*
X67070601Y-143270601D01*
X67125966Y-143187740D01*
X67140500Y-143114674D01*
X67140500Y-141782138D01*
X87798758Y-141782138D01*
X87816035Y-141938633D01*
X87870143Y-142086490D01*
X87874380Y-142092796D01*
X87874382Y-142092799D01*
X87914709Y-142152811D01*
X87957958Y-142217172D01*
X88074410Y-142323135D01*
X88081085Y-142326759D01*
X88206099Y-142394637D01*
X88206101Y-142394638D01*
X88212776Y-142398262D01*
X88220125Y-142400190D01*
X88357719Y-142436287D01*
X88357721Y-142436287D01*
X88365069Y-142438215D01*
X88448380Y-142439524D01*
X88514898Y-142440569D01*
X88514901Y-142440569D01*
X88522495Y-142440688D01*
X88675968Y-142405538D01*
X88816625Y-142334795D01*
X88842869Y-142312381D01*
X88930574Y-142237474D01*
X88930576Y-142237471D01*
X88936348Y-142232542D01*
X89028224Y-142104683D01*
X89086950Y-141958598D01*
X89109134Y-141802723D01*
X89109278Y-141789000D01*
X89090363Y-141632694D01*
X89041193Y-141502569D01*
X89037394Y-141492514D01*
X89037393Y-141492511D01*
X89034710Y-141485412D01*
X88945531Y-141355657D01*
X88865422Y-141284282D01*
X88833648Y-141255972D01*
X88833645Y-141255970D01*
X88827976Y-141250919D01*
X88688831Y-141177245D01*
X88599469Y-141154799D01*
X88543498Y-141140740D01*
X88543496Y-141140740D01*
X88536128Y-141138889D01*
X88528530Y-141138849D01*
X88528528Y-141138849D01*
X88461319Y-141138497D01*
X88378684Y-141138065D01*
X88371305Y-141139837D01*
X88371301Y-141139837D01*
X88232967Y-141173048D01*
X88232963Y-141173049D01*
X88225588Y-141174820D01*
X88085679Y-141247032D01*
X88079957Y-141252024D01*
X88079955Y-141252025D01*
X87972759Y-141345538D01*
X87972756Y-141345541D01*
X87967034Y-141350533D01*
X87955596Y-141366808D01*
X87885226Y-141466934D01*
X87876501Y-141479348D01*
X87819309Y-141626039D01*
X87798758Y-141782138D01*
X67140500Y-141782138D01*
X67140500Y-141365326D01*
X67125966Y-141292260D01*
X67070601Y-141209399D01*
X66987740Y-141154034D01*
X66914674Y-141139500D01*
X65165326Y-141139500D01*
X65159255Y-141140708D01*
X65158347Y-141140797D01*
X65088594Y-141127566D01*
X65037067Y-141078725D01*
X65020000Y-141015403D01*
X65020000Y-140810738D01*
X77043358Y-140810738D01*
X77060635Y-140967233D01*
X77114743Y-141115090D01*
X77118980Y-141121396D01*
X77118982Y-141121399D01*
X77140912Y-141154034D01*
X77202558Y-141245772D01*
X77224870Y-141266074D01*
X77312200Y-141345538D01*
X77319010Y-141351735D01*
X77371113Y-141380025D01*
X77450699Y-141423237D01*
X77450701Y-141423238D01*
X77457376Y-141426862D01*
X77464725Y-141428790D01*
X77602319Y-141464887D01*
X77602321Y-141464887D01*
X77609669Y-141466815D01*
X77692980Y-141468124D01*
X77759498Y-141469169D01*
X77759501Y-141469169D01*
X77767095Y-141469288D01*
X77920568Y-141434138D01*
X78061225Y-141363395D01*
X78141842Y-141294542D01*
X78175174Y-141266074D01*
X78175176Y-141266071D01*
X78180948Y-141261142D01*
X78272824Y-141133283D01*
X78331550Y-140987198D01*
X78351910Y-140844138D01*
X90467758Y-140844138D01*
X90485035Y-141000633D01*
X90539143Y-141148490D01*
X90543380Y-141154796D01*
X90543382Y-141154799D01*
X90559175Y-141178301D01*
X90626958Y-141279172D01*
X90649270Y-141299474D01*
X90728440Y-141371513D01*
X90743410Y-141385135D01*
X90750085Y-141388759D01*
X90875099Y-141456637D01*
X90875101Y-141456638D01*
X90881776Y-141460262D01*
X90889125Y-141462190D01*
X91026719Y-141498287D01*
X91026721Y-141498287D01*
X91034069Y-141500215D01*
X91117380Y-141501524D01*
X91183898Y-141502569D01*
X91183901Y-141502569D01*
X91191495Y-141502688D01*
X91344968Y-141467538D01*
X91485625Y-141396795D01*
X91522471Y-141365326D01*
X91599574Y-141299474D01*
X91599576Y-141299471D01*
X91605348Y-141294542D01*
X91697224Y-141166683D01*
X91755950Y-141020598D01*
X91778134Y-140864723D01*
X91778278Y-140851000D01*
X91759363Y-140694694D01*
X91749591Y-140668834D01*
X91706394Y-140554514D01*
X91706393Y-140554511D01*
X91703710Y-140547412D01*
X91614531Y-140417657D01*
X91567971Y-140376174D01*
X91502648Y-140317972D01*
X91502645Y-140317970D01*
X91496976Y-140312919D01*
X91479752Y-140303799D01*
X91364543Y-140242799D01*
X91364544Y-140242799D01*
X91357831Y-140239245D01*
X91341122Y-140235048D01*
X91212498Y-140202740D01*
X91212496Y-140202740D01*
X91205128Y-140200889D01*
X91197530Y-140200849D01*
X91197528Y-140200849D01*
X91130319Y-140200497D01*
X91047684Y-140200065D01*
X91040305Y-140201837D01*
X91040301Y-140201837D01*
X90901967Y-140235048D01*
X90901963Y-140235049D01*
X90894588Y-140236820D01*
X90754679Y-140309032D01*
X90748957Y-140314024D01*
X90748955Y-140314025D01*
X90641759Y-140407538D01*
X90641756Y-140407541D01*
X90636034Y-140412533D01*
X90610774Y-140448474D01*
X90554162Y-140529025D01*
X90545501Y-140541348D01*
X90488309Y-140688039D01*
X90487318Y-140695568D01*
X90470708Y-140821734D01*
X90467758Y-140844138D01*
X78351910Y-140844138D01*
X78353734Y-140831323D01*
X78353878Y-140817600D01*
X78334963Y-140661294D01*
X78313932Y-140605637D01*
X78281994Y-140521114D01*
X78281993Y-140521111D01*
X78279310Y-140514012D01*
X78190131Y-140384257D01*
X78115735Y-140317972D01*
X78078248Y-140284572D01*
X78078245Y-140284570D01*
X78072576Y-140279519D01*
X78042358Y-140263519D01*
X77988585Y-140235048D01*
X77933431Y-140205845D01*
X77923777Y-140203420D01*
X77788098Y-140169340D01*
X77788096Y-140169340D01*
X77780728Y-140167489D01*
X77773130Y-140167449D01*
X77773128Y-140167449D01*
X77705919Y-140167097D01*
X77623284Y-140166665D01*
X77615905Y-140168437D01*
X77615901Y-140168437D01*
X77477567Y-140201648D01*
X77477563Y-140201649D01*
X77470188Y-140203420D01*
X77408910Y-140235048D01*
X77353748Y-140263519D01*
X77330279Y-140275632D01*
X77324557Y-140280624D01*
X77324555Y-140280625D01*
X77217359Y-140374138D01*
X77217356Y-140374141D01*
X77211634Y-140379133D01*
X77121101Y-140507948D01*
X77063909Y-140654639D01*
X77043358Y-140810738D01*
X65020000Y-140810738D01*
X65020000Y-139993138D01*
X68744758Y-139993138D01*
X68762035Y-140149633D01*
X68816143Y-140297490D01*
X68820380Y-140303796D01*
X68820382Y-140303799D01*
X68836314Y-140327508D01*
X68903958Y-140428172D01*
X69020410Y-140534135D01*
X69027085Y-140537759D01*
X69152099Y-140605637D01*
X69152101Y-140605638D01*
X69158776Y-140609262D01*
X69166125Y-140611190D01*
X69303719Y-140647287D01*
X69303721Y-140647287D01*
X69311069Y-140649215D01*
X69394380Y-140650524D01*
X69460898Y-140651569D01*
X69460901Y-140651569D01*
X69468495Y-140651688D01*
X69621968Y-140616538D01*
X69762625Y-140545795D01*
X69807162Y-140507757D01*
X69876574Y-140448474D01*
X69876576Y-140448471D01*
X69882348Y-140443542D01*
X69886778Y-140437377D01*
X69886781Y-140437374D01*
X69896413Y-140423969D01*
X69952407Y-140380321D01*
X70023110Y-140373874D01*
X70086075Y-140406676D01*
X70094321Y-140416500D01*
X70094761Y-140416120D01*
X70099721Y-140421866D01*
X70103958Y-140428172D01*
X70220410Y-140534135D01*
X70227085Y-140537759D01*
X70352099Y-140605637D01*
X70352101Y-140605638D01*
X70358776Y-140609262D01*
X70366125Y-140611190D01*
X70503719Y-140647287D01*
X70503721Y-140647287D01*
X70511069Y-140649215D01*
X70594380Y-140650524D01*
X70660898Y-140651569D01*
X70660901Y-140651569D01*
X70668495Y-140651688D01*
X70821968Y-140616538D01*
X70962625Y-140545795D01*
X71007162Y-140507757D01*
X71076574Y-140448474D01*
X71076576Y-140448471D01*
X71082348Y-140443542D01*
X71174224Y-140315683D01*
X71232950Y-140169598D01*
X71252319Y-140033505D01*
X71254553Y-140017807D01*
X71254553Y-140017804D01*
X71255134Y-140013723D01*
X71255278Y-140000000D01*
X71236363Y-139843694D01*
X71180710Y-139696412D01*
X71093951Y-139570178D01*
X71071851Y-139502708D01*
X71089736Y-139434001D01*
X71095468Y-139425284D01*
X71169793Y-139321849D01*
X71174224Y-139315683D01*
X71211455Y-139223069D01*
X84694164Y-139223069D01*
X84707392Y-139424894D01*
X84757178Y-139620928D01*
X84841856Y-139804607D01*
X84958588Y-139969780D01*
X85103466Y-140110913D01*
X85271637Y-140223282D01*
X85276940Y-140225560D01*
X85276943Y-140225562D01*
X85444361Y-140297490D01*
X85457470Y-140303122D01*
X85654740Y-140347760D01*
X85660509Y-140347987D01*
X85660512Y-140347987D01*
X85736683Y-140350979D01*
X85856842Y-140355700D01*
X85943132Y-140343189D01*
X86051286Y-140327508D01*
X86051291Y-140327507D01*
X86057007Y-140326678D01*
X86062479Y-140324820D01*
X86062481Y-140324820D01*
X86243067Y-140263519D01*
X86243069Y-140263518D01*
X86248531Y-140261664D01*
X86400332Y-140176652D01*
X86419964Y-140165658D01*
X86419965Y-140165657D01*
X86425001Y-140162837D01*
X86487433Y-140110913D01*
X86576073Y-140037191D01*
X86580505Y-140033505D01*
X86709837Y-139878001D01*
X86733028Y-139836591D01*
X86805845Y-139706564D01*
X86808664Y-139701531D01*
X86834133Y-139626504D01*
X86871820Y-139515481D01*
X86871820Y-139515479D01*
X86873678Y-139510007D01*
X86874507Y-139504291D01*
X86874508Y-139504286D01*
X86902167Y-139313516D01*
X86902700Y-139309842D01*
X86904215Y-139252000D01*
X86885708Y-139050591D01*
X86830807Y-138855926D01*
X86755646Y-138703514D01*
X86743906Y-138679708D01*
X86741351Y-138674527D01*
X86723079Y-138650057D01*
X86623788Y-138517091D01*
X86623787Y-138517090D01*
X86620335Y-138512467D01*
X86607173Y-138500300D01*
X86476053Y-138379094D01*
X86476051Y-138379092D01*
X86471812Y-138375174D01*
X86444374Y-138357862D01*
X86305637Y-138270325D01*
X86300757Y-138267246D01*
X86112898Y-138192298D01*
X85914526Y-138152839D01*
X85908752Y-138152763D01*
X85908748Y-138152763D01*
X85806257Y-138151422D01*
X85712286Y-138150192D01*
X85706589Y-138151171D01*
X85706588Y-138151171D01*
X85518646Y-138183465D01*
X85518645Y-138183465D01*
X85512949Y-138184444D01*
X85323193Y-138254449D01*
X85318232Y-138257401D01*
X85318231Y-138257401D01*
X85209904Y-138321849D01*
X85149371Y-138357862D01*
X84997305Y-138491220D01*
X84872089Y-138650057D01*
X84777914Y-138829053D01*
X84717937Y-139022213D01*
X84694164Y-139223069D01*
X71211455Y-139223069D01*
X71232950Y-139169598D01*
X71255134Y-139013723D01*
X71255278Y-139000000D01*
X71236363Y-138843694D01*
X71230831Y-138829053D01*
X71183394Y-138703514D01*
X71183393Y-138703511D01*
X71180710Y-138696412D01*
X71093951Y-138570178D01*
X71071851Y-138502708D01*
X71089736Y-138434001D01*
X71095468Y-138425284D01*
X71133767Y-138371985D01*
X71174224Y-138315683D01*
X71232950Y-138169598D01*
X71253939Y-138022123D01*
X71254553Y-138017807D01*
X71254553Y-138017804D01*
X71255134Y-138013723D01*
X71255278Y-138000000D01*
X71236363Y-137843694D01*
X71214563Y-137786001D01*
X71183394Y-137703514D01*
X71183393Y-137703511D01*
X71180710Y-137696412D01*
X71093951Y-137570178D01*
X71071851Y-137502708D01*
X71089736Y-137434001D01*
X71095468Y-137425284D01*
X71150208Y-137349105D01*
X71174224Y-137315683D01*
X71232950Y-137169598D01*
X71244950Y-137085282D01*
X71254553Y-137017807D01*
X71254553Y-137017804D01*
X71255134Y-137013723D01*
X71255278Y-137000000D01*
X71236363Y-136843694D01*
X71225170Y-136814072D01*
X71183394Y-136703514D01*
X71183393Y-136703511D01*
X71180710Y-136696412D01*
X71145470Y-136645138D01*
X74655758Y-136645138D01*
X74673035Y-136801633D01*
X74727143Y-136949490D01*
X74731380Y-136955796D01*
X74731382Y-136955799D01*
X74756473Y-136993138D01*
X74814958Y-137080172D01*
X74837270Y-137100474D01*
X74904371Y-137161531D01*
X74931410Y-137186135D01*
X74938085Y-137189759D01*
X75063099Y-137257637D01*
X75063101Y-137257638D01*
X75069776Y-137261262D01*
X75077125Y-137263190D01*
X75214719Y-137299287D01*
X75214721Y-137299287D01*
X75222069Y-137301215D01*
X75305380Y-137302524D01*
X75371898Y-137303569D01*
X75371901Y-137303569D01*
X75379495Y-137303688D01*
X75532968Y-137268538D01*
X75673625Y-137197795D01*
X75699869Y-137175381D01*
X75787574Y-137100474D01*
X75787576Y-137100471D01*
X75793348Y-137095542D01*
X75885224Y-136967683D01*
X75943950Y-136821598D01*
X75952158Y-136763926D01*
X75963666Y-136683069D01*
X84694164Y-136683069D01*
X84707392Y-136884894D01*
X84757178Y-137080928D01*
X84841856Y-137264607D01*
X84845189Y-137269323D01*
X84950268Y-137418007D01*
X84958588Y-137429780D01*
X85103466Y-137570913D01*
X85271637Y-137683282D01*
X85276940Y-137685560D01*
X85276943Y-137685562D01*
X85365291Y-137723519D01*
X85457470Y-137763122D01*
X85654740Y-137807760D01*
X85660509Y-137807987D01*
X85660512Y-137807987D01*
X85736683Y-137810979D01*
X85856842Y-137815700D01*
X85943132Y-137803189D01*
X86051286Y-137787508D01*
X86051291Y-137787507D01*
X86057007Y-137786678D01*
X86062479Y-137784820D01*
X86062481Y-137784820D01*
X86243067Y-137723519D01*
X86243069Y-137723518D01*
X86248531Y-137721664D01*
X86425001Y-137622837D01*
X86487433Y-137570913D01*
X86576073Y-137497191D01*
X86580505Y-137493505D01*
X86709837Y-137338001D01*
X86718883Y-137321849D01*
X86740069Y-137284017D01*
X86808664Y-137161531D01*
X86815266Y-137142084D01*
X86871820Y-136975481D01*
X86871820Y-136975479D01*
X86873678Y-136970007D01*
X86874507Y-136964291D01*
X86874508Y-136964286D01*
X86896287Y-136814072D01*
X86902700Y-136769842D01*
X86904215Y-136712000D01*
X86901557Y-136683069D01*
X87234164Y-136683069D01*
X87247392Y-136884894D01*
X87297178Y-137080928D01*
X87381856Y-137264607D01*
X87385189Y-137269323D01*
X87490268Y-137418007D01*
X87498588Y-137429780D01*
X87643466Y-137570913D01*
X87811637Y-137683282D01*
X87816940Y-137685560D01*
X87816943Y-137685562D01*
X87905291Y-137723519D01*
X87997470Y-137763122D01*
X88194740Y-137807760D01*
X88200509Y-137807987D01*
X88200512Y-137807987D01*
X88276683Y-137810979D01*
X88396842Y-137815700D01*
X88483132Y-137803189D01*
X88591286Y-137787508D01*
X88591291Y-137787507D01*
X88597007Y-137786678D01*
X88602479Y-137784820D01*
X88602481Y-137784820D01*
X88783067Y-137723519D01*
X88783069Y-137723518D01*
X88788531Y-137721664D01*
X88965001Y-137622837D01*
X89027433Y-137570913D01*
X89116073Y-137497191D01*
X89120505Y-137493505D01*
X89249837Y-137338001D01*
X89258883Y-137321849D01*
X89280069Y-137284017D01*
X89348664Y-137161531D01*
X89355266Y-137142084D01*
X89411820Y-136975481D01*
X89411820Y-136975479D01*
X89413678Y-136970007D01*
X89414507Y-136964291D01*
X89414508Y-136964286D01*
X89436287Y-136814072D01*
X89442700Y-136769842D01*
X89444215Y-136712000D01*
X89425708Y-136510591D01*
X89419504Y-136488591D01*
X89381972Y-136355514D01*
X89370807Y-136315926D01*
X89281351Y-136134527D01*
X89263079Y-136110057D01*
X89163788Y-135977091D01*
X89163787Y-135977090D01*
X89160335Y-135972467D01*
X89137350Y-135951220D01*
X89016053Y-135839094D01*
X89016051Y-135839092D01*
X89011812Y-135835174D01*
X88984374Y-135817862D01*
X88845637Y-135730325D01*
X88840757Y-135727246D01*
X88652898Y-135652298D01*
X88454526Y-135612839D01*
X88448752Y-135612763D01*
X88448748Y-135612763D01*
X88346257Y-135611422D01*
X88252286Y-135610192D01*
X88246589Y-135611171D01*
X88246588Y-135611171D01*
X88058646Y-135643465D01*
X88058645Y-135643465D01*
X88052949Y-135644444D01*
X87863193Y-135714449D01*
X87689371Y-135817862D01*
X87537305Y-135951220D01*
X87412089Y-136110057D01*
X87317914Y-136289053D01*
X87257937Y-136482213D01*
X87234164Y-136683069D01*
X86901557Y-136683069D01*
X86885708Y-136510591D01*
X86879504Y-136488591D01*
X86841972Y-136355514D01*
X86830807Y-136315926D01*
X86741351Y-136134527D01*
X86723079Y-136110057D01*
X86623788Y-135977091D01*
X86623787Y-135977090D01*
X86620335Y-135972467D01*
X86597350Y-135951220D01*
X86476053Y-135839094D01*
X86476051Y-135839092D01*
X86471812Y-135835174D01*
X86444374Y-135817862D01*
X86305637Y-135730325D01*
X86300757Y-135727246D01*
X86112898Y-135652298D01*
X85914526Y-135612839D01*
X85908752Y-135612763D01*
X85908748Y-135612763D01*
X85806257Y-135611422D01*
X85712286Y-135610192D01*
X85706589Y-135611171D01*
X85706588Y-135611171D01*
X85518646Y-135643465D01*
X85518645Y-135643465D01*
X85512949Y-135644444D01*
X85323193Y-135714449D01*
X85149371Y-135817862D01*
X84997305Y-135951220D01*
X84872089Y-136110057D01*
X84777914Y-136289053D01*
X84717937Y-136482213D01*
X84694164Y-136683069D01*
X75963666Y-136683069D01*
X75965553Y-136669807D01*
X75965553Y-136669804D01*
X75966134Y-136665723D01*
X75966278Y-136652000D01*
X75947363Y-136495694D01*
X75936510Y-136466972D01*
X75894394Y-136355514D01*
X75894393Y-136355511D01*
X75891710Y-136348412D01*
X75802531Y-136218657D01*
X75702913Y-136129900D01*
X75690648Y-136118972D01*
X75690645Y-136118970D01*
X75684976Y-136113919D01*
X75545831Y-136040245D01*
X75529122Y-136036048D01*
X75400498Y-136003740D01*
X75400496Y-136003740D01*
X75393128Y-136001889D01*
X75385530Y-136001849D01*
X75385528Y-136001849D01*
X75318319Y-136001497D01*
X75235684Y-136001065D01*
X75228305Y-136002837D01*
X75228301Y-136002837D01*
X75089967Y-136036048D01*
X75089963Y-136036049D01*
X75082588Y-136037820D01*
X74942679Y-136110032D01*
X74936957Y-136115024D01*
X74936955Y-136115025D01*
X74829759Y-136208538D01*
X74829756Y-136208541D01*
X74824034Y-136213533D01*
X74819667Y-136219747D01*
X74752071Y-136315926D01*
X74733501Y-136342348D01*
X74676309Y-136489039D01*
X74675318Y-136496568D01*
X74667223Y-136558057D01*
X74655758Y-136645138D01*
X71145470Y-136645138D01*
X71091531Y-136566657D01*
X71003912Y-136488591D01*
X70979648Y-136466972D01*
X70979645Y-136466970D01*
X70973976Y-136461919D01*
X70834831Y-136388245D01*
X70818122Y-136384048D01*
X70689498Y-136351740D01*
X70689496Y-136351740D01*
X70682128Y-136349889D01*
X70674530Y-136349849D01*
X70674528Y-136349849D01*
X70607319Y-136349497D01*
X70524684Y-136349065D01*
X70517305Y-136350837D01*
X70517301Y-136350837D01*
X70378967Y-136384048D01*
X70378963Y-136384049D01*
X70371588Y-136385820D01*
X70231679Y-136458032D01*
X70225957Y-136463024D01*
X70225955Y-136463025D01*
X70118759Y-136556538D01*
X70118756Y-136556541D01*
X70113034Y-136561533D01*
X70108667Y-136567747D01*
X70027617Y-136683069D01*
X70022501Y-136690348D01*
X69965309Y-136837039D01*
X69964318Y-136844568D01*
X69947083Y-136975481D01*
X69944758Y-136993138D01*
X69962035Y-137149633D01*
X70016143Y-137297490D01*
X70020380Y-137303796D01*
X70020382Y-137303799D01*
X70103958Y-137428172D01*
X70101903Y-137429553D01*
X70126325Y-137483290D01*
X70116093Y-137553545D01*
X70104662Y-137573444D01*
X70103508Y-137575086D01*
X70047974Y-137619318D01*
X69977342Y-137626504D01*
X69914038Y-137594363D01*
X69896585Y-137574008D01*
X69895841Y-137572925D01*
X69895832Y-137572914D01*
X69891531Y-137566657D01*
X69844971Y-137525174D01*
X69779648Y-137466972D01*
X69779645Y-137466970D01*
X69773976Y-137461919D01*
X69634831Y-137388245D01*
X69618122Y-137384048D01*
X69489498Y-137351740D01*
X69489496Y-137351740D01*
X69482128Y-137349889D01*
X69474530Y-137349849D01*
X69474528Y-137349849D01*
X69407319Y-137349497D01*
X69324684Y-137349065D01*
X69317305Y-137350837D01*
X69317301Y-137350837D01*
X69178967Y-137384048D01*
X69178963Y-137384049D01*
X69171588Y-137385820D01*
X69031679Y-137458032D01*
X69025957Y-137463024D01*
X69025955Y-137463025D01*
X68918759Y-137556538D01*
X68918756Y-137556541D01*
X68913034Y-137561533D01*
X68822501Y-137690348D01*
X68765309Y-137837039D01*
X68764318Y-137844568D01*
X68751556Y-137941505D01*
X68744758Y-137993138D01*
X68762035Y-138149633D01*
X68816143Y-138297490D01*
X68820380Y-138303796D01*
X68820382Y-138303799D01*
X68903958Y-138428172D01*
X68901903Y-138429553D01*
X68926325Y-138483290D01*
X68916093Y-138553545D01*
X68904662Y-138573445D01*
X68847227Y-138655167D01*
X68822501Y-138690348D01*
X68765309Y-138837039D01*
X68744758Y-138993138D01*
X68762035Y-139149633D01*
X68816143Y-139297490D01*
X68820380Y-139303796D01*
X68820382Y-139303799D01*
X68903958Y-139428172D01*
X68901903Y-139429553D01*
X68926325Y-139483290D01*
X68916093Y-139553545D01*
X68904662Y-139573445D01*
X68867603Y-139626175D01*
X68822501Y-139690348D01*
X68765309Y-139837039D01*
X68764318Y-139844568D01*
X68748455Y-139965060D01*
X68744758Y-139993138D01*
X65020000Y-139993138D01*
X65020000Y-138001480D01*
X65040002Y-137933359D01*
X65093658Y-137886866D01*
X65163932Y-137876762D01*
X65228512Y-137906256D01*
X65233912Y-137911216D01*
X65344466Y-138018913D01*
X65512637Y-138131282D01*
X65517940Y-138133560D01*
X65517943Y-138133562D01*
X65693163Y-138208842D01*
X65698470Y-138211122D01*
X65895740Y-138255760D01*
X65901509Y-138255987D01*
X65901512Y-138255987D01*
X65977683Y-138258979D01*
X66097842Y-138263700D01*
X66184132Y-138251189D01*
X66292286Y-138235508D01*
X66292291Y-138235507D01*
X66298007Y-138234678D01*
X66303479Y-138232820D01*
X66303481Y-138232820D01*
X66484067Y-138171519D01*
X66484069Y-138171518D01*
X66489531Y-138169664D01*
X66666001Y-138070837D01*
X66728433Y-138018913D01*
X66817073Y-137945191D01*
X66821505Y-137941505D01*
X66914274Y-137829963D01*
X66947146Y-137790439D01*
X66950837Y-137786001D01*
X67049664Y-137609531D01*
X67061684Y-137574123D01*
X67112820Y-137423481D01*
X67112820Y-137423479D01*
X67114678Y-137418007D01*
X67115507Y-137412291D01*
X67115508Y-137412286D01*
X67136236Y-137269323D01*
X67143700Y-137217842D01*
X67145215Y-137160000D01*
X67126708Y-136958591D01*
X67071807Y-136763926D01*
X66982351Y-136582527D01*
X66964079Y-136558057D01*
X66864788Y-136425091D01*
X66864787Y-136425090D01*
X66861335Y-136420467D01*
X66857099Y-136416551D01*
X66717053Y-136287094D01*
X66717051Y-136287092D01*
X66712812Y-136283174D01*
X66685374Y-136265862D01*
X66546637Y-136178325D01*
X66541757Y-136175246D01*
X66353898Y-136100298D01*
X66155526Y-136060839D01*
X66149752Y-136060763D01*
X66149748Y-136060763D01*
X66047257Y-136059422D01*
X65953286Y-136058192D01*
X65947589Y-136059171D01*
X65947588Y-136059171D01*
X65759646Y-136091465D01*
X65759645Y-136091465D01*
X65753949Y-136092444D01*
X65564193Y-136162449D01*
X65559232Y-136165401D01*
X65559231Y-136165401D01*
X65459194Y-136224917D01*
X65390371Y-136265862D01*
X65363927Y-136289053D01*
X65242650Y-136395409D01*
X65242647Y-136395412D01*
X65238305Y-136399220D01*
X65236563Y-136401429D01*
X65175995Y-136436590D01*
X65105071Y-136433379D01*
X65047142Y-136392334D01*
X65020599Y-136326486D01*
X65020000Y-136314212D01*
X65020000Y-135461480D01*
X65040002Y-135393359D01*
X65093658Y-135346866D01*
X65163932Y-135336762D01*
X65228512Y-135366256D01*
X65233912Y-135371216D01*
X65344466Y-135478913D01*
X65512637Y-135591282D01*
X65517940Y-135593560D01*
X65517943Y-135593562D01*
X65693163Y-135668842D01*
X65698470Y-135671122D01*
X65895740Y-135715760D01*
X65901509Y-135715987D01*
X65901512Y-135715987D01*
X65977683Y-135718979D01*
X66097842Y-135723700D01*
X66184132Y-135711189D01*
X66292286Y-135695508D01*
X66292291Y-135695507D01*
X66298007Y-135694678D01*
X66303479Y-135692820D01*
X66303481Y-135692820D01*
X66484067Y-135631519D01*
X66484069Y-135631518D01*
X66489531Y-135629664D01*
X66666001Y-135530837D01*
X66728433Y-135478913D01*
X66817073Y-135405191D01*
X66821505Y-135401505D01*
X66890436Y-135318625D01*
X66947146Y-135250439D01*
X66950837Y-135246001D01*
X67049664Y-135069531D01*
X67055364Y-135052741D01*
X67112820Y-134883481D01*
X67112820Y-134883479D01*
X67114678Y-134878007D01*
X67115507Y-134872291D01*
X67115508Y-134872286D01*
X67136236Y-134729323D01*
X67143700Y-134677842D01*
X67145215Y-134620000D01*
X67126708Y-134418591D01*
X67071807Y-134223926D01*
X67031933Y-134143069D01*
X84694164Y-134143069D01*
X84707392Y-134344894D01*
X84757178Y-134540928D01*
X84841856Y-134724607D01*
X84845189Y-134729323D01*
X84950268Y-134878007D01*
X84958588Y-134889780D01*
X85103466Y-135030913D01*
X85271637Y-135143282D01*
X85276940Y-135145560D01*
X85276943Y-135145562D01*
X85452163Y-135220842D01*
X85457470Y-135223122D01*
X85654740Y-135267760D01*
X85660509Y-135267987D01*
X85660512Y-135267987D01*
X85736683Y-135270979D01*
X85856842Y-135275700D01*
X85943132Y-135263189D01*
X86051286Y-135247508D01*
X86051291Y-135247507D01*
X86057007Y-135246678D01*
X86062479Y-135244820D01*
X86062481Y-135244820D01*
X86243067Y-135183519D01*
X86243069Y-135183518D01*
X86248531Y-135181664D01*
X86425001Y-135082837D01*
X86468482Y-135046674D01*
X87238500Y-135046674D01*
X87253034Y-135119740D01*
X87308399Y-135202601D01*
X87391260Y-135257966D01*
X87464326Y-135272500D01*
X89213674Y-135272500D01*
X89286740Y-135257966D01*
X89369601Y-135202601D01*
X89424966Y-135119740D01*
X89439500Y-135046674D01*
X89439500Y-133297326D01*
X89424966Y-133224260D01*
X89369601Y-133141399D01*
X89286740Y-133086034D01*
X89213674Y-133071500D01*
X87464326Y-133071500D01*
X87391260Y-133086034D01*
X87308399Y-133141399D01*
X87253034Y-133224260D01*
X87238500Y-133297326D01*
X87238500Y-135046674D01*
X86468482Y-135046674D01*
X86487433Y-135030913D01*
X86576073Y-134957191D01*
X86580505Y-134953505D01*
X86709837Y-134798001D01*
X86808664Y-134621531D01*
X86820952Y-134585334D01*
X86871820Y-134435481D01*
X86871820Y-134435479D01*
X86873678Y-134430007D01*
X86874507Y-134424291D01*
X86874508Y-134424286D01*
X86902167Y-134233516D01*
X86902700Y-134229842D01*
X86904215Y-134172000D01*
X86885708Y-133970591D01*
X86860291Y-133880467D01*
X86832376Y-133781490D01*
X86830807Y-133775926D01*
X86741351Y-133594527D01*
X86723079Y-133570057D01*
X86623788Y-133437091D01*
X86623787Y-133437090D01*
X86620335Y-133432467D01*
X86597350Y-133411220D01*
X86476053Y-133299094D01*
X86476051Y-133299092D01*
X86471812Y-133295174D01*
X86444374Y-133277862D01*
X86305637Y-133190325D01*
X86300757Y-133187246D01*
X86112898Y-133112298D01*
X85914526Y-133072839D01*
X85908752Y-133072763D01*
X85908748Y-133072763D01*
X85806257Y-133071422D01*
X85712286Y-133070192D01*
X85706589Y-133071171D01*
X85706588Y-133071171D01*
X85518646Y-133103465D01*
X85518645Y-133103465D01*
X85512949Y-133104444D01*
X85323193Y-133174449D01*
X85149371Y-133277862D01*
X84997305Y-133411220D01*
X84872089Y-133570057D01*
X84777914Y-133749053D01*
X84717937Y-133942213D01*
X84694164Y-134143069D01*
X67031933Y-134143069D01*
X66982351Y-134042527D01*
X66964079Y-134018057D01*
X66864788Y-133885091D01*
X66864787Y-133885090D01*
X66861335Y-133880467D01*
X66857099Y-133876551D01*
X66717053Y-133747094D01*
X66717051Y-133747092D01*
X66712812Y-133743174D01*
X66685374Y-133725862D01*
X66546637Y-133638325D01*
X66541757Y-133635246D01*
X66353898Y-133560298D01*
X66155526Y-133520839D01*
X66149752Y-133520763D01*
X66149748Y-133520763D01*
X66047257Y-133519422D01*
X65953286Y-133518192D01*
X65947589Y-133519171D01*
X65947588Y-133519171D01*
X65759646Y-133551465D01*
X65759645Y-133551465D01*
X65753949Y-133552444D01*
X65564193Y-133622449D01*
X65390371Y-133725862D01*
X65363927Y-133749053D01*
X65242650Y-133855409D01*
X65242647Y-133855412D01*
X65238305Y-133859220D01*
X65236563Y-133861429D01*
X65175995Y-133896590D01*
X65105071Y-133893379D01*
X65047142Y-133852334D01*
X65020599Y-133786486D01*
X65020000Y-133774212D01*
X65020000Y-132921480D01*
X65040002Y-132853359D01*
X65093658Y-132806866D01*
X65163932Y-132796762D01*
X65228512Y-132826256D01*
X65233912Y-132831216D01*
X65344466Y-132938913D01*
X65512637Y-133051282D01*
X65517940Y-133053560D01*
X65517943Y-133053562D01*
X65693163Y-133128842D01*
X65698470Y-133131122D01*
X65895740Y-133175760D01*
X65901509Y-133175987D01*
X65901512Y-133175987D01*
X65977683Y-133178979D01*
X66097842Y-133183700D01*
X66184132Y-133171189D01*
X66292286Y-133155508D01*
X66292291Y-133155507D01*
X66298007Y-133154678D01*
X66303479Y-133152820D01*
X66303481Y-133152820D01*
X66484067Y-133091519D01*
X66484069Y-133091518D01*
X66489531Y-133089664D01*
X66666001Y-132990837D01*
X66728433Y-132938913D01*
X66789895Y-132887795D01*
X66821505Y-132861505D01*
X66950837Y-132706001D01*
X67049664Y-132529531D01*
X67055752Y-132511598D01*
X67112820Y-132343481D01*
X67112820Y-132343479D01*
X67114678Y-132338007D01*
X67115094Y-132335138D01*
X80594758Y-132335138D01*
X80612035Y-132491633D01*
X80666143Y-132639490D01*
X80670380Y-132645796D01*
X80670382Y-132645799D01*
X80707452Y-132700964D01*
X80753958Y-132770172D01*
X80870410Y-132876135D01*
X80877085Y-132879759D01*
X81002099Y-132947637D01*
X81002101Y-132947638D01*
X81008776Y-132951262D01*
X81016125Y-132953190D01*
X81153719Y-132989287D01*
X81153721Y-132989287D01*
X81161069Y-132991215D01*
X81244380Y-132992524D01*
X81310898Y-132993569D01*
X81310901Y-132993569D01*
X81318495Y-132993688D01*
X81471968Y-132958538D01*
X81612625Y-132887795D01*
X81648597Y-132857072D01*
X81726574Y-132790474D01*
X81726576Y-132790471D01*
X81732348Y-132785542D01*
X81824224Y-132657683D01*
X81882950Y-132511598D01*
X81905134Y-132355723D01*
X81905278Y-132342000D01*
X81904103Y-132332286D01*
X81896501Y-132269474D01*
X81886363Y-132185694D01*
X81860969Y-132118490D01*
X81833394Y-132045514D01*
X81833393Y-132045511D01*
X81830710Y-132038412D01*
X81741531Y-131908657D01*
X81669743Y-131844696D01*
X81635446Y-131814138D01*
X94894758Y-131814138D01*
X94912035Y-131970633D01*
X94966143Y-132118490D01*
X94970380Y-132124796D01*
X94970382Y-132124799D01*
X95006529Y-132178591D01*
X95053958Y-132249172D01*
X95076270Y-132269474D01*
X95151587Y-132338007D01*
X95170410Y-132355135D01*
X95177085Y-132358759D01*
X95302099Y-132426637D01*
X95302101Y-132426638D01*
X95308776Y-132430262D01*
X95316125Y-132432190D01*
X95453719Y-132468287D01*
X95453721Y-132468287D01*
X95461069Y-132470215D01*
X95544380Y-132471524D01*
X95610898Y-132472569D01*
X95610901Y-132472569D01*
X95618495Y-132472688D01*
X95771968Y-132437538D01*
X95912625Y-132366795D01*
X95941656Y-132342000D01*
X96026574Y-132269474D01*
X96026576Y-132269471D01*
X96032348Y-132264542D01*
X96124224Y-132136683D01*
X96182950Y-131990598D01*
X96196052Y-131898538D01*
X96204553Y-131838807D01*
X96204553Y-131838804D01*
X96205134Y-131834723D01*
X96205278Y-131821000D01*
X96203823Y-131808972D01*
X96201000Y-131785652D01*
X96186363Y-131664694D01*
X96130710Y-131517412D01*
X96041531Y-131387657D01*
X95969817Y-131323762D01*
X95929648Y-131287972D01*
X95929645Y-131287970D01*
X95923976Y-131282919D01*
X95784831Y-131209245D01*
X95777466Y-131207395D01*
X95639498Y-131172740D01*
X95639496Y-131172740D01*
X95632128Y-131170889D01*
X95624530Y-131170849D01*
X95624528Y-131170849D01*
X95557319Y-131170497D01*
X95474684Y-131170065D01*
X95467305Y-131171837D01*
X95467301Y-131171837D01*
X95328967Y-131205048D01*
X95328963Y-131205049D01*
X95321588Y-131206820D01*
X95181679Y-131279032D01*
X95175957Y-131284024D01*
X95175955Y-131284025D01*
X95068759Y-131377538D01*
X95068756Y-131377541D01*
X95063034Y-131382533D01*
X95058667Y-131388747D01*
X94978701Y-131502527D01*
X94972501Y-131511348D01*
X94915309Y-131658039D01*
X94914318Y-131665568D01*
X94895958Y-131805025D01*
X94894758Y-131814138D01*
X81635446Y-131814138D01*
X81629648Y-131808972D01*
X81629645Y-131808970D01*
X81623976Y-131803919D01*
X81484831Y-131730245D01*
X81468122Y-131726048D01*
X81339498Y-131693740D01*
X81339496Y-131693740D01*
X81332128Y-131691889D01*
X81324530Y-131691849D01*
X81324528Y-131691849D01*
X81257319Y-131691497D01*
X81174684Y-131691065D01*
X81167305Y-131692837D01*
X81167301Y-131692837D01*
X81028967Y-131726048D01*
X81028963Y-131726049D01*
X81021588Y-131727820D01*
X80881679Y-131800032D01*
X80875957Y-131805024D01*
X80875955Y-131805025D01*
X80768759Y-131898538D01*
X80768756Y-131898541D01*
X80763034Y-131903533D01*
X80672501Y-132032348D01*
X80615309Y-132179039D01*
X80594758Y-132335138D01*
X67115094Y-132335138D01*
X67115507Y-132332291D01*
X67115508Y-132332286D01*
X67143167Y-132141516D01*
X67143700Y-132137842D01*
X67145215Y-132080000D01*
X67126708Y-131878591D01*
X67108531Y-131814138D01*
X67099258Y-131781259D01*
X67071807Y-131683926D01*
X66982351Y-131502527D01*
X66964079Y-131478057D01*
X66864788Y-131345091D01*
X66864787Y-131345090D01*
X66861335Y-131340467D01*
X66857099Y-131336551D01*
X66717053Y-131207094D01*
X66717051Y-131207092D01*
X66712812Y-131203174D01*
X66685374Y-131185862D01*
X66546637Y-131098325D01*
X66541757Y-131095246D01*
X66353898Y-131020298D01*
X66155526Y-130980839D01*
X66149752Y-130980763D01*
X66149748Y-130980763D01*
X66047257Y-130979422D01*
X65953286Y-130978192D01*
X65947589Y-130979171D01*
X65947588Y-130979171D01*
X65759646Y-131011465D01*
X65759645Y-131011465D01*
X65753949Y-131012444D01*
X65564193Y-131082449D01*
X65559232Y-131085401D01*
X65559231Y-131085401D01*
X65415606Y-131170849D01*
X65390371Y-131185862D01*
X65363708Y-131209245D01*
X65242650Y-131315409D01*
X65242647Y-131315412D01*
X65238305Y-131319220D01*
X65236563Y-131321429D01*
X65175995Y-131356590D01*
X65105071Y-131353379D01*
X65047142Y-131312334D01*
X65020599Y-131246486D01*
X65020000Y-131234212D01*
X65020000Y-130381480D01*
X65040002Y-130313359D01*
X65093658Y-130266866D01*
X65163932Y-130256762D01*
X65228512Y-130286256D01*
X65233912Y-130291216D01*
X65344466Y-130398913D01*
X65512637Y-130511282D01*
X65517940Y-130513560D01*
X65517943Y-130513562D01*
X65606291Y-130551519D01*
X65698470Y-130591122D01*
X65895740Y-130635760D01*
X65901509Y-130635987D01*
X65901512Y-130635987D01*
X65977683Y-130638979D01*
X66097842Y-130643700D01*
X66184132Y-130631189D01*
X66292286Y-130615508D01*
X66292291Y-130615507D01*
X66298007Y-130614678D01*
X66303479Y-130612820D01*
X66303481Y-130612820D01*
X66484067Y-130551519D01*
X66484069Y-130551518D01*
X66489531Y-130549664D01*
X66666001Y-130450837D01*
X66728433Y-130398913D01*
X66817073Y-130325191D01*
X66821505Y-130321505D01*
X66922445Y-130200138D01*
X85546758Y-130200138D01*
X85564035Y-130356633D01*
X85618143Y-130504490D01*
X85622380Y-130510796D01*
X85622382Y-130510799D01*
X85646604Y-130546845D01*
X85705958Y-130635172D01*
X85822410Y-130741135D01*
X85829085Y-130744759D01*
X85954099Y-130812637D01*
X85954101Y-130812638D01*
X85960776Y-130816262D01*
X85968125Y-130818190D01*
X86105719Y-130854287D01*
X86105721Y-130854287D01*
X86113069Y-130856215D01*
X86196380Y-130857524D01*
X86262898Y-130858569D01*
X86262901Y-130858569D01*
X86270495Y-130858688D01*
X86423968Y-130823538D01*
X86564625Y-130752795D01*
X86590869Y-130730381D01*
X86678574Y-130655474D01*
X86678576Y-130655471D01*
X86684348Y-130650542D01*
X86776224Y-130522683D01*
X86834950Y-130376598D01*
X86849044Y-130277564D01*
X86878444Y-130212942D01*
X86938116Y-130174473D01*
X86975765Y-130169334D01*
X87010897Y-130169886D01*
X87010900Y-130169886D01*
X87018495Y-130170005D01*
X87171968Y-130134855D01*
X87312625Y-130064112D01*
X87344412Y-130036963D01*
X87426574Y-129966791D01*
X87426576Y-129966788D01*
X87432348Y-129961859D01*
X87524224Y-129834000D01*
X87582950Y-129687915D01*
X87594313Y-129608072D01*
X87604553Y-129536124D01*
X87604553Y-129536121D01*
X87605134Y-129532040D01*
X87605278Y-129518317D01*
X87595696Y-129439138D01*
X94488758Y-129439138D01*
X94506035Y-129595633D01*
X94560143Y-129743490D01*
X94564380Y-129749796D01*
X94564382Y-129749799D01*
X94576971Y-129768533D01*
X94647958Y-129874172D01*
X94764410Y-129980135D01*
X94785885Y-129991795D01*
X94896099Y-130051637D01*
X94896101Y-130051638D01*
X94902776Y-130055262D01*
X94910125Y-130057190D01*
X95047719Y-130093287D01*
X95047721Y-130093287D01*
X95055069Y-130095215D01*
X95138380Y-130096524D01*
X95204898Y-130097569D01*
X95204901Y-130097569D01*
X95212495Y-130097688D01*
X95365968Y-130062538D01*
X95506625Y-129991795D01*
X95548894Y-129955694D01*
X95620574Y-129894474D01*
X95620576Y-129894471D01*
X95626348Y-129889542D01*
X95718224Y-129761683D01*
X95776950Y-129615598D01*
X95784730Y-129560931D01*
X95798553Y-129463807D01*
X95798553Y-129463804D01*
X95799134Y-129459723D01*
X95799278Y-129446000D01*
X95780363Y-129289694D01*
X95724710Y-129142412D01*
X95635531Y-129012657D01*
X95585082Y-128967708D01*
X95523648Y-128912972D01*
X95523645Y-128912970D01*
X95517976Y-128907919D01*
X95507487Y-128902365D01*
X95385543Y-128837799D01*
X95385544Y-128837799D01*
X95378831Y-128834245D01*
X95362122Y-128830048D01*
X95233498Y-128797740D01*
X95233496Y-128797740D01*
X95226128Y-128795889D01*
X95218530Y-128795849D01*
X95218528Y-128795849D01*
X95151319Y-128795497D01*
X95068684Y-128795065D01*
X95061305Y-128796837D01*
X95061301Y-128796837D01*
X94922967Y-128830048D01*
X94922963Y-128830049D01*
X94915588Y-128831820D01*
X94775679Y-128904032D01*
X94769957Y-128909024D01*
X94769955Y-128909025D01*
X94662759Y-129002538D01*
X94662756Y-129002541D01*
X94657034Y-129007533D01*
X94652667Y-129013747D01*
X94576184Y-129122571D01*
X94566501Y-129136348D01*
X94509309Y-129283039D01*
X94488758Y-129439138D01*
X87595696Y-129439138D01*
X87586363Y-129362011D01*
X87556353Y-129282591D01*
X87533394Y-129221831D01*
X87533393Y-129221828D01*
X87530710Y-129214729D01*
X87441531Y-129084974D01*
X87394971Y-129043491D01*
X87329648Y-128985289D01*
X87329645Y-128985287D01*
X87323976Y-128980236D01*
X87184831Y-128906562D01*
X87177466Y-128904712D01*
X87039498Y-128870057D01*
X87039496Y-128870057D01*
X87032128Y-128868206D01*
X87024530Y-128868166D01*
X87024528Y-128868166D01*
X86957319Y-128867814D01*
X86874684Y-128867382D01*
X86867305Y-128869154D01*
X86867301Y-128869154D01*
X86728967Y-128902365D01*
X86728963Y-128902366D01*
X86721588Y-128904137D01*
X86581679Y-128976349D01*
X86575957Y-128981341D01*
X86575955Y-128981342D01*
X86468759Y-129074855D01*
X86468756Y-129074858D01*
X86463034Y-129079850D01*
X86372501Y-129208665D01*
X86315309Y-129355356D01*
X86303376Y-129446000D01*
X86303273Y-129446780D01*
X86274551Y-129511707D01*
X86215286Y-129550799D01*
X86177691Y-129556332D01*
X86126684Y-129556065D01*
X86119305Y-129557837D01*
X86119301Y-129557837D01*
X85980967Y-129591048D01*
X85980963Y-129591049D01*
X85973588Y-129592820D01*
X85833679Y-129665032D01*
X85827957Y-129670024D01*
X85827955Y-129670025D01*
X85720759Y-129763538D01*
X85720756Y-129763541D01*
X85715034Y-129768533D01*
X85624501Y-129897348D01*
X85567309Y-130044039D01*
X85564217Y-130067525D01*
X85550137Y-130174473D01*
X85546758Y-130200138D01*
X66922445Y-130200138D01*
X66950837Y-130166001D01*
X66968280Y-130134855D01*
X66989298Y-130097323D01*
X67049664Y-129989531D01*
X67051624Y-129983759D01*
X67112820Y-129803481D01*
X67112820Y-129803479D01*
X67114678Y-129798007D01*
X67115507Y-129792291D01*
X67115508Y-129792286D01*
X67140103Y-129622652D01*
X67143700Y-129597842D01*
X67145215Y-129540000D01*
X67126708Y-129338591D01*
X67110915Y-129282591D01*
X67093778Y-129221831D01*
X67071807Y-129143926D01*
X66982351Y-128962527D01*
X66964079Y-128938057D01*
X66864788Y-128805091D01*
X66864787Y-128805090D01*
X66861335Y-128800467D01*
X66856383Y-128795889D01*
X66717053Y-128667094D01*
X66717051Y-128667092D01*
X66712812Y-128663174D01*
X66685374Y-128645862D01*
X66546637Y-128558325D01*
X66541757Y-128555246D01*
X66353898Y-128480298D01*
X66179261Y-128445560D01*
X66161192Y-128441966D01*
X66161191Y-128441966D01*
X66155526Y-128440839D01*
X66149752Y-128440763D01*
X66149748Y-128440763D01*
X66047257Y-128439422D01*
X65953286Y-128438192D01*
X65947589Y-128439171D01*
X65947588Y-128439171D01*
X65759646Y-128471465D01*
X65759645Y-128471465D01*
X65753949Y-128472444D01*
X65564193Y-128542449D01*
X65559232Y-128545401D01*
X65559231Y-128545401D01*
X65482267Y-128591190D01*
X65390371Y-128645862D01*
X65335238Y-128694212D01*
X65242650Y-128775409D01*
X65242647Y-128775412D01*
X65238305Y-128779220D01*
X65236563Y-128781429D01*
X65175995Y-128816590D01*
X65105071Y-128813379D01*
X65047142Y-128772334D01*
X65020599Y-128706486D01*
X65020000Y-128694212D01*
X65020000Y-127841480D01*
X65040002Y-127773359D01*
X65093658Y-127726866D01*
X65163932Y-127716762D01*
X65228512Y-127746256D01*
X65233912Y-127751216D01*
X65344466Y-127858913D01*
X65512637Y-127971282D01*
X65517940Y-127973560D01*
X65517943Y-127973562D01*
X65606291Y-128011519D01*
X65698470Y-128051122D01*
X65895740Y-128095760D01*
X65901509Y-128095987D01*
X65901512Y-128095987D01*
X65977683Y-128098979D01*
X66097842Y-128103700D01*
X66184132Y-128091189D01*
X66292286Y-128075508D01*
X66292291Y-128075507D01*
X66298007Y-128074678D01*
X66303479Y-128072820D01*
X66303481Y-128072820D01*
X66484067Y-128011519D01*
X66484069Y-128011518D01*
X66489531Y-128009664D01*
X66554754Y-127973138D01*
X90079758Y-127973138D01*
X90097035Y-128129633D01*
X90151143Y-128277490D01*
X90155380Y-128283796D01*
X90155382Y-128283799D01*
X90185235Y-128328224D01*
X90238958Y-128408172D01*
X90261270Y-128428474D01*
X90318224Y-128480298D01*
X90355410Y-128514135D01*
X90376885Y-128525795D01*
X90487099Y-128585637D01*
X90487101Y-128585638D01*
X90493776Y-128589262D01*
X90501125Y-128591190D01*
X90638719Y-128627287D01*
X90638721Y-128627287D01*
X90646069Y-128629215D01*
X90729380Y-128630524D01*
X90795898Y-128631569D01*
X90795901Y-128631569D01*
X90803495Y-128631688D01*
X90956968Y-128596538D01*
X91097625Y-128525795D01*
X91160091Y-128472444D01*
X91211574Y-128428474D01*
X91211576Y-128428471D01*
X91217348Y-128423542D01*
X91309224Y-128295683D01*
X91367950Y-128149598D01*
X91382290Y-128048842D01*
X91389553Y-127997807D01*
X91389553Y-127997804D01*
X91390134Y-127993723D01*
X91390278Y-127980000D01*
X91380536Y-127899496D01*
X92338116Y-127899496D01*
X92355393Y-128055991D01*
X92409501Y-128203848D01*
X92413738Y-128210154D01*
X92413740Y-128210157D01*
X92454067Y-128270169D01*
X92497316Y-128334530D01*
X92613768Y-128440493D01*
X92620443Y-128444117D01*
X92745457Y-128511995D01*
X92745459Y-128511996D01*
X92752134Y-128515620D01*
X92759483Y-128517548D01*
X92897077Y-128553645D01*
X92897079Y-128553645D01*
X92904427Y-128555573D01*
X92987738Y-128556882D01*
X93054256Y-128557927D01*
X93054259Y-128557927D01*
X93061853Y-128558046D01*
X93215326Y-128522896D01*
X93355983Y-128452153D01*
X93414862Y-128401866D01*
X93469932Y-128354832D01*
X93469934Y-128354829D01*
X93475706Y-128349900D01*
X93567582Y-128222041D01*
X93626308Y-128075956D01*
X93639376Y-127984134D01*
X93647911Y-127924165D01*
X93647911Y-127924162D01*
X93648492Y-127920081D01*
X93648636Y-127906358D01*
X93629721Y-127750052D01*
X93620960Y-127726866D01*
X93576752Y-127609872D01*
X93576751Y-127609869D01*
X93574068Y-127602770D01*
X93484889Y-127473015D01*
X93373954Y-127374175D01*
X93373006Y-127373330D01*
X93373003Y-127373328D01*
X93367334Y-127368277D01*
X93228189Y-127294603D01*
X93211480Y-127290406D01*
X93082856Y-127258098D01*
X93082854Y-127258098D01*
X93075486Y-127256247D01*
X93067888Y-127256207D01*
X93067886Y-127256207D01*
X93000677Y-127255855D01*
X92918042Y-127255423D01*
X92910663Y-127257195D01*
X92910659Y-127257195D01*
X92772325Y-127290406D01*
X92772321Y-127290407D01*
X92764946Y-127292178D01*
X92625037Y-127364390D01*
X92619315Y-127369382D01*
X92619313Y-127369383D01*
X92512117Y-127462896D01*
X92512114Y-127462899D01*
X92506392Y-127467891D01*
X92502025Y-127474105D01*
X92446635Y-127552917D01*
X92415859Y-127596706D01*
X92358667Y-127743397D01*
X92353650Y-127781505D01*
X92347981Y-127824568D01*
X92338116Y-127899496D01*
X91380536Y-127899496D01*
X91371363Y-127823694D01*
X91355421Y-127781505D01*
X91318394Y-127683514D01*
X91318393Y-127683511D01*
X91315710Y-127676412D01*
X91226531Y-127546657D01*
X91179971Y-127505174D01*
X91114648Y-127446972D01*
X91114645Y-127446970D01*
X91108976Y-127441919D01*
X90969831Y-127368245D01*
X90955805Y-127364722D01*
X90824498Y-127331740D01*
X90824496Y-127331740D01*
X90817128Y-127329889D01*
X90809530Y-127329849D01*
X90809528Y-127329849D01*
X90742319Y-127329497D01*
X90659684Y-127329065D01*
X90652305Y-127330837D01*
X90652301Y-127330837D01*
X90513967Y-127364048D01*
X90513963Y-127364049D01*
X90506588Y-127365820D01*
X90366679Y-127438032D01*
X90360957Y-127443024D01*
X90360955Y-127443025D01*
X90253759Y-127536538D01*
X90253756Y-127536541D01*
X90248034Y-127541533D01*
X90243667Y-127547747D01*
X90185550Y-127630439D01*
X90157501Y-127670348D01*
X90100309Y-127817039D01*
X90094796Y-127858913D01*
X90088006Y-127910492D01*
X90079758Y-127973138D01*
X66554754Y-127973138D01*
X66642202Y-127924165D01*
X66660964Y-127913658D01*
X66660965Y-127913657D01*
X66666001Y-127910837D01*
X66728433Y-127858913D01*
X66769728Y-127824568D01*
X66821505Y-127781505D01*
X66950837Y-127626001D01*
X66970725Y-127590489D01*
X67000938Y-127536538D01*
X67049664Y-127449531D01*
X67053568Y-127438032D01*
X67112820Y-127263481D01*
X67112820Y-127263479D01*
X67114678Y-127258007D01*
X67115507Y-127252291D01*
X67115508Y-127252286D01*
X67143167Y-127061516D01*
X67143700Y-127057842D01*
X67145215Y-127000000D01*
X67126708Y-126798591D01*
X67071807Y-126603926D01*
X66982351Y-126422527D01*
X66964079Y-126398057D01*
X66864788Y-126265091D01*
X66864787Y-126265090D01*
X66861335Y-126260467D01*
X66857099Y-126256551D01*
X66717053Y-126127094D01*
X66717051Y-126127092D01*
X66712812Y-126123174D01*
X66685374Y-126105862D01*
X66546637Y-126018325D01*
X66541757Y-126015246D01*
X66353898Y-125940298D01*
X66155526Y-125900839D01*
X66149752Y-125900763D01*
X66149748Y-125900763D01*
X66047257Y-125899422D01*
X65953286Y-125898192D01*
X65947589Y-125899171D01*
X65947588Y-125899171D01*
X65759646Y-125931465D01*
X65759645Y-125931465D01*
X65753949Y-125932444D01*
X65564193Y-126002449D01*
X65390371Y-126105862D01*
X65335238Y-126154212D01*
X65242650Y-126235409D01*
X65242647Y-126235412D01*
X65238305Y-126239220D01*
X65236563Y-126241429D01*
X65175995Y-126276590D01*
X65105071Y-126273379D01*
X65047142Y-126232334D01*
X65020599Y-126166486D01*
X65020000Y-126154212D01*
X65020000Y-125301480D01*
X65040002Y-125233359D01*
X65093658Y-125186866D01*
X65163932Y-125176762D01*
X65228512Y-125206256D01*
X65233912Y-125211216D01*
X65344466Y-125318913D01*
X65512637Y-125431282D01*
X65517940Y-125433560D01*
X65517943Y-125433562D01*
X65606291Y-125471519D01*
X65698470Y-125511122D01*
X65895740Y-125555760D01*
X65901509Y-125555987D01*
X65901512Y-125555987D01*
X65977683Y-125558979D01*
X66097842Y-125563700D01*
X66184132Y-125551189D01*
X66292286Y-125535508D01*
X66292291Y-125535507D01*
X66298007Y-125534678D01*
X66303479Y-125532820D01*
X66303481Y-125532820D01*
X66484067Y-125471519D01*
X66484069Y-125471518D01*
X66489531Y-125469664D01*
X66666001Y-125370837D01*
X66728433Y-125318913D01*
X66785802Y-125271199D01*
X76584376Y-125271199D01*
X76601653Y-125427694D01*
X76655761Y-125575551D01*
X76659998Y-125581857D01*
X76660000Y-125581860D01*
X76700327Y-125641872D01*
X76743576Y-125706233D01*
X76860028Y-125812196D01*
X76866703Y-125815820D01*
X76991717Y-125883698D01*
X76991719Y-125883699D01*
X76998394Y-125887323D01*
X77005743Y-125889251D01*
X77143337Y-125925348D01*
X77143339Y-125925348D01*
X77150687Y-125927276D01*
X77233998Y-125928585D01*
X77300516Y-125929630D01*
X77300519Y-125929630D01*
X77308113Y-125929749D01*
X77461586Y-125894599D01*
X77602243Y-125823856D01*
X77628487Y-125801442D01*
X77716192Y-125726535D01*
X77716194Y-125726532D01*
X77721966Y-125721603D01*
X77813842Y-125593744D01*
X77872568Y-125447659D01*
X77894752Y-125291784D01*
X77894896Y-125278061D01*
X77875981Y-125121755D01*
X77862471Y-125086001D01*
X77823012Y-124981575D01*
X77823011Y-124981572D01*
X77820328Y-124974473D01*
X77731149Y-124844718D01*
X77684589Y-124803235D01*
X77619266Y-124745033D01*
X77619263Y-124745031D01*
X77613594Y-124739980D01*
X77474449Y-124666306D01*
X77363732Y-124638496D01*
X77329116Y-124629801D01*
X77329114Y-124629801D01*
X77321746Y-124627950D01*
X77314148Y-124627910D01*
X77314146Y-124627910D01*
X77246937Y-124627558D01*
X77164302Y-124627126D01*
X77156923Y-124628898D01*
X77156919Y-124628898D01*
X77018585Y-124662109D01*
X77018581Y-124662110D01*
X77011206Y-124663881D01*
X76871297Y-124736093D01*
X76865575Y-124741085D01*
X76865573Y-124741086D01*
X76758377Y-124834599D01*
X76758374Y-124834602D01*
X76752652Y-124839594D01*
X76662119Y-124968409D01*
X76604927Y-125115100D01*
X76603936Y-125122629D01*
X76588869Y-125237073D01*
X76584376Y-125271199D01*
X66785802Y-125271199D01*
X66817073Y-125245191D01*
X66821505Y-125241505D01*
X66921101Y-125121755D01*
X66947146Y-125090439D01*
X66950837Y-125086001D01*
X67049664Y-124909531D01*
X67114678Y-124718007D01*
X67115507Y-124712291D01*
X67115508Y-124712286D01*
X67143167Y-124521516D01*
X67143700Y-124517842D01*
X67145215Y-124460000D01*
X67126708Y-124258591D01*
X67071807Y-124063926D01*
X66982351Y-123882527D01*
X66964079Y-123858057D01*
X66864788Y-123725091D01*
X66864787Y-123725090D01*
X66861335Y-123720467D01*
X66857099Y-123716551D01*
X66717053Y-123587094D01*
X66717051Y-123587092D01*
X66712812Y-123583174D01*
X66685374Y-123565862D01*
X66546637Y-123478325D01*
X66541757Y-123475246D01*
X66470614Y-123446863D01*
X76626802Y-123446863D01*
X76644079Y-123603358D01*
X76698187Y-123751215D01*
X76702424Y-123757521D01*
X76702426Y-123757524D01*
X76742753Y-123817536D01*
X76786002Y-123881897D01*
X76902454Y-123987860D01*
X76909129Y-123991484D01*
X77034143Y-124059362D01*
X77034145Y-124059363D01*
X77040820Y-124062987D01*
X77048169Y-124064915D01*
X77185763Y-124101012D01*
X77185765Y-124101012D01*
X77193113Y-124102940D01*
X77276424Y-124104249D01*
X77342942Y-124105294D01*
X77342945Y-124105294D01*
X77350539Y-124105413D01*
X77504012Y-124070263D01*
X77644669Y-123999520D01*
X77670913Y-123977106D01*
X77758618Y-123902199D01*
X77758620Y-123902196D01*
X77764392Y-123897267D01*
X77856268Y-123769408D01*
X77914994Y-123623323D01*
X77937178Y-123467448D01*
X77937322Y-123453725D01*
X77918407Y-123297419D01*
X77862754Y-123150137D01*
X77773575Y-123020382D01*
X77668592Y-122926845D01*
X77661692Y-122920697D01*
X77661689Y-122920695D01*
X77656020Y-122915644D01*
X77516875Y-122841970D01*
X77500166Y-122837773D01*
X77371542Y-122805465D01*
X77371540Y-122805465D01*
X77364172Y-122803614D01*
X77356574Y-122803574D01*
X77356572Y-122803574D01*
X77289363Y-122803222D01*
X77206728Y-122802790D01*
X77199349Y-122804562D01*
X77199345Y-122804562D01*
X77061011Y-122837773D01*
X77061007Y-122837774D01*
X77053632Y-122839545D01*
X76913723Y-122911757D01*
X76908001Y-122916749D01*
X76907999Y-122916750D01*
X76800803Y-123010263D01*
X76800800Y-123010266D01*
X76795078Y-123015258D01*
X76704545Y-123144073D01*
X76647353Y-123290764D01*
X76626802Y-123446863D01*
X66470614Y-123446863D01*
X66353898Y-123400298D01*
X66155526Y-123360839D01*
X66149752Y-123360763D01*
X66149748Y-123360763D01*
X66047257Y-123359422D01*
X65953286Y-123358192D01*
X65947589Y-123359171D01*
X65947588Y-123359171D01*
X65759646Y-123391465D01*
X65759645Y-123391465D01*
X65753949Y-123392444D01*
X65564193Y-123462449D01*
X65390371Y-123565862D01*
X65335238Y-123614212D01*
X65242650Y-123695409D01*
X65242647Y-123695412D01*
X65238305Y-123699220D01*
X65236563Y-123701429D01*
X65175995Y-123736590D01*
X65105071Y-123733379D01*
X65047142Y-123692334D01*
X65020599Y-123626486D01*
X65020000Y-123614212D01*
X65020000Y-122761480D01*
X65040002Y-122693359D01*
X65093658Y-122646866D01*
X65163932Y-122636762D01*
X65228512Y-122666256D01*
X65233912Y-122671216D01*
X65344466Y-122778913D01*
X65512637Y-122891282D01*
X65517940Y-122893560D01*
X65517943Y-122893562D01*
X65606291Y-122931519D01*
X65698470Y-122971122D01*
X65895740Y-123015760D01*
X65901509Y-123015987D01*
X65901512Y-123015987D01*
X65977683Y-123018979D01*
X66097842Y-123023700D01*
X66190517Y-123010263D01*
X66292286Y-122995508D01*
X66292291Y-122995507D01*
X66298007Y-122994678D01*
X66303479Y-122992820D01*
X66303481Y-122992820D01*
X66484067Y-122931519D01*
X66484069Y-122931518D01*
X66489531Y-122929664D01*
X66644236Y-122843026D01*
X66660964Y-122833658D01*
X66660965Y-122833657D01*
X66666001Y-122830837D01*
X66728433Y-122778913D01*
X66814496Y-122707334D01*
X66821505Y-122701505D01*
X66906874Y-122598860D01*
X66947146Y-122550439D01*
X66950837Y-122546001D01*
X67049664Y-122369531D01*
X67053181Y-122359172D01*
X67112820Y-122183481D01*
X67112820Y-122183479D01*
X67114678Y-122178007D01*
X67115507Y-122172291D01*
X67115508Y-122172286D01*
X67138363Y-122014652D01*
X67143700Y-121977842D01*
X67145107Y-121924138D01*
X72970758Y-121924138D01*
X72988035Y-122080633D01*
X73042143Y-122228490D01*
X73046380Y-122234796D01*
X73046382Y-122234799D01*
X73078991Y-122283326D01*
X73129958Y-122359172D01*
X73246410Y-122465135D01*
X73273541Y-122479866D01*
X73378099Y-122536637D01*
X73378101Y-122536638D01*
X73384776Y-122540262D01*
X73392125Y-122542190D01*
X73529719Y-122578287D01*
X73529721Y-122578287D01*
X73537069Y-122580215D01*
X73620380Y-122581524D01*
X73686898Y-122582569D01*
X73686901Y-122582569D01*
X73694495Y-122582688D01*
X73847968Y-122547538D01*
X73988625Y-122476795D01*
X74027448Y-122443637D01*
X74102574Y-122379474D01*
X74102576Y-122379471D01*
X74108348Y-122374542D01*
X74200224Y-122246683D01*
X74205061Y-122234652D01*
X74227832Y-122178007D01*
X74258950Y-122100598D01*
X74265989Y-122051138D01*
X78144758Y-122051138D01*
X78162035Y-122207633D01*
X78216143Y-122355490D01*
X78220380Y-122361796D01*
X78220382Y-122361799D01*
X78260709Y-122421811D01*
X78303958Y-122486172D01*
X78420410Y-122592135D01*
X78427085Y-122595759D01*
X78552099Y-122663637D01*
X78552101Y-122663638D01*
X78558776Y-122667262D01*
X78566125Y-122669190D01*
X78703719Y-122705287D01*
X78703721Y-122705287D01*
X78711069Y-122707215D01*
X78794380Y-122708524D01*
X78860898Y-122709569D01*
X78860901Y-122709569D01*
X78868495Y-122709688D01*
X79021968Y-122674538D01*
X79162625Y-122603795D01*
X79232490Y-122544125D01*
X79276574Y-122506474D01*
X79276576Y-122506471D01*
X79282348Y-122501542D01*
X79374224Y-122373683D01*
X79432950Y-122227598D01*
X79443470Y-122153683D01*
X79454553Y-122075807D01*
X79454553Y-122075804D01*
X79455134Y-122071723D01*
X79455278Y-122058000D01*
X79436363Y-121901694D01*
X79409702Y-121831138D01*
X85573758Y-121831138D01*
X85591035Y-121987633D01*
X85645143Y-122135490D01*
X85649380Y-122141796D01*
X85649382Y-122141799D01*
X85669869Y-122172286D01*
X85732958Y-122266172D01*
X85751810Y-122283326D01*
X85843367Y-122366636D01*
X85849410Y-122372135D01*
X85870885Y-122383795D01*
X85981099Y-122443637D01*
X85981101Y-122443638D01*
X85987776Y-122447262D01*
X85995125Y-122449190D01*
X86132719Y-122485287D01*
X86132721Y-122485287D01*
X86140069Y-122487215D01*
X86223380Y-122488524D01*
X86289898Y-122489569D01*
X86289901Y-122489569D01*
X86297495Y-122489688D01*
X86450968Y-122454538D01*
X86591625Y-122383795D01*
X86696557Y-122294175D01*
X86705574Y-122286474D01*
X86705576Y-122286471D01*
X86711348Y-122281542D01*
X86803224Y-122153683D01*
X86861950Y-122007598D01*
X86872263Y-121935134D01*
X86883553Y-121855807D01*
X86883553Y-121855804D01*
X86884134Y-121851723D01*
X86884278Y-121838000D01*
X86865363Y-121681694D01*
X86844852Y-121627412D01*
X86812394Y-121541514D01*
X86812393Y-121541511D01*
X86809710Y-121534412D01*
X86720531Y-121404657D01*
X86628656Y-121322799D01*
X86608648Y-121304972D01*
X86608645Y-121304970D01*
X86602976Y-121299919D01*
X86463831Y-121226245D01*
X86447122Y-121222048D01*
X86318498Y-121189740D01*
X86318496Y-121189740D01*
X86311128Y-121187889D01*
X86303530Y-121187849D01*
X86303528Y-121187849D01*
X86236319Y-121187497D01*
X86153684Y-121187065D01*
X86146305Y-121188837D01*
X86146301Y-121188837D01*
X86007967Y-121222048D01*
X86007963Y-121222049D01*
X86000588Y-121223820D01*
X85860679Y-121296032D01*
X85854957Y-121301024D01*
X85854955Y-121301025D01*
X85747759Y-121394538D01*
X85747756Y-121394541D01*
X85742034Y-121399533D01*
X85710504Y-121444395D01*
X85656648Y-121521025D01*
X85651501Y-121528348D01*
X85594309Y-121675039D01*
X85593318Y-121682568D01*
X85584658Y-121748348D01*
X85573758Y-121831138D01*
X79409702Y-121831138D01*
X79388374Y-121774694D01*
X79383394Y-121761514D01*
X79383393Y-121761511D01*
X79380710Y-121754412D01*
X79291531Y-121624657D01*
X79244971Y-121583174D01*
X79179648Y-121524972D01*
X79179645Y-121524970D01*
X79173976Y-121519919D01*
X79034831Y-121446245D01*
X79018122Y-121442048D01*
X78889498Y-121409740D01*
X78889496Y-121409740D01*
X78882128Y-121407889D01*
X78874530Y-121407849D01*
X78874528Y-121407849D01*
X78807319Y-121407497D01*
X78724684Y-121407065D01*
X78717305Y-121408837D01*
X78717301Y-121408837D01*
X78578967Y-121442048D01*
X78578963Y-121442049D01*
X78571588Y-121443820D01*
X78564843Y-121447301D01*
X78564844Y-121447301D01*
X78455152Y-121503917D01*
X78431679Y-121516032D01*
X78425957Y-121521024D01*
X78425955Y-121521025D01*
X78318759Y-121614538D01*
X78318756Y-121614541D01*
X78313034Y-121619533D01*
X78308667Y-121625747D01*
X78239369Y-121724348D01*
X78222501Y-121748348D01*
X78165309Y-121895039D01*
X78160575Y-121931000D01*
X78149562Y-122014652D01*
X78144758Y-122051138D01*
X74265989Y-122051138D01*
X74275898Y-121981516D01*
X74280553Y-121948807D01*
X74280553Y-121948804D01*
X74281134Y-121944723D01*
X74281278Y-121931000D01*
X74262363Y-121774694D01*
X74232608Y-121695950D01*
X74209394Y-121634514D01*
X74209393Y-121634511D01*
X74206710Y-121627412D01*
X74117531Y-121497657D01*
X74055117Y-121442048D01*
X74005648Y-121397972D01*
X74005645Y-121397970D01*
X73999976Y-121392919D01*
X73961480Y-121372536D01*
X73867543Y-121322799D01*
X73867544Y-121322799D01*
X73860831Y-121319245D01*
X73838039Y-121313520D01*
X73715498Y-121282740D01*
X73715496Y-121282740D01*
X73708128Y-121280889D01*
X73700530Y-121280849D01*
X73700528Y-121280849D01*
X73633319Y-121280497D01*
X73550684Y-121280065D01*
X73543305Y-121281837D01*
X73543301Y-121281837D01*
X73404967Y-121315048D01*
X73404963Y-121315049D01*
X73397588Y-121316820D01*
X73390843Y-121320301D01*
X73390844Y-121320301D01*
X73281706Y-121376631D01*
X73257679Y-121389032D01*
X73251957Y-121394024D01*
X73251955Y-121394025D01*
X73144759Y-121487538D01*
X73144756Y-121487541D01*
X73139034Y-121492533D01*
X73113997Y-121528157D01*
X73071063Y-121589246D01*
X73048501Y-121621348D01*
X72991309Y-121768039D01*
X72990318Y-121775568D01*
X72973598Y-121902568D01*
X72970758Y-121924138D01*
X67145107Y-121924138D01*
X67145215Y-121920000D01*
X67126708Y-121718591D01*
X67112430Y-121667963D01*
X67090229Y-121589246D01*
X67071807Y-121523926D01*
X66982351Y-121342527D01*
X66967620Y-121322799D01*
X66864788Y-121185091D01*
X66864787Y-121185090D01*
X66861335Y-121180467D01*
X66857099Y-121176551D01*
X66717053Y-121047094D01*
X66717051Y-121047092D01*
X66712812Y-121043174D01*
X66685374Y-121025862D01*
X66546637Y-120938325D01*
X66541757Y-120935246D01*
X66534603Y-120932392D01*
X74651146Y-120932392D01*
X74668423Y-121088887D01*
X74722531Y-121236744D01*
X74726768Y-121243050D01*
X74726770Y-121243053D01*
X74761869Y-121295285D01*
X74810346Y-121367426D01*
X74926798Y-121473389D01*
X74971494Y-121497657D01*
X75058487Y-121544891D01*
X75058489Y-121544892D01*
X75065164Y-121548516D01*
X75072513Y-121550444D01*
X75210107Y-121586541D01*
X75210109Y-121586541D01*
X75217457Y-121588469D01*
X75300768Y-121589778D01*
X75367286Y-121590823D01*
X75367289Y-121590823D01*
X75374883Y-121590942D01*
X75528356Y-121555792D01*
X75669013Y-121485049D01*
X75695257Y-121462635D01*
X75782962Y-121387728D01*
X75782964Y-121387725D01*
X75788736Y-121382796D01*
X75880612Y-121254937D01*
X75890718Y-121229799D01*
X75936502Y-121115906D01*
X75939338Y-121108852D01*
X75957589Y-120980611D01*
X75986990Y-120915988D01*
X76046661Y-120877519D01*
X76078158Y-120873219D01*
X76078156Y-120873195D01*
X76078917Y-120873115D01*
X76084303Y-120872380D01*
X76093303Y-120872521D01*
X76246776Y-120837371D01*
X76387433Y-120766628D01*
X76501041Y-120669598D01*
X76501382Y-120669307D01*
X76501384Y-120669304D01*
X76507156Y-120664375D01*
X76599032Y-120536516D01*
X76657758Y-120390431D01*
X76672181Y-120289087D01*
X76679361Y-120238640D01*
X76679361Y-120238637D01*
X76679942Y-120234556D01*
X76680086Y-120220833D01*
X76661171Y-120064527D01*
X76605518Y-119917245D01*
X76516339Y-119787490D01*
X76469779Y-119746007D01*
X76404456Y-119687805D01*
X76404453Y-119687803D01*
X76398784Y-119682752D01*
X76259639Y-119609078D01*
X76242930Y-119604881D01*
X76114306Y-119572573D01*
X76114304Y-119572573D01*
X76106936Y-119570722D01*
X76099338Y-119570682D01*
X76099336Y-119570682D01*
X76032127Y-119570330D01*
X75949492Y-119569898D01*
X75942113Y-119571670D01*
X75942109Y-119571670D01*
X75803775Y-119604881D01*
X75803771Y-119604882D01*
X75796396Y-119606653D01*
X75656487Y-119678865D01*
X75650765Y-119683857D01*
X75650763Y-119683858D01*
X75543567Y-119777371D01*
X75543564Y-119777374D01*
X75537842Y-119782366D01*
X75533475Y-119788580D01*
X75462687Y-119889301D01*
X75447309Y-119911181D01*
X75390117Y-120057872D01*
X75376474Y-120161505D01*
X75374189Y-120178859D01*
X75345467Y-120243786D01*
X75286202Y-120282878D01*
X75248608Y-120288411D01*
X75231072Y-120288319D01*
X75223693Y-120290091D01*
X75223689Y-120290091D01*
X75085355Y-120323302D01*
X75085351Y-120323303D01*
X75077976Y-120325074D01*
X75071231Y-120328555D01*
X75071232Y-120328555D01*
X74979419Y-120375943D01*
X74938067Y-120397286D01*
X74932345Y-120402278D01*
X74932343Y-120402279D01*
X74825147Y-120495792D01*
X74825144Y-120495795D01*
X74819422Y-120500787D01*
X74728889Y-120629602D01*
X74671697Y-120776293D01*
X74670706Y-120783822D01*
X74652532Y-120921866D01*
X74651146Y-120932392D01*
X66534603Y-120932392D01*
X66353898Y-120860298D01*
X66155526Y-120820839D01*
X66149752Y-120820763D01*
X66149748Y-120820763D01*
X66047257Y-120819422D01*
X65953286Y-120818192D01*
X65947589Y-120819171D01*
X65947588Y-120819171D01*
X65759646Y-120851465D01*
X65759645Y-120851465D01*
X65753949Y-120852444D01*
X65564193Y-120922449D01*
X65390371Y-121025862D01*
X65335238Y-121074212D01*
X65242650Y-121155409D01*
X65242647Y-121155412D01*
X65238305Y-121159220D01*
X65236563Y-121161429D01*
X65175995Y-121196590D01*
X65105071Y-121193379D01*
X65047142Y-121152334D01*
X65020599Y-121086486D01*
X65020000Y-121074212D01*
X65020000Y-120221480D01*
X65040002Y-120153359D01*
X65093658Y-120106866D01*
X65163932Y-120096762D01*
X65228512Y-120126256D01*
X65233912Y-120131216D01*
X65344466Y-120238913D01*
X65512637Y-120351282D01*
X65517940Y-120353560D01*
X65517943Y-120353562D01*
X65631336Y-120402279D01*
X65698470Y-120431122D01*
X65895740Y-120475760D01*
X65901509Y-120475987D01*
X65901512Y-120475987D01*
X65977683Y-120478979D01*
X66097842Y-120483700D01*
X66184132Y-120471189D01*
X66292286Y-120455508D01*
X66292291Y-120455507D01*
X66298007Y-120454678D01*
X66303479Y-120452820D01*
X66303481Y-120452820D01*
X66484067Y-120391519D01*
X66484069Y-120391518D01*
X66489531Y-120389664D01*
X66666001Y-120290837D01*
X66728433Y-120238913D01*
X66817073Y-120165191D01*
X66821505Y-120161505D01*
X66950837Y-120006001D01*
X66974905Y-119963025D01*
X67007420Y-119904964D01*
X67049664Y-119829531D01*
X67065675Y-119782366D01*
X67112820Y-119643481D01*
X67112820Y-119643479D01*
X67114678Y-119638007D01*
X67115507Y-119632291D01*
X67115508Y-119632286D01*
X67143167Y-119441516D01*
X67143700Y-119437842D01*
X67145215Y-119380000D01*
X67126708Y-119178591D01*
X67071807Y-118983926D01*
X66982351Y-118802527D01*
X66964079Y-118778057D01*
X66864788Y-118645091D01*
X66864787Y-118645090D01*
X66861335Y-118640467D01*
X66857099Y-118636551D01*
X66717053Y-118507094D01*
X66717051Y-118507092D01*
X66712812Y-118503174D01*
X66685374Y-118485862D01*
X66546637Y-118398325D01*
X66541757Y-118395246D01*
X66353898Y-118320298D01*
X66179261Y-118285560D01*
X66161192Y-118281966D01*
X66161191Y-118281966D01*
X66155526Y-118280839D01*
X66149752Y-118280763D01*
X66149748Y-118280763D01*
X66047257Y-118279422D01*
X65953286Y-118278192D01*
X65947589Y-118279171D01*
X65947588Y-118279171D01*
X65759646Y-118311465D01*
X65759645Y-118311465D01*
X65753949Y-118312444D01*
X65564193Y-118382449D01*
X65390371Y-118485862D01*
X65335238Y-118534212D01*
X65242650Y-118615409D01*
X65242647Y-118615412D01*
X65238305Y-118619220D01*
X65236563Y-118621429D01*
X65175995Y-118656590D01*
X65105071Y-118653379D01*
X65047142Y-118612334D01*
X65020599Y-118546486D01*
X65020000Y-118534212D01*
X65020000Y-117681480D01*
X65040002Y-117613359D01*
X65093658Y-117566866D01*
X65163932Y-117556762D01*
X65228512Y-117586256D01*
X65233912Y-117591216D01*
X65344466Y-117698913D01*
X65512637Y-117811282D01*
X65517940Y-117813560D01*
X65517943Y-117813562D01*
X65693163Y-117888842D01*
X65698470Y-117891122D01*
X65895740Y-117935760D01*
X65901509Y-117935987D01*
X65901512Y-117935987D01*
X65977683Y-117938979D01*
X66097842Y-117943700D01*
X66184132Y-117931189D01*
X66292286Y-117915508D01*
X66292291Y-117915507D01*
X66298007Y-117914678D01*
X66303479Y-117912820D01*
X66303481Y-117912820D01*
X66484067Y-117851519D01*
X66484069Y-117851518D01*
X66489531Y-117849664D01*
X66666001Y-117750837D01*
X66728433Y-117698913D01*
X66765435Y-117668138D01*
X74228758Y-117668138D01*
X74246035Y-117824633D01*
X74300143Y-117972490D01*
X74304380Y-117978796D01*
X74304382Y-117978799D01*
X74344709Y-118038811D01*
X74387958Y-118103172D01*
X74504410Y-118209135D01*
X74511085Y-118212759D01*
X74636099Y-118280637D01*
X74636101Y-118280638D01*
X74642776Y-118284262D01*
X74650125Y-118286190D01*
X74787719Y-118322287D01*
X74787721Y-118322287D01*
X74795069Y-118324215D01*
X74878380Y-118325524D01*
X74944898Y-118326569D01*
X74944901Y-118326569D01*
X74952495Y-118326688D01*
X75105968Y-118291538D01*
X75246625Y-118220795D01*
X75272869Y-118198381D01*
X75360574Y-118123474D01*
X75360576Y-118123471D01*
X75366348Y-118118542D01*
X75458224Y-117990683D01*
X75516950Y-117844598D01*
X75539134Y-117688723D01*
X75539278Y-117675000D01*
X75520363Y-117518694D01*
X75464710Y-117371412D01*
X75375531Y-117241657D01*
X75328971Y-117200174D01*
X75263648Y-117141972D01*
X75263645Y-117141970D01*
X75257976Y-117136919D01*
X75118831Y-117063245D01*
X75102122Y-117059048D01*
X74973498Y-117026740D01*
X74973496Y-117026740D01*
X74966128Y-117024889D01*
X74958530Y-117024849D01*
X74958528Y-117024849D01*
X74891319Y-117024497D01*
X74808684Y-117024065D01*
X74801305Y-117025837D01*
X74801301Y-117025837D01*
X74662967Y-117059048D01*
X74662963Y-117059049D01*
X74655588Y-117060820D01*
X74515679Y-117133032D01*
X74509957Y-117138024D01*
X74509955Y-117138025D01*
X74402759Y-117231538D01*
X74402756Y-117231541D01*
X74397034Y-117236533D01*
X74306501Y-117365348D01*
X74249309Y-117512039D01*
X74228758Y-117668138D01*
X66765435Y-117668138D01*
X66817073Y-117625191D01*
X66821505Y-117621505D01*
X66912920Y-117511591D01*
X66947146Y-117470439D01*
X66950837Y-117466001D01*
X67049664Y-117289531D01*
X67067655Y-117236533D01*
X67112820Y-117103481D01*
X67112820Y-117103479D01*
X67114678Y-117098007D01*
X67115507Y-117092291D01*
X67115508Y-117092286D01*
X67143167Y-116901516D01*
X67143700Y-116897842D01*
X67145215Y-116840000D01*
X67126708Y-116638591D01*
X67071807Y-116443926D01*
X66982351Y-116262527D01*
X66964079Y-116238057D01*
X66864788Y-116105091D01*
X66864787Y-116105090D01*
X66861335Y-116100467D01*
X66857099Y-116096551D01*
X66717053Y-115967094D01*
X66717051Y-115967092D01*
X66712812Y-115963174D01*
X66685374Y-115945862D01*
X66546637Y-115858325D01*
X66541757Y-115855246D01*
X66353898Y-115780298D01*
X66155526Y-115740839D01*
X66149752Y-115740763D01*
X66149748Y-115740763D01*
X66047257Y-115739422D01*
X65953286Y-115738192D01*
X65947589Y-115739171D01*
X65947588Y-115739171D01*
X65759646Y-115771465D01*
X65759645Y-115771465D01*
X65753949Y-115772444D01*
X65564193Y-115842449D01*
X65390371Y-115945862D01*
X65335238Y-115994212D01*
X65242650Y-116075409D01*
X65242647Y-116075412D01*
X65238305Y-116079220D01*
X65236563Y-116081429D01*
X65175995Y-116116590D01*
X65105071Y-116113379D01*
X65047142Y-116072334D01*
X65020599Y-116006486D01*
X65020000Y-115994212D01*
X65020000Y-115141480D01*
X65040002Y-115073359D01*
X65093658Y-115026866D01*
X65163932Y-115016762D01*
X65228512Y-115046256D01*
X65233912Y-115051216D01*
X65344466Y-115158913D01*
X65512637Y-115271282D01*
X65517940Y-115273560D01*
X65517943Y-115273562D01*
X65606291Y-115311519D01*
X65698470Y-115351122D01*
X65895740Y-115395760D01*
X65901509Y-115395987D01*
X65901512Y-115395987D01*
X65977683Y-115398979D01*
X66097842Y-115403700D01*
X66184132Y-115391189D01*
X66292286Y-115375508D01*
X66292291Y-115375507D01*
X66298007Y-115374678D01*
X66303479Y-115372820D01*
X66303481Y-115372820D01*
X66484067Y-115311519D01*
X66484069Y-115311518D01*
X66489531Y-115309664D01*
X66666001Y-115210837D01*
X66728433Y-115158913D01*
X66817073Y-115085191D01*
X66821505Y-115081505D01*
X66950837Y-114926001D01*
X67049664Y-114749531D01*
X67114678Y-114558007D01*
X67115507Y-114552291D01*
X67115508Y-114552286D01*
X67143167Y-114361516D01*
X67143700Y-114357842D01*
X67145215Y-114300000D01*
X67126708Y-114098591D01*
X67071807Y-113903926D01*
X66982351Y-113722527D01*
X66964079Y-113698057D01*
X66864788Y-113565091D01*
X66864787Y-113565090D01*
X66861335Y-113560467D01*
X66857099Y-113556551D01*
X66717053Y-113427094D01*
X66717051Y-113427092D01*
X66712812Y-113423174D01*
X66685374Y-113405862D01*
X66546637Y-113318325D01*
X66541757Y-113315246D01*
X66353898Y-113240298D01*
X66155526Y-113200839D01*
X66149752Y-113200763D01*
X66149748Y-113200763D01*
X66047257Y-113199422D01*
X65953286Y-113198192D01*
X65947589Y-113199171D01*
X65947588Y-113199171D01*
X65759646Y-113231465D01*
X65759645Y-113231465D01*
X65753949Y-113232444D01*
X65564193Y-113302449D01*
X65390371Y-113405862D01*
X65335238Y-113454212D01*
X65242650Y-113535409D01*
X65242647Y-113535412D01*
X65238305Y-113539220D01*
X65236563Y-113541429D01*
X65175995Y-113576590D01*
X65105071Y-113573379D01*
X65047142Y-113532334D01*
X65020599Y-113466486D01*
X65020000Y-113454212D01*
X65020000Y-111797034D01*
X65022421Y-111772453D01*
X65022477Y-111772171D01*
X65024898Y-111760000D01*
X65022477Y-111747830D01*
X65022477Y-111737192D01*
X65022956Y-111726211D01*
X65034535Y-111593860D01*
X65038349Y-111572230D01*
X65043495Y-111553027D01*
X65078660Y-111421787D01*
X65086172Y-111401148D01*
X65151997Y-111259987D01*
X65162979Y-111240967D01*
X65252312Y-111113385D01*
X65266430Y-111096560D01*
X65376560Y-110986430D01*
X65393385Y-110972312D01*
X65520967Y-110882979D01*
X65539987Y-110871997D01*
X65681148Y-110806172D01*
X65701787Y-110798660D01*
X65731227Y-110790772D01*
X65852234Y-110758348D01*
X65873857Y-110754536D01*
X65984013Y-110744898D01*
X66006211Y-110742956D01*
X66017192Y-110742477D01*
X66027830Y-110742477D01*
X66040000Y-110744898D01*
X66052171Y-110742477D01*
X66052453Y-110742421D01*
X66077034Y-110740000D01*
X67355403Y-110740000D01*
X67423524Y-110760002D01*
G37*
%TD.AperFunction*%
M02*
